<?xml version="1.0" encoding="utf-8"?>
<!-- Generator: Adobe Illustrator 24.0.1, SVG Export Plug-In . SVG Version: 6.00 Build 0)  -->
<svg version="1.1" xmlns="http://www.w3.org/2000/svg" xmlns:xlink="http://www.w3.org/1999/xlink" x="0px" y="0px"
	 viewBox="0 0 1248 800" style="enable-background:new 0 0 1248 800;" xml:space="preserve">
<style type="text/css">
	.st0{opacity:0.1;fill-rule:evenodd;clip-rule:evenodd;}
	.st1{opacity:0.2;fill-rule:evenodd;clip-rule:evenodd;}
	.st2{fill:#FFFFFF;}
	.st3{fill:#EF4848;}
	.st4{fill:#5DF45D;}
	.st5{fill:#4A8CED;}
	.st6{fill:url(#SVGID_1_);}
	.st7{fill:url(#SVGID_2_);}
	.st8{fill:none;stroke:#FFFFFF;stroke-width:4;stroke-miterlimit:10;}
	.st9{fill:none;stroke:#ED6666;stroke-width:4;stroke-miterlimit:10;}
	.st10{fill:none;stroke:#ED6666;stroke-width:4;stroke-miterlimit:10;stroke-dasharray:12,12;}
	.st11{fill:none;stroke:#ED6666;stroke-width:4;stroke-miterlimit:10;stroke-dasharray:11.7551,11.7551;}
	.st12{fill:none;stroke:#ED6666;stroke-width:4;stroke-miterlimit:10;stroke-dasharray:12.197,12.197;}
	.st13{fill:#ED6666;}
	.st14{fill:none;stroke:#68EA86;stroke-width:4;stroke-miterlimit:10;}
	.st15{fill:none;stroke:#68EA86;stroke-width:4;stroke-miterlimit:10;stroke-dasharray:11.3846,11.3846;}
	.st16{fill:none;stroke:#68EA86;stroke-width:4;stroke-miterlimit:10;stroke-dasharray:12,12;}
	.st17{fill:none;stroke:#68EA86;stroke-width:4;stroke-miterlimit:10;stroke-dasharray:12.1356,12.1356;}
	.st18{fill:none;stroke:#68EA86;stroke-width:4;stroke-miterlimit:10;stroke-dasharray:11.7972,11.7972;}
	.st19{fill:#68EA86;}
	.st20{fill:none;stroke:#697BE8;stroke-width:4;stroke-miterlimit:10;}
	.st21{fill:none;stroke:#697BE8;stroke-width:4;stroke-miterlimit:10;stroke-dasharray:12.8889,12.8889;}
	.st22{fill:none;stroke:#697BE8;stroke-width:4;stroke-miterlimit:10;stroke-dasharray:11.9259,11.9259;}
	.st23{fill:none;stroke:#697BE8;stroke-width:4;stroke-miterlimit:10;stroke-dasharray:11.8105,11.8105;}
	.st24{fill:#697BE8;}
</style>
<g id="Layer_2">
</g>
<g id="Layer_1" xmlns:serif="http://www.serif.com/">
	<g>
		<g>
			<rect x="64" y="64" class="st0" width="352" height="256"/>
			<rect x="64" y="115" class="st1" width="352" height="58"/>
			<rect x="64" y="243" class="st1" width="352" height="58"/>
		</g>
		<g>
			<path class="st2" d="M168.5,95.7V78.5h6.5c1.1,0,2,0.1,2.6,0.2c0.8,0.1,1.6,0.4,2.1,0.8s1,0.9,1.4,1.7s0.5,1.5,0.5,2.3
				c0,1.5-0.5,2.7-1.4,3.7s-2.6,1.5-5,1.5h-4.4v7H168.5z M170.8,86.7h4.4c1.5,0,2.5-0.3,3.1-0.8s0.9-1.3,0.9-2.3
				c0-0.7-0.2-1.3-0.5-1.8s-0.8-0.8-1.4-1c-0.4-0.1-1.1-0.2-2.1-0.2h-4.4V86.7z"/>
			<path class="st2" d="M183.4,89.4c0-2.3,0.6-4,1.9-5.1c1.1-0.9,2.4-1.4,3.9-1.4c1.7,0,3.1,0.6,4.2,1.7s1.6,2.7,1.6,4.6
				c0,1.6-0.2,2.9-0.7,3.8s-1.2,1.6-2.1,2.1s-1.9,0.8-3,0.8c-1.7,0-3.2-0.6-4.2-1.7S183.4,91.5,183.4,89.4z M185.6,89.4
				c0,1.6,0.3,2.8,1,3.6s1.6,1.2,2.6,1.2c1,0,1.9-0.4,2.6-1.2s1-2,1-3.6c0-1.5-0.3-2.7-1-3.5s-1.6-1.2-2.6-1.2
				c-1.1,0-1.9,0.4-2.6,1.2S185.6,87.9,185.6,89.4z"/>
			<path class="st2" d="M196.7,92l2.1-0.3c0.1,0.8,0.4,1.5,1,1.9s1.3,0.7,2.2,0.7c1,0,1.7-0.2,2.2-0.6s0.7-0.9,0.7-1.4
				c0-0.5-0.2-0.9-0.6-1.1c-0.3-0.2-1-0.4-2.2-0.7c-1.5-0.4-2.6-0.7-3.2-1s-1.1-0.7-1.4-1.2s-0.5-1.1-0.5-1.7c0-0.6,0.1-1.1,0.4-1.5
				s0.6-0.9,1-1.2c0.3-0.2,0.8-0.4,1.3-0.6s1.2-0.3,1.8-0.3c1,0,1.8,0.1,2.6,0.4s1.3,0.7,1.6,1.1s0.6,1.1,0.7,1.9l-2.1,0.3
				c-0.1-0.6-0.4-1.1-0.8-1.5s-1.1-0.5-1.9-0.5c-1,0-1.7,0.2-2.1,0.5s-0.6,0.7-0.6,1.1c0,0.3,0.1,0.5,0.3,0.7
				c0.2,0.2,0.4,0.4,0.8,0.6c0.2,0.1,0.8,0.3,1.9,0.5c1.5,0.4,2.5,0.7,3.1,1s1.1,0.6,1.4,1.1s0.5,1.1,0.5,1.8c0,0.7-0.2,1.4-0.6,2
				s-1,1.1-1.8,1.4s-1.6,0.5-2.6,0.5c-1.6,0-2.8-0.3-3.7-1S197,93.3,196.7,92z"/>
			<path class="st2" d="M209.6,80.9v-2.4h2.1v2.4H209.6z M209.6,95.7V83.2h2.1v12.4H209.6z"/>
			<path class="st2" d="M219.5,93.8l0.3,1.9c-0.6,0.1-1.1,0.2-1.6,0.2c-0.8,0-1.4-0.1-1.8-0.4s-0.7-0.6-0.9-1s-0.3-1.2-0.3-2.5v-7.2
				h-1.5v-1.6h1.5v-3.1l2.1-1.3v4.3h2.1v1.6h-2.1v7.3c0,0.6,0,1,0.1,1.2s0.2,0.3,0.4,0.4s0.4,0.2,0.7,0.2
				C218.8,93.9,219.1,93.8,219.5,93.8z"/>
			<path class="st2" d="M221.6,80.9v-2.4h2.1v2.4H221.6z M221.6,95.7V83.2h2.1v12.4H221.6z"/>
			<path class="st2" d="M226.1,89.4c0-2.3,0.6-4,1.9-5.1c1.1-0.9,2.4-1.4,3.9-1.4c1.7,0,3.1,0.6,4.2,1.7s1.6,2.7,1.6,4.6
				c0,1.6-0.2,2.9-0.7,3.8s-1.2,1.6-2.1,2.1s-1.9,0.8-3,0.8c-1.7,0-3.2-0.6-4.2-1.7S226.1,91.5,226.1,89.4z M228.3,89.4
				c0,1.6,0.3,2.8,1,3.6s1.6,1.2,2.6,1.2c1,0,1.9-0.4,2.6-1.2s1-2,1-3.6c0-1.5-0.3-2.7-1-3.5s-1.6-1.2-2.6-1.2
				c-1.1,0-1.9,0.4-2.6,1.2S228.3,87.9,228.3,89.4z"/>
			<path class="st2" d="M240.3,95.7V83.2h1.9V85c0.9-1.4,2.2-2.1,4-2.1c0.8,0,1.4,0.1,2.1,0.4s1.1,0.6,1.4,1.1s0.5,1,0.7,1.6
				c0.1,0.4,0.1,1.1,0.1,2.1v7.7h-2.1v-7.6c0-0.9-0.1-1.5-0.2-1.9s-0.5-0.8-0.9-1s-0.9-0.4-1.5-0.4c-0.9,0-1.7,0.3-2.3,0.9
				s-1,1.7-1,3.2v6.8H240.3z"/>
			<path class="st2" d="M265.4,95.7l-6.7-17.2h2.5l4.5,12.5c0.4,1,0.7,1.9,0.9,2.8c0.3-0.9,0.6-1.9,0.9-2.8l4.6-12.5h2.3l-6.7,17.2
				H265.4z"/>
			<path class="st2" d="M276.4,95.7V78.5h6.4c1.3,0,2.4,0.2,3.2,0.5s1.4,0.9,1.9,1.6s0.7,1.5,0.7,2.3c0,0.7-0.2,1.4-0.6,2.1
				s-1,1.2-1.8,1.6c1,0.3,1.8,0.8,2.4,1.6s0.8,1.6,0.8,2.6c0,0.8-0.2,1.6-0.5,2.2s-0.8,1.2-1.3,1.6s-1.1,0.7-1.9,0.8
				s-1.7,0.3-2.8,0.3H276.4z M278.7,85.7h3.7c1,0,1.7-0.1,2.2-0.2c0.6-0.2,1-0.5,1.3-0.9s0.4-0.9,0.4-1.5c0-0.6-0.1-1.1-0.4-1.5
				s-0.7-0.7-1.2-0.9s-1.4-0.2-2.6-0.2h-3.4V85.7z M278.7,93.6h4.3c0.7,0,1.3,0,1.5-0.1c0.5-0.1,1-0.3,1.3-0.5s0.6-0.5,0.9-1
				s0.3-0.9,0.3-1.4c0-0.6-0.2-1.2-0.5-1.7s-0.8-0.8-1.4-1s-1.4-0.3-2.5-0.3h-4V93.6z"/>
			<path class="st2" d="M291.9,87.3c0-2.9,0.8-5.1,2.3-6.7s3.5-2.4,5.9-2.4c1.6,0,3,0.4,4.3,1.1s2.2,1.8,2.9,3.2s1,2.9,1,4.6
				c0,1.7-0.4,3.3-1.1,4.7s-1.7,2.4-3,3.1s-2.7,1.1-4.2,1.1c-1.6,0-3.1-0.4-4.3-1.2s-2.2-1.8-2.9-3.2S291.9,88.8,291.9,87.3z
				 M294.2,87.3c0,2.1,0.6,3.7,1.7,4.9s2.5,1.8,4.2,1.8c1.7,0,3.1-0.6,4.2-1.8s1.7-2.9,1.7-5.1c0-1.4-0.2-2.6-0.7-3.7
				s-1.2-1.9-2.1-2.4s-1.9-0.9-3.1-0.9c-1.6,0-3,0.6-4.2,1.7S294.2,84.7,294.2,87.3z"/>
		</g>
		<g>
			<path class="st2" d="M103.4,154.2h-2.2v-14.3l-4.5,1.7v-2l6.5-2.5h0.2V154.2z"/>
			<path class="st2" d="M114.6,152.8c0-0.2,0-0.5,0.1-0.7s0.2-0.4,0.3-0.5s0.3-0.3,0.5-0.4s0.5-0.1,0.7-0.1s0.5,0,0.7,0.1
				s0.4,0.2,0.5,0.4s0.3,0.3,0.3,0.5s0.1,0.4,0.1,0.7c0,0.2,0,0.4-0.1,0.6s-0.2,0.4-0.3,0.5s-0.3,0.3-0.5,0.3s-0.5,0.1-0.7,0.1
				s-0.5,0-0.7-0.1s-0.4-0.2-0.5-0.3s-0.2-0.3-0.3-0.5S114.6,153,114.6,152.8z"/>
			<path class="st2" d="M135.9,147.7c0,1.1-0.1,2-0.4,2.9s-0.6,1.5-1.1,2.1s-1,1-1.7,1.3s-1.5,0.4-2.3,0.4c-0.9,0-1.6-0.1-2.3-0.4
				s-1.3-0.7-1.7-1.3s-0.8-1.3-1.1-2.1s-0.4-1.8-0.4-2.9v-4c0-1.1,0.1-2,0.4-2.9s0.6-1.5,1.1-2.1s1.1-1,1.7-1.3s1.5-0.5,2.3-0.5
				c0.9,0,1.7,0.2,2.3,0.5s1.3,0.7,1.7,1.3s0.8,1.3,1.1,2.1s0.4,1.8,0.4,2.9V147.7z M127.1,147.3l6.6-5.1c-0.1-1.1-0.5-2-1-2.6
				s-1.3-0.9-2.3-0.9c-1.1,0-2,0.4-2.5,1.2s-0.8,1.9-0.8,3.4V147.3z M133.7,144.2l-6.6,5.1c0.1,1.1,0.5,1.9,1,2.5s1.3,0.9,2.3,0.9
				c1.1,0,2-0.4,2.5-1.2s0.8-1.9,0.8-3.4V144.2z"/>
			<path class="st2" d="M206.7,147.6h-9v-1.8h9V147.6z"/>
			<path class="st2" d="M218.7,154.2h-2.2v-14.3l-4.5,1.7v-2l6.5-2.5h0.2V154.2z"/>
			<path class="st2" d="M229.8,152.8c0-0.2,0-0.5,0.1-0.7s0.2-0.4,0.3-0.5s0.3-0.3,0.5-0.4s0.5-0.1,0.7-0.1s0.5,0,0.7,0.1
				s0.4,0.2,0.5,0.4s0.3,0.3,0.3,0.5s0.1,0.4,0.1,0.7c0,0.2,0,0.4-0.1,0.6s-0.2,0.4-0.3,0.5s-0.3,0.3-0.5,0.3s-0.5,0.1-0.7,0.1
				s-0.5,0-0.7-0.1s-0.4-0.2-0.5-0.3s-0.2-0.3-0.3-0.5S229.8,153,229.8,152.8z"/>
			<path class="st2" d="M251.2,147.7c0,1.1-0.1,2-0.4,2.9s-0.6,1.5-1.1,2.1s-1,1-1.7,1.3s-1.5,0.4-2.3,0.4c-0.9,0-1.6-0.1-2.3-0.4
				s-1.3-0.7-1.7-1.3s-0.8-1.3-1.1-2.1s-0.4-1.8-0.4-2.9v-4c0-1.1,0.1-2,0.4-2.9s0.6-1.5,1.1-2.1s1.1-1,1.7-1.3s1.5-0.5,2.3-0.5
				c0.9,0,1.7,0.2,2.3,0.5s1.3,0.7,1.7,1.3s0.8,1.3,1.1,2.1s0.4,1.8,0.4,2.9V147.7z M242.3,147.3l6.6-5.1c-0.1-1.1-0.5-2-1-2.6
				s-1.3-0.9-2.3-0.9c-1.1,0-2,0.4-2.5,1.2s-0.8,1.9-0.8,3.4V147.3z M249,144.2l-6.6,5.1c0.1,1.1,0.5,1.9,1,2.5s1.3,0.9,2.3,0.9
				c1.1,0,2-0.4,2.5-1.2s0.8-1.9,0.8-3.4V144.2z"/>
			<path class="st2" d="M337.6,147.7c0,1.1-0.1,2-0.4,2.9s-0.6,1.5-1.1,2.1s-1,1-1.7,1.3s-1.5,0.4-2.3,0.4c-0.9,0-1.6-0.1-2.3-0.4
				s-1.3-0.7-1.7-1.3s-0.8-1.3-1.1-2.1s-0.4-1.8-0.4-2.9v-4c0-1.1,0.1-2,0.4-2.9s0.6-1.5,1.1-2.1s1.1-1,1.7-1.3s1.5-0.5,2.3-0.5
				c0.9,0,1.7,0.2,2.3,0.5s1.3,0.7,1.7,1.3s0.8,1.3,1.1,2.1s0.4,1.8,0.4,2.9V147.7z M328.7,147.3l6.6-5.1c-0.1-1.1-0.5-2-1-2.6
				s-1.3-0.9-2.3-0.9c-1.1,0-2,0.4-2.5,1.2s-0.8,1.9-0.8,3.4V147.3z M335.4,144.2l-6.6,5.1c0.1,1.1,0.5,1.9,1,2.5s1.3,0.9,2.3,0.9
				c1.1,0,2-0.4,2.5-1.2s0.8-1.9,0.8-3.4V144.2z"/>
			<path class="st2" d="M345,152.8c0-0.2,0-0.5,0.1-0.7s0.2-0.4,0.3-0.5s0.3-0.3,0.5-0.4s0.5-0.1,0.7-0.1s0.5,0,0.7,0.1
				s0.4,0.2,0.5,0.4s0.3,0.3,0.3,0.5s0.1,0.4,0.1,0.7c0,0.2,0,0.4-0.1,0.6s-0.2,0.4-0.3,0.5s-0.3,0.3-0.5,0.3s-0.5,0.1-0.7,0.1
				s-0.5,0-0.7-0.1s-0.4-0.2-0.5-0.3s-0.2-0.3-0.3-0.5S345,153,345,152.8z"/>
			<path class="st2" d="M366.4,147.7c0,1.1-0.1,2-0.4,2.9s-0.6,1.5-1.1,2.1s-1,1-1.7,1.3s-1.5,0.4-2.3,0.4c-0.9,0-1.6-0.1-2.3-0.4
				s-1.3-0.7-1.7-1.3s-0.8-1.3-1.1-2.1s-0.4-1.8-0.4-2.9v-4c0-1.1,0.1-2,0.4-2.9s0.6-1.5,1.1-2.1s1.1-1,1.7-1.3s1.5-0.5,2.3-0.5
				c0.9,0,1.7,0.2,2.3,0.5s1.3,0.7,1.7,1.3s0.8,1.3,1.1,2.1s0.4,1.8,0.4,2.9V147.7z M357.5,147.3l6.6-5.1c-0.1-1.1-0.5-2-1-2.6
				s-1.3-0.9-2.3-0.9c-1.1,0-2,0.4-2.5,1.2s-0.8,1.9-0.8,3.4V147.3z M364.2,144.2l-6.6,5.1c0.1,1.1,0.5,1.9,1,2.5s1.3,0.9,2.3,0.9
				c1.1,0,2-0.4,2.5-1.2s0.8-1.9,0.8-3.4V144.2z"/>
			<path class="st2" d="M91.5,208.4h-9v-1.8h9V208.4z"/>
			<path class="st2" d="M103.4,215h-2.2v-14.3l-4.5,1.7v-2l6.5-2.5h0.2V215z"/>
			<path class="st2" d="M114.6,213.6c0-0.2,0-0.5,0.1-0.7s0.2-0.4,0.3-0.5s0.3-0.3,0.5-0.4s0.5-0.1,0.7-0.1s0.5,0,0.7,0.1
				s0.4,0.2,0.5,0.4s0.3,0.3,0.3,0.5s0.1,0.4,0.1,0.7c0,0.2,0,0.4-0.1,0.6s-0.2,0.4-0.3,0.5s-0.3,0.3-0.5,0.3s-0.5,0.1-0.7,0.1
				s-0.5,0-0.7-0.1s-0.4-0.2-0.5-0.3s-0.2-0.3-0.3-0.5S114.6,213.8,114.6,213.6z"/>
			<path class="st2" d="M135.9,208.5c0,1.1-0.1,2-0.4,2.9s-0.6,1.5-1.1,2.1s-1,1-1.7,1.3s-1.5,0.4-2.3,0.4c-0.9,0-1.6-0.1-2.3-0.4
				s-1.3-0.7-1.7-1.3s-0.8-1.3-1.1-2.1s-0.4-1.8-0.4-2.9v-4c0-1.1,0.1-2,0.4-2.9s0.6-1.5,1.1-2.1s1.1-1,1.7-1.3s1.5-0.5,2.3-0.5
				c0.9,0,1.7,0.2,2.3,0.5s1.3,0.7,1.7,1.3s0.8,1.3,1.1,2.1s0.4,1.8,0.4,2.9V208.5z M127.1,208.1l6.6-5.1c-0.1-1.1-0.5-2-1-2.6
				s-1.3-0.9-2.3-0.9c-1.1,0-2,0.4-2.5,1.2s-0.8,1.9-0.8,3.4V208.1z M133.8,205l-6.6,5.1c0.1,1.1,0.5,1.9,1,2.5s1.3,0.9,2.3,0.9
				c1.1,0,2-0.4,2.5-1.2s0.8-1.9,0.8-3.4V205z"/>
			<path class="st2" d="M206.7,208.4h-9v-1.8h9V208.4z"/>
			<path class="st2" d="M218.7,215h-2.2v-14.3l-4.5,1.7v-2l6.5-2.5h0.2V215z"/>
			<path class="st2" d="M229.8,213.6c0-0.2,0-0.5,0.1-0.7s0.2-0.4,0.3-0.5s0.3-0.3,0.5-0.4s0.5-0.1,0.7-0.1s0.5,0,0.7,0.1
				s0.4,0.2,0.5,0.4s0.3,0.3,0.3,0.5s0.1,0.4,0.1,0.7c0,0.2,0,0.4-0.1,0.6s-0.2,0.4-0.3,0.5s-0.3,0.3-0.5,0.3s-0.5,0.1-0.7,0.1
				s-0.5,0-0.7-0.1s-0.4-0.2-0.5-0.3s-0.2-0.3-0.3-0.5S229.8,213.8,229.8,213.6z"/>
			<path class="st2" d="M251.2,208.5c0,1.1-0.1,2-0.4,2.9s-0.6,1.5-1.1,2.1s-1,1-1.7,1.3s-1.5,0.4-2.3,0.4c-0.9,0-1.6-0.1-2.3-0.4
				s-1.3-0.7-1.7-1.3s-0.8-1.3-1.1-2.1s-0.4-1.8-0.4-2.9v-4c0-1.1,0.1-2,0.4-2.9s0.6-1.5,1.1-2.1s1.1-1,1.7-1.3s1.5-0.5,2.3-0.5
				c0.9,0,1.7,0.2,2.3,0.5s1.3,0.7,1.7,1.3s0.8,1.3,1.1,2.1s0.4,1.8,0.4,2.9V208.5z M242.3,208.1l6.6-5.1c-0.1-1.1-0.5-2-1-2.6
				s-1.3-0.9-2.3-0.9c-1.1,0-2,0.4-2.5,1.2s-0.8,1.9-0.8,3.4V208.1z M249,205l-6.6,5.1c0.1,1.1,0.5,1.9,1,2.5s1.3,0.9,2.3,0.9
				c1.1,0,2-0.4,2.5-1.2s0.8-1.9,0.8-3.4V205z"/>
			<path class="st2" d="M337.6,208.5c0,1.1-0.1,2-0.4,2.9s-0.6,1.5-1.1,2.1s-1,1-1.7,1.3s-1.5,0.4-2.3,0.4c-0.9,0-1.6-0.1-2.3-0.4
				s-1.3-0.7-1.7-1.3s-0.8-1.3-1.1-2.1s-0.4-1.8-0.4-2.9v-4c0-1.1,0.1-2,0.4-2.9s0.6-1.5,1.1-2.1s1.1-1,1.7-1.3s1.5-0.5,2.3-0.5
				c0.9,0,1.7,0.2,2.3,0.5s1.3,0.7,1.7,1.3s0.8,1.3,1.1,2.1s0.4,1.8,0.4,2.9V208.5z M328.7,208.1l6.6-5.1c-0.1-1.1-0.5-2-1-2.6
				s-1.3-0.9-2.3-0.9c-1.1,0-2,0.4-2.5,1.2s-0.8,1.9-0.8,3.4V208.1z M335.4,205l-6.6,5.1c0.1,1.1,0.5,1.9,1,2.5s1.3,0.9,2.3,0.9
				c1.1,0,2-0.4,2.5-1.2s0.8-1.9,0.8-3.4V205z"/>
			<path class="st2" d="M345,213.6c0-0.2,0-0.5,0.1-0.7s0.2-0.4,0.3-0.5s0.3-0.3,0.5-0.4s0.5-0.1,0.7-0.1s0.5,0,0.7,0.1
				s0.4,0.2,0.5,0.4s0.3,0.3,0.3,0.5s0.1,0.4,0.1,0.7c0,0.2,0,0.4-0.1,0.6s-0.2,0.4-0.3,0.5s-0.3,0.3-0.5,0.3s-0.5,0.1-0.7,0.1
				s-0.5,0-0.7-0.1s-0.4-0.2-0.5-0.3s-0.2-0.3-0.3-0.5S345,213.8,345,213.6z"/>
			<path class="st2" d="M366.4,208.5c0,1.1-0.1,2-0.4,2.9s-0.6,1.5-1.1,2.1s-1,1-1.7,1.3s-1.5,0.4-2.3,0.4c-0.9,0-1.6-0.1-2.3-0.4
				s-1.3-0.7-1.7-1.3s-0.8-1.3-1.1-2.1s-0.4-1.8-0.4-2.9v-4c0-1.1,0.1-2,0.4-2.9s0.6-1.5,1.1-2.1s1.1-1,1.7-1.3s1.5-0.5,2.3-0.5
				c0.9,0,1.7,0.2,2.3,0.5s1.3,0.7,1.7,1.3s0.8,1.3,1.1,2.1s0.4,1.8,0.4,2.9V208.5z M357.5,208.1l6.6-5.1c-0.1-1.1-0.5-2-1-2.6
				s-1.3-0.9-2.3-0.9c-1.1,0-2,0.4-2.5,1.2s-0.8,1.9-0.8,3.4V208.1z M364.2,205l-6.6,5.1c0.1,1.1,0.5,1.9,1,2.5s1.3,0.9,2.3,0.9
				c1.1,0,2-0.4,2.5-1.2s0.8-1.9,0.8-3.4V205z"/>
			<path class="st2" d="M107.1,269.3c0,1.1-0.1,2-0.4,2.9s-0.6,1.5-1.1,2.1s-1,1-1.7,1.3s-1.5,0.4-2.3,0.4c-0.9,0-1.6-0.1-2.3-0.4
				s-1.3-0.7-1.7-1.3s-0.8-1.3-1.1-2.1s-0.4-1.8-0.4-2.9v-4c0-1.1,0.1-2,0.4-2.9s0.6-1.5,1.1-2.1c0.5-0.6,1.1-1,1.7-1.3
				s1.5-0.5,2.3-0.5c0.9,0,1.7,0.2,2.3,0.5s1.3,0.7,1.7,1.3c0.5,0.6,0.8,1.3,1.1,2.1s0.4,1.8,0.4,2.9V269.3z M98.3,268.9l6.6-5.1
				c-0.1-1.1-0.5-2-1-2.6s-1.3-0.9-2.3-0.9c-1.1,0-2,0.4-2.5,1.2s-0.8,1.9-0.8,3.4V268.9z M104.9,265.8l-6.6,5.1
				c0.1,1.1,0.5,1.9,1,2.5s1.3,0.9,2.3,0.9c1.1,0,2-0.4,2.5-1.2s0.8-1.9,0.8-3.4V265.8z"/>
			<path class="st2" d="M114.6,274.4c0-0.2,0-0.5,0.1-0.7s0.2-0.4,0.3-0.5s0.3-0.3,0.5-0.4s0.5-0.1,0.7-0.1s0.5,0,0.7,0.1
				s0.4,0.2,0.5,0.4s0.3,0.3,0.3,0.5s0.1,0.4,0.1,0.7c0,0.2,0,0.4-0.1,0.6s-0.2,0.4-0.3,0.5s-0.3,0.3-0.5,0.3s-0.5,0.1-0.7,0.1
				s-0.5,0-0.7-0.1s-0.4-0.2-0.5-0.3s-0.2-0.3-0.3-0.5S114.6,274.6,114.6,274.4z"/>
			<path class="st2" d="M135.9,269.3c0,1.1-0.1,2-0.4,2.9s-0.6,1.5-1.1,2.1s-1,1-1.7,1.3s-1.5,0.4-2.3,0.4c-0.9,0-1.6-0.1-2.3-0.4
				s-1.3-0.7-1.7-1.3s-0.8-1.3-1.1-2.1s-0.4-1.8-0.4-2.9v-4c0-1.1,0.1-2,0.4-2.9s0.6-1.5,1.1-2.1c0.5-0.6,1.1-1,1.7-1.3
				s1.5-0.5,2.3-0.5c0.9,0,1.7,0.2,2.3,0.5s1.3,0.7,1.7,1.3c0.5,0.6,0.8,1.3,1.1,2.1s0.4,1.8,0.4,2.9V269.3z M127.1,268.9l6.6-5.1
				c-0.1-1.1-0.5-2-1-2.6s-1.3-0.9-2.3-0.9c-1.1,0-2,0.4-2.5,1.2s-0.8,1.9-0.8,3.4V268.9z M133.8,265.8l-6.6,5.1
				c0.1,1.1,0.5,1.9,1,2.5s1.3,0.9,2.3,0.9c1.1,0,2-0.4,2.5-1.2s0.8-1.9,0.8-3.4V265.8z"/>
			<path class="st2" d="M218.7,275.8h-2.2v-14.3l-4.5,1.7v-2l6.5-2.5h0.2V275.8z"/>
			<path class="st2" d="M229.8,274.4c0-0.2,0-0.5,0.1-0.7s0.2-0.4,0.3-0.5s0.3-0.3,0.5-0.4s0.5-0.1,0.7-0.1s0.5,0,0.7,0.1
				s0.4,0.2,0.5,0.4s0.3,0.3,0.3,0.5s0.1,0.4,0.1,0.7c0,0.2,0,0.4-0.1,0.6s-0.2,0.4-0.3,0.5s-0.3,0.3-0.5,0.3s-0.5,0.1-0.7,0.1
				s-0.5,0-0.7-0.1s-0.4-0.2-0.5-0.3s-0.2-0.3-0.3-0.5S229.8,274.6,229.8,274.4z"/>
			<path class="st2" d="M251.2,269.3c0,1.1-0.1,2-0.4,2.9s-0.6,1.5-1.1,2.1s-1,1-1.7,1.3s-1.5,0.4-2.3,0.4c-0.9,0-1.6-0.1-2.3-0.4
				s-1.3-0.7-1.7-1.3s-0.8-1.3-1.1-2.1s-0.4-1.8-0.4-2.9v-4c0-1.1,0.1-2,0.4-2.9s0.6-1.5,1.1-2.1c0.5-0.6,1.1-1,1.7-1.3
				s1.5-0.5,2.3-0.5c0.9,0,1.7,0.2,2.3,0.5s1.3,0.7,1.7,1.3c0.5,0.6,0.8,1.3,1.1,2.1s0.4,1.8,0.4,2.9V269.3z M242.3,268.9l6.6-5.1
				c-0.1-1.1-0.5-2-1-2.6s-1.3-0.9-2.3-0.9c-1.1,0-2,0.4-2.5,1.2s-0.8,1.9-0.8,3.4V268.9z M249,265.8l-6.6,5.1
				c0.1,1.1,0.5,1.9,1,2.5s1.3,0.9,2.3,0.9c1.1,0,2-0.4,2.5-1.2s0.8-1.9,0.8-3.4V265.8z"/>
			<path class="st2" d="M337.6,269.3c0,1.1-0.1,2-0.4,2.9s-0.6,1.5-1.1,2.1s-1,1-1.7,1.3s-1.5,0.4-2.3,0.4c-0.9,0-1.6-0.1-2.3-0.4
				s-1.3-0.7-1.7-1.3s-0.8-1.3-1.1-2.1s-0.4-1.8-0.4-2.9v-4c0-1.1,0.1-2,0.4-2.9s0.6-1.5,1.1-2.1c0.5-0.6,1.1-1,1.7-1.3
				s1.5-0.5,2.3-0.5c0.9,0,1.7,0.2,2.3,0.5s1.3,0.7,1.7,1.3c0.5,0.6,0.8,1.3,1.1,2.1s0.4,1.8,0.4,2.9V269.3z M328.7,268.9l6.6-5.1
				c-0.1-1.1-0.5-2-1-2.6s-1.3-0.9-2.3-0.9c-1.1,0-2,0.4-2.5,1.2s-0.8,1.9-0.8,3.4V268.9z M335.4,265.8l-6.6,5.1
				c0.1,1.1,0.5,1.9,1,2.5s1.3,0.9,2.3,0.9c1.1,0,2-0.4,2.5-1.2s0.8-1.9,0.8-3.4V265.8z"/>
			<path class="st2" d="M345,274.4c0-0.2,0-0.5,0.1-0.7s0.2-0.4,0.3-0.5s0.3-0.3,0.5-0.4s0.5-0.1,0.7-0.1s0.5,0,0.7,0.1
				s0.4,0.2,0.5,0.4s0.3,0.3,0.3,0.5s0.1,0.4,0.1,0.7c0,0.2,0,0.4-0.1,0.6s-0.2,0.4-0.3,0.5s-0.3,0.3-0.5,0.3s-0.5,0.1-0.7,0.1
				s-0.5,0-0.7-0.1s-0.4-0.2-0.5-0.3s-0.2-0.3-0.3-0.5S345,274.6,345,274.4z"/>
			<path class="st2" d="M366.4,269.3c0,1.1-0.1,2-0.4,2.9s-0.6,1.5-1.1,2.1s-1,1-1.7,1.3s-1.5,0.4-2.3,0.4c-0.9,0-1.6-0.1-2.3-0.4
				s-1.3-0.7-1.7-1.3s-0.8-1.3-1.1-2.1s-0.4-1.8-0.4-2.9v-4c0-1.1,0.1-2,0.4-2.9s0.6-1.5,1.1-2.1c0.5-0.6,1.1-1,1.7-1.3
				s1.5-0.5,2.3-0.5c0.9,0,1.7,0.2,2.3,0.5s1.3,0.7,1.7,1.3c0.5,0.6,0.8,1.3,1.1,2.1s0.4,1.8,0.4,2.9V269.3z M357.5,268.9l6.6-5.1
				c-0.1-1.1-0.5-2-1-2.6s-1.3-0.9-2.3-0.9c-1.1,0-2,0.4-2.5,1.2s-0.8,1.9-0.8,3.4V268.9z M364.2,265.8l-6.6,5.1
				c0.1,1.1,0.5,1.9,1,2.5s1.3,0.9,2.3,0.9c1.1,0,2-0.4,2.5-1.2s0.8-1.9,0.8-3.4V265.8z"/>
		</g>
	</g>
	<g>
		<g>
			<rect x="448" y="64" class="st0" width="352" height="256"/>
			<rect x="448" y="115" class="st1" width="352" height="58"/>
			<rect x="448" y="243" class="st1" width="352" height="58"/>
		</g>
		<g>
			<path class="st2" d="M586.8,90.3l2.3,0.6c-0.5,1.9-1.3,3.3-2.6,4.3s-2.8,1.5-4.5,1.5c-1.9,0-3.4-0.4-4.5-1.1s-2-1.8-2.6-3.3
				s-0.9-3-0.9-4.6c0-1.8,0.3-3.3,1-4.7s1.7-2.3,2.9-3s2.7-1,4.2-1c1.7,0,3.2,0.4,4.3,1.3s2,2.1,2.4,3.7l-2.2,0.5
				c-0.4-1.3-1-2.2-1.7-2.7s-1.7-0.9-2.9-0.9c-1.3,0-2.4,0.3-3.3,0.9s-1.5,1.5-1.9,2.5s-0.5,2.2-0.5,3.3c0,1.5,0.2,2.7,0.6,3.8
				s1.1,1.9,2,2.4s1.9,0.8,2.9,0.8c1.3,0,2.4-0.4,3.2-1.1S586.4,91.8,586.8,90.3z"/>
			<path class="st2" d="M590.8,90.1c0-2.3,0.6-4,1.9-5.1c1.1-0.9,2.4-1.4,3.9-1.4c1.7,0,3.1,0.6,4.2,1.7s1.6,2.7,1.6,4.6
				c0,1.6-0.2,2.9-0.7,3.8s-1.2,1.6-2.1,2.1s-1.9,0.8-3,0.8c-1.7,0-3.2-0.6-4.2-1.7S590.8,92.2,590.8,90.1z M592.9,90.1
				c0,1.6,0.3,2.8,1,3.6s1.6,1.2,2.6,1.2c1,0,1.9-0.4,2.6-1.2s1-2,1-3.6c0-1.5-0.3-2.7-1-3.5s-1.6-1.2-2.6-1.2
				c-1.1,0-1.9,0.4-2.6,1.2S592.9,88.5,592.9,90.1z"/>
			<path class="st2" d="M604.9,96.3V79.2h2.1v17.2H604.9z"/>
			<path class="st2" d="M609.5,90.1c0-2.3,0.6-4,1.9-5.1c1.1-0.9,2.4-1.4,3.9-1.4c1.7,0,3.1,0.6,4.2,1.7s1.6,2.7,1.6,4.6
				c0,1.6-0.2,2.9-0.7,3.8s-1.2,1.6-2.1,2.1s-1.9,0.8-3,0.8c-1.7,0-3.2-0.6-4.2-1.7S609.5,92.2,609.5,90.1z M611.6,90.1
				c0,1.6,0.3,2.8,1,3.6s1.6,1.2,2.6,1.2c1,0,1.9-0.4,2.6-1.2s1-2,1-3.6c0-1.5-0.3-2.7-1-3.5s-1.6-1.2-2.6-1.2
				c-1.1,0-1.9,0.4-2.6,1.2S611.6,88.5,611.6,90.1z"/>
			<path class="st2" d="M623.6,96.3V83.9h1.9v1.9c0.5-0.9,0.9-1.5,1.3-1.7s0.9-0.4,1.4-0.4c0.7,0,1.4,0.2,2.2,0.7l-0.7,2
				c-0.5-0.3-1-0.5-1.5-0.5c-0.5,0-0.9,0.1-1.2,0.4s-0.6,0.7-0.8,1.2c-0.2,0.8-0.4,1.6-0.4,2.5v6.5H623.6z"/>
			<path class="st2" d="M643.4,96.3l-6.7-17.2h2.5l4.5,12.5c0.4,1,0.7,1.9,0.9,2.8c0.3-0.9,0.6-1.9,0.9-2.8l4.6-12.5h2.3l-6.7,17.2
				H643.4z"/>
			<path class="st2" d="M654.4,96.3V79.2h6.4c1.3,0,2.4,0.2,3.2,0.5s1.4,0.9,1.9,1.6s0.7,1.5,0.7,2.3c0,0.7-0.2,1.4-0.6,2.1
				s-1,1.2-1.8,1.6c1,0.3,1.8,0.8,2.4,1.6s0.8,1.6,0.8,2.6c0,0.8-0.2,1.6-0.5,2.2s-0.8,1.2-1.3,1.6s-1.1,0.7-1.9,0.8
				s-1.7,0.3-2.8,0.3H654.4z M656.7,86.4h3.7c1,0,1.7-0.1,2.2-0.2c0.6-0.2,1-0.5,1.3-0.9s0.4-0.9,0.4-1.5c0-0.6-0.1-1.1-0.4-1.5
				s-0.7-0.7-1.2-0.9s-1.4-0.2-2.6-0.2h-3.4V86.4z M656.7,94.3h4.3c0.7,0,1.3,0,1.5-0.1c0.5-0.1,1-0.3,1.3-0.5s0.6-0.5,0.9-1
				s0.3-0.9,0.3-1.4c0-0.6-0.2-1.2-0.5-1.7s-0.8-0.8-1.4-1s-1.4-0.3-2.5-0.3h-4V94.3z"/>
			<path class="st2" d="M669.8,88c0-2.9,0.8-5.1,2.3-6.7s3.5-2.4,5.9-2.4c1.6,0,3,0.4,4.3,1.1s2.2,1.8,2.9,3.2s1,2.9,1,4.6
				c0,1.7-0.4,3.3-1.1,4.7s-1.7,2.4-3,3.1s-2.7,1.1-4.2,1.1c-1.6,0-3.1-0.4-4.3-1.2s-2.2-1.8-2.9-3.2S669.8,89.5,669.8,88z
				 M672.2,88c0,2.1,0.6,3.7,1.7,4.9s2.5,1.8,4.2,1.8c1.7,0,3.1-0.6,4.2-1.8s1.7-2.9,1.7-5.1c0-1.4-0.2-2.6-0.7-3.7
				s-1.2-1.9-2.1-2.4s-1.9-0.9-3.1-0.9c-1.6,0-3,0.6-4.2,1.7S672.2,85.4,672.2,88z"/>
		</g>
		<g>
			<path class="st3" d="M501.4,154.2h-2.2v-14.3l-4.5,1.7v-2l6.5-2.5h0.2V154.2z"/>
			<path class="st3" d="M512.6,152.8c0-0.2,0-0.5,0.1-0.7s0.2-0.4,0.3-0.5s0.3-0.3,0.5-0.4s0.5-0.1,0.7-0.1s0.5,0,0.7,0.1
				s0.4,0.2,0.5,0.4s0.3,0.3,0.3,0.5s0.1,0.4,0.1,0.7c0,0.2,0,0.4-0.1,0.6s-0.2,0.4-0.3,0.5s-0.3,0.3-0.5,0.3s-0.5,0.1-0.7,0.1
				s-0.5,0-0.7-0.1s-0.4-0.2-0.5-0.3s-0.2-0.3-0.3-0.5S512.6,153,512.6,152.8z"/>
			<path class="st3" d="M533.9,147.7c0,1.1-0.1,2-0.4,2.9s-0.6,1.5-1.1,2.1s-1,1-1.7,1.3s-1.5,0.4-2.3,0.4c-0.9,0-1.6-0.1-2.3-0.4
				s-1.3-0.7-1.7-1.3s-0.8-1.3-1.1-2.1s-0.4-1.8-0.4-2.9v-4c0-1.1,0.1-2,0.4-2.9s0.6-1.5,1.1-2.1s1.1-1,1.7-1.3s1.5-0.5,2.3-0.5
				c0.9,0,1.7,0.2,2.3,0.5s1.3,0.7,1.7,1.3s0.8,1.3,1.1,2.1s0.4,1.8,0.4,2.9V147.7z M525.1,147.3l6.6-5.1c-0.1-1.1-0.5-2-1-2.6
				s-1.3-0.9-2.3-0.9c-1.1,0-2,0.4-2.5,1.2s-0.8,1.9-0.8,3.4V147.3z M531.8,144.2l-6.6,5.1c0.1,1.1,0.5,1.9,1,2.5s1.3,0.9,2.3,0.9
				c1.1,0,2-0.4,2.5-1.2s0.8-1.9,0.8-3.4V144.2z"/>
			<path class="st3" d="M620.3,147.7c0,1.1-0.1,2-0.4,2.9s-0.6,1.5-1.1,2.1s-1,1-1.7,1.3s-1.5,0.4-2.3,0.4c-0.9,0-1.6-0.1-2.3-0.4
				s-1.3-0.7-1.7-1.3s-0.8-1.3-1.1-2.1s-0.4-1.8-0.4-2.9v-4c0-1.1,0.1-2,0.4-2.9s0.6-1.5,1.1-2.1s1.1-1,1.7-1.3s1.5-0.5,2.3-0.5
				c0.9,0,1.7,0.2,2.3,0.5s1.3,0.7,1.7,1.3s0.8,1.3,1.1,2.1s0.4,1.8,0.4,2.9V147.7z M611.5,147.3l6.6-5.1c-0.1-1.1-0.5-2-1-2.6
				s-1.3-0.9-2.3-0.9c-1.1,0-2,0.4-2.5,1.2s-0.8,1.9-0.8,3.4V147.3z M618.2,144.2l-6.6,5.1c0.1,1.1,0.5,1.9,1,2.5s1.3,0.9,2.3,0.9
				c1.1,0,2-0.4,2.5-1.2s0.8-1.9,0.8-3.4V144.2z"/>
			<path class="st3" d="M627.8,152.8c0-0.2,0-0.5,0.1-0.7s0.2-0.4,0.3-0.5s0.3-0.3,0.5-0.4s0.5-0.1,0.7-0.1s0.5,0,0.7,0.1
				s0.4,0.2,0.5,0.4s0.3,0.3,0.3,0.5s0.1,0.4,0.1,0.7c0,0.2,0,0.4-0.1,0.6s-0.2,0.4-0.3,0.5s-0.3,0.3-0.5,0.3s-0.5,0.1-0.7,0.1
				s-0.5,0-0.7-0.1s-0.4-0.2-0.5-0.3s-0.2-0.3-0.3-0.5S627.8,153,627.8,152.8z"/>
			<path class="st3" d="M649.2,147.7c0,1.1-0.1,2-0.4,2.9s-0.6,1.5-1.1,2.1s-1,1-1.7,1.3s-1.5,0.4-2.3,0.4c-0.9,0-1.6-0.1-2.3-0.4
				s-1.3-0.7-1.7-1.3s-0.8-1.3-1.1-2.1s-0.4-1.8-0.4-2.9v-4c0-1.1,0.1-2,0.4-2.9s0.6-1.5,1.1-2.1s1.1-1,1.7-1.3s1.5-0.5,2.3-0.5
				c0.9,0,1.7,0.2,2.3,0.5s1.3,0.7,1.7,1.3s0.8,1.3,1.1,2.1s0.4,1.8,0.4,2.9V147.7z M640.3,147.3l6.6-5.1c-0.1-1.1-0.5-2-1-2.6
				s-1.3-0.9-2.3-0.9c-1.1,0-2,0.4-2.5,1.2s-0.8,1.9-0.8,3.4V147.3z M647,144.2l-6.6,5.1c0.1,1.1,0.5,1.9,1,2.5s1.3,0.9,2.3,0.9
				c1.1,0,2-0.4,2.5-1.2s0.8-1.9,0.8-3.4V144.2z"/>
			<path class="st3" d="M735.6,147.7c0,1.1-0.1,2-0.4,2.9s-0.6,1.5-1.1,2.1s-1,1-1.7,1.3s-1.5,0.4-2.3,0.4c-0.9,0-1.6-0.1-2.3-0.4
				s-1.3-0.7-1.7-1.3s-0.8-1.3-1.1-2.1s-0.4-1.8-0.4-2.9v-4c0-1.1,0.1-2,0.4-2.9s0.6-1.5,1.1-2.1s1.1-1,1.7-1.3s1.5-0.5,2.3-0.5
				c0.9,0,1.7,0.2,2.3,0.5s1.3,0.7,1.7,1.3s0.8,1.3,1.1,2.1s0.4,1.8,0.4,2.9V147.7z M726.7,147.3l6.6-5.1c-0.1-1.1-0.5-2-1-2.6
				s-1.3-0.9-2.3-0.9c-1.1,0-2,0.4-2.5,1.2s-0.8,1.9-0.8,3.4V147.3z M733.4,144.2l-6.6,5.1c0.1,1.1,0.5,1.9,1,2.5s1.3,0.9,2.3,0.9
				c1.1,0,2-0.4,2.5-1.2s0.8-1.9,0.8-3.4V144.2z"/>
			<path class="st3" d="M743,152.8c0-0.2,0-0.5,0.1-0.7s0.2-0.4,0.3-0.5s0.3-0.3,0.5-0.4s0.5-0.1,0.7-0.1s0.5,0,0.7,0.1
				s0.4,0.2,0.5,0.4s0.3,0.3,0.3,0.5s0.1,0.4,0.1,0.7c0,0.2,0,0.4-0.1,0.6s-0.2,0.4-0.3,0.5s-0.3,0.3-0.5,0.3s-0.5,0.1-0.7,0.1
				s-0.5,0-0.7-0.1s-0.4-0.2-0.5-0.3s-0.2-0.3-0.3-0.5S743,153,743,152.8z"/>
			<path class="st3" d="M764.4,147.7c0,1.1-0.1,2-0.4,2.9s-0.6,1.5-1.1,2.1s-1,1-1.7,1.3s-1.5,0.4-2.3,0.4c-0.9,0-1.6-0.1-2.3-0.4
				s-1.3-0.7-1.7-1.3s-0.8-1.3-1.1-2.1s-0.4-1.8-0.4-2.9v-4c0-1.1,0.1-2,0.4-2.9s0.6-1.5,1.1-2.1s1.1-1,1.7-1.3s1.5-0.5,2.3-0.5
				c0.9,0,1.7,0.2,2.3,0.5s1.3,0.7,1.7,1.3s0.8,1.3,1.1,2.1s0.4,1.8,0.4,2.9V147.7z M755.5,147.3l6.6-5.1c-0.1-1.1-0.5-2-1-2.6
				s-1.3-0.9-2.3-0.9c-1.1,0-2,0.4-2.5,1.2s-0.8,1.9-0.8,3.4V147.3z M762.2,144.2l-6.6,5.1c0.1,1.1,0.5,1.9,1,2.5s1.3,0.9,2.3,0.9
				c1.1,0,2-0.4,2.5-1.2s0.8-1.9,0.8-3.4V144.2z"/>
			<path class="st4" d="M505.1,208.5c0,1.1-0.1,2-0.4,2.9s-0.6,1.5-1.1,2.1s-1,1-1.7,1.3s-1.5,0.4-2.3,0.4c-0.9,0-1.6-0.1-2.3-0.4
				s-1.3-0.7-1.7-1.3s-0.8-1.3-1.1-2.1s-0.4-1.8-0.4-2.9v-4c0-1.1,0.1-2,0.4-2.9s0.6-1.5,1.1-2.1s1.1-1,1.7-1.3s1.5-0.5,2.3-0.5
				c0.9,0,1.7,0.2,2.3,0.5s1.3,0.7,1.7,1.3s0.8,1.3,1.1,2.1s0.4,1.8,0.4,2.9V208.5z M496.3,208.1l6.6-5.1c-0.1-1.1-0.5-2-1-2.6
				s-1.3-0.9-2.3-0.9c-1.1,0-2,0.4-2.5,1.2s-0.8,1.9-0.8,3.4V208.1z M502.9,205l-6.6,5.1c0.1,1.1,0.5,1.9,1,2.5s1.3,0.9,2.3,0.9
				c1.1,0,2-0.4,2.5-1.2s0.8-1.9,0.8-3.4V205z"/>
			<path class="st4" d="M512.6,213.6c0-0.2,0-0.5,0.1-0.7s0.2-0.4,0.3-0.5s0.3-0.3,0.5-0.4s0.5-0.1,0.7-0.1s0.5,0,0.7,0.1
				s0.4,0.2,0.5,0.4s0.3,0.3,0.3,0.5s0.1,0.4,0.1,0.7c0,0.2,0,0.4-0.1,0.6s-0.2,0.4-0.3,0.5s-0.3,0.3-0.5,0.3s-0.5,0.1-0.7,0.1
				s-0.5,0-0.7-0.1s-0.4-0.2-0.5-0.3s-0.2-0.3-0.3-0.5S512.6,213.8,512.6,213.6z"/>
			<path class="st4" d="M533.9,208.5c0,1.1-0.1,2-0.4,2.9s-0.6,1.5-1.1,2.1s-1,1-1.7,1.3s-1.5,0.4-2.3,0.4c-0.9,0-1.6-0.1-2.3-0.4
				s-1.3-0.7-1.7-1.3s-0.8-1.3-1.1-2.1s-0.4-1.8-0.4-2.9v-4c0-1.1,0.1-2,0.4-2.9s0.6-1.5,1.1-2.1s1.1-1,1.7-1.3s1.5-0.5,2.3-0.5
				c0.9,0,1.7,0.2,2.3,0.5s1.3,0.7,1.7,1.3s0.8,1.3,1.1,2.1s0.4,1.8,0.4,2.9V208.5z M525.1,208.1l6.6-5.1c-0.1-1.1-0.5-2-1-2.6
				s-1.3-0.9-2.3-0.9c-1.1,0-2,0.4-2.5,1.2s-0.8,1.9-0.8,3.4V208.1z M531.8,205l-6.6,5.1c0.1,1.1,0.5,1.9,1,2.5s1.3,0.9,2.3,0.9
				c1.1,0,2-0.4,2.5-1.2s0.8-1.9,0.8-3.4V205z"/>
			<path class="st4" d="M616.7,215h-2.2v-14.3l-4.5,1.7v-2l6.5-2.5h0.2V215z"/>
			<path class="st4" d="M627.8,213.6c0-0.2,0-0.5,0.1-0.7s0.2-0.4,0.3-0.5s0.3-0.3,0.5-0.4s0.5-0.1,0.7-0.1s0.5,0,0.7,0.1
				s0.4,0.2,0.5,0.4s0.3,0.3,0.3,0.5s0.1,0.4,0.1,0.7c0,0.2,0,0.4-0.1,0.6s-0.2,0.4-0.3,0.5s-0.3,0.3-0.5,0.3s-0.5,0.1-0.7,0.1
				s-0.5,0-0.7-0.1s-0.4-0.2-0.5-0.3s-0.2-0.3-0.3-0.5S627.8,213.8,627.8,213.6z"/>
			<path class="st4" d="M649.2,208.5c0,1.1-0.1,2-0.4,2.9s-0.6,1.5-1.1,2.1s-1,1-1.7,1.3s-1.5,0.4-2.3,0.4c-0.9,0-1.6-0.1-2.3-0.4
				s-1.3-0.7-1.7-1.3s-0.8-1.3-1.1-2.1s-0.4-1.8-0.4-2.9v-4c0-1.1,0.1-2,0.4-2.9s0.6-1.5,1.1-2.1s1.1-1,1.7-1.3s1.5-0.5,2.3-0.5
				c0.9,0,1.7,0.2,2.3,0.5s1.3,0.7,1.7,1.3s0.8,1.3,1.1,2.1s0.4,1.8,0.4,2.9V208.5z M640.3,208.1l6.6-5.1c-0.1-1.1-0.5-2-1-2.6
				s-1.3-0.9-2.3-0.9c-1.1,0-2,0.4-2.5,1.2s-0.8,1.9-0.8,3.4V208.1z M647,205l-6.6,5.1c0.1,1.1,0.5,1.9,1,2.5s1.3,0.9,2.3,0.9
				c1.1,0,2-0.4,2.5-1.2s0.8-1.9,0.8-3.4V205z"/>
			<path class="st4" d="M735.6,208.5c0,1.1-0.1,2-0.4,2.9s-0.6,1.5-1.1,2.1s-1,1-1.7,1.3s-1.5,0.4-2.3,0.4c-0.9,0-1.6-0.1-2.3-0.4
				s-1.3-0.7-1.7-1.3s-0.8-1.3-1.1-2.1s-0.4-1.8-0.4-2.9v-4c0-1.1,0.1-2,0.4-2.9s0.6-1.5,1.1-2.1s1.1-1,1.7-1.3s1.5-0.5,2.3-0.5
				c0.9,0,1.7,0.2,2.3,0.5s1.3,0.7,1.7,1.3s0.8,1.3,1.1,2.1s0.4,1.8,0.4,2.9V208.5z M726.7,208.1l6.6-5.1c-0.1-1.1-0.5-2-1-2.6
				s-1.3-0.9-2.3-0.9c-1.1,0-2,0.4-2.5,1.2s-0.8,1.9-0.8,3.4V208.1z M733.4,205l-6.6,5.1c0.1,1.1,0.5,1.9,1,2.5s1.3,0.9,2.3,0.9
				c1.1,0,2-0.4,2.5-1.2s0.8-1.9,0.8-3.4V205z"/>
			<path class="st4" d="M743,213.6c0-0.2,0-0.5,0.1-0.7s0.2-0.4,0.3-0.5s0.3-0.3,0.5-0.4s0.5-0.1,0.7-0.1s0.5,0,0.7,0.1
				s0.4,0.2,0.5,0.4s0.3,0.3,0.3,0.5s0.1,0.4,0.1,0.7c0,0.2,0,0.4-0.1,0.6s-0.2,0.4-0.3,0.5s-0.3,0.3-0.5,0.3s-0.5,0.1-0.7,0.1
				s-0.5,0-0.7-0.1s-0.4-0.2-0.5-0.3s-0.2-0.3-0.3-0.5S743,213.8,743,213.6z"/>
			<path class="st4" d="M764.4,208.5c0,1.1-0.1,2-0.4,2.9s-0.6,1.5-1.1,2.1s-1,1-1.7,1.3s-1.5,0.4-2.3,0.4c-0.9,0-1.6-0.1-2.3-0.4
				s-1.3-0.7-1.7-1.3s-0.8-1.3-1.1-2.1s-0.4-1.8-0.4-2.9v-4c0-1.1,0.1-2,0.4-2.9s0.6-1.5,1.1-2.1s1.1-1,1.7-1.3s1.5-0.5,2.3-0.5
				c0.9,0,1.7,0.2,2.3,0.5s1.3,0.7,1.7,1.3s0.8,1.3,1.1,2.1s0.4,1.8,0.4,2.9V208.5z M755.5,208.1l6.6-5.1c-0.1-1.1-0.5-2-1-2.6
				s-1.3-0.9-2.3-0.9c-1.1,0-2,0.4-2.5,1.2s-0.8,1.9-0.8,3.4V208.1z M762.2,205l-6.6,5.1c0.1,1.1,0.5,1.9,1,2.5s1.3,0.9,2.3,0.9
				c1.1,0,2-0.4,2.5-1.2s0.8-1.9,0.8-3.4V205z"/>
			<path class="st5" d="M505.1,269.3c0,1.1-0.1,2-0.4,2.9s-0.6,1.5-1.1,2.1s-1,1-1.7,1.3s-1.5,0.4-2.3,0.4c-0.9,0-1.6-0.1-2.3-0.4
				s-1.3-0.7-1.7-1.3s-0.8-1.3-1.1-2.1s-0.4-1.8-0.4-2.9v-4c0-1.1,0.1-2,0.4-2.9s0.6-1.5,1.1-2.1c0.5-0.6,1.1-1,1.7-1.3
				s1.5-0.5,2.3-0.5c0.9,0,1.7,0.2,2.3,0.5s1.3,0.7,1.7,1.3c0.5,0.6,0.8,1.3,1.1,2.1s0.4,1.8,0.4,2.9V269.3z M496.3,268.9l6.6-5.1
				c-0.1-1.1-0.5-2-1-2.6s-1.3-0.9-2.3-0.9c-1.1,0-2,0.4-2.5,1.2s-0.8,1.9-0.8,3.4V268.9z M502.9,265.8l-6.6,5.1
				c0.1,1.1,0.5,1.9,1,2.5s1.3,0.9,2.3,0.9c1.1,0,2-0.4,2.5-1.2s0.8-1.9,0.8-3.4V265.8z"/>
			<path class="st5" d="M512.6,274.4c0-0.2,0-0.5,0.1-0.7s0.2-0.4,0.3-0.5s0.3-0.3,0.5-0.4s0.5-0.1,0.7-0.1s0.5,0,0.7,0.1
				s0.4,0.2,0.5,0.4s0.3,0.3,0.3,0.5s0.1,0.4,0.1,0.7c0,0.2,0,0.4-0.1,0.6s-0.2,0.4-0.3,0.5s-0.3,0.3-0.5,0.3s-0.5,0.1-0.7,0.1
				s-0.5,0-0.7-0.1s-0.4-0.2-0.5-0.3s-0.2-0.3-0.3-0.5S512.6,274.6,512.6,274.4z"/>
			<path class="st5" d="M533.9,269.3c0,1.1-0.1,2-0.4,2.9s-0.6,1.5-1.1,2.1s-1,1-1.7,1.3s-1.5,0.4-2.3,0.4c-0.9,0-1.6-0.1-2.3-0.4
				s-1.3-0.7-1.7-1.3s-0.8-1.3-1.1-2.1s-0.4-1.8-0.4-2.9v-4c0-1.1,0.1-2,0.4-2.9s0.6-1.5,1.1-2.1c0.5-0.6,1.1-1,1.7-1.3
				s1.5-0.5,2.3-0.5c0.9,0,1.7,0.2,2.3,0.5s1.3,0.7,1.7,1.3c0.5,0.6,0.8,1.3,1.1,2.1s0.4,1.8,0.4,2.9V269.3z M525.1,268.9l6.6-5.1
				c-0.1-1.1-0.5-2-1-2.6s-1.3-0.9-2.3-0.9c-1.1,0-2,0.4-2.5,1.2s-0.8,1.9-0.8,3.4V268.9z M531.8,265.8l-6.6,5.1
				c0.1,1.1,0.5,1.9,1,2.5s1.3,0.9,2.3,0.9c1.1,0,2-0.4,2.5-1.2s0.8-1.9,0.8-3.4V265.8z"/>
			<path class="st5" d="M620.3,269.3c0,1.1-0.1,2-0.4,2.9s-0.6,1.5-1.1,2.1s-1,1-1.7,1.3s-1.5,0.4-2.3,0.4c-0.9,0-1.6-0.1-2.3-0.4
				s-1.3-0.7-1.7-1.3s-0.8-1.3-1.1-2.1s-0.4-1.8-0.4-2.9v-4c0-1.1,0.1-2,0.4-2.9s0.6-1.5,1.1-2.1c0.5-0.6,1.1-1,1.7-1.3
				s1.5-0.5,2.3-0.5c0.9,0,1.7,0.2,2.3,0.5s1.3,0.7,1.7,1.3c0.5,0.6,0.8,1.3,1.1,2.1s0.4,1.8,0.4,2.9V269.3z M611.5,268.9l6.6-5.1
				c-0.1-1.1-0.5-2-1-2.6s-1.3-0.9-2.3-0.9c-1.1,0-2,0.4-2.5,1.2s-0.8,1.9-0.8,3.4V268.9z M618.2,265.8l-6.6,5.1
				c0.1,1.1,0.5,1.9,1,2.5s1.3,0.9,2.3,0.9c1.1,0,2-0.4,2.5-1.2s0.8-1.9,0.8-3.4V265.8z"/>
			<path class="st5" d="M627.8,274.4c0-0.2,0-0.5,0.1-0.7s0.2-0.4,0.3-0.5s0.3-0.3,0.5-0.4s0.5-0.1,0.7-0.1s0.5,0,0.7,0.1
				s0.4,0.2,0.5,0.4s0.3,0.3,0.3,0.5s0.1,0.4,0.1,0.7c0,0.2,0,0.4-0.1,0.6s-0.2,0.4-0.3,0.5s-0.3,0.3-0.5,0.3s-0.5,0.1-0.7,0.1
				s-0.5,0-0.7-0.1s-0.4-0.2-0.5-0.3s-0.2-0.3-0.3-0.5S627.8,274.6,627.8,274.4z"/>
			<path class="st5" d="M649.2,269.3c0,1.1-0.1,2-0.4,2.9s-0.6,1.5-1.1,2.1s-1,1-1.7,1.3s-1.5,0.4-2.3,0.4c-0.9,0-1.6-0.1-2.3-0.4
				s-1.3-0.7-1.7-1.3s-0.8-1.3-1.1-2.1s-0.4-1.8-0.4-2.9v-4c0-1.1,0.1-2,0.4-2.9s0.6-1.5,1.1-2.1c0.5-0.6,1.1-1,1.7-1.3
				s1.5-0.5,2.3-0.5c0.9,0,1.7,0.2,2.3,0.5s1.3,0.7,1.7,1.3c0.5,0.6,0.8,1.3,1.1,2.1s0.4,1.8,0.4,2.9V269.3z M640.3,268.9l6.6-5.1
				c-0.1-1.1-0.5-2-1-2.6s-1.3-0.9-2.3-0.9c-1.1,0-2,0.4-2.5,1.2s-0.8,1.9-0.8,3.4V268.9z M647,265.8l-6.6,5.1
				c0.1,1.1,0.5,1.9,1,2.5s1.3,0.9,2.3,0.9c1.1,0,2-0.4,2.5-1.2s0.8-1.9,0.8-3.4V265.8z"/>
			<path class="st5" d="M731.9,275.8h-2.2v-14.3l-4.5,1.7v-2l6.5-2.5h0.2V275.8z"/>
			<path class="st5" d="M743,274.4c0-0.2,0-0.5,0.1-0.7s0.2-0.4,0.3-0.5s0.3-0.3,0.5-0.4s0.5-0.1,0.7-0.1s0.5,0,0.7,0.1
				s0.4,0.2,0.5,0.4s0.3,0.3,0.3,0.5s0.1,0.4,0.1,0.7c0,0.2,0,0.4-0.1,0.6s-0.2,0.4-0.3,0.5s-0.3,0.3-0.5,0.3s-0.5,0.1-0.7,0.1
				s-0.5,0-0.7-0.1s-0.4-0.2-0.5-0.3s-0.2-0.3-0.3-0.5S743,274.6,743,274.4z"/>
			<path class="st5" d="M764.4,269.3c0,1.1-0.1,2-0.4,2.9s-0.6,1.5-1.1,2.1s-1,1-1.7,1.3s-1.5,0.4-2.3,0.4c-0.9,0-1.6-0.1-2.3-0.4
				s-1.3-0.7-1.7-1.3s-0.8-1.3-1.1-2.1s-0.4-1.8-0.4-2.9v-4c0-1.1,0.1-2,0.4-2.9s0.6-1.5,1.1-2.1c0.5-0.6,1.1-1,1.7-1.3
				s1.5-0.5,2.3-0.5c0.9,0,1.7,0.2,2.3,0.5s1.3,0.7,1.7,1.3c0.5,0.6,0.8,1.3,1.1,2.1s0.4,1.8,0.4,2.9V269.3z M755.5,268.9l6.6-5.1
				c-0.1-1.1-0.5-2-1-2.6s-1.3-0.9-2.3-0.9c-1.1,0-2,0.4-2.5,1.2s-0.8,1.9-0.8,3.4V268.9z M762.2,265.8l-6.6,5.1
				c0.1,1.1,0.5,1.9,1,2.5s1.3,0.9,2.3,0.9c1.1,0,2-0.4,2.5-1.2s0.8-1.9,0.8-3.4V265.8z"/>
		</g>
	</g>
	<g>
		
			<linearGradient id="SVGID_1_" gradientUnits="userSpaceOnUse" x1="391.4778" y1="-1102" x2="792.5222" y2="-1102" gradientTransform="matrix(1 0 0 -1 0 -538)">
			<stop  offset="0" style="stop-color:#00FF00"/>
			<stop  offset="1" style="stop-color:#FF0000"/>
		</linearGradient>
		<polygon class="st6" points="592.5,392.2 792,735.8 392,735.8 		"/>
		
			<linearGradient id="SVGID_2_" gradientUnits="userSpaceOnUse" x1="592" y1="-1274.2621" x2="592" y2="-930.2634" gradientTransform="matrix(1 0 0 -1 0 -538)">
			<stop  offset="0" style="stop-color:#0000FF;stop-opacity:0"/>
			<stop  offset="1" style="stop-color:#0000FF"/>
		</linearGradient>
		<polygon class="st7" points="592.5,392.2 792,735.8 392,735.8 		"/>
	</g>
	<g>
		<line class="st8" x1="416" y1="144" x2="448" y2="144"/>
		<line class="st8" x1="416" y1="208" x2="448" y2="208"/>
		<line class="st8" x1="416" y1="272" x2="448" y2="272"/>
	</g>
	<g>
		<g>
			<g>
				<line class="st9" x1="960" y1="144" x2="966" y2="144"/>
				<line class="st10" x1="978" y1="144" x2="1140" y2="144"/>
				<polyline class="st9" points="1146,144 1152,144 1152,150 				"/>
				<line class="st11" x1="1152" y1="161.8" x2="1152" y2="720.1"/>
				<polyline class="st9" points="1152,726 1152,732 1146,732 				"/>
				<line class="st12" x1="1133.8" y1="732" x2="798.4" y2="732"/>
				<line class="st9" x1="792.3" y1="732" x2="786.3" y2="732"/>
				<g>
					<path class="st13" d="M787,717c-8.3,0-15,6.7-15,15s6.7,15,15,15c8.3,0,15-6.7,15-15S795.3,717,787,717z"/>
				</g>
			</g>
		</g>
		<g>
			<g>
				<line class="st14" x1="960" y1="208" x2="966" y2="208"/>
				<line class="st15" x1="977.4" y1="208" x2="1108.3" y2="208"/>
				<polyline class="st14" points="1114,208 1120,208 1120,214 				"/>
				<line class="st16" x1="1120" y1="226" x2="1120" y2="340"/>
				<polyline class="st14" points="1120,346 1120,352 1114,352 				"/>
				<line class="st17" x1="1101.9" y1="352" x2="404.1" y2="352"/>
				<polyline class="st14" points="398,352 392,352 392,358 				"/>
				<line class="st18" x1="392" y1="369.8" x2="392" y2="717.8"/>
				<line class="st14" x1="392" y1="723.7" x2="392" y2="729.7"/>
				<g>
					<path class="st19" d="M377,729c0,8.3,6.7,15,15,15s15-6.7,15-15c0-8.3-6.7-15-15-15S377,720.7,377,729z"/>
				</g>
			</g>
		</g>
		<g>
			<g>
				<line class="st20" x1="960.5" y1="272.7" x2="966.5" y2="272.7"/>
				<line class="st21" x1="979.4" y1="272.7" x2="1076.1" y2="272.7"/>
				<polyline class="st20" points="1082.5,272.7 1088.5,272.7 1088.5,278.7 				"/>
				<line class="st22" x1="1088.5" y1="290.6" x2="1088.5" y2="380"/>
				<polyline class="st20" points="1088.5,386 1088.5,392 1082.5,392 				"/>
				<line class="st23" x1="1070.7" y1="392" x2="604.2" y2="392"/>
				<line class="st20" x1="598.3" y1="392" x2="592.3" y2="392"/>
				<g>
					<path class="st24" d="M593,377c-8.3,0-15,6.7-15,15s6.7,15,15,15c8.3,0,15-6.7,15-15S601.3,377,593,377z"/>
				</g>
			</g>
		</g>
	</g>
	<g>
		<g>
			<rect x="832" y="64" class="st0" width="128" height="256"/>
			<rect x="832" y="115" class="st1" width="128" height="58"/>
			<rect x="832" y="243" class="st1" width="128" height="58"/>
		</g>
		<g>
			<path class="st2" d="M879.6,96.3V79.2h2.3v17.2H879.6z"/>
			<path class="st2" d="M885.8,96.3V79.2h6.4c1.3,0,2.4,0.2,3.2,0.5s1.4,0.9,1.9,1.6s0.7,1.5,0.7,2.3c0,0.7-0.2,1.4-0.6,2.1
				s-1,1.2-1.8,1.6c1,0.3,1.8,0.8,2.4,1.6s0.8,1.6,0.8,2.6c0,0.8-0.2,1.6-0.5,2.2s-0.8,1.2-1.3,1.6s-1.1,0.7-1.9,0.8
				s-1.7,0.3-2.8,0.3H885.8z M888,86.4h3.7c1,0,1.7-0.1,2.2-0.2c0.6-0.2,1-0.5,1.3-0.9s0.4-0.9,0.4-1.5c0-0.6-0.1-1.1-0.4-1.5
				s-0.7-0.7-1.2-0.9s-1.4-0.2-2.6-0.2H888V86.4z M888,94.3h4.3c0.7,0,1.3,0,1.5-0.1c0.5-0.1,1-0.3,1.3-0.5s0.6-0.5,0.9-1
				s0.3-0.9,0.3-1.4c0-0.6-0.2-1.2-0.5-1.7s-0.8-0.8-1.4-1s-1.4-0.3-2.5-0.3h-4V94.3z"/>
			<path class="st2" d="M901.2,88c0-2.9,0.8-5.1,2.3-6.7s3.5-2.4,5.9-2.4c1.6,0,3,0.4,4.3,1.1s2.2,1.8,2.9,3.2s1,2.9,1,4.6
				c0,1.7-0.4,3.3-1.1,4.7s-1.7,2.4-3,3.1s-2.7,1.1-4.2,1.1c-1.6,0-3.1-0.4-4.3-1.2s-2.2-1.8-2.9-3.2S901.2,89.5,901.2,88z
				 M903.5,88c0,2.1,0.6,3.7,1.7,4.9s2.5,1.8,4.2,1.8c1.7,0,3.1-0.6,4.2-1.8s1.7-2.9,1.7-5.1c0-1.4-0.2-2.6-0.7-3.7
				s-1.2-1.9-2.1-2.4s-1.9-0.9-3.1-0.9c-1.6,0-3,0.6-4.2,1.7S903.5,85.4,903.5,88z"/>
		</g>
		<g>
			<path class="st2" d="M899.5,147.7c0,1.1-0.1,2-0.4,2.9s-0.6,1.5-1.1,2.1s-1,1-1.7,1.3s-1.5,0.4-2.3,0.4c-0.9,0-1.6-0.1-2.3-0.4
				s-1.3-0.7-1.7-1.3s-0.8-1.3-1.1-2.1s-0.4-1.8-0.4-2.9v-4c0-1.1,0.1-2,0.4-2.9s0.6-1.5,1.1-2.1s1.1-1,1.7-1.3s1.5-0.5,2.3-0.5
				c0.9,0,1.7,0.2,2.3,0.5s1.3,0.7,1.7,1.3s0.8,1.3,1.1,2.1s0.4,1.8,0.4,2.9V147.7z M890.7,147.3l6.6-5.1c-0.1-1.1-0.5-2-1-2.6
				s-1.3-0.9-2.3-0.9c-1.1,0-2,0.4-2.5,1.2s-0.8,1.9-0.8,3.4V147.3z M897.4,144.2l-6.6,5.1c0.1,1.1,0.5,1.9,1,2.5s1.3,0.9,2.3,0.9
				c1.1,0,2-0.4,2.5-1.2s0.8-1.9,0.8-3.4V144.2z"/>
			<path class="st2" d="M895.9,215h-2.2v-14.3l-4.5,1.7v-2l6.5-2.5h0.2V215z"/>
			<path class="st2" d="M899.3,275.8h-11.2v-1.6l5.6-6.2c0.5-0.6,0.9-1,1.3-1.5s0.6-0.8,0.8-1.2s0.3-0.7,0.4-1s0.1-0.7,0.1-1
				c0-0.4-0.1-0.8-0.2-1.2s-0.3-0.7-0.6-1s-0.6-0.5-0.9-0.7s-0.8-0.2-1.3-0.2c-0.6,0-1.1,0.1-1.5,0.2s-0.8,0.4-1,0.7
				s-0.5,0.7-0.6,1.1s-0.2,0.9-0.2,1.4h-2.2c0-0.7,0.1-1.4,0.4-2s0.6-1.2,1.1-1.7c0.5-0.5,1.1-0.9,1.7-1.1s1.5-0.4,2.3-0.4
				c0.8,0,1.5,0.1,2.2,0.4s1.2,0.6,1.6,1c0.4,0.4,0.8,0.9,1,1.5s0.4,1.2,0.4,1.9c0,0.5-0.1,1-0.3,1.5s-0.4,1-0.7,1.5s-0.6,1-1,1.4
				s-0.8,0.9-1.2,1.4l-4.6,5h8.6V275.8z"/>
		</g>
	</g>
	<g>
		<line class="st8" x1="800" y1="144" x2="832" y2="144"/>
		<line class="st8" x1="800" y1="208" x2="832" y2="208"/>
		<line class="st8" x1="800" y1="272" x2="832" y2="272"/>
	</g>
	<g>
	</g>
</g>
</svg>
