<?xml version="1.0" encoding="utf-8"?>
<!-- Generator: Adobe Illustrator 24.0.1, SVG Export Plug-In . SVG Version: 6.00 Build 0)  -->
<svg version="1.1" id="Layer_1" xmlns="http://www.w3.org/2000/svg" xmlns:xlink="http://www.w3.org/1999/xlink" x="0px" y="0px"
	 viewBox="0 0 800 480" style="enable-background:new 0 0 800 480;" xml:space="preserve">
<style type="text/css">
	.st0{fill:#202124;}
	.st1{fill:#333333;}
	.st2{fill:url(#SVGID_1_);}
	.st3{fill:url(#SVGID_2_);}
	.st4{enable-background:new    ;}
	.st5{fill:#FFFFFF;}
	.st6{fill:#9AA0A6;}
	.st7{fill:#323639;}
	.st8{fill:#282C2F;}
	.st9{fill:none;stroke:#FFFFFF;stroke-width:2;stroke-linecap:square;stroke-linejoin:round;stroke-miterlimit:10;}
	.st10{fill:none;stroke:#FFFFFF;stroke-width:2;stroke-miterlimit:10;}
	.st11{fill:none;stroke:#8A8C8E;stroke-width:2;stroke-linecap:square;stroke-linejoin:round;stroke-miterlimit:10;}
	.st12{fill:#FCFCFC;}
	.st13{fill:none;stroke:#9AA0A6;stroke-linecap:round;stroke-linejoin:round;stroke-miterlimit:10;}
	.st14{fill:#E8EAED;}
	.st15{fill:none;stroke:#E8EAED;stroke-miterlimit:10;}
	.st16{fill:none;stroke:#BDC1C6;stroke-width:1.5;stroke-miterlimit:10;}
	.st17{fill:none;stroke:#BDC1C6;stroke-miterlimit:10;}
	.st18{fill:#2583D8;}
</style>
<g>
	<g id="WebAssembly">
		<path class="st0" d="M83,60h634c1.7,0,3,1.3,3,3v354c0,1.7-1.3,3-3,3H83c-1.7,0-3-1.3-3-3V63C80,61.3,81.3,60,83,60z"/>
	</g>
	<g>
		<path class="st1" d="M80,116h640v295c0,4.4-3.6,8-8,8H88c-4.4,0-8-3.6-8-8V116z"/>
		
			<linearGradient id="SVGID_1_" gradientUnits="userSpaceOnUse" x1="272.4" y1="1313.5" x2="527.6" y2="1313.5" gradientTransform="matrix(1 0 0 1 0 -1058)">
			<stop  offset="0" style="stop-color:#00FF00"/>
			<stop  offset="1" style="stop-color:#FF0000"/>
		</linearGradient>
		<polygon class="st2" points="400,146.1 527.6,365 272.4,365 		"/>
		
			<linearGradient id="SVGID_2_" gradientUnits="userSpaceOnUse" x1="400" y1="1422.9501" x2="400" y2="1204.05" gradientTransform="matrix(1 0 0 1 0 -1058)">
			<stop  offset="0" style="stop-color:#0000FF;stop-opacity:0"/>
			<stop  offset="1" style="stop-color:#0000FF"/>
		</linearGradient>
		<polygon class="st3" points="400,146.1 527.6,365 272.4,365 		"/>
	</g>
	<g class="st4">
		<path class="st5" d="M234.6,125h-1.2v-1.2h0c-0.5,0.9-1.3,1.3-2.3,1.3c-0.7,0-1.3-0.2-1.8-0.6c-0.4-0.4-0.6-0.9-0.6-1.6
			c0-1.4,0.8-2.2,2.5-2.4l2.2-0.3c0-1.3-0.5-1.9-1.5-1.9c-0.9,0-1.7,0.3-2.4,0.9V118c0.7-0.5,1.6-0.7,2.5-0.7c1.8,0,2.6,0.9,2.6,2.8
			V125z M233.4,121.2l-1.8,0.2c-0.6,0.1-1,0.2-1.3,0.4c-0.3,0.2-0.4,0.5-0.4,1.1c0,0.4,0.1,0.7,0.4,0.9c0.3,0.2,0.6,0.3,1,0.3
			c0.6,0,1.1-0.2,1.5-0.6c0.4-0.4,0.6-0.9,0.6-1.6V121.2z"/>
		<path class="st5" d="M238,125h-1.2v-11.1h1.2V125z"/>
		<path class="st5" d="M245.8,125h-1.2v-1.2h0c-0.5,0.9-1.3,1.3-2.3,1.3c-0.7,0-1.3-0.2-1.8-0.6c-0.4-0.4-0.6-0.9-0.6-1.6
			c0-1.4,0.8-2.2,2.5-2.4l2.2-0.3c0-1.3-0.5-1.9-1.5-1.9c-0.9,0-1.7,0.3-2.4,0.9V118c0.7-0.5,1.6-0.7,2.5-0.7c1.8,0,2.6,0.9,2.6,2.8
			V125z M244.6,121.2l-1.8,0.2c-0.6,0.1-1,0.2-1.3,0.4c-0.3,0.2-0.4,0.5-0.4,1.1c0,0.4,0.1,0.7,0.4,0.9c0.3,0.2,0.6,0.3,1,0.3
			c0.6,0,1.1-0.2,1.5-0.6c0.4-0.4,0.6-0.9,0.6-1.6V121.2z"/>
		<path class="st5" d="M248.7,115.6c-0.2,0-0.4-0.1-0.5-0.2s-0.2-0.3-0.2-0.6s0.1-0.4,0.2-0.6c0.2-0.1,0.3-0.2,0.5-0.2
			c0.2,0,0.4,0.1,0.6,0.2c0.2,0.1,0.2,0.3,0.2,0.6c0,0.2-0.1,0.4-0.2,0.5C249.1,115.5,248.9,115.6,248.7,115.6z M249.3,125h-1.2
			v-7.5h1.2V125z"/>
		<path class="st5" d="M258,125h-1.2v-4.3c0-1.6-0.6-2.4-1.7-2.4c-0.6,0-1.1,0.2-1.5,0.7c-0.4,0.5-0.6,1-0.6,1.7v4.3h-1.2v-7.5h1.2
			v1.2h0c0.6-0.9,1.4-1.4,2.5-1.4c0.8,0,1.4,0.3,1.9,0.8c0.4,0.5,0.7,1.3,0.7,2.3V125z"/>
		<path class="st5" d="M260.7,125.2c-0.2,0-0.4-0.1-0.6-0.2c-0.2-0.2-0.2-0.4-0.2-0.6s0.1-0.4,0.2-0.6c0.2-0.2,0.4-0.2,0.6-0.2
			c0.2,0,0.4,0.1,0.6,0.2c0.2,0.2,0.2,0.4,0.2,0.6s-0.1,0.4-0.2,0.6C261.1,125.1,260.9,125.2,260.7,125.2z"/>
		<path class="st5" d="M269,117.5l-2.5,3.8l2.5,3.7h-1.4l-1.5-2.4c-0.1-0.2-0.2-0.3-0.3-0.6h0c0,0-0.1,0.2-0.3,0.6l-1.5,2.4h-1.4
			l2.6-3.7l-2.4-3.8h1.4l1.5,2.6c0.1,0.2,0.2,0.4,0.3,0.6h0l1.9-3.1H269z"/>
		<path class="st5" d="M276.3,117.5l-3.4,8.7c-0.6,1.6-1.5,2.3-2.6,2.3c-0.3,0-0.6,0-0.8-0.1v-1.1c0.3,0.1,0.5,0.1,0.7,0.1
			c0.6,0,1.1-0.4,1.4-1.1l0.6-1.4l-2.9-7.5h1.3l2,5.8c0,0.1,0.1,0.3,0.2,0.6h0c0-0.1,0.1-0.3,0.1-0.6l2.1-5.8H276.3z"/>
		<path class="st5" d="M282.9,117.8l-4.4,6.1h4.4v1h-6.2v-0.4l4.4-6.1h-4v-1h5.8V117.8z"/>
	</g>
	<g class="st4">
		<path class="st6" d="M289.2,114.5l-5,12.2H283l5-12.2H289.2z"/>
		<path class="st6" d="M291.5,125h-1.2v-11.1h1.2V125z"/>
		<path class="st6" d="M294.5,115.6c-0.2,0-0.4-0.1-0.5-0.2s-0.2-0.3-0.2-0.6s0.1-0.4,0.2-0.6c0.2-0.1,0.3-0.2,0.5-0.2
			c0.2,0,0.4,0.1,0.6,0.2c0.2,0.1,0.2,0.3,0.2,0.6c0,0.2-0.1,0.4-0.2,0.5C294.9,115.5,294.7,115.6,294.5,115.6z M295.1,125h-1.2
			v-7.5h1.2V125z"/>
		<path class="st6" d="M298.8,123.9L298.8,123.9l0,1.1h-1.2v-11.1h1.2v4.9h0c0.6-1,1.5-1.5,2.6-1.5c1,0,1.7,0.3,2.3,1
			c0.5,0.7,0.8,1.6,0.8,2.7c0,1.3-0.3,2.3-0.9,3c-0.6,0.8-1.4,1.1-2.5,1.1C300,125.2,299.3,124.8,298.8,123.9z M298.7,120.9v1
			c0,0.6,0.2,1.1,0.6,1.6c0.4,0.4,0.9,0.6,1.5,0.6c0.7,0,1.3-0.3,1.7-0.8s0.6-1.3,0.6-2.3c0-0.8-0.2-1.5-0.6-2
			c-0.4-0.5-0.9-0.7-1.6-0.7c-0.7,0-1.3,0.2-1.7,0.7C298.9,119.5,298.7,120.2,298.7,120.9z"/>
		<path class="st6" d="M310.3,118.7c-0.2-0.2-0.5-0.2-0.9-0.2c-0.5,0-0.9,0.2-1.3,0.7c-0.3,0.5-0.5,1.1-0.5,2v3.8h-1.2v-7.5h1.2v1.5
			h0c0.2-0.5,0.4-0.9,0.8-1.2c0.4-0.3,0.7-0.4,1.2-0.4c0.3,0,0.6,0,0.7,0.1V118.7z"/>
		<path class="st6" d="M316.9,125h-1.2v-1.2h0c-0.5,0.9-1.3,1.3-2.3,1.3c-0.7,0-1.3-0.2-1.8-0.6c-0.4-0.4-0.6-0.9-0.6-1.6
			c0-1.4,0.8-2.2,2.5-2.4l2.2-0.3c0-1.3-0.5-1.9-1.5-1.9c-0.9,0-1.7,0.3-2.4,0.9V118c0.7-0.5,1.6-0.7,2.5-0.7c1.8,0,2.6,0.9,2.6,2.8
			V125z M315.7,121.2l-1.8,0.2c-0.6,0.1-1,0.2-1.3,0.4c-0.3,0.2-0.4,0.5-0.4,1.1c0,0.4,0.1,0.7,0.4,0.9c0.3,0.2,0.6,0.3,1,0.3
			c0.6,0,1.1-0.2,1.5-0.6c0.4-0.4,0.6-0.9,0.6-1.6V121.2z"/>
		<path class="st6" d="M323.1,118.7c-0.2-0.2-0.5-0.2-0.9-0.2c-0.5,0-0.9,0.2-1.3,0.7c-0.3,0.5-0.5,1.1-0.5,2v3.8h-1.2v-7.5h1.2v1.5
			h0c0.2-0.5,0.4-0.9,0.8-1.2c0.4-0.3,0.7-0.4,1.2-0.4c0.3,0,0.6,0,0.7,0.1V118.7z"/>
		<path class="st6" d="M325,115.6c-0.2,0-0.4-0.1-0.5-0.2s-0.2-0.3-0.2-0.6s0.1-0.4,0.2-0.6c0.2-0.1,0.3-0.2,0.5-0.2
			c0.2,0,0.4,0.1,0.6,0.2c0.2,0.1,0.2,0.3,0.2,0.6c0,0.2-0.1,0.4-0.2,0.5C325.4,115.5,325.2,115.6,325,115.6z M325.6,125h-1.2v-7.5
			h1.2V125z"/>
		<path class="st6" d="M334.1,121.6h-5.3c0,0.8,0.2,1.5,0.7,1.9c0.4,0.5,1,0.7,1.8,0.7c0.8,0,1.6-0.3,2.3-0.8v1.1
			c-0.7,0.5-1.5,0.7-2.6,0.7c-1.1,0-1.9-0.3-2.5-1c-0.6-0.7-0.9-1.6-0.9-2.9c0-1.2,0.3-2.1,1-2.9c0.7-0.7,1.5-1.1,2.5-1.1
			s1.7,0.3,2.3,1s0.8,1.5,0.8,2.6V121.6z M332.8,120.5c0-0.7-0.2-1.2-0.5-1.6c-0.3-0.4-0.8-0.6-1.4-0.6c-0.6,0-1,0.2-1.4,0.6
			s-0.6,0.9-0.7,1.6H332.8z"/>
		<path class="st6" d="M335.4,124.7v-1.3c0.7,0.5,1.4,0.7,2.2,0.7c1.1,0,1.6-0.4,1.6-1.1c0-0.2,0-0.4-0.1-0.5
			c-0.1-0.1-0.2-0.3-0.4-0.4c-0.2-0.1-0.3-0.2-0.5-0.3c-0.2-0.1-0.4-0.2-0.7-0.3c-0.3-0.1-0.6-0.3-0.9-0.4c-0.3-0.1-0.5-0.3-0.6-0.5
			c-0.2-0.2-0.3-0.4-0.4-0.6c-0.1-0.2-0.1-0.5-0.1-0.8c0-0.4,0.1-0.7,0.2-0.9c0.2-0.3,0.4-0.5,0.6-0.7c0.3-0.2,0.6-0.3,0.9-0.4
			c0.3-0.1,0.7-0.1,1.1-0.1c0.6,0,1.2,0.1,1.7,0.3v1.2c-0.6-0.4-1.2-0.5-1.9-0.5c-0.2,0-0.4,0-0.6,0.1c-0.2,0.1-0.3,0.1-0.5,0.2
			s-0.2,0.2-0.3,0.3c-0.1,0.1-0.1,0.3-0.1,0.4c0,0.2,0,0.4,0.1,0.5c0.1,0.1,0.2,0.2,0.3,0.4c0.1,0.1,0.3,0.2,0.5,0.3
			c0.2,0.1,0.4,0.2,0.7,0.3c0.3,0.1,0.6,0.3,0.9,0.4c0.3,0.1,0.5,0.3,0.7,0.5c0.2,0.2,0.3,0.4,0.4,0.6c0.1,0.2,0.1,0.5,0.1,0.8
			c0,0.4-0.1,0.7-0.2,1s-0.4,0.5-0.7,0.7c-0.3,0.2-0.6,0.3-0.9,0.4s-0.7,0.1-1.1,0.1C336.7,125.2,336,125,335.4,124.7z"/>
		<path class="st6" d="M347,114.5l-5,12.2h-1.1l5-12.2H347z"/>
		<path class="st6" d="M353.2,124.7c-0.6,0.3-1.3,0.5-2.1,0.5c-1.1,0-1.9-0.3-2.6-1c-0.7-0.7-1-1.6-1-2.7c0-1.2,0.4-2.2,1.1-3
			c0.7-0.7,1.7-1.1,2.8-1.1c0.7,0,1.2,0.1,1.7,0.4v1.2c-0.6-0.4-1.2-0.6-1.8-0.6c-0.8,0-1.4,0.3-1.9,0.8c-0.5,0.5-0.7,1.3-0.7,2.2
			c0,0.9,0.2,1.6,0.7,2.1c0.5,0.5,1.1,0.8,1.9,0.8c0.7,0,1.3-0.2,1.8-0.7V124.7z"/>
		<path class="st6" d="M358.9,118.7c-0.2-0.2-0.5-0.2-0.9-0.2c-0.5,0-0.9,0.2-1.3,0.7c-0.3,0.5-0.5,1.1-0.5,2v3.8H355v-7.5h1.2v1.5
			h0c0.2-0.5,0.4-0.9,0.8-1.2c0.4-0.3,0.7-0.4,1.2-0.4c0.3,0,0.6,0,0.7,0.1V118.7z"/>
		<path class="st6" d="M363.4,125.2c-1.1,0-2-0.4-2.7-1.1c-0.7-0.7-1-1.6-1-2.8c0-1.3,0.3-2.2,1-3s1.6-1.1,2.8-1.1
			c1.1,0,2,0.3,2.6,1c0.6,0.7,0.9,1.6,0.9,2.9c0,1.2-0.3,2.2-1,2.9C365.4,124.8,364.5,125.2,363.4,125.2z M363.5,118.3
			c-0.8,0-1.4,0.3-1.8,0.8c-0.4,0.5-0.7,1.2-0.7,2.2c0,0.9,0.2,1.6,0.7,2.1c0.5,0.5,1.1,0.8,1.8,0.8c0.8,0,1.4-0.3,1.8-0.8
			c0.4-0.5,0.6-1.2,0.6-2.1c0-0.9-0.2-1.7-0.6-2.2C364.8,118.6,364.2,118.3,363.5,118.3z"/>
		<path class="st6" d="M368.6,124.7v-1.3c0.7,0.5,1.4,0.7,2.2,0.7c1.1,0,1.6-0.4,1.6-1.1c0-0.2,0-0.4-0.1-0.5
			c-0.1-0.1-0.2-0.3-0.4-0.4c-0.2-0.1-0.3-0.2-0.5-0.3c-0.2-0.1-0.4-0.2-0.7-0.3c-0.3-0.1-0.6-0.3-0.9-0.4c-0.3-0.1-0.5-0.3-0.6-0.5
			c-0.2-0.2-0.3-0.4-0.4-0.6c-0.1-0.2-0.1-0.5-0.1-0.8c0-0.4,0.1-0.7,0.2-0.9c0.2-0.3,0.4-0.5,0.6-0.7c0.3-0.2,0.6-0.3,0.9-0.4
			c0.3-0.1,0.7-0.1,1.1-0.1c0.6,0,1.2,0.1,1.7,0.3v1.2c-0.6-0.4-1.2-0.5-1.9-0.5c-0.2,0-0.4,0-0.6,0.1c-0.2,0.1-0.3,0.1-0.5,0.2
			s-0.2,0.2-0.3,0.3c-0.1,0.1-0.1,0.3-0.1,0.4c0,0.2,0,0.4,0.1,0.5c0.1,0.1,0.2,0.2,0.3,0.4c0.1,0.1,0.3,0.2,0.5,0.3
			c0.2,0.1,0.4,0.2,0.7,0.3c0.3,0.1,0.6,0.3,0.9,0.4c0.3,0.1,0.5,0.3,0.7,0.5c0.2,0.2,0.3,0.4,0.4,0.6c0.1,0.2,0.1,0.5,0.1,0.8
			c0,0.4-0.1,0.7-0.2,1s-0.4,0.5-0.7,0.7c-0.3,0.2-0.6,0.3-0.9,0.4s-0.7,0.1-1.1,0.1C369.8,125.2,369.1,125,368.6,124.7z"/>
		<path class="st6" d="M374.9,124.7v-1.3c0.7,0.5,1.4,0.7,2.2,0.7c1.1,0,1.6-0.4,1.6-1.1c0-0.2,0-0.4-0.1-0.5
			c-0.1-0.1-0.2-0.3-0.4-0.4c-0.2-0.1-0.3-0.2-0.5-0.3c-0.2-0.1-0.4-0.2-0.7-0.3c-0.3-0.1-0.6-0.3-0.9-0.4c-0.3-0.1-0.5-0.3-0.6-0.5
			c-0.2-0.2-0.3-0.4-0.4-0.6c-0.1-0.2-0.1-0.5-0.1-0.8c0-0.4,0.1-0.7,0.2-0.9c0.2-0.3,0.4-0.5,0.6-0.7c0.3-0.2,0.6-0.3,0.9-0.4
			c0.3-0.1,0.7-0.1,1.1-0.1c0.6,0,1.2,0.1,1.7,0.3v1.2c-0.6-0.4-1.2-0.5-1.9-0.5c-0.2,0-0.4,0-0.6,0.1c-0.2,0.1-0.3,0.1-0.5,0.2
			s-0.2,0.2-0.3,0.3c-0.1,0.1-0.1,0.3-0.1,0.4c0,0.2,0,0.4,0.1,0.5c0.1,0.1,0.2,0.2,0.3,0.4c0.1,0.1,0.3,0.2,0.5,0.3
			c0.2,0.1,0.4,0.2,0.7,0.3c0.3,0.1,0.6,0.3,0.9,0.4c0.3,0.1,0.5,0.3,0.7,0.5c0.2,0.2,0.3,0.4,0.4,0.6c0.1,0.2,0.1,0.5,0.1,0.8
			c0,0.4-0.1,0.7-0.2,1s-0.4,0.5-0.7,0.7c-0.3,0.2-0.6,0.3-0.9,0.4s-0.7,0.1-1.1,0.1C376.2,125.2,375.5,125,374.9,124.7z"/>
		<path class="st6" d="M391.2,117.5L389,125h-1.2l-1.5-5.4c-0.1-0.2-0.1-0.4-0.1-0.7h0c0,0.2-0.1,0.4-0.2,0.7l-1.7,5.4H383l-2.3-7.5
			h1.3l1.6,5.6c0,0.2,0.1,0.4,0.1,0.7h0.1c0-0.2,0.1-0.4,0.1-0.7l1.7-5.6h1.1l1.6,5.7c0,0.2,0.1,0.4,0.1,0.7h0.1
			c0-0.2,0.1-0.4,0.1-0.7l1.5-5.7H391.2z"/>
		<path class="st6" d="M393.2,115.6c-0.2,0-0.4-0.1-0.5-0.2s-0.2-0.3-0.2-0.6s0.1-0.4,0.2-0.6c0.2-0.1,0.3-0.2,0.5-0.2
			c0.2,0,0.4,0.1,0.6,0.2c0.2,0.1,0.2,0.3,0.2,0.6c0,0.2-0.1,0.4-0.2,0.5C393.6,115.5,393.4,115.6,393.2,115.6z M393.8,125h-1.2
			v-7.5h1.2V125z"/>
		<path class="st6" d="M402.5,125h-1.2v-4.3c0-1.6-0.6-2.4-1.7-2.4c-0.6,0-1.1,0.2-1.5,0.7c-0.4,0.5-0.6,1-0.6,1.7v4.3h-1.2v-7.5
			h1.2v1.2h0c0.6-0.9,1.4-1.4,2.5-1.4c0.8,0,1.4,0.3,1.9,0.8c0.4,0.5,0.7,1.3,0.7,2.3V125z"/>
		<path class="st6" d="M411.1,125h-1.2v-1.3h0c-0.6,1-1.4,1.5-2.6,1.5c-0.9,0-1.7-0.3-2.3-1c-0.6-0.7-0.8-1.6-0.8-2.7
			c0-1.2,0.3-2.2,0.9-3c0.6-0.7,1.5-1.1,2.5-1.1c1,0,1.8,0.4,2.2,1.2h0v-4.6h1.2V125z M409.9,121.6v-1.1c0-0.6-0.2-1.1-0.6-1.5
			s-0.9-0.6-1.5-0.6c-0.7,0-1.3,0.3-1.7,0.8s-0.6,1.3-0.6,2.2c0,0.9,0.2,1.5,0.6,2c0.4,0.5,0.9,0.8,1.6,0.8c0.7,0,1.2-0.2,1.6-0.7
			C409.7,123,409.9,122.3,409.9,121.6z"/>
		<path class="st6" d="M416.7,125.2c-1.1,0-2-0.4-2.7-1.1c-0.7-0.7-1-1.6-1-2.8c0-1.3,0.3-2.2,1-3s1.6-1.1,2.8-1.1
			c1.1,0,2,0.3,2.6,1c0.6,0.7,0.9,1.6,0.9,2.9c0,1.2-0.3,2.2-1,2.9C418.7,124.8,417.8,125.2,416.7,125.2z M416.8,118.3
			c-0.8,0-1.4,0.3-1.8,0.8c-0.4,0.5-0.7,1.2-0.7,2.2c0,0.9,0.2,1.6,0.7,2.1c0.5,0.5,1.1,0.8,1.8,0.8c0.8,0,1.4-0.3,1.8-0.8
			c0.4-0.5,0.6-1.2,0.6-2.1c0-0.9-0.2-1.7-0.6-2.2C418.1,118.6,417.5,118.3,416.8,118.3z"/>
		<path class="st6" d="M431.8,117.5l-2.2,7.5h-1.2l-1.5-5.4c-0.1-0.2-0.1-0.4-0.1-0.7h0c0,0.2-0.1,0.4-0.2,0.7l-1.7,5.4h-1.2
			l-2.3-7.5h1.3l1.6,5.6c0,0.2,0.1,0.4,0.1,0.7h0.1c0-0.2,0.1-0.4,0.1-0.7l1.7-5.6h1.1l1.6,5.7c0,0.2,0.1,0.4,0.1,0.7h0.1
			c0-0.2,0.1-0.4,0.1-0.7l1.5-5.7H431.8z"/>
	</g>
</g>
<g>
	<g>
		<g id="WebAssembly_1_">
			<path class="st7" d="M268.5,90.5V75.8c0-4.4-3.6-8-8-8h-152c-4.4,0-8,3.6-8,8v14.7c0,4.4-3.6,8-8,8h-5c-4.4,0-6,3.6-6,8v16.3
				c0,4.4,1.6,8,6,8h1h180h443c4.4,0,6-3.6,6-8v-16.3c0-4.4-1.6-8-6-8h-435C272.1,98.5,268.5,94.9,268.5,90.5z"/>
			<polyline class="st7" points="80,139 80,99 720,99 720,139 			"/>
			<path class="st8" d="M207,103h412c8.8,0,16,7.2,16,16l0,0c0,8.8-7.2,16-16,16H207c-8.8,0-16-7.2-16-16l0,0
				C191,110.2,198.2,103,207,103z"/>
		</g>
		<g class="st4">
			<path class="st5" d="M234.1,124.5h-1.2v-1.2h0c-0.5,0.9-1.3,1.3-2.3,1.3c-0.7,0-1.3-0.2-1.8-0.6c-0.4-0.4-0.6-0.9-0.6-1.6
				c0-1.4,0.8-2.2,2.5-2.4l2.2-0.3c0-1.3-0.5-1.9-1.5-1.9c-0.9,0-1.7,0.3-2.4,0.9v-1.2c0.7-0.5,1.6-0.7,2.5-0.7
				c1.8,0,2.6,0.9,2.6,2.8V124.5z M232.9,120.7l-1.8,0.2c-0.6,0.1-1,0.2-1.3,0.4c-0.3,0.2-0.4,0.5-0.4,1.1c0,0.4,0.1,0.7,0.4,0.9
				c0.3,0.2,0.6,0.3,1,0.3c0.6,0,1.1-0.2,1.5-0.6c0.4-0.4,0.6-0.9,0.6-1.6V120.7z"/>
			<path class="st5" d="M237.5,124.5h-1.2v-11.1h1.2V124.5z"/>
			<path class="st5" d="M245.3,124.5h-1.2v-1.2h0c-0.5,0.9-1.3,1.3-2.3,1.3c-0.7,0-1.3-0.2-1.8-0.6c-0.4-0.4-0.6-0.9-0.6-1.6
				c0-1.4,0.8-2.2,2.5-2.4l2.2-0.3c0-1.3-0.5-1.9-1.5-1.9c-0.9,0-1.7,0.3-2.4,0.9v-1.2c0.7-0.5,1.6-0.7,2.5-0.7
				c1.8,0,2.6,0.9,2.6,2.8V124.5z M244.1,120.7l-1.8,0.2c-0.6,0.1-1,0.2-1.3,0.4c-0.3,0.2-0.4,0.5-0.4,1.1c0,0.4,0.1,0.7,0.4,0.9
				c0.3,0.2,0.6,0.3,1,0.3c0.6,0,1.1-0.2,1.5-0.6c0.4-0.4,0.6-0.9,0.6-1.6V120.7z"/>
			<path class="st5" d="M248.2,115.1c-0.2,0-0.4-0.1-0.5-0.2s-0.2-0.3-0.2-0.6s0.1-0.4,0.2-0.6c0.2-0.1,0.3-0.2,0.5-0.2
				c0.2,0,0.4,0.1,0.6,0.2c0.2,0.1,0.2,0.3,0.2,0.6c0,0.2-0.1,0.4-0.2,0.5C248.6,115,248.4,115.1,248.2,115.1z M248.8,124.5h-1.2
				V117h1.2V124.5z"/>
			<path class="st5" d="M257.5,124.5h-1.2v-4.3c0-1.6-0.6-2.4-1.7-2.4c-0.6,0-1.1,0.2-1.5,0.7c-0.4,0.5-0.6,1-0.6,1.7v4.3h-1.2V117
				h1.2v1.2h0c0.6-0.9,1.4-1.4,2.5-1.4c0.8,0,1.4,0.3,1.9,0.8c0.4,0.5,0.7,1.3,0.7,2.3V124.5z"/>
			<path class="st5" d="M260.2,124.7c-0.2,0-0.4-0.1-0.6-0.2c-0.2-0.2-0.2-0.4-0.2-0.6s0.1-0.4,0.2-0.6c0.2-0.2,0.4-0.2,0.6-0.2
				c0.2,0,0.4,0.1,0.6,0.2c0.2,0.2,0.2,0.4,0.2,0.6s-0.1,0.4-0.2,0.6C260.6,124.6,260.4,124.7,260.2,124.7z"/>
			<path class="st5" d="M268.5,117l-2.5,3.8l2.5,3.7H267l-1.5-2.4c-0.1-0.2-0.2-0.3-0.3-0.6h0c0,0-0.1,0.2-0.3,0.6l-1.5,2.4H262
				l2.6-3.7l-2.4-3.8h1.4l1.5,2.6c0.1,0.2,0.2,0.4,0.3,0.6h0l1.9-3.1H268.5z"/>
			<path class="st5" d="M275.8,117l-3.4,8.7c-0.6,1.6-1.5,2.3-2.6,2.3c-0.3,0-0.6,0-0.8-0.1v-1.1c0.3,0.1,0.5,0.1,0.7,0.1
				c0.6,0,1.1-0.4,1.4-1.1l0.6-1.4l-2.9-7.5h1.3l2,5.8c0,0.1,0.1,0.3,0.2,0.6h0c0-0.1,0.1-0.3,0.1-0.6l2.1-5.8H275.8z"/>
			<path class="st5" d="M282.4,117.3l-4.4,6.1h4.4v1h-6.2v-0.4l4.4-6.1h-4v-1h5.8V117.3z"/>
		</g>
		<g class="st4">
			<path class="st6" d="M288.7,114l-5,12.2h-1.1l5-12.2H288.7z"/>
			<path class="st6" d="M291,123.4L291,123.4l0,1.1h-1.2v-11.1h1.2v4.9h0c0.6-1,1.5-1.5,2.6-1.5c1,0,1.7,0.3,2.3,1
				c0.5,0.7,0.8,1.6,0.8,2.7c0,1.3-0.3,2.3-0.9,3c-0.6,0.8-1.4,1.1-2.5,1.1C292.2,124.7,291.5,124.3,291,123.4z M291,120.4v1
				c0,0.6,0.2,1.1,0.6,1.6c0.4,0.4,0.9,0.6,1.5,0.6c0.7,0,1.3-0.3,1.7-0.8s0.6-1.3,0.6-2.3c0-0.8-0.2-1.5-0.6-2
				c-0.4-0.5-0.9-0.7-1.6-0.7c-0.7,0-1.3,0.2-1.7,0.7C291.2,119,291,119.7,291,120.4z"/>
			<path class="st6" d="M299.8,124.5h-1.2v-11.1h1.2V124.5z"/>
			<path class="st6" d="M305.3,124.7c-1.1,0-2-0.4-2.7-1.1c-0.7-0.7-1-1.6-1-2.8c0-1.3,0.3-2.2,1-3s1.6-1.1,2.8-1.1
				c1.1,0,2,0.3,2.6,1c0.6,0.7,0.9,1.6,0.9,2.9c0,1.2-0.3,2.2-1,2.9C307.4,124.3,306.5,124.7,305.3,124.7z M305.4,117.8
				c-0.8,0-1.4,0.3-1.8,0.8c-0.4,0.5-0.7,1.2-0.7,2.2c0,0.9,0.2,1.6,0.7,2.1c0.5,0.5,1.1,0.8,1.8,0.8c0.8,0,1.4-0.3,1.8-0.8
				c0.4-0.5,0.6-1.2,0.6-2.1c0-0.9-0.2-1.7-0.6-2.2C306.8,118.1,306.2,117.8,305.4,117.8z"/>
			<path class="st6" d="M317.4,123.9c0,2.8-1.3,4.1-4,4.1c-0.9,0-1.7-0.2-2.4-0.5v-1.2c0.8,0.5,1.7,0.7,2.4,0.7c1.8,0,2.8-1,2.8-2.9
				v-0.8h0c-0.6,1-1.4,1.4-2.6,1.4c-0.9,0-1.7-0.3-2.3-1c-0.6-0.7-0.9-1.6-0.9-2.7c0-1.3,0.3-2.3,0.9-3s1.5-1.1,2.5-1.1
				c1,0,1.8,0.4,2.2,1.2h0v-1h1.2V123.9z M316.2,121.1V120c0-0.6-0.2-1.1-0.6-1.5c-0.4-0.4-0.9-0.6-1.5-0.6c-0.7,0-1.3,0.3-1.7,0.8
				c-0.4,0.5-0.6,1.3-0.6,2.3c0,0.8,0.2,1.5,0.6,2c0.4,0.5,0.9,0.8,1.6,0.8c0.7,0,1.2-0.2,1.6-0.7S316.2,121.9,316.2,121.1z"/>
			<path class="st6" d="M324.6,114l-5,12.2h-1.1l5-12.2H324.6z"/>
			<path class="st6" d="M329.6,118.2c-0.2-0.2-0.5-0.2-0.9-0.2c-0.5,0-0.9,0.2-1.3,0.7c-0.3,0.5-0.5,1.1-0.5,2v3.8h-1.2V117h1.2v1.5
				h0c0.2-0.5,0.4-0.9,0.8-1.2c0.4-0.3,0.7-0.4,1.2-0.4c0.3,0,0.6,0,0.7,0.1V118.2z"/>
			<path class="st6" d="M336.3,124.5h-1.2v-1.2h0c-0.5,0.9-1.3,1.3-2.3,1.3c-0.7,0-1.3-0.2-1.8-0.6c-0.4-0.4-0.6-0.9-0.6-1.6
				c0-1.4,0.8-2.2,2.5-2.4l2.2-0.3c0-1.3-0.5-1.9-1.5-1.9c-0.9,0-1.7,0.3-2.4,0.9v-1.2c0.7-0.5,1.6-0.7,2.5-0.7
				c1.8,0,2.6,0.9,2.6,2.8V124.5z M335.1,120.7l-1.8,0.2c-0.6,0.1-1,0.2-1.3,0.4c-0.3,0.2-0.4,0.5-0.4,1.1c0,0.4,0.1,0.7,0.4,0.9
				c0.3,0.2,0.6,0.3,1,0.3c0.6,0,1.1-0.2,1.5-0.6c0.4-0.4,0.6-0.9,0.6-1.6V120.7z"/>
			<path class="st6" d="M348,117l-2.2,7.5h-1.2l-1.5-5.4c-0.1-0.2-0.1-0.4-0.1-0.7h0c0,0.2-0.1,0.4-0.2,0.7l-1.7,5.4h-1.2l-2.3-7.5
				h1.3l1.6,5.6c0,0.2,0.1,0.4,0.1,0.7h0.1c0-0.2,0.1-0.4,0.1-0.7l1.7-5.6h1.1l1.6,5.7c0,0.2,0.1,0.4,0.1,0.7h0.1
				c0-0.2,0.1-0.4,0.1-0.7l1.5-5.7H348z"/>
			<path class="st6" d="M353.2,120.8h-4v-0.9h4V120.8z"/>
			<path class="st6" d="M364.8,117l-2.2,7.5h-1.2l-1.5-5.4c-0.1-0.2-0.1-0.4-0.1-0.7h0c0,0.2-0.1,0.4-0.2,0.7l-1.7,5.4h-1.2
				l-2.3-7.5h1.3l1.6,5.6c0,0.2,0.1,0.4,0.1,0.7h0.1c0-0.2,0.1-0.4,0.1-0.7l1.7-5.6h1.1l1.6,5.7c0,0.2,0.1,0.4,0.1,0.7h0.1
				c0-0.2,0.1-0.4,0.1-0.7l1.5-5.7H364.8z"/>
			<path class="st6" d="M372.2,121.1h-5.3c0,0.8,0.2,1.5,0.7,1.9c0.4,0.5,1,0.7,1.8,0.7c0.8,0,1.6-0.3,2.3-0.8v1.1
				c-0.7,0.5-1.5,0.7-2.6,0.7c-1.1,0-1.9-0.3-2.5-1c-0.6-0.7-0.9-1.6-0.9-2.9c0-1.2,0.3-2.1,1-2.9c0.7-0.7,1.5-1.1,2.5-1.1
				s1.7,0.3,2.3,1s0.8,1.5,0.8,2.6V121.1z M371,120c0-0.7-0.2-1.2-0.5-1.6c-0.3-0.4-0.8-0.6-1.4-0.6c-0.6,0-1,0.2-1.4,0.6
				s-0.6,0.9-0.7,1.6H371z"/>
			<path class="st6" d="M375.3,123.4L375.3,123.4l0,1.1H374v-11.1h1.2v4.9h0c0.6-1,1.5-1.5,2.6-1.5c1,0,1.7,0.3,2.3,1
				c0.5,0.7,0.8,1.6,0.8,2.7c0,1.3-0.3,2.3-0.9,3c-0.6,0.8-1.4,1.1-2.5,1.1C376.5,124.7,375.8,124.3,375.3,123.4z M375.2,120.4v1
				c0,0.6,0.2,1.1,0.6,1.6c0.4,0.4,0.9,0.6,1.5,0.6c0.7,0,1.3-0.3,1.7-0.8s0.6-1.3,0.6-2.3c0-0.8-0.2-1.5-0.6-2
				c-0.4-0.5-0.9-0.7-1.6-0.7c-0.7,0-1.3,0.2-1.7,0.7C375.5,119,375.2,119.7,375.2,120.4z"/>
			<path class="st6" d="M389.3,123.9c0,2.8-1.3,4.1-4,4.1c-0.9,0-1.7-0.2-2.4-0.5v-1.2c0.8,0.5,1.7,0.7,2.4,0.7c1.8,0,2.8-1,2.8-2.9
				v-0.8h0c-0.6,1-1.4,1.4-2.6,1.4c-0.9,0-1.7-0.3-2.3-1c-0.6-0.7-0.9-1.6-0.9-2.7c0-1.3,0.3-2.3,0.9-3s1.5-1.1,2.5-1.1
				c1,0,1.8,0.4,2.2,1.2h0v-1h1.2V123.9z M388.1,121.1V120c0-0.6-0.2-1.1-0.6-1.5c-0.4-0.4-0.9-0.6-1.5-0.6c-0.7,0-1.3,0.3-1.7,0.8
				c-0.4,0.5-0.6,1.3-0.6,2.3c0,0.8,0.2,1.5,0.6,2c0.4,0.5,0.9,0.8,1.6,0.8c0.7,0,1.2-0.2,1.6-0.7S388.1,121.9,388.1,121.1z"/>
			<path class="st6" d="M392.9,123.4L392.9,123.4l0,4.5h-1.2V117h1.2v1.3h0c0.6-1,1.5-1.5,2.6-1.5c1,0,1.7,0.3,2.3,1
				c0.5,0.7,0.8,1.6,0.8,2.7c0,1.3-0.3,2.3-0.9,3c-0.6,0.8-1.4,1.1-2.5,1.1C394.2,124.7,393.5,124.3,392.9,123.4z M392.9,120.4v1
				c0,0.6,0.2,1.1,0.6,1.6c0.4,0.4,0.9,0.6,1.5,0.6c0.7,0,1.3-0.3,1.7-0.8s0.6-1.3,0.6-2.3c0-0.8-0.2-1.5-0.6-2
				c-0.4-0.5-0.9-0.7-1.6-0.7c-0.7,0-1.3,0.2-1.7,0.7C393.1,119,392.9,119.7,392.9,120.4z"/>
			<path class="st6" d="M406.6,124.5h-1.2v-1.2h0c-0.5,0.9-1.3,1.4-2.3,1.4c-1.8,0-2.7-1.1-2.7-3.2V117h1.2v4.3
				c0,1.6,0.6,2.4,1.8,2.4c0.6,0,1.1-0.2,1.4-0.6c0.4-0.4,0.6-1,0.6-1.7V117h1.2V124.5z"/>
		</g>
		<polyline class="st9" points="98.5,112.5 92.5,118.5 98.5,125.5 		"/>
		<line class="st10" x1="106" y1="118.5" x2="93" y2="118.5"/>
		<polyline class="st11" points="133,112.5 139,118.5 133,125.5 		"/>
		<line class="st11" x1="125.5" y1="118.5" x2="138.5" y2="118.5"/>
		<g class="st4">
			<path class="st5" d="M144.4,88.5h-1.5l-1.8-2.9c-0.2-0.3-0.3-0.5-0.5-0.7c-0.2-0.2-0.3-0.4-0.5-0.5c-0.2-0.1-0.3-0.2-0.5-0.3
				c-0.2-0.1-0.4-0.1-0.6-0.1h-1v4.5h-1.2V78h3.1c0.5,0,0.9,0.1,1.3,0.2c0.4,0.1,0.7,0.3,1,0.5c0.3,0.2,0.5,0.5,0.7,0.9
				c0.2,0.3,0.2,0.8,0.2,1.2c0,0.4-0.1,0.7-0.2,1c-0.1,0.3-0.3,0.6-0.5,0.8s-0.4,0.4-0.7,0.6c-0.3,0.2-0.6,0.3-1,0.4v0
				c0.2,0.1,0.3,0.2,0.5,0.3c0.1,0.1,0.3,0.2,0.4,0.4c0.1,0.1,0.2,0.3,0.3,0.5c0.1,0.2,0.2,0.4,0.4,0.6L144.4,88.5z M138.1,79.1v3.8
				h1.7c0.3,0,0.6,0,0.9-0.1c0.3-0.1,0.5-0.2,0.7-0.4c0.2-0.2,0.3-0.4,0.4-0.6c0.1-0.3,0.2-0.5,0.2-0.8c0-0.6-0.2-1-0.5-1.3
				c-0.4-0.3-0.9-0.5-1.6-0.5H138.1z"/>
			<path class="st5" d="M151.1,88.5h-1.2v-1.2h0c-0.5,0.9-1.3,1.3-2.3,1.3c-0.7,0-1.3-0.2-1.8-0.6c-0.4-0.4-0.6-0.9-0.6-1.6
				c0-1.4,0.8-2.2,2.5-2.4l2.2-0.3c0-1.3-0.5-1.9-1.5-1.9c-0.9,0-1.7,0.3-2.4,0.9v-1.2c0.7-0.5,1.6-0.7,2.5-0.7
				c1.8,0,2.6,0.9,2.6,2.8V88.5z M149.9,84.7L148,85c-0.6,0.1-1,0.2-1.3,0.4c-0.3,0.2-0.4,0.5-0.4,1.1c0,0.4,0.1,0.7,0.4,0.9
				c0.3,0.2,0.6,0.3,1,0.3c0.6,0,1.1-0.2,1.5-0.6c0.4-0.4,0.6-0.9,0.6-1.6V84.7z"/>
			<path class="st5" d="M162.8,81l-2.2,7.5h-1.2l-1.5-5.4c-0.1-0.2-0.1-0.4-0.1-0.7h0c0,0.2-0.1,0.4-0.2,0.7l-1.7,5.4h-1.2l-2.3-7.5
				h1.3l1.6,5.6c0,0.2,0.1,0.4,0.1,0.7h0.1c0-0.2,0.1-0.4,0.1-0.7l1.7-5.6h1.1l1.6,5.7c0,0.2,0.1,0.4,0.1,0.7h0.1
				c0-0.2,0.1-0.4,0.1-0.7l1.5-5.7H162.8z"/>
			<path class="st5" d="M180.9,78l-3,10.5h-1.4l-2.2-7.7c-0.1-0.3-0.1-0.7-0.2-1.1h0c0,0.4-0.1,0.7-0.2,1.1l-2.2,7.7h-1.4L167.2,78
				h1.4l2.2,8.1c0.1,0.3,0.2,0.7,0.2,1.1h0c0-0.3,0.1-0.6,0.2-1.1l2.3-8.1h1.2l2.2,8.1c0.1,0.3,0.1,0.6,0.2,1h0c0-0.3,0.1-0.6,0.2-1
				l2.1-8.1H180.9z"/>
			<path class="st5" d="M187.7,85.1h-5.3c0,0.8,0.2,1.5,0.7,1.9c0.4,0.5,1,0.7,1.8,0.7c0.8,0,1.6-0.3,2.3-0.8V88
				c-0.7,0.5-1.5,0.7-2.6,0.7c-1.1,0-1.9-0.3-2.5-1c-0.6-0.7-0.9-1.6-0.9-2.9c0-1.2,0.3-2.1,1-2.9c0.7-0.7,1.5-1.1,2.5-1.1
				s1.7,0.3,2.3,1s0.8,1.5,0.8,2.6V85.1z M186.5,84c0-0.7-0.2-1.2-0.5-1.6c-0.3-0.4-0.8-0.6-1.4-0.6c-0.6,0-1,0.2-1.4,0.6
				s-0.6,0.9-0.7,1.6H186.5z"/>
			<path class="st5" d="M190.8,87.4L190.8,87.4l0,1.1h-1.2V77.4h1.2v4.9h0c0.6-1,1.5-1.5,2.6-1.5c1,0,1.7,0.3,2.3,1
				c0.5,0.7,0.8,1.6,0.8,2.7c0,1.3-0.3,2.3-0.9,3c-0.6,0.8-1.4,1.1-2.5,1.1C192,88.7,191.3,88.3,190.8,87.4z M190.7,84.4v1
				c0,0.6,0.2,1.1,0.6,1.6c0.4,0.4,0.9,0.6,1.5,0.6c0.7,0,1.3-0.3,1.7-0.8s0.6-1.3,0.6-2.3c0-0.8-0.2-1.5-0.6-2
				c-0.4-0.5-0.9-0.7-1.6-0.7c-0.7,0-1.3,0.2-1.7,0.7C191,83,190.7,83.7,190.7,84.4z"/>
			<path class="st5" d="M206.4,87.8c-1.1,0.6-2.2,0.9-3.5,0.9c-1.5,0-2.7-0.5-3.6-1.5s-1.4-2.2-1.4-3.8c0-1.6,0.5-3,1.5-4
				c1-1,2.3-1.6,3.9-1.6c1.1,0,2.1,0.2,2.9,0.6v1.4c-0.8-0.5-1.9-0.8-3-0.8c-1.2,0-2.1,0.4-2.9,1.2s-1.1,1.9-1.1,3.1
				c0,1.3,0.3,2.4,1,3.1c0.7,0.8,1.6,1.1,2.8,1.1c0.8,0,1.5-0.2,2.1-0.5v-2.9h-2.3V83h3.5V87.8z"/>
			<path class="st5" d="M210,84.5v4h-1.2V78h2.9c1.1,0,2,0.3,2.6,0.8c0.6,0.5,0.9,1.3,0.9,2.3s-0.3,1.8-1,2.4c-0.7,0.6-1.6,1-2.8,1
				H210z M210,79.1v4.3h1.3c0.8,0,1.5-0.2,1.9-0.6c0.4-0.4,0.7-0.9,0.7-1.6c0-1.4-0.8-2.1-2.5-2.1H210z"/>
			<path class="st5" d="M224.9,84.3c0,2.9-1.3,4.4-4,4.4c-2.5,0-3.8-1.4-3.8-4.3V78h1.2v6.3c0,2.2,0.9,3.2,2.7,3.2
				c1.8,0,2.6-1,2.6-3.1V78h1.2V84.3z"/>
		</g>
		<path class="st12" d="M173,120.5c-1,2.3-3.3,4-6,4c-3.6,0-6.5-2.9-6.5-6.5s2.9-6.5,6.5-6.5c2.3,0,4.3,1.2,5.5,3l-3,3h6v-6
			l-1.6,1.6c-1.5-2.2-4.1-3.6-6.9-3.6c-4.7,0-8.5,3.8-8.5,8.5s3.8,8.5,8.5,8.5c3.8,0,7-2.5,8.1-6H173z"/>
		<polygon class="st13" points="617.5,111.4 619.3,117 625.2,117 620.4,120.5 622.3,126 617.5,122.6 612.7,126 614.6,120.5 
			609.8,117 615.7,117 		"/>
		<path class="st14" d="M212.5,124.5h-6c-0.6,0-1-0.4-1-1v-6c0-0.5,0.4-1,1-1h6c0.6,0,1,0.5,1,1v6
			C213.5,124.1,213.1,124.5,212.5,124.5z"/>
		<path class="st15" d="M207.5,117.1v-1.7c0-1.1,0.9-2,2-2s2,0.9,2,2v1.7"/>
	</g>
	<circle class="st0" cx="661" cy="117" r="12"/>
	<g>
		<line class="st16" x1="291" y1="76" x2="291" y2="88"/>
		<line class="st16" x1="285" y1="82" x2="297" y2="82"/>
	</g>
	<g>
		<line class="st17" x1="253" y1="79" x2="260" y2="86"/>
		<line class="st17" x1="260" y1="79" x2="253" y2="86.1"/>
	</g>
</g>
<circle class="st5" cx="697.2" cy="110.7" r="2"/>
<circle class="st5" cx="697.2" cy="116.7" r="2"/>
<circle class="st5" cx="697.2" cy="122.7" r="2"/>
<circle class="st18" cx="120" cy="84" r="8"/>
</svg>
