<?xml version="1.0" encoding="UTF-8" standalone="no"?><!DOCTYPE svg PUBLIC "-//W3C//DTD SVG 1.1//EN" "http://www.w3.org/Graphics/SVG/1.1/DTD/svg11.dtd"><svg width="100%" height="100%" viewBox="0 0 5000 2667" version="1.1" xmlns="http://www.w3.org/2000/svg" xmlns:xlink="http://www.w3.org/1999/xlink" xml:space="preserve" xmlns:serif="http://www.serif.com/" style="fill-rule:evenodd;clip-rule:evenodd;stroke-linejoin:round;stroke-miterlimit:1.5;"><path d="M1666.67,1750l0,-250" style="fill:none;stroke:#fff;stroke-width:25px;stroke-dasharray:25,25;"/><path d="M3333.33,1750l0,-250" style="fill:none;stroke:#fff;stroke-width:25px;stroke-dasharray:25,25;"/><rect x="1333.33" y="416.667" width="2333.33" height="1083.33" style="fill:none;"/><rect x="1333.33" y="416.667" width="2333.33" height="1083.33" style="fill:#2f42a3;"/><rect x="1500" y="750" width="2000" height="250" style="fill:#7a4ad0;"/><path d="M1779.81,884.684l0,-9.098l32.849,-0.053l0,28.776c-5.043,4.02 -10.245,7.044 -15.605,9.072c-5.36,2.028 -10.862,3.042 -16.504,3.042c-7.617,0 -14.538,-1.631 -20.762,-4.893c-6.224,-3.262 -10.923,-7.979 -14.097,-14.15c-3.174,-6.172 -4.761,-13.066 -4.761,-20.683c0,-7.547 1.578,-14.591 4.734,-21.133c3.157,-6.541 7.697,-11.399 13.621,-14.573c5.925,-3.174 12.749,-4.761 20.472,-4.761c5.607,0 10.676,0.909 15.208,2.725c4.531,1.816 8.084,4.346 10.658,7.59c2.575,3.245 4.532,7.477 5.872,12.696l-9.257,2.539c-1.164,-3.95 -2.61,-7.053 -4.338,-9.31c-1.728,-2.257 -4.196,-4.064 -7.405,-5.422c-3.209,-1.358 -6.771,-2.037 -10.685,-2.037c-4.691,0 -8.746,0.715 -12.167,2.143c-3.421,1.428 -6.18,3.306 -8.278,5.633c-2.098,2.328 -3.729,4.884 -4.893,7.67c-1.975,4.796 -2.962,9.998 -2.962,15.605c0,6.912 1.19,12.695 3.57,17.35c2.38,4.655 5.845,8.111 10.394,10.368c4.55,2.257 9.381,3.386 14.494,3.386c4.444,0 8.781,-0.856 13.013,-2.566c4.232,-1.71 7.441,-3.535 9.627,-5.475l0,-14.441l-22.798,0Z" style="fill:#fff;fill-rule:nonzero;"/><path d="M1827.78,915.1l0,-77.547l29.252,0c5.149,0 9.081,0.247 11.796,0.74c3.809,0.635 7,1.843 9.575,3.624c2.574,1.781 4.646,4.276 6.215,7.485c1.569,3.209 2.354,6.735 2.354,10.579c0,6.595 -2.098,12.175 -6.295,16.742c-4.196,4.567 -11.778,6.85 -22.745,6.85l-19.89,0l0,31.527l-10.262,0Zm10.262,-40.678l20.048,0c6.63,0 11.338,-1.234 14.124,-3.703c2.786,-2.468 4.179,-5.942 4.179,-10.42c0,-3.245 -0.82,-6.022 -2.46,-8.332c-1.64,-2.309 -3.8,-3.835 -6.48,-4.575c-1.728,-0.459 -4.919,-0.688 -9.574,-0.688l-19.837,0l0,27.718Z" style="fill:#fff;fill-rule:nonzero;"/><path d="M1950.93,837.553l10.262,0l0,44.804c0,7.793 -0.882,13.982 -2.645,18.567c-1.763,4.584 -4.946,8.313 -9.548,11.187c-4.602,2.874 -10.641,4.312 -18.117,4.312c-7.265,0 -13.207,-1.252 -17.827,-3.756c-4.619,-2.504 -7.917,-6.127 -9.891,-10.871c-1.975,-4.743 -2.963,-11.223 -2.963,-19.439l0,-44.804l10.262,0l0,44.751c0,6.735 0.626,11.699 1.878,14.89c1.252,3.192 3.403,5.652 6.454,7.38c3.05,1.728 6.779,2.592 11.187,2.592c7.547,0 12.925,-1.711 16.134,-5.131c3.209,-3.421 4.814,-9.998 4.814,-19.731l0,-44.751Z" style="fill:#fff;fill-rule:nonzero;"/><path d="M1977.85,915.1l0,-77.547l29.094,0c5.924,0 10.676,0.785 14.256,2.354c3.579,1.569 6.383,3.985 8.41,7.247c2.028,3.262 3.042,6.674 3.042,10.235c0,3.315 -0.899,6.436 -2.698,9.363c-1.798,2.927 -4.514,5.29 -8.146,7.088c4.69,1.376 8.296,3.721 10.817,7.036c2.522,3.315 3.783,7.229 3.783,11.743c0,3.632 -0.768,7.009 -2.302,10.13c-1.534,3.121 -3.429,5.527 -5.686,7.22c-2.257,1.693 -5.087,2.971 -8.49,3.835c-3.403,0.864 -7.573,1.296 -12.51,1.296l-29.57,0Zm10.262,-44.962l16.769,0c4.549,0 7.811,-0.3 9.786,-0.9c2.609,-0.776 4.575,-2.063 5.898,-3.861c1.322,-1.799 1.983,-4.056 1.983,-6.771c0,-2.574 -0.617,-4.84 -1.851,-6.797c-1.234,-1.958 -2.997,-3.298 -5.29,-4.021c-2.292,-0.722 -6.224,-1.084 -11.796,-1.084l-15.499,0l0,23.434Zm0,35.811l19.308,0c3.315,0 5.642,-0.124 6.982,-0.37c2.363,-0.424 4.338,-1.129 5.925,-2.116c1.587,-0.988 2.891,-2.425 3.914,-4.311c1.023,-1.887 1.534,-4.065 1.534,-6.533c0,-2.892 -0.74,-5.405 -2.221,-7.538c-1.482,-2.134 -3.536,-3.632 -6.163,-4.496c-2.627,-0.864 -6.409,-1.296 -11.346,-1.296l-17.933,0l0,26.66Z" style="fill:#fff;fill-rule:nonzero;"/><path d="M2049.37,848.503l0,-10.95l9.522,0l0,10.95l-9.522,0Zm0,66.597l0,-56.177l9.522,0l0,56.177l-9.522,0Z" style="fill:#fff;fill-rule:nonzero;"/><path d="M2073.39,915.1l0,-56.177l8.569,0l0,7.988c4.126,-6.172 10.086,-9.257 17.879,-9.257c3.386,0 6.498,0.608 9.337,1.825c2.838,1.216 4.963,2.812 6.374,4.787c1.41,1.975 2.398,4.32 2.962,7.035c0.353,1.764 0.529,4.849 0.529,9.257l0,34.542l-9.522,0l0,-34.171c0,-3.88 -0.37,-6.78 -1.11,-8.702c-0.741,-1.922 -2.055,-3.456 -3.941,-4.602c-1.887,-1.146 -4.1,-1.719 -6.639,-1.719c-4.055,0 -7.555,1.287 -10.5,3.861c-2.945,2.575 -4.417,7.459 -4.417,14.653l0,30.68l-9.521,0Z" style="fill:#fff;fill-rule:nonzero;"/><path d="M2170.08,915.1l0,-7.088c-3.562,5.572 -8.799,8.358 -15.711,8.358c-4.479,0 -8.596,-1.235 -12.351,-3.703c-3.756,-2.469 -6.665,-5.916 -8.728,-10.342c-2.063,-4.425 -3.095,-9.512 -3.095,-15.26c0,-5.607 0.935,-10.694 2.804,-15.261c1.869,-4.567 4.672,-8.067 8.41,-10.5c3.738,-2.434 7.917,-3.65 12.537,-3.65c3.385,0 6.4,0.714 9.045,2.142c2.645,1.428 4.796,3.289 6.454,5.581l0,-27.824l9.468,0l0,77.547l-8.833,0Zm-30.099,-28.035c0,7.194 1.516,12.572 4.549,16.133c3.033,3.562 6.612,5.343 10.738,5.343c4.162,0 7.697,-1.702 10.606,-5.105c2.91,-3.403 4.364,-8.596 4.364,-15.578c0,-7.688 -1.481,-13.33 -4.443,-16.927c-2.962,-3.597 -6.612,-5.396 -10.95,-5.396c-4.232,0 -7.767,1.728 -10.606,5.184c-2.838,3.456 -4.258,8.905 -4.258,16.346Z" style="fill:#fff;fill-rule:nonzero;"/><path d="M2231.39,884.684l0,-9.098l32.849,-0.053l0,28.776c-5.042,4.02 -10.244,7.044 -15.604,9.072c-5.36,2.028 -10.862,3.042 -16.504,3.042c-7.617,0 -14.538,-1.631 -20.762,-4.893c-6.224,-3.262 -10.923,-7.979 -14.097,-14.15c-3.174,-6.172 -4.761,-13.066 -4.761,-20.683c0,-7.547 1.578,-14.591 4.734,-21.133c3.156,-6.541 7.697,-11.399 13.621,-14.573c5.925,-3.174 12.748,-4.761 20.471,-4.761c5.608,0 10.677,0.909 15.208,2.725c4.532,1.816 8.085,4.346 10.659,7.59c2.574,3.245 4.532,7.477 5.872,12.696l-9.257,2.539c-1.164,-3.95 -2.61,-7.053 -4.338,-9.31c-1.728,-2.257 -4.196,-4.064 -7.405,-5.422c-3.21,-1.358 -6.771,-2.037 -10.686,-2.037c-4.69,0 -8.745,0.715 -12.166,2.143c-3.421,1.428 -6.18,3.306 -8.278,5.633c-2.099,2.328 -3.73,4.884 -4.893,7.67c-1.975,4.796 -2.963,9.998 -2.963,15.605c0,6.912 1.191,12.695 3.571,17.35c2.38,4.655 5.845,8.111 10.394,10.368c4.549,2.257 9.381,3.386 14.494,3.386c4.443,0 8.781,-0.856 13.013,-2.566c4.232,-1.71 7.441,-3.535 9.627,-5.475l0,-14.441l-22.799,0Z" style="fill:#fff;fill-rule:nonzero;"/><path d="M2278.04,915.1l0,-56.177l8.569,0l0,8.517c2.186,-3.985 4.205,-6.612 6.057,-7.882c1.851,-1.269 3.888,-1.904 6.109,-1.904c3.209,0 6.471,1.022 9.786,3.068l-3.279,8.834c-2.328,-1.376 -4.655,-2.063 -6.983,-2.063c-2.08,0 -3.949,0.626 -5.607,1.878c-1.657,1.251 -2.839,2.988 -3.544,5.21c-1.058,3.385 -1.587,7.088 -1.587,11.108l0,29.411l-9.521,0Z" style="fill:#fff;fill-rule:nonzero;"/><path d="M2310.68,887.012c0,-10.403 2.892,-18.109 8.675,-23.116c4.832,-4.162 10.721,-6.242 17.668,-6.242c7.723,0 14.035,2.53 18.937,7.591c4.902,5.06 7.353,12.051 7.353,20.973c0,7.23 -1.085,12.916 -3.253,17.06c-2.169,4.143 -5.325,7.361 -9.469,9.653c-4.144,2.293 -8.666,3.439 -13.568,3.439c-7.864,0 -14.221,-2.522 -19.069,-7.565c-4.849,-5.043 -7.274,-12.307 -7.274,-21.793Zm9.786,0c0,7.194 1.569,12.58 4.708,16.16c3.139,3.579 7.088,5.369 11.849,5.369c4.725,0 8.657,-1.799 11.796,-5.396c3.139,-3.597 4.708,-9.08 4.708,-16.451c0,-6.947 -1.578,-12.21 -4.734,-15.789c-3.157,-3.58 -7.08,-5.37 -11.77,-5.37c-4.761,0 -8.71,1.781 -11.849,5.343c-3.139,3.562 -4.708,8.94 -4.708,16.134Z" style="fill:#fff;fill-rule:nonzero;"/><path d="M2411.29,915.1l0,-8.252c-4.373,6.348 -10.315,9.522 -17.827,9.522c-3.315,0 -6.409,-0.635 -9.283,-1.905c-2.874,-1.269 -5.008,-2.865 -6.401,-4.787c-1.393,-1.922 -2.371,-4.276 -2.936,-7.062c-0.388,-1.869 -0.581,-4.831 -0.581,-8.886l0,-34.807l9.521,0l0,31.157c0,4.972 0.194,8.322 0.582,10.05c0.599,2.504 1.869,4.47 3.808,5.898c1.94,1.428 4.338,2.143 7.194,2.143c2.857,0 5.537,-0.732 8.041,-2.196c2.504,-1.463 4.276,-3.456 5.316,-5.977c1.04,-2.521 1.56,-6.18 1.56,-10.976l0,-30.099l9.522,0l0,56.177l-8.516,0Z" style="fill:#fff;fill-rule:nonzero;"/><path d="M2434.72,936.629l0,-77.706l8.675,0l0,7.3c2.045,-2.856 4.355,-4.999 6.93,-6.427c2.574,-1.428 5.695,-2.142 9.362,-2.142c4.796,0 9.028,1.234 12.696,3.703c3.667,2.468 6.436,5.951 8.305,10.447c1.869,4.496 2.803,9.424 2.803,14.785c0,5.748 -1.031,10.923 -3.094,15.525c-2.063,4.602 -5.061,8.128 -8.993,10.579c-3.932,2.451 -8.067,3.677 -12.404,3.677c-3.174,0 -6.022,-0.67 -8.543,-2.01c-2.522,-1.341 -4.593,-3.033 -6.216,-5.079l0,27.348l-9.521,0Zm8.622,-49.3c0,7.229 1.464,12.572 4.391,16.028c2.927,3.456 6.471,5.184 10.632,5.184c4.232,0 7.855,-1.79 10.87,-5.369c3.015,-3.58 4.523,-9.125 4.523,-16.636c0,-7.159 -1.472,-12.519 -4.417,-16.081c-2.944,-3.562 -6.462,-5.343 -10.553,-5.343c-4.055,0 -7.644,1.896 -10.764,5.687c-3.121,3.791 -4.682,9.301 -4.682,16.53Z" style="fill:#fff;fill-rule:nonzero;"/><path d="M2495.77,915.1l0,-77.547l10.262,0l0,68.396l38.192,0l0,9.151l-48.454,0Z" style="fill:#fff;fill-rule:nonzero;"/><path d="M2591.88,908.171c-3.526,2.997 -6.92,5.113 -10.182,6.347c-3.262,1.234 -6.762,1.852 -10.5,1.852c-6.172,0 -10.915,-1.508 -14.23,-4.523c-3.315,-3.015 -4.972,-6.868 -4.972,-11.558c0,-2.751 0.626,-5.263 1.878,-7.538c1.252,-2.275 2.891,-4.099 4.919,-5.475c2.028,-1.375 4.311,-2.415 6.85,-3.121c1.869,-0.493 4.691,-0.97 8.464,-1.428c7.688,-0.917 13.348,-2.01 16.98,-3.28c0.035,-1.304 0.053,-2.133 0.053,-2.486c0,-3.879 -0.899,-6.612 -2.698,-8.199c-2.433,-2.151 -6.048,-3.227 -10.844,-3.227c-4.479,0 -7.785,0.785 -9.918,2.354c-2.134,1.57 -3.712,4.347 -4.734,8.332l-9.31,-1.27c0.846,-3.985 2.239,-7.203 4.179,-9.654c1.939,-2.45 4.743,-4.337 8.41,-5.66c3.668,-1.322 7.917,-1.983 12.748,-1.983c4.796,0 8.693,0.564 11.691,1.693c2.997,1.128 5.201,2.547 6.612,4.258c1.41,1.71 2.398,3.87 2.962,6.48c0.317,1.622 0.476,4.549 0.476,8.781l0,12.695c0,8.851 0.203,14.45 0.608,16.795c0.406,2.345 1.208,4.593 2.407,6.744l-9.944,0c-0.988,-1.975 -1.623,-4.285 -1.905,-6.929Zm-0.793,-21.265c-3.456,1.411 -8.64,2.61 -15.552,3.597c-3.914,0.564 -6.683,1.199 -8.305,1.904c-1.622,0.706 -2.874,1.737 -3.755,3.095c-0.882,1.357 -1.323,2.865 -1.323,4.522c0,2.539 0.961,4.655 2.883,6.348c1.922,1.693 4.734,2.539 8.437,2.539c3.668,0 6.93,-0.802 9.786,-2.407c2.857,-1.604 4.955,-3.799 6.295,-6.585c1.023,-2.152 1.534,-5.325 1.534,-9.522l0,-3.491Z" style="fill:#fff;fill-rule:nonzero;"/><path d="M2615.05,936.735l-1.058,-8.94c2.081,0.565 3.897,0.847 5.449,0.847c2.116,0 3.808,-0.353 5.078,-1.058c1.269,-0.705 2.31,-1.693 3.121,-2.962c0.599,-0.953 1.569,-3.315 2.909,-7.089c0.176,-0.529 0.459,-1.304 0.846,-2.327l-21.317,-56.283l10.262,0l11.69,32.532c1.517,4.126 2.874,8.464 4.073,13.013c1.094,-4.373 2.398,-8.64 3.915,-12.801l12.007,-32.744l9.522,0l-21.371,57.129c-2.292,6.172 -4.073,10.421 -5.342,12.748c-1.693,3.139 -3.632,5.44 -5.819,6.904c-2.186,1.463 -4.796,2.195 -7.829,2.195c-1.833,0 -3.879,-0.388 -6.136,-1.164Z" style="fill:#fff;fill-rule:nonzero;"/><path d="M2666.1,887.012c0,-10.403 2.892,-18.109 8.675,-23.116c4.831,-4.162 10.721,-6.242 17.668,-6.242c7.723,0 14.035,2.53 18.937,7.591c4.902,5.06 7.353,12.051 7.353,20.973c0,7.23 -1.085,12.916 -3.254,17.06c-2.168,4.143 -5.324,7.361 -9.468,9.653c-4.144,2.293 -8.666,3.439 -13.568,3.439c-7.864,0 -14.221,-2.522 -19.07,-7.565c-4.849,-5.043 -7.273,-12.307 -7.273,-21.793Zm9.786,0c0,7.194 1.569,12.58 4.708,16.16c3.138,3.579 7.088,5.369 11.849,5.369c4.725,0 8.657,-1.799 11.796,-5.396c3.138,-3.597 4.708,-9.08 4.708,-16.451c0,-6.947 -1.578,-12.21 -4.735,-15.789c-3.156,-3.58 -7.079,-5.37 -11.769,-5.37c-4.761,0 -8.711,1.781 -11.849,5.343c-3.139,3.562 -4.708,8.94 -4.708,16.134Z" style="fill:#fff;fill-rule:nonzero;"/><path d="M2766.71,915.1l0,-8.252c-4.372,6.348 -10.315,9.522 -17.826,9.522c-3.315,0 -6.409,-0.635 -9.283,-1.905c-2.875,-1.269 -5.008,-2.865 -6.401,-4.787c-1.393,-1.922 -2.372,-4.276 -2.936,-7.062c-0.388,-1.869 -0.582,-4.831 -0.582,-8.886l0,-34.807l9.522,0l0,31.157c0,4.972 0.194,8.322 0.582,10.05c0.599,2.504 1.869,4.47 3.808,5.898c1.94,1.428 4.338,2.143 7.194,2.143c2.857,0 5.537,-0.732 8.041,-2.196c2.503,-1.463 4.276,-3.456 5.316,-5.977c1.04,-2.521 1.56,-6.18 1.56,-10.976l0,-30.099l9.522,0l0,56.177l-8.517,0Z" style="fill:#fff;fill-rule:nonzero;"/><path d="M2810.93,906.584l1.376,8.41c-2.68,0.565 -5.078,0.847 -7.194,0.847c-3.456,0 -6.136,-0.547 -8.041,-1.64c-1.904,-1.093 -3.244,-2.53 -4.02,-4.311c-0.776,-1.781 -1.164,-5.528 -1.164,-11.241l0,-32.32l-6.982,0l0,-7.406l6.982,0l0,-13.912l9.469,-5.712l0,19.624l9.574,0l0,7.406l-9.574,0l0,32.849c0,2.715 0.167,4.461 0.503,5.237c0.335,0.776 0.881,1.393 1.639,1.851c0.759,0.459 1.843,0.688 3.253,0.688c1.058,0 2.451,-0.123 4.179,-0.37Z" style="fill:#fff;fill-rule:nonzero;"/><path d="M2821.03,915.1l0,-77.547l29.093,0c5.925,0 10.677,0.785 14.256,2.354c3.579,1.569 6.383,3.985 8.411,7.247c2.027,3.262 3.041,6.674 3.041,10.235c0,3.315 -0.899,6.436 -2.698,9.363c-1.798,2.927 -4.513,5.29 -8.146,7.088c4.69,1.376 8.296,3.721 10.818,7.036c2.521,3.315 3.782,7.229 3.782,11.743c0,3.632 -0.767,7.009 -2.301,10.13c-1.534,3.121 -3.43,5.527 -5.687,7.22c-2.257,1.693 -5.087,2.971 -8.49,3.835c-3.403,0.864 -7.573,1.296 -12.51,1.296l-29.569,0Zm10.262,-44.962l16.768,0c4.549,0 7.811,-0.3 9.786,-0.9c2.61,-0.776 4.576,-2.063 5.898,-3.861c1.323,-1.799 1.984,-4.056 1.984,-6.771c0,-2.574 -0.617,-4.84 -1.852,-6.797c-1.234,-1.958 -2.997,-3.298 -5.289,-4.021c-2.293,-0.722 -6.225,-1.084 -11.796,-1.084l-15.499,0l0,23.434Zm0,35.811l19.307,0c3.315,0 5.643,-0.124 6.983,-0.37c2.362,-0.424 4.337,-1.129 5.924,-2.116c1.587,-0.988 2.892,-2.425 3.915,-4.311c1.022,-1.887 1.534,-4.065 1.534,-6.533c0,-2.892 -0.741,-5.405 -2.222,-7.538c-1.481,-2.134 -3.535,-3.632 -6.163,-4.496c-2.627,-0.864 -6.409,-1.296 -11.346,-1.296l-17.932,0l0,26.66Z" style="fill:#fff;fill-rule:nonzero;"/><path d="M2892.55,848.503l0,-10.95l9.521,0l0,10.95l-9.521,0Zm0,66.597l0,-56.177l9.521,0l0,56.177l-9.521,0Z" style="fill:#fff;fill-rule:nonzero;"/><path d="M2916.57,915.1l0,-56.177l8.569,0l0,7.988c4.126,-6.172 10.086,-9.257 17.88,-9.257c3.385,0 6.497,0.608 9.336,1.825c2.839,1.216 4.963,2.812 6.374,4.787c1.411,1.975 2.398,4.32 2.962,7.035c0.353,1.764 0.529,4.849 0.529,9.257l0,34.542l-9.521,0l0,-34.171c0,-3.88 -0.371,-6.78 -1.111,-8.702c-0.741,-1.922 -2.054,-3.456 -3.941,-4.602c-1.887,-1.146 -4.1,-1.719 -6.639,-1.719c-4.055,0 -7.555,1.287 -10.5,3.861c-2.944,2.575 -4.417,7.459 -4.417,14.653l0,30.68l-9.521,0Z" style="fill:#fff;fill-rule:nonzero;"/><path d="M3013.26,915.1l0,-7.088c-3.562,5.572 -8.799,8.358 -15.711,8.358c-4.478,0 -8.595,-1.235 -12.351,-3.703c-3.756,-2.469 -6.665,-5.916 -8.728,-10.342c-2.063,-4.425 -3.095,-9.512 -3.095,-15.26c0,-5.607 0.935,-10.694 2.804,-15.261c1.869,-4.567 4.673,-8.067 8.411,-10.5c3.738,-2.434 7.917,-3.65 12.536,-3.65c3.386,0 6.401,0.714 9.046,2.142c2.645,1.428 4.796,3.289 6.453,5.581l0,-27.824l9.469,0l0,77.547l-8.834,0Zm-30.099,-28.035c0,7.194 1.517,12.572 4.55,16.133c3.032,3.562 6.612,5.343 10.738,5.343c4.161,0 7.696,-1.702 10.606,-5.105c2.909,-3.403 4.364,-8.596 4.364,-15.578c0,-7.688 -1.482,-13.33 -4.444,-16.927c-2.962,-3.597 -6.612,-5.396 -10.949,-5.396c-4.232,0 -7.768,1.728 -10.606,5.184c-2.839,3.456 -4.259,8.905 -4.259,16.346Z" style="fill:#fff;fill-rule:nonzero;"/><path d="M3037.12,848.503l0,-10.95l9.521,0l0,10.95l-9.521,0Zm0,66.597l0,-56.177l9.521,0l0,56.177l-9.521,0Z" style="fill:#fff;fill-rule:nonzero;"/><path d="M3061.13,915.1l0,-56.177l8.569,0l0,7.988c4.126,-6.172 10.086,-9.257 17.879,-9.257c3.386,0 6.498,0.608 9.337,1.825c2.839,1.216 4.963,2.812 6.374,4.787c1.41,1.975 2.398,4.32 2.962,7.035c0.353,1.764 0.529,4.849 0.529,9.257l0,34.542l-9.521,0l0,-34.171c0,-3.88 -0.371,-6.78 -1.111,-8.702c-0.741,-1.922 -2.054,-3.456 -3.941,-4.602c-1.887,-1.146 -4.1,-1.719 -6.639,-1.719c-4.055,0 -7.555,1.287 -10.5,3.861c-2.944,2.575 -4.417,7.459 -4.417,14.653l0,30.68l-9.521,0Z" style="fill:#fff;fill-rule:nonzero;"/><path d="M3119.64,919.755l9.257,1.375c0.388,2.857 1.464,4.937 3.227,6.242c2.363,1.763 5.589,2.645 9.68,2.645c4.408,0 7.811,-0.882 10.209,-2.645c2.398,-1.763 4.02,-4.232 4.867,-7.405c0.493,-1.94 0.723,-6.013 0.687,-12.22c-4.161,4.902 -9.345,7.353 -15.551,7.353c-7.723,0 -13.701,-2.786 -17.933,-8.358c-4.231,-5.571 -6.347,-12.254 -6.347,-20.048c0,-5.36 0.97,-10.306 2.909,-14.837c1.94,-4.532 4.752,-8.032 8.437,-10.5c3.685,-2.469 8.014,-3.703 12.986,-3.703c6.63,0 12.096,2.68 16.399,8.04l0,-6.771l8.78,0l0,48.56c0,8.746 -0.89,14.943 -2.671,18.593c-1.781,3.65 -4.602,6.533 -8.463,8.649c-3.862,2.116 -8.614,3.174 -14.256,3.174c-6.7,0 -12.114,-1.508 -16.24,-4.523c-4.126,-3.015 -6.118,-7.555 -5.977,-13.621Zm7.882,-33.748c0,7.37 1.463,12.748 4.39,16.133c2.927,3.386 6.595,5.078 11.003,5.078c4.373,0 8.04,-1.683 11.002,-5.051c2.963,-3.368 4.444,-8.649 4.444,-15.843c0,-6.877 -1.525,-12.06 -4.576,-15.552c-3.05,-3.491 -6.727,-5.237 -11.029,-5.237c-4.232,0 -7.829,1.72 -10.791,5.158c-2.962,3.438 -4.443,8.543 -4.443,15.314Z" style="fill:#fff;fill-rule:nonzero;"/><path d="M3209.09,876.855c0,-9.168 0.943,-16.548 2.83,-22.137c1.887,-5.589 4.69,-9.901 8.411,-12.933c3.72,-3.033 8.402,-4.549 14.044,-4.549c4.161,0 7.811,0.837 10.95,2.512c3.138,1.675 5.73,4.091 7.776,7.247c2.045,3.156 3.649,7 4.813,11.532c1.164,4.531 1.746,10.641 1.746,18.328c0,9.099 -0.935,16.443 -2.804,22.032c-1.869,5.59 -4.664,9.91 -8.384,12.96c-3.72,3.05 -8.419,4.576 -14.097,4.576c-7.476,0 -13.348,-2.681 -17.615,-8.041c-5.113,-6.453 -7.67,-16.962 -7.67,-31.527Zm9.786,0c0,12.731 1.49,21.203 4.47,25.418c2.98,4.214 6.656,6.321 11.029,6.321c4.373,0 8.049,-2.116 11.029,-6.348c2.98,-4.232 4.47,-12.695 4.47,-25.391c0,-12.765 -1.49,-21.247 -4.47,-25.443c-2.98,-4.197 -6.692,-6.295 -11.135,-6.295c-4.373,0 -7.864,1.852 -10.473,5.554c-3.28,4.726 -4.92,13.454 -4.92,26.184Z" style="fill:#fff;fill-rule:nonzero;"/><rect x="1500" y="1083.33" width="2000" height="250" style="fill:#9a4ad0;"/><path d="M1779.81,1218.02l0,-9.099l32.849,-0.053l0,28.776c-5.043,4.021 -10.245,7.045 -15.605,9.072c-5.36,2.028 -10.862,3.042 -16.504,3.042c-7.617,0 -14.538,-1.631 -20.762,-4.893c-6.224,-3.262 -10.923,-7.979 -14.097,-14.15c-3.174,-6.171 -4.761,-13.066 -4.761,-20.683c0,-7.547 1.578,-14.591 4.734,-21.132c3.157,-6.542 7.697,-11.4 13.621,-14.573c5.925,-3.174 12.749,-4.761 20.472,-4.761c5.607,0 10.676,0.908 15.208,2.724c4.531,1.816 8.084,4.346 10.658,7.591c2.575,3.244 4.532,7.476 5.872,12.695l-9.257,2.539c-1.164,-3.95 -2.61,-7.053 -4.338,-9.31c-1.728,-2.257 -4.196,-4.064 -7.405,-5.422c-3.209,-1.357 -6.771,-2.036 -10.685,-2.036c-4.691,0 -8.746,0.714 -12.167,2.142c-3.421,1.428 -6.18,3.306 -8.278,5.634c-2.098,2.327 -3.729,4.884 -4.893,7.67c-1.975,4.796 -2.962,9.997 -2.962,15.604c0,6.912 1.19,12.696 3.57,17.351c2.38,4.655 5.845,8.11 10.394,10.367c4.55,2.257 9.381,3.386 14.494,3.386c4.444,0 8.781,-0.855 13.013,-2.566c4.232,-1.71 7.441,-3.535 9.627,-5.475l0,-14.44l-22.798,0Z" style="fill:#fff;fill-rule:nonzero;"/><path d="M1827.78,1248.43l0,-77.547l29.252,0c5.149,0 9.081,0.247 11.796,0.741c3.809,0.635 7,1.842 9.575,3.623c2.574,1.781 4.646,4.276 6.215,7.485c1.569,3.209 2.354,6.736 2.354,10.58c0,6.594 -2.098,12.175 -6.295,16.742c-4.196,4.566 -11.778,6.85 -22.745,6.85l-19.89,0l0,31.526l-10.262,0Zm10.262,-40.677l20.048,0c6.63,0 11.338,-1.235 14.124,-3.703c2.786,-2.469 4.179,-5.942 4.179,-10.421c0,-3.244 -0.82,-6.021 -2.46,-8.331c-1.64,-2.31 -3.8,-3.835 -6.48,-4.576c-1.728,-0.458 -4.919,-0.688 -9.574,-0.688l-19.837,0l0,27.719Z" style="fill:#fff;fill-rule:nonzero;"/><path d="M1950.93,1170.89l10.262,0l0,44.804c0,7.794 -0.882,13.983 -2.645,18.567c-1.763,4.584 -4.946,8.314 -9.548,11.188c-4.602,2.874 -10.641,4.311 -18.117,4.311c-7.265,0 -13.207,-1.252 -17.827,-3.756c-4.619,-2.504 -7.917,-6.127 -9.891,-10.87c-1.975,-4.743 -2.963,-11.223 -2.963,-19.44l0,-44.804l10.262,0l0,44.751c0,6.736 0.626,11.699 1.878,14.891c1.252,3.191 3.403,5.651 6.454,7.379c3.05,1.728 6.779,2.592 11.187,2.592c7.547,0 12.925,-1.71 16.134,-5.131c3.209,-3.421 4.814,-9.998 4.814,-19.731l0,-44.751Z" style="fill:#fff;fill-rule:nonzero;"/><path d="M1977.85,1248.43l0,-77.547l29.094,0c5.924,0 10.676,0.785 14.256,2.354c3.579,1.569 6.383,3.985 8.41,7.247c2.028,3.262 3.042,6.674 3.042,10.236c0,3.315 -0.899,6.435 -2.698,9.362c-1.798,2.927 -4.514,5.29 -8.146,7.089c4.69,1.375 8.296,3.72 10.817,7.035c2.522,3.315 3.783,7.229 3.783,11.743c0,3.632 -0.768,7.009 -2.302,10.13c-1.534,3.121 -3.429,5.528 -5.686,7.22c-2.257,1.693 -5.087,2.971 -8.49,3.835c-3.403,0.864 -7.573,1.296 -12.51,1.296l-29.57,0Zm10.262,-44.962l16.769,0c4.549,0 7.811,-0.3 9.786,-0.899c2.609,-0.776 4.575,-2.063 5.898,-3.862c1.322,-1.798 1.983,-4.055 1.983,-6.771c0,-2.574 -0.617,-4.84 -1.851,-6.797c-1.234,-1.957 -2.997,-3.297 -5.29,-4.02c-2.292,-0.723 -6.224,-1.085 -11.796,-1.085l-15.499,0l0,23.434Zm0,35.811l19.308,0c3.315,0 5.642,-0.123 6.982,-0.37c2.363,-0.423 4.338,-1.129 5.925,-2.116c1.587,-0.987 2.891,-2.424 3.914,-4.311c1.023,-1.887 1.534,-4.064 1.534,-6.533c0,-2.892 -0.74,-5.404 -2.221,-7.538c-1.482,-2.133 -3.536,-3.632 -6.163,-4.496c-2.627,-0.864 -6.409,-1.296 -11.346,-1.296l-17.933,0l0,26.66Z" style="fill:#fff;fill-rule:nonzero;"/><path d="M2049.37,1181.84l0,-10.95l9.522,0l0,10.95l-9.522,0Zm0,66.597l0,-56.176l9.522,0l0,56.176l-9.522,0Z" style="fill:#fff;fill-rule:nonzero;"/><path d="M2073.39,1248.43l0,-56.176l8.569,0l0,7.987c4.126,-6.171 10.086,-9.257 17.879,-9.257c3.386,0 6.498,0.608 9.337,1.825c2.838,1.217 4.963,2.812 6.374,4.787c1.41,1.975 2.398,4.32 2.962,7.036c0.353,1.763 0.529,4.849 0.529,9.257l0,34.541l-9.522,0l0,-34.171c0,-3.879 -0.37,-6.78 -1.11,-8.702c-0.741,-1.922 -2.055,-3.456 -3.941,-4.602c-1.887,-1.146 -4.1,-1.719 -6.639,-1.719c-4.055,0 -7.555,1.287 -10.5,3.862c-2.945,2.574 -4.417,7.458 -4.417,14.652l0,30.68l-9.521,0Z" style="fill:#fff;fill-rule:nonzero;"/><path d="M2170.08,1248.43l0,-7.088c-3.562,5.572 -8.799,8.358 -15.711,8.358c-4.479,0 -8.596,-1.234 -12.351,-3.703c-3.756,-2.468 -6.665,-5.916 -8.728,-10.341c-2.063,-4.426 -3.095,-9.513 -3.095,-15.261c0,-5.607 0.935,-10.694 2.804,-15.261c1.869,-4.567 4.672,-8.067 8.41,-10.5c3.738,-2.433 7.917,-3.65 12.537,-3.65c3.385,0 6.4,0.714 9.045,2.142c2.645,1.429 4.796,3.289 6.454,5.581l0,-27.824l9.468,0l0,77.547l-8.833,0Zm-30.099,-28.035c0,7.194 1.516,12.572 4.549,16.134c3.033,3.561 6.612,5.342 10.738,5.342c4.162,0 7.697,-1.701 10.606,-5.104c2.91,-3.403 4.364,-8.596 4.364,-15.579c0,-7.687 -1.481,-13.33 -4.443,-16.927c-2.962,-3.597 -6.612,-5.395 -10.95,-5.395c-4.232,0 -7.767,1.728 -10.606,5.184c-2.838,3.456 -4.258,8.904 -4.258,16.345Z" style="fill:#fff;fill-rule:nonzero;"/><path d="M2231.39,1218.02l0,-9.099l32.849,-0.053l0,28.776c-5.042,4.021 -10.244,7.045 -15.604,9.072c-5.36,2.028 -10.862,3.042 -16.504,3.042c-7.617,0 -14.538,-1.631 -20.762,-4.893c-6.224,-3.262 -10.923,-7.979 -14.097,-14.15c-3.174,-6.171 -4.761,-13.066 -4.761,-20.683c0,-7.547 1.578,-14.591 4.734,-21.132c3.156,-6.542 7.697,-11.4 13.621,-14.573c5.925,-3.174 12.748,-4.761 20.471,-4.761c5.608,0 10.677,0.908 15.208,2.724c4.532,1.816 8.085,4.346 10.659,7.591c2.574,3.244 4.532,7.476 5.872,12.695l-9.257,2.539c-1.164,-3.95 -2.61,-7.053 -4.338,-9.31c-1.728,-2.257 -4.196,-4.064 -7.405,-5.422c-3.21,-1.357 -6.771,-2.036 -10.686,-2.036c-4.69,0 -8.745,0.714 -12.166,2.142c-3.421,1.428 -6.18,3.306 -8.278,5.634c-2.099,2.327 -3.73,4.884 -4.893,7.67c-1.975,4.796 -2.963,9.997 -2.963,15.604c0,6.912 1.191,12.696 3.571,17.351c2.38,4.655 5.845,8.11 10.394,10.367c4.549,2.257 9.381,3.386 14.494,3.386c4.443,0 8.781,-0.855 13.013,-2.566c4.232,-1.71 7.441,-3.535 9.627,-5.475l0,-14.44l-22.799,0Z" style="fill:#fff;fill-rule:nonzero;"/><path d="M2278.04,1248.43l0,-56.176l8.569,0l0,8.516c2.186,-3.985 4.205,-6.612 6.057,-7.882c1.851,-1.269 3.888,-1.904 6.109,-1.904c3.209,0 6.471,1.023 9.786,3.068l-3.279,8.834c-2.328,-1.375 -4.655,-2.063 -6.983,-2.063c-2.08,0 -3.949,0.626 -5.607,1.878c-1.657,1.252 -2.839,2.989 -3.544,5.21c-1.058,3.386 -1.587,7.088 -1.587,11.109l0,29.41l-9.521,0Z" style="fill:#fff;fill-rule:nonzero;"/><path d="M2310.68,1220.35c0,-10.403 2.892,-18.108 8.675,-23.116c4.832,-4.161 10.721,-6.242 17.668,-6.242c7.723,0 14.035,2.53 18.937,7.591c4.902,5.06 7.353,12.052 7.353,20.974c0,7.229 -1.085,12.915 -3.253,17.059c-2.169,4.144 -5.325,7.361 -9.469,9.654c-4.144,2.292 -8.666,3.438 -13.568,3.438c-7.864,0 -14.221,-2.521 -19.069,-7.564c-4.849,-5.043 -7.274,-12.308 -7.274,-21.794Zm9.786,0c0,7.194 1.569,12.581 4.708,16.16c3.139,3.579 7.088,5.369 11.849,5.369c4.725,0 8.657,-1.798 11.796,-5.395c3.139,-3.597 4.708,-9.081 4.708,-16.451c0,-6.947 -1.578,-12.211 -4.734,-15.79c-3.157,-3.579 -7.08,-5.369 -11.77,-5.369c-4.761,0 -8.71,1.781 -11.849,5.342c-3.139,3.562 -4.708,8.94 -4.708,16.134Z" style="fill:#fff;fill-rule:nonzero;"/><path d="M2411.29,1248.43l0,-8.252c-4.373,6.348 -10.315,9.522 -17.827,9.522c-3.315,0 -6.409,-0.635 -9.283,-1.904c-2.874,-1.27 -5.008,-2.866 -6.401,-4.788c-1.393,-1.921 -2.371,-4.275 -2.936,-7.061c-0.388,-1.869 -0.581,-4.832 -0.581,-8.887l0,-34.806l9.521,0l0,31.156c0,4.972 0.194,8.323 0.582,10.051c0.599,2.503 1.869,4.469 3.808,5.898c1.94,1.428 4.338,2.142 7.194,2.142c2.857,0 5.537,-0.732 8.041,-2.195c2.504,-1.464 4.276,-3.456 5.316,-5.978c1.04,-2.521 1.56,-6.18 1.56,-10.976l0,-30.098l9.522,0l0,56.176l-8.516,0Z" style="fill:#fff;fill-rule:nonzero;"/><path d="M2434.72,1269.96l0,-77.706l8.675,0l0,7.299c2.045,-2.856 4.355,-4.998 6.93,-6.427c2.574,-1.428 5.695,-2.142 9.362,-2.142c4.796,0 9.028,1.234 12.696,3.703c3.667,2.468 6.436,5.951 8.305,10.447c1.869,4.496 2.803,9.425 2.803,14.785c0,5.748 -1.031,10.923 -3.094,15.525c-2.063,4.602 -5.061,8.129 -8.993,10.58c-3.932,2.451 -8.067,3.676 -12.404,3.676c-3.174,0 -6.022,-0.67 -8.543,-2.01c-2.522,-1.34 -4.593,-3.033 -6.216,-5.078l0,27.348l-9.521,0Zm8.622,-49.301c0,7.23 1.464,12.572 4.391,16.028c2.927,3.456 6.471,5.184 10.632,5.184c4.232,0 7.855,-1.79 10.87,-5.369c3.015,-3.579 4.523,-9.125 4.523,-16.636c0,-7.159 -1.472,-12.519 -4.417,-16.081c-2.944,-3.561 -6.462,-5.342 -10.553,-5.342c-4.055,0 -7.644,1.895 -10.764,5.686c-3.121,3.791 -4.682,9.301 -4.682,16.53Z" style="fill:#fff;fill-rule:nonzero;"/><path d="M2495.77,1248.43l0,-77.547l10.262,0l0,68.396l38.192,0l0,9.151l-48.454,0Z" style="fill:#fff;fill-rule:nonzero;"/><path d="M2591.88,1241.5c-3.526,2.997 -6.92,5.113 -10.182,6.348c-3.262,1.234 -6.762,1.851 -10.5,1.851c-6.172,0 -10.915,-1.508 -14.23,-4.523c-3.315,-3.015 -4.972,-6.868 -4.972,-11.558c0,-2.75 0.626,-5.263 1.878,-7.538c1.252,-2.274 2.891,-4.099 4.919,-5.474c2.028,-1.376 4.311,-2.416 6.85,-3.121c1.869,-0.494 4.691,-0.97 8.464,-1.429c7.688,-0.917 13.348,-2.01 16.98,-3.279c0.035,-1.305 0.053,-2.134 0.053,-2.486c0,-3.88 -0.899,-6.613 -2.698,-8.199c-2.433,-2.152 -6.048,-3.227 -10.844,-3.227c-4.479,0 -7.785,0.784 -9.918,2.354c-2.134,1.569 -3.712,4.346 -4.734,8.331l-9.31,-1.269c0.846,-3.985 2.239,-7.203 4.179,-9.654c1.939,-2.451 4.743,-4.338 8.41,-5.66c3.668,-1.323 7.917,-1.984 12.748,-1.984c4.796,0 8.693,0.564 11.691,1.693c2.997,1.128 5.201,2.548 6.612,4.258c1.41,1.71 2.398,3.87 2.962,6.48c0.317,1.622 0.476,4.549 0.476,8.781l0,12.695c0,8.852 0.203,14.45 0.608,16.795c0.406,2.345 1.208,4.593 2.407,6.744l-9.944,0c-0.988,-1.974 -1.623,-4.284 -1.905,-6.929Zm-0.793,-21.265c-3.456,1.411 -8.64,2.61 -15.552,3.597c-3.914,0.564 -6.683,1.199 -8.305,1.905c-1.622,0.705 -2.874,1.736 -3.755,3.094c-0.882,1.358 -1.323,2.865 -1.323,4.523c0,2.539 0.961,4.655 2.883,6.347c1.922,1.693 4.734,2.539 8.437,2.539c3.668,0 6.93,-0.802 9.786,-2.406c2.857,-1.605 4.955,-3.8 6.295,-6.586c1.023,-2.151 1.534,-5.325 1.534,-9.522l0,-3.491Z" style="fill:#fff;fill-rule:nonzero;"/><path d="M2615.05,1270.07l-1.058,-8.939c2.081,0.564 3.897,0.846 5.449,0.846c2.116,0 3.808,-0.353 5.078,-1.058c1.269,-0.705 2.31,-1.693 3.121,-2.962c0.599,-0.952 1.569,-3.315 2.909,-7.088c0.176,-0.529 0.459,-1.305 0.846,-2.328l-21.317,-56.282l10.262,0l11.69,32.531c1.517,4.126 2.874,8.464 4.073,13.013c1.094,-4.373 2.398,-8.64 3.915,-12.801l12.007,-32.743l9.522,0l-21.371,57.129c-2.292,6.171 -4.073,10.42 -5.342,12.748c-1.693,3.138 -3.632,5.439 -5.819,6.903c-2.186,1.463 -4.796,2.195 -7.829,2.195c-1.833,0 -3.879,-0.388 -6.136,-1.164Z" style="fill:#fff;fill-rule:nonzero;"/><path d="M2666.1,1220.35c0,-10.403 2.892,-18.108 8.675,-23.116c4.831,-4.161 10.721,-6.242 17.668,-6.242c7.723,0 14.035,2.53 18.937,7.591c4.902,5.06 7.353,12.052 7.353,20.974c0,7.229 -1.085,12.915 -3.254,17.059c-2.168,4.144 -5.324,7.361 -9.468,9.654c-4.144,2.292 -8.666,3.438 -13.568,3.438c-7.864,0 -14.221,-2.521 -19.07,-7.564c-4.849,-5.043 -7.273,-12.308 -7.273,-21.794Zm9.786,0c0,7.194 1.569,12.581 4.708,16.16c3.138,3.579 7.088,5.369 11.849,5.369c4.725,0 8.657,-1.798 11.796,-5.395c3.138,-3.597 4.708,-9.081 4.708,-16.451c0,-6.947 -1.578,-12.211 -4.735,-15.79c-3.156,-3.579 -7.079,-5.369 -11.769,-5.369c-4.761,0 -8.711,1.781 -11.849,5.342c-3.139,3.562 -4.708,8.94 -4.708,16.134Z" style="fill:#fff;fill-rule:nonzero;"/><path d="M2766.71,1248.43l0,-8.252c-4.372,6.348 -10.315,9.522 -17.826,9.522c-3.315,0 -6.409,-0.635 -9.283,-1.904c-2.875,-1.27 -5.008,-2.866 -6.401,-4.788c-1.393,-1.921 -2.372,-4.275 -2.936,-7.061c-0.388,-1.869 -0.582,-4.832 -0.582,-8.887l0,-34.806l9.522,0l0,31.156c0,4.972 0.194,8.323 0.582,10.051c0.599,2.503 1.869,4.469 3.808,5.898c1.94,1.428 4.338,2.142 7.194,2.142c2.857,0 5.537,-0.732 8.041,-2.195c2.503,-1.464 4.276,-3.456 5.316,-5.978c1.04,-2.521 1.56,-6.18 1.56,-10.976l0,-30.098l9.522,0l0,56.176l-8.517,0Z" style="fill:#fff;fill-rule:nonzero;"/><path d="M2810.93,1239.92l1.376,8.411c-2.68,0.564 -5.078,0.846 -7.194,0.846c-3.456,0 -6.136,-0.547 -8.041,-1.64c-1.904,-1.093 -3.244,-2.53 -4.02,-4.311c-0.776,-1.781 -1.164,-5.528 -1.164,-11.241l0,-32.32l-6.982,0l0,-7.405l6.982,0l0,-13.912l9.469,-5.713l0,19.625l9.574,0l0,7.405l-9.574,0l0,32.849c0,2.716 0.167,4.461 0.503,5.237c0.335,0.776 0.881,1.393 1.639,1.852c0.759,0.458 1.843,0.687 3.253,0.687c1.058,0 2.451,-0.123 4.179,-0.37Z" style="fill:#fff;fill-rule:nonzero;"/><path d="M2821.03,1248.43l0,-77.547l29.093,0c5.925,0 10.677,0.785 14.256,2.354c3.579,1.569 6.383,3.985 8.411,7.247c2.027,3.262 3.041,6.674 3.041,10.236c0,3.315 -0.899,6.435 -2.698,9.362c-1.798,2.927 -4.513,5.29 -8.146,7.089c4.69,1.375 8.296,3.72 10.818,7.035c2.521,3.315 3.782,7.229 3.782,11.743c0,3.632 -0.767,7.009 -2.301,10.13c-1.534,3.121 -3.43,5.528 -5.687,7.22c-2.257,1.693 -5.087,2.971 -8.49,3.835c-3.403,0.864 -7.573,1.296 -12.51,1.296l-29.569,0Zm10.262,-44.962l16.768,0c4.549,0 7.811,-0.3 9.786,-0.899c2.61,-0.776 4.576,-2.063 5.898,-3.862c1.323,-1.798 1.984,-4.055 1.984,-6.771c0,-2.574 -0.617,-4.84 -1.852,-6.797c-1.234,-1.957 -2.997,-3.297 -5.289,-4.02c-2.293,-0.723 -6.225,-1.085 -11.796,-1.085l-15.499,0l0,23.434Zm0,35.811l19.307,0c3.315,0 5.643,-0.123 6.983,-0.37c2.362,-0.423 4.337,-1.129 5.924,-2.116c1.587,-0.987 2.892,-2.424 3.915,-4.311c1.022,-1.887 1.534,-4.064 1.534,-6.533c0,-2.892 -0.741,-5.404 -2.222,-7.538c-1.481,-2.133 -3.535,-3.632 -6.163,-4.496c-2.627,-0.864 -6.409,-1.296 -11.346,-1.296l-17.932,0l0,26.66Z" style="fill:#fff;fill-rule:nonzero;"/><path d="M2892.55,1181.84l0,-10.95l9.521,0l0,10.95l-9.521,0Zm0,66.597l0,-56.176l9.521,0l0,56.176l-9.521,0Z" style="fill:#fff;fill-rule:nonzero;"/><path d="M2916.57,1248.43l0,-56.176l8.569,0l0,7.987c4.126,-6.171 10.086,-9.257 17.88,-9.257c3.385,0 6.497,0.608 9.336,1.825c2.839,1.217 4.963,2.812 6.374,4.787c1.411,1.975 2.398,4.32 2.962,7.036c0.353,1.763 0.529,4.849 0.529,9.257l0,34.541l-9.521,0l0,-34.171c0,-3.879 -0.371,-6.78 -1.111,-8.702c-0.741,-1.922 -2.054,-3.456 -3.941,-4.602c-1.887,-1.146 -4.1,-1.719 -6.639,-1.719c-4.055,0 -7.555,1.287 -10.5,3.862c-2.944,2.574 -4.417,7.458 -4.417,14.652l0,30.68l-9.521,0Z" style="fill:#fff;fill-rule:nonzero;"/><path d="M3013.26,1248.43l0,-7.088c-3.562,5.572 -8.799,8.358 -15.711,8.358c-4.478,0 -8.595,-1.234 -12.351,-3.703c-3.756,-2.468 -6.665,-5.916 -8.728,-10.341c-2.063,-4.426 -3.095,-9.513 -3.095,-15.261c0,-5.607 0.935,-10.694 2.804,-15.261c1.869,-4.567 4.673,-8.067 8.411,-10.5c3.738,-2.433 7.917,-3.65 12.536,-3.65c3.386,0 6.401,0.714 9.046,2.142c2.645,1.429 4.796,3.289 6.453,5.581l0,-27.824l9.469,0l0,77.547l-8.834,0Zm-30.099,-28.035c0,7.194 1.517,12.572 4.55,16.134c3.032,3.561 6.612,5.342 10.738,5.342c4.161,0 7.696,-1.701 10.606,-5.104c2.909,-3.403 4.364,-8.596 4.364,-15.579c0,-7.687 -1.482,-13.33 -4.444,-16.927c-2.962,-3.597 -6.612,-5.395 -10.949,-5.395c-4.232,0 -7.768,1.728 -10.606,5.184c-2.839,3.456 -4.259,8.904 -4.259,16.345Z" style="fill:#fff;fill-rule:nonzero;"/><path d="M3037.12,1181.84l0,-10.95l9.521,0l0,10.95l-9.521,0Zm0,66.597l0,-56.176l9.521,0l0,56.176l-9.521,0Z" style="fill:#fff;fill-rule:nonzero;"/><path d="M3061.13,1248.43l0,-56.176l8.569,0l0,7.987c4.126,-6.171 10.086,-9.257 17.879,-9.257c3.386,0 6.498,0.608 9.337,1.825c2.839,1.217 4.963,2.812 6.374,4.787c1.41,1.975 2.398,4.32 2.962,7.036c0.353,1.763 0.529,4.849 0.529,9.257l0,34.541l-9.521,0l0,-34.171c0,-3.879 -0.371,-6.78 -1.111,-8.702c-0.741,-1.922 -2.054,-3.456 -3.941,-4.602c-1.887,-1.146 -4.1,-1.719 -6.639,-1.719c-4.055,0 -7.555,1.287 -10.5,3.862c-2.944,2.574 -4.417,7.458 -4.417,14.652l0,30.68l-9.521,0Z" style="fill:#fff;fill-rule:nonzero;"/><path d="M3119.64,1253.09l9.257,1.376c0.388,2.856 1.464,4.937 3.227,6.242c2.363,1.763 5.589,2.644 9.68,2.644c4.408,0 7.811,-0.881 10.209,-2.644c2.398,-1.764 4.02,-4.232 4.867,-7.406c0.493,-1.94 0.723,-6.013 0.687,-12.219c-4.161,4.902 -9.345,7.352 -15.551,7.352c-7.723,0 -13.701,-2.785 -17.933,-8.357c-4.231,-5.572 -6.347,-12.255 -6.347,-20.048c0,-5.361 0.97,-10.306 2.909,-14.838c1.94,-4.531 4.752,-8.032 8.437,-10.5c3.685,-2.469 8.014,-3.703 12.986,-3.703c6.63,0 12.096,2.68 16.399,8.041l0,-6.771l8.78,0l0,48.559c0,8.746 -0.89,14.944 -2.671,18.594c-1.781,3.649 -4.602,6.532 -8.463,8.648c-3.862,2.116 -8.614,3.174 -14.256,3.174c-6.7,0 -12.114,-1.507 -16.24,-4.523c-4.126,-3.015 -6.118,-7.555 -5.977,-13.621Zm7.882,-33.748c0,7.37 1.463,12.748 4.39,16.134c2.927,3.385 6.595,5.078 11.003,5.078c4.373,0 8.04,-1.684 11.002,-5.052c2.963,-3.368 4.444,-8.649 4.444,-15.843c0,-6.876 -1.525,-12.06 -4.576,-15.551c-3.05,-3.492 -6.727,-5.237 -11.029,-5.237c-4.232,0 -7.829,1.719 -10.791,5.157c-2.962,3.439 -4.443,8.543 -4.443,15.314Z" style="fill:#fff;fill-rule:nonzero;"/><path d="M3244.95,1248.43l-9.521,0l0,-60.673c-2.292,2.187 -5.299,4.373 -9.019,6.56c-3.721,2.186 -7.062,3.826 -10.024,4.919l0,-9.204c5.325,-2.504 9.98,-5.537 13.965,-9.098c3.985,-3.562 6.806,-7.018 8.463,-10.368l6.136,0l0,77.864Z" style="fill:#fff;fill-rule:nonzero;"/><path d="M1986.23,586.765l0,-9.098l32.849,-0.053l0,28.776c-5.043,4.02 -10.244,7.044 -15.605,9.072c-5.36,2.028 -10.861,3.042 -16.504,3.042c-7.617,0 -14.538,-1.631 -20.762,-4.893c-6.224,-3.262 -10.923,-7.979 -14.097,-14.15c-3.174,-6.172 -4.761,-13.066 -4.761,-20.683c0,-7.547 1.579,-14.591 4.735,-21.133c3.156,-6.541 7.696,-11.399 13.621,-14.573c5.924,-3.174 12.748,-4.76 20.471,-4.76c5.607,0 10.676,0.908 15.208,2.724c4.531,1.816 8.084,4.346 10.659,7.59c2.574,3.245 4.531,7.477 5.871,12.696l-9.257,2.539c-1.164,-3.95 -2.609,-7.053 -4.337,-9.31c-1.728,-2.257 -4.197,-4.064 -7.406,-5.422c-3.209,-1.358 -6.771,-2.037 -10.685,-2.037c-4.69,0 -8.746,0.715 -12.167,2.143c-3.42,1.428 -6.18,3.306 -8.278,5.633c-2.098,2.328 -3.729,4.884 -4.893,7.67c-1.975,4.796 -2.962,9.998 -2.962,15.605c0,6.912 1.19,12.695 3.57,17.35c2.381,4.655 5.846,8.111 10.395,10.368c4.549,2.257 9.38,3.386 14.494,3.386c4.443,0 8.78,-0.856 13.012,-2.566c4.232,-1.71 7.441,-3.535 9.627,-5.475l0,-14.441l-22.798,0Z" style="fill:#fff;fill-rule:nonzero;"/><path d="M2034.21,617.181l0,-77.547l29.252,0c5.148,0 9.08,0.247 11.796,0.74c3.808,0.635 7,1.843 9.574,3.624c2.574,1.781 4.646,4.276 6.215,7.485c1.57,3.209 2.354,6.735 2.354,10.579c0,6.595 -2.098,12.175 -6.294,16.742c-4.197,4.567 -11.779,6.85 -22.746,6.85l-19.889,0l0,31.527l-10.262,0Zm10.262,-40.678l20.048,0c6.629,0 11.337,-1.234 14.123,-3.703c2.786,-2.468 4.179,-5.942 4.179,-10.42c0,-3.245 -0.82,-6.022 -2.46,-8.332c-1.64,-2.309 -3.799,-3.835 -6.48,-4.575c-1.728,-0.459 -4.919,-0.688 -9.574,-0.688l-19.836,0l0,27.718Z" style="fill:#fff;fill-rule:nonzero;"/><path d="M2157.35,539.634l10.262,0l0,44.804c0,7.793 -0.882,13.982 -2.645,18.567c-1.763,4.584 -4.946,8.313 -9.548,11.187c-4.602,2.875 -10.641,4.312 -18.117,4.312c-7.264,0 -13.207,-1.252 -17.826,-3.756c-4.62,-2.504 -7.917,-6.127 -9.892,-10.87c-1.975,-4.744 -2.962,-11.224 -2.962,-19.44l0,-44.804l10.262,0l0,44.751c0,6.735 0.626,11.699 1.878,14.89c1.251,3.192 3.403,5.652 6.453,7.38c3.05,1.728 6.78,2.592 11.188,2.592c7.546,0 12.924,-1.711 16.133,-5.131c3.21,-3.421 4.814,-9.998 4.814,-19.731l0,-44.751Z" style="fill:#fff;fill-rule:nonzero;"/><path d="M2184.28,617.181l0,-77.547l29.093,0c5.925,0 10.677,0.785 14.256,2.354c3.579,1.569 6.383,3.985 8.411,7.247c2.027,3.262 3.041,6.674 3.041,10.235c0,3.315 -0.899,6.436 -2.698,9.363c-1.798,2.927 -4.514,5.29 -8.146,7.088c4.69,1.376 8.296,3.721 10.818,7.036c2.521,3.315 3.782,7.229 3.782,11.743c0,3.632 -0.767,7.009 -2.301,10.13c-1.534,3.121 -3.43,5.527 -5.687,7.22c-2.257,1.693 -5.087,2.971 -8.49,3.835c-3.403,0.864 -7.573,1.296 -12.51,1.296l-29.569,0Zm10.262,-44.962l16.768,0c4.549,0 7.811,-0.3 9.786,-0.9c2.61,-0.776 4.576,-2.063 5.898,-3.861c1.323,-1.799 1.984,-4.056 1.984,-6.771c0,-2.574 -0.617,-4.84 -1.852,-6.797c-1.234,-1.957 -2.997,-3.298 -5.289,-4.02c-2.293,-0.723 -6.225,-1.085 -11.796,-1.085l-15.499,0l0,23.434Zm0,35.811l19.307,0c3.315,0 5.643,-0.123 6.983,-0.37c2.362,-0.424 4.337,-1.129 5.924,-2.116c1.587,-0.988 2.892,-2.425 3.914,-4.311c1.023,-1.887 1.535,-4.065 1.535,-6.533c0,-2.892 -0.741,-5.404 -2.222,-7.538c-1.481,-2.134 -3.535,-3.632 -6.163,-4.496c-2.627,-0.864 -6.409,-1.296 -11.346,-1.296l-17.932,0l0,26.66Z" style="fill:#fff;fill-rule:nonzero;"/><path d="M2255.8,550.584l0,-10.95l9.521,0l0,10.95l-9.521,0Zm0,66.597l0,-56.177l9.521,0l0,56.177l-9.521,0Z" style="fill:#fff;fill-rule:nonzero;"/><path d="M2279.81,617.181l0,-56.177l8.569,0l0,7.988c4.126,-6.171 10.086,-9.257 17.879,-9.257c3.386,0 6.498,0.608 9.337,1.825c2.839,1.216 4.963,2.812 6.374,4.787c1.411,1.975 2.398,4.32 2.962,7.035c0.353,1.764 0.529,4.849 0.529,9.257l0,34.542l-9.521,0l0,-34.171c0,-3.88 -0.371,-6.78 -1.111,-8.702c-0.741,-1.922 -2.054,-3.456 -3.941,-4.602c-1.887,-1.146 -4.1,-1.719 -6.639,-1.719c-4.055,0 -7.555,1.287 -10.5,3.861c-2.944,2.575 -4.417,7.459 -4.417,14.653l0,30.68l-9.521,0Z" style="fill:#fff;fill-rule:nonzero;"/><path d="M2376.51,617.181l0,-7.088c-3.562,5.572 -8.799,8.358 -15.711,8.358c-4.478,0 -8.595,-1.235 -12.351,-3.703c-3.756,-2.469 -6.665,-5.916 -8.728,-10.342c-2.063,-4.425 -3.095,-9.512 -3.095,-15.26c0,-5.607 0.935,-10.694 2.804,-15.261c1.869,-4.567 4.673,-8.067 8.411,-10.5c3.738,-2.434 7.917,-3.65 12.536,-3.65c3.386,0 6.401,0.714 9.046,2.142c2.645,1.428 4.796,3.289 6.453,5.581l0,-27.824l9.469,0l0,77.547l-8.834,0Zm-30.099,-28.035c0,7.194 1.517,12.572 4.55,16.133c3.032,3.562 6.612,5.343 10.738,5.343c4.161,0 7.696,-1.702 10.606,-5.105c2.909,-3.403 4.364,-8.595 4.364,-15.578c0,-7.688 -1.482,-13.33 -4.444,-16.927c-2.962,-3.597 -6.612,-5.395 -10.949,-5.395c-4.232,0 -7.768,1.727 -10.606,5.183c-2.839,3.456 -4.259,8.905 -4.259,16.346Z" style="fill:#fff;fill-rule:nonzero;"/><path d="M2437.82,586.765l0,-9.098l32.849,-0.053l0,28.776c-5.043,4.02 -10.245,7.044 -15.605,9.072c-5.36,2.028 -10.861,3.042 -16.504,3.042c-7.617,0 -14.538,-1.631 -20.762,-4.893c-6.224,-3.262 -10.923,-7.979 -14.097,-14.15c-3.174,-6.172 -4.761,-13.066 -4.761,-20.683c0,-7.547 1.578,-14.591 4.735,-21.133c3.156,-6.541 7.696,-11.399 13.621,-14.573c5.924,-3.174 12.748,-4.76 20.471,-4.76c5.607,0 10.676,0.908 15.208,2.724c4.531,1.816 8.084,4.346 10.658,7.59c2.575,3.245 4.532,7.477 5.872,12.696l-9.257,2.539c-1.164,-3.95 -2.61,-7.053 -4.338,-9.31c-1.727,-2.257 -4.196,-4.064 -7.405,-5.422c-3.209,-1.358 -6.771,-2.037 -10.685,-2.037c-4.691,0 -8.746,0.715 -12.167,2.143c-3.42,1.428 -6.18,3.306 -8.278,5.633c-2.098,2.328 -3.729,4.884 -4.893,7.67c-1.975,4.796 -2.962,9.998 -2.962,15.605c0,6.912 1.19,12.695 3.57,17.35c2.381,4.655 5.845,8.111 10.395,10.368c4.549,2.257 9.38,3.386 14.493,3.386c4.444,0 8.781,-0.856 13.013,-2.566c4.232,-1.71 7.441,-3.535 9.627,-5.475l0,-14.441l-22.798,0Z" style="fill:#fff;fill-rule:nonzero;"/><path d="M2484.47,617.181l0,-56.177l8.569,0l0,8.517c2.187,-3.985 4.206,-6.612 6.057,-7.882c1.851,-1.269 3.888,-1.904 6.11,-1.904c3.209,0 6.471,1.023 9.786,3.068l-3.28,8.834c-2.328,-1.376 -4.655,-2.063 -6.982,-2.063c-2.081,0 -3.95,0.626 -5.608,1.878c-1.657,1.251 -2.838,2.988 -3.544,5.21c-1.058,3.385 -1.587,7.088 -1.587,11.108l0,29.411l-9.521,0Z" style="fill:#fff;fill-rule:nonzero;"/><path d="M2517.11,589.093c0,-10.403 2.892,-18.109 8.676,-23.116c4.831,-4.162 10.72,-6.242 17.667,-6.242c7.723,0 14.036,2.53 18.937,7.591c4.902,5.06 7.353,12.051 7.353,20.973c0,7.23 -1.084,12.916 -3.253,17.06c-2.169,4.143 -5.325,7.361 -9.469,9.653c-4.143,2.293 -8.666,3.439 -13.568,3.439c-7.864,0 -14.22,-2.522 -19.069,-7.565c-4.849,-5.042 -7.274,-12.307 -7.274,-21.793Zm9.786,0c0,7.194 1.57,12.58 4.708,16.16c3.139,3.579 7.089,5.369 11.849,5.369c4.726,0 8.658,-1.799 11.796,-5.396c3.139,-3.597 4.708,-9.08 4.708,-16.451c0,-6.947 -1.578,-12.21 -4.734,-15.789c-3.156,-3.58 -7.08,-5.369 -11.77,-5.369c-4.76,0 -8.71,1.78 -11.849,5.342c-3.138,3.562 -4.708,8.94 -4.708,16.134Z" style="fill:#fff;fill-rule:nonzero;"/><path d="M2617.72,617.181l0,-8.252c-4.373,6.348 -10.315,9.522 -17.827,9.522c-3.314,0 -6.409,-0.635 -9.283,-1.905c-2.874,-1.269 -5.008,-2.865 -6.401,-4.787c-1.392,-1.922 -2.371,-4.276 -2.935,-7.062c-0.388,-1.869 -0.582,-4.831 -0.582,-8.886l0,-34.807l9.521,0l0,31.157c0,4.972 0.194,8.322 0.582,10.05c0.6,2.504 1.869,4.47 3.809,5.898c1.939,1.428 4.337,2.143 7.194,2.143c2.856,0 5.536,-0.732 8.04,-2.196c2.504,-1.463 4.276,-3.456 5.316,-5.977c1.041,-2.521 1.561,-6.18 1.561,-10.976l0,-30.099l9.521,0l0,56.177l-8.516,0Z" style="fill:#fff;fill-rule:nonzero;"/><path d="M2641.15,638.71l0,-77.706l8.675,0l0,7.3c2.046,-2.856 4.356,-4.999 6.93,-6.427c2.574,-1.428 5.695,-2.142 9.363,-2.142c4.796,0 9.027,1.234 12.695,3.703c3.668,2.468 6.436,5.951 8.305,10.447c1.869,4.496 2.803,9.424 2.803,14.785c0,5.748 -1.031,10.923 -3.094,15.525c-2.063,4.602 -5.061,8.128 -8.993,10.579c-3.932,2.451 -8.066,3.677 -12.404,3.677c-3.174,0 -6.021,-0.67 -8.543,-2.01c-2.521,-1.34 -4.593,-3.033 -6.215,-5.079l0,27.348l-9.522,0Zm8.622,-49.3c0,7.229 1.464,12.572 4.391,16.028c2.927,3.456 6.471,5.184 10.632,5.184c4.232,0 7.856,-1.79 10.871,-5.369c3.015,-3.58 4.522,-9.125 4.522,-16.636c0,-7.159 -1.472,-12.519 -4.417,-16.081c-2.944,-3.562 -6.462,-5.343 -10.553,-5.343c-4.055,0 -7.643,1.896 -10.764,5.687c-3.121,3.791 -4.682,9.301 -4.682,16.53Z" style="fill:#fff;fill-rule:nonzero;"/><path d="M2702.2,617.181l0,-77.547l10.262,0l0,68.396l38.191,0l0,9.151l-48.453,0Z" style="fill:#fff;fill-rule:nonzero;"/><path d="M2798.31,610.252c-3.527,2.997 -6.921,5.113 -10.183,6.347c-3.262,1.235 -6.762,1.852 -10.5,1.852c-6.171,0 -10.915,-1.508 -14.229,-4.523c-3.315,-3.015 -4.973,-6.868 -4.973,-11.558c0,-2.751 0.626,-5.263 1.878,-7.538c1.252,-2.274 2.892,-4.099 4.919,-5.475c2.028,-1.375 4.312,-2.415 6.851,-3.121c1.869,-0.493 4.69,-0.969 8.463,-1.428c7.688,-0.917 13.348,-2.01 16.98,-3.28c0.035,-1.304 0.053,-2.133 0.053,-2.486c0,-3.879 -0.899,-6.612 -2.698,-8.199c-2.433,-2.151 -6.048,-3.226 -10.844,-3.226c-4.478,0 -7.784,0.784 -9.918,2.353c-2.133,1.57 -3.711,4.347 -4.734,8.332l-9.31,-1.27c0.846,-3.985 2.239,-7.203 4.179,-9.654c1.939,-2.45 4.743,-4.337 8.411,-5.66c3.667,-1.322 7.916,-1.983 12.748,-1.983c4.796,0 8.693,0.564 11.69,1.693c2.998,1.128 5.202,2.547 6.612,4.258c1.411,1.71 2.398,3.87 2.962,6.48c0.318,1.622 0.476,4.549 0.476,8.781l0,12.695c0,8.851 0.203,14.45 0.609,16.795c0.405,2.345 1.208,4.593 2.407,6.744l-9.945,0c-0.987,-1.975 -1.622,-4.285 -1.904,-6.929Zm-0.794,-21.265c-3.456,1.411 -8.64,2.61 -15.552,3.597c-3.914,0.564 -6.682,1.199 -8.304,1.904c-1.623,0.706 -2.874,1.737 -3.756,3.095c-0.882,1.357 -1.323,2.865 -1.323,4.522c0,2.54 0.961,4.655 2.883,6.348c1.922,1.693 4.735,2.539 8.437,2.539c3.668,0 6.93,-0.802 9.786,-2.407c2.857,-1.604 4.955,-3.799 6.295,-6.585c1.023,-2.151 1.534,-5.325 1.534,-9.522l0,-3.491Z" style="fill:#fff;fill-rule:nonzero;"/><path d="M2821.48,638.816l-1.058,-8.94c2.08,0.565 3.896,0.847 5.448,0.847c2.116,0 3.809,-0.353 5.078,-1.058c1.27,-0.705 2.31,-1.693 3.121,-2.962c0.6,-0.953 1.569,-3.315 2.909,-7.089c0.177,-0.529 0.459,-1.304 0.847,-2.327l-21.318,-56.283l10.262,0l11.691,32.532c1.516,4.126 2.874,8.464 4.073,13.013c1.093,-4.373 2.398,-8.64 3.914,-12.801l12.008,-32.744l9.521,0l-21.37,57.129c-2.292,6.172 -4.073,10.421 -5.343,12.748c-1.693,3.139 -3.632,5.44 -5.819,6.904c-2.186,1.463 -4.796,2.195 -7.828,2.195c-1.834,0 -3.879,-0.388 -6.136,-1.164Z" style="fill:#fff;fill-rule:nonzero;"/><path d="M2872.52,589.093c0,-10.403 2.892,-18.109 8.675,-23.116c4.832,-4.162 10.721,-6.242 17.668,-6.242c7.723,0 14.035,2.53 18.937,7.591c4.902,5.06 7.353,12.051 7.353,20.973c0,7.23 -1.084,12.916 -3.253,17.06c-2.169,4.143 -5.325,7.361 -9.469,9.653c-4.143,2.293 -8.666,3.439 -13.568,3.439c-7.864,0 -14.22,-2.522 -19.069,-7.565c-4.849,-5.042 -7.274,-12.307 -7.274,-21.793Zm9.786,0c0,7.194 1.57,12.58 4.708,16.16c3.139,3.579 7.088,5.369 11.849,5.369c4.726,0 8.658,-1.799 11.796,-5.396c3.139,-3.597 4.708,-9.08 4.708,-16.451c0,-6.947 -1.578,-12.21 -4.734,-15.789c-3.156,-3.58 -7.08,-5.369 -11.77,-5.369c-4.761,0 -8.71,1.78 -11.849,5.342c-3.138,3.562 -4.708,8.94 -4.708,16.134Z" style="fill:#fff;fill-rule:nonzero;"/><path d="M2973.13,617.181l0,-8.252c-4.373,6.348 -10.315,9.522 -17.827,9.522c-3.315,0 -6.409,-0.635 -9.283,-1.905c-2.874,-1.269 -5.008,-2.865 -6.401,-4.787c-1.393,-1.922 -2.371,-4.276 -2.935,-7.062c-0.388,-1.869 -0.582,-4.831 -0.582,-8.886l0,-34.807l9.521,0l0,31.157c0,4.972 0.194,8.322 0.582,10.05c0.6,2.504 1.869,4.47 3.809,5.898c1.939,1.428 4.337,2.143 7.194,2.143c2.856,0 5.536,-0.732 8.04,-2.196c2.504,-1.463 4.276,-3.456 5.316,-5.977c1.04,-2.521 1.561,-6.18 1.561,-10.976l0,-30.099l9.521,0l0,56.177l-8.516,0Z" style="fill:#fff;fill-rule:nonzero;"/><path d="M3017.36,608.665l1.375,8.41c-2.68,0.565 -5.078,0.847 -7.194,0.847c-3.456,0 -6.136,-0.547 -8.04,-1.64c-1.905,-1.093 -3.245,-2.53 -4.021,-4.311c-0.775,-1.781 -1.163,-5.528 -1.163,-11.241l0,-32.32l-6.983,0l0,-7.406l6.983,0l0,-13.912l9.468,-5.712l0,19.624l9.575,0l0,7.406l-9.575,0l0,32.849c0,2.715 0.168,4.461 0.503,5.237c0.335,0.776 0.881,1.393 1.64,1.851c0.758,0.459 1.842,0.688 3.253,0.688c1.058,0 2.451,-0.123 4.179,-0.37Z" style="fill:#fff;fill-rule:nonzero;"/><path d="M3053.19,2452.6l0,-77.547l52.315,0l0,9.151l-42.053,0l0,24.015l36.393,0l0,9.152l-36.393,0l0,35.229l-10.262,0Z" style="fill:#fff;fill-rule:nonzero;"/><path d="M3114.08,2424.51c0,-10.403 2.891,-18.109 8.675,-23.116c4.831,-4.162 10.72,-6.242 17.667,-6.242c7.723,0 14.036,2.53 18.938,7.591c4.901,5.06 7.352,12.051 7.352,20.973c0,7.23 -1.084,12.916 -3.253,17.06c-2.169,4.143 -5.325,7.361 -9.468,9.653c-4.144,2.293 -8.667,3.439 -13.569,3.439c-7.864,0 -14.22,-2.522 -19.069,-7.565c-4.849,-5.043 -7.273,-12.307 -7.273,-21.793Zm9.786,0c0,7.194 1.569,12.58 4.708,16.16c3.138,3.579 7.088,5.369 11.848,5.369c4.726,0 8.658,-1.799 11.797,-5.396c3.138,-3.597 4.707,-9.08 4.707,-16.451c0,-6.947 -1.578,-12.21 -4.734,-15.789c-3.156,-3.58 -7.079,-5.37 -11.77,-5.37c-4.76,0 -8.71,1.781 -11.848,5.343c-3.139,3.562 -4.708,8.94 -4.708,16.134Z" style="fill:#fff;fill-rule:nonzero;"/><path d="M3177.76,2452.6l0,-56.177l8.569,0l0,8.517c2.187,-3.985 4.206,-6.612 6.057,-7.882c1.851,-1.269 3.888,-1.904 6.11,-1.904c3.209,0 6.471,1.022 9.786,3.068l-3.28,8.834c-2.328,-1.376 -4.655,-2.063 -6.983,-2.063c-2.08,0 -3.949,0.626 -5.607,1.878c-1.657,1.251 -2.838,2.988 -3.544,5.21c-1.058,3.385 -1.587,7.088 -1.587,11.108l0,29.411l-9.521,0Z" style="fill:#fff;fill-rule:nonzero;"/><path d="M3245.26,2452.6l0,-77.547l29.252,0c5.148,0 9.08,0.247 11.796,0.74c3.808,0.635 7,1.843 9.574,3.624c2.574,1.781 4.646,4.276 6.216,7.485c1.569,3.209 2.353,6.735 2.353,10.579c0,6.595 -2.098,12.175 -6.294,16.742c-4.197,4.567 -11.779,6.85 -22.746,6.85l-19.889,0l0,31.527l-10.262,0Zm10.262,-40.678l20.048,0c6.629,0 11.337,-1.234 14.123,-3.703c2.786,-2.468 4.179,-5.942 4.179,-10.42c0,-3.245 -0.82,-6.022 -2.46,-8.332c-1.639,-2.309 -3.799,-3.835 -6.48,-4.575c-1.728,-0.459 -4.919,-0.688 -9.574,-0.688l-19.836,0l0,27.718Z" style="fill:#fff;fill-rule:nonzero;"/><path d="M3316.35,2386l0,-10.95l9.522,0l0,10.95l-9.522,0Zm0,66.597l0,-56.177l9.522,0l0,56.177l-9.522,0Z" style="fill:#fff;fill-rule:nonzero;"/><path d="M3340.37,2474.13l0,-77.706l8.675,0l0,7.3c2.045,-2.856 4.355,-4.999 6.929,-6.427c2.575,-1.428 5.696,-2.142 9.363,-2.142c4.796,0 9.028,1.234 12.695,3.703c3.668,2.468 6.436,5.951 8.305,10.447c1.869,4.496 2.804,9.424 2.804,14.785c0,5.748 -1.032,10.923 -3.095,15.525c-2.063,4.602 -5.06,8.128 -8.992,10.579c-3.932,2.451 -8.067,3.677 -12.405,3.677c-3.173,0 -6.021,-0.67 -8.542,-2.01c-2.522,-1.341 -4.594,-3.033 -6.216,-5.079l0,27.348l-9.521,0Zm8.622,-49.3c0,7.229 1.463,12.572 4.39,16.028c2.927,3.456 6.471,5.184 10.633,5.184c4.231,0 7.855,-1.79 10.87,-5.369c3.015,-3.58 4.523,-9.125 4.523,-16.636c0,-7.159 -1.473,-12.519 -4.417,-16.081c-2.945,-3.562 -6.462,-5.343 -10.553,-5.343c-4.056,0 -7.644,1.896 -10.765,5.687c-3.121,3.791 -4.681,9.301 -4.681,16.53Z" style="fill:#fff;fill-rule:nonzero;"/><path d="M3439.08,2434.51l9.839,1.217c-1.552,5.748 -4.426,10.209 -8.623,13.383c-4.196,3.174 -9.556,4.761 -16.08,4.761c-8.217,0 -14.732,-2.531 -19.546,-7.591c-4.814,-5.061 -7.22,-12.158 -7.22,-21.291c0,-9.451 2.433,-16.786 7.299,-22.005c4.867,-5.22 11.179,-7.829 18.938,-7.829c7.511,0 13.647,2.557 18.408,7.67c4.761,5.113 7.141,12.307 7.141,21.582c0,0.564 -0.018,1.411 -0.053,2.539l-41.894,0c0.352,6.171 2.098,10.897 5.236,14.176c3.139,3.28 7.053,4.92 11.744,4.92c3.491,0 6.471,-0.917 8.939,-2.751c2.469,-1.834 4.426,-4.761 5.872,-8.781Zm-31.263,-15.393l31.369,0c-0.424,-4.725 -1.623,-8.269 -3.598,-10.632c-3.032,-3.668 -6.964,-5.501 -11.796,-5.501c-4.372,0 -8.049,1.463 -11.029,4.39c-2.979,2.927 -4.628,6.841 -4.946,11.743Z" style="fill:#fff;fill-rule:nonzero;"/><rect x="3460.66" y="2375.05" width="9.521" height="77.547" style="fill:#fff;fill-rule:nonzero;"/><path d="M3484.99,2386l0,-10.95l9.522,0l0,10.95l-9.522,0Zm0,66.597l0,-56.177l9.522,0l0,56.177l-9.522,0Z" style="fill:#fff;fill-rule:nonzero;"/><path d="M3509.01,2452.6l0,-56.177l8.569,0l0,7.988c4.126,-6.172 10.086,-9.257 17.879,-9.257c3.386,0 6.498,0.608 9.337,1.825c2.838,1.216 4.963,2.812 6.374,4.787c1.41,1.975 2.398,4.32 2.962,7.035c0.353,1.764 0.529,4.849 0.529,9.257l0,34.542l-9.522,0l0,-34.171c0,-3.88 -0.37,-6.78 -1.11,-8.702c-0.741,-1.922 -2.055,-3.456 -3.941,-4.602c-1.887,-1.146 -4.1,-1.719 -6.639,-1.719c-4.055,0 -7.555,1.287 -10.5,3.861c-2.944,2.575 -4.417,7.459 -4.417,14.653l0,30.68l-9.521,0Z" style="fill:#fff;fill-rule:nonzero;"/><path d="M3607.71,2434.51l9.839,1.217c-1.552,5.748 -4.426,10.209 -8.623,13.383c-4.196,3.174 -9.556,4.761 -16.08,4.761c-8.217,0 -14.732,-2.531 -19.546,-7.591c-4.813,-5.061 -7.22,-12.158 -7.22,-21.291c0,-9.451 2.433,-16.786 7.3,-22.005c4.866,-5.22 11.178,-7.829 18.937,-7.829c7.511,0 13.647,2.557 18.408,7.67c4.761,5.113 7.141,12.307 7.141,21.582c0,0.564 -0.018,1.411 -0.053,2.539l-41.894,0c0.352,6.171 2.098,10.897 5.236,14.176c3.139,3.28 7.053,4.92 11.744,4.92c3.491,0 6.471,-0.917 8.939,-2.751c2.469,-1.834 4.426,-4.761 5.872,-8.781Zm-31.262,-15.393l31.368,0c-0.424,-4.725 -1.623,-8.269 -3.597,-10.632c-3.033,-3.668 -6.965,-5.501 -11.796,-5.501c-4.373,0 -8.05,1.463 -11.03,4.39c-2.979,2.927 -4.628,6.841 -4.945,11.743Z" style="fill:#fff;fill-rule:nonzero;"/><path d="M1112.6,2452.6l0,-77.547l52.315,0l0,9.151l-42.053,0l0,24.015l36.393,0l0,9.152l-36.393,0l0,35.229l-10.262,0Z" style="fill:#fff;fill-rule:nonzero;"/><path d="M1173.48,2424.51c0,-10.403 2.892,-18.109 8.675,-23.116c4.832,-4.162 10.721,-6.242 17.668,-6.242c7.723,0 14.035,2.53 18.937,7.591c4.902,5.06 7.353,12.051 7.353,20.973c0,7.23 -1.085,12.916 -3.253,17.06c-2.169,4.143 -5.325,7.361 -9.469,9.653c-4.143,2.293 -8.666,3.439 -13.568,3.439c-7.864,0 -14.221,-2.522 -19.069,-7.565c-4.849,-5.043 -7.274,-12.307 -7.274,-21.793Zm9.786,0c0,7.194 1.569,12.58 4.708,16.16c3.139,3.579 7.088,5.369 11.849,5.369c4.725,0 8.657,-1.799 11.796,-5.396c3.139,-3.597 4.708,-9.08 4.708,-16.451c0,-6.947 -1.578,-12.21 -4.734,-15.789c-3.157,-3.58 -7.08,-5.37 -11.77,-5.37c-4.761,0 -8.71,1.781 -11.849,5.343c-3.139,3.562 -4.708,8.94 -4.708,16.134Z" style="fill:#fff;fill-rule:nonzero;"/><path d="M1237.17,2452.6l0,-56.177l8.57,0l0,8.517c2.186,-3.985 4.205,-6.612 6.056,-7.882c1.852,-1.269 3.888,-1.904 6.11,-1.904c3.209,0 6.471,1.022 9.786,3.068l-3.28,8.834c-2.327,-1.376 -4.655,-2.063 -6.982,-2.063c-2.081,0 -3.95,0.626 -5.607,1.878c-1.658,1.251 -2.839,2.988 -3.544,5.21c-1.058,3.385 -1.587,7.088 -1.587,11.108l0,29.411l-9.522,0Z" style="fill:#fff;fill-rule:nonzero;"/><path d="M1360,2425.41l10.262,2.592c-2.152,8.428 -6.022,14.855 -11.611,19.281c-5.59,4.426 -12.422,6.639 -20.498,6.639c-8.358,0 -15.155,-1.702 -20.392,-5.105c-5.237,-3.403 -9.222,-8.331 -11.955,-14.785c-2.733,-6.453 -4.099,-13.383 -4.099,-20.788c0,-8.076 1.543,-15.12 4.628,-21.133c3.086,-6.012 7.477,-10.579 13.172,-13.7c5.695,-3.121 11.963,-4.682 18.805,-4.682c7.758,0 14.282,1.975 19.572,5.925c5.289,3.95 8.975,9.504 11.055,16.663l-10.103,2.38c-1.799,-5.642 -4.408,-9.751 -7.829,-12.325c-3.421,-2.574 -7.723,-3.862 -12.907,-3.862c-5.96,0 -10.941,1.429 -14.943,4.285c-4.003,2.857 -6.815,6.692 -8.437,11.505c-1.623,4.814 -2.434,9.777 -2.434,14.891c0,6.594 0.961,12.351 2.883,17.271c1.922,4.919 4.911,8.595 8.966,11.029c4.056,2.433 8.446,3.65 13.172,3.65c5.748,0 10.614,-1.658 14.599,-4.973c3.985,-3.315 6.683,-8.234 8.094,-14.758Z" style="fill:#fff;fill-rule:nonzero;"/><path d="M1378.14,2424.51c0,-10.403 2.892,-18.109 8.675,-23.116c4.832,-4.162 10.721,-6.242 17.668,-6.242c7.723,0 14.035,2.53 18.937,7.591c4.902,5.06 7.353,12.051 7.353,20.973c0,7.23 -1.085,12.916 -3.253,17.06c-2.169,4.143 -5.325,7.361 -9.469,9.653c-4.143,2.293 -8.666,3.439 -13.568,3.439c-7.864,0 -14.22,-2.522 -19.069,-7.565c-4.849,-5.043 -7.274,-12.307 -7.274,-21.793Zm9.786,0c0,7.194 1.569,12.58 4.708,16.16c3.139,3.579 7.088,5.369 11.849,5.369c4.725,0 8.658,-1.799 11.796,-5.396c3.139,-3.597 4.708,-9.08 4.708,-16.451c0,-6.947 -1.578,-12.21 -4.734,-15.789c-3.157,-3.58 -7.08,-5.37 -11.77,-5.37c-4.761,0 -8.71,1.781 -11.849,5.343c-3.139,3.562 -4.708,8.94 -4.708,16.134Z" style="fill:#fff;fill-rule:nonzero;"/><path d="M1441.93,2452.6l0,-56.177l8.517,0l0,7.882c1.763,-2.751 4.108,-4.964 7.035,-6.639c2.927,-1.675 6.259,-2.512 9.998,-2.512c4.161,0 7.573,0.864 10.235,2.592c2.663,1.728 4.54,4.143 5.634,7.247c4.443,-6.56 10.226,-9.839 17.35,-9.839c5.572,0 9.856,1.543 12.854,4.628c2.997,3.086 4.496,7.838 4.496,14.256l0,38.562l-9.468,0l0,-35.388c0,-3.809 -0.309,-6.551 -0.926,-8.226c-0.617,-1.675 -1.737,-3.024 -3.359,-4.046c-1.622,-1.023 -3.527,-1.534 -5.713,-1.534c-3.95,0 -7.229,1.313 -9.839,3.941c-2.609,2.627 -3.914,6.832 -3.914,12.616l0,32.637l-9.522,0l0,-36.499c0,-4.232 -0.776,-7.406 -2.327,-9.521c-1.552,-2.116 -4.091,-3.174 -7.617,-3.174c-2.681,0 -5.158,0.705 -7.432,2.116c-2.275,1.41 -3.924,3.473 -4.946,6.189c-1.023,2.715 -1.534,6.629 -1.534,11.743l0,29.146l-9.522,0Z" style="fill:#fff;fill-rule:nonzero;"/><path d="M1532.18,2452.6l0,-56.177l8.516,0l0,7.882c1.763,-2.751 4.108,-4.964 7.035,-6.639c2.927,-1.675 6.26,-2.512 9.998,-2.512c4.161,0 7.573,0.864 10.236,2.592c2.662,1.728 4.54,4.143 5.633,7.247c4.444,-6.56 10.227,-9.839 17.35,-9.839c5.572,0 9.857,1.543 12.854,4.628c2.998,3.086 4.497,7.838 4.497,14.256l0,38.562l-9.469,0l0,-35.388c0,-3.809 -0.308,-6.551 -0.926,-8.226c-0.617,-1.675 -1.736,-3.024 -3.359,-4.046c-1.622,-1.023 -3.526,-1.534 -5.712,-1.534c-3.95,0 -7.23,1.313 -9.839,3.941c-2.61,2.627 -3.915,6.832 -3.915,12.616l0,32.637l-9.521,0l0,-36.499c0,-4.232 -0.776,-7.406 -2.328,-9.521c-1.551,-2.116 -4.09,-3.174 -7.617,-3.174c-2.68,0 -5.157,0.705 -7.432,2.116c-2.274,1.41 -3.923,3.473 -4.946,6.189c-1.022,2.715 -1.534,6.629 -1.534,11.743l0,29.146l-9.521,0Z" style="fill:#fff;fill-rule:nonzero;"/><path d="M1659.08,2445.67c-3.527,2.997 -6.921,5.113 -10.183,6.347c-3.262,1.234 -6.762,1.852 -10.5,1.852c-6.171,0 -10.914,-1.508 -14.229,-4.523c-3.315,-3.015 -4.973,-6.868 -4.973,-11.558c0,-2.751 0.626,-5.263 1.878,-7.538c1.252,-2.275 2.892,-4.099 4.92,-5.475c2.027,-1.375 4.311,-2.415 6.85,-3.121c1.869,-0.493 4.69,-0.97 8.463,-1.428c7.688,-0.917 13.348,-2.01 16.98,-3.28c0.036,-1.304 0.053,-2.133 0.053,-2.486c0,-3.879 -0.899,-6.612 -2.697,-8.199c-2.434,-2.151 -6.048,-3.227 -10.844,-3.227c-4.479,0 -7.785,0.785 -9.919,2.354c-2.133,1.57 -3.711,4.347 -4.734,8.332l-9.31,-1.27c0.847,-3.985 2.24,-7.203 4.179,-9.654c1.94,-2.45 4.743,-4.337 8.411,-5.66c3.667,-1.322 7.917,-1.983 12.748,-1.983c4.796,0 8.693,0.564 11.69,1.693c2.998,1.128 5.202,2.547 6.612,4.258c1.411,1.71 2.398,3.87 2.963,6.48c0.317,1.622 0.476,4.549 0.476,8.781l0,12.695c0,8.851 0.203,14.45 0.608,16.795c0.406,2.345 1.208,4.593 2.407,6.744l-9.945,0c-0.987,-1.975 -1.622,-4.285 -1.904,-6.929Zm-0.794,-21.265c-3.455,1.411 -8.639,2.61 -15.551,3.597c-3.915,0.564 -6.683,1.199 -8.305,1.904c-1.622,0.706 -2.874,1.737 -3.756,3.095c-0.881,1.357 -1.322,2.865 -1.322,4.522c0,2.539 0.961,4.655 2.883,6.348c1.922,1.693 4.734,2.539 8.437,2.539c3.667,0 6.929,-0.802 9.786,-2.407c2.856,-1.604 4.954,-3.799 6.294,-6.585c1.023,-2.152 1.534,-5.325 1.534,-9.522l0,-3.491Z" style="fill:#fff;fill-rule:nonzero;"/><path d="M1682.67,2452.6l0,-56.177l8.569,0l0,7.988c4.126,-6.172 10.086,-9.257 17.88,-9.257c3.385,0 6.497,0.608 9.336,1.825c2.839,1.216 4.963,2.812 6.374,4.787c1.411,1.975 2.398,4.32 2.962,7.035c0.353,1.764 0.529,4.849 0.529,9.257l0,34.542l-9.521,0l0,-34.171c0,-3.88 -0.37,-6.78 -1.111,-8.702c-0.741,-1.922 -2.054,-3.456 -3.941,-4.602c-1.887,-1.146 -4.099,-1.719 -6.638,-1.719c-4.056,0 -7.556,1.287 -10.501,3.861c-2.944,2.575 -4.416,7.459 -4.416,14.653l0,30.68l-9.522,0Z" style="fill:#fff;fill-rule:nonzero;"/><path d="M1779.36,2452.6l0,-7.088c-3.562,5.572 -8.799,8.358 -15.71,8.358c-4.479,0 -8.596,-1.235 -12.352,-3.703c-3.756,-2.469 -6.665,-5.916 -8.728,-10.342c-2.063,-4.425 -3.094,-9.512 -3.094,-15.26c0,-5.607 0.934,-10.694 2.803,-15.261c1.869,-4.567 4.673,-8.067 8.411,-10.5c3.738,-2.434 7.917,-3.65 12.536,-3.65c3.386,0 6.401,0.714 9.046,2.142c2.645,1.428 4.796,3.289 6.453,5.581l0,-27.824l9.469,0l0,77.547l-8.834,0Zm-30.098,-28.035c0,7.194 1.516,12.572 4.549,16.133c3.032,3.562 6.612,5.343 10.738,5.343c4.161,0 7.696,-1.702 10.606,-5.105c2.909,-3.403 4.364,-8.596 4.364,-15.578c0,-7.688 -1.481,-13.33 -4.444,-16.927c-2.962,-3.597 -6.612,-5.396 -10.949,-5.396c-4.232,0 -7.767,1.728 -10.606,5.184c-2.839,3.456 -4.258,8.905 -4.258,16.346Z" style="fill:#fff;fill-rule:nonzero;"/><path d="M1834.69,2452.6l0,-77.547l56.071,0l0,9.151l-45.809,0l0,23.751l42.9,0l0,9.098l-42.9,0l0,26.396l47.608,0l0,9.151l-57.87,0Z" style="fill:#fff;fill-rule:nonzero;"/><path d="M1905.52,2452.6l0,-56.177l8.569,0l0,7.988c4.126,-6.172 10.086,-9.257 17.879,-9.257c3.386,0 6.498,0.608 9.337,1.825c2.838,1.216 4.963,2.812 6.374,4.787c1.41,1.975 2.398,4.32 2.962,7.035c0.353,1.764 0.529,4.849 0.529,9.257l0,34.542l-9.522,0l0,-34.171c0,-3.88 -0.37,-6.78 -1.11,-8.702c-0.741,-1.922 -2.055,-3.456 -3.941,-4.602c-1.887,-1.146 -4.1,-1.719 -6.639,-1.719c-4.055,0 -7.555,1.287 -10.5,3.861c-2.945,2.575 -4.417,7.459 -4.417,14.653l0,30.68l-9.521,0Z" style="fill:#fff;fill-rule:nonzero;"/><path d="M2002.43,2432.02l9.363,1.217c-1.023,6.453 -3.641,11.505 -7.855,15.155c-4.214,3.65 -9.389,5.475 -15.526,5.475c-7.687,0 -13.867,-2.513 -18.54,-7.538c-4.673,-5.025 -7.009,-12.228 -7.009,-21.609c0,-6.065 1.005,-11.373 3.015,-15.922c2.01,-4.549 5.07,-7.961 9.178,-10.235c4.108,-2.275 8.578,-3.412 13.409,-3.412c6.101,0 11.091,1.543 14.97,4.628c3.879,3.086 6.366,7.468 7.459,13.145l-9.257,1.428c-0.882,-3.773 -2.442,-6.612 -4.682,-8.516c-2.239,-1.904 -4.946,-2.856 -8.119,-2.856c-4.796,0 -8.693,1.719 -11.691,5.157c-2.997,3.438 -4.496,8.878 -4.496,16.319c0,7.546 1.446,13.03 4.338,16.451c2.891,3.421 6.665,5.131 11.32,5.131c3.738,0 6.859,-1.146 9.362,-3.438c2.504,-2.293 4.091,-5.819 4.761,-10.58Z" style="fill:#fff;fill-rule:nonzero;"/><path d="M2016.4,2424.51c0,-10.403 2.892,-18.109 8.675,-23.116c4.831,-4.162 10.721,-6.242 17.668,-6.242c7.723,0 14.035,2.53 18.937,7.591c4.902,5.06 7.353,12.051 7.353,20.973c0,7.23 -1.085,12.916 -3.253,17.06c-2.169,4.143 -5.325,7.361 -9.469,9.653c-4.144,2.293 -8.666,3.439 -13.568,3.439c-7.864,0 -14.221,-2.522 -19.07,-7.565c-4.848,-5.043 -7.273,-12.307 -7.273,-21.793Zm9.786,0c0,7.194 1.569,12.58 4.708,16.16c3.138,3.579 7.088,5.369 11.849,5.369c4.725,0 8.657,-1.799 11.796,-5.396c3.138,-3.597 4.708,-9.08 4.708,-16.451c0,-6.947 -1.578,-12.21 -4.735,-15.789c-3.156,-3.58 -7.079,-5.37 -11.769,-5.37c-4.761,0 -8.711,1.781 -11.849,5.343c-3.139,3.562 -4.708,8.94 -4.708,16.134Z" style="fill:#fff;fill-rule:nonzero;"/><path d="M2116.64,2452.6l0,-7.088c-3.562,5.572 -8.798,8.358 -15.71,8.358c-4.479,0 -8.596,-1.235 -12.352,-3.703c-3.755,-2.469 -6.665,-5.916 -8.728,-10.342c-2.063,-4.425 -3.094,-9.512 -3.094,-15.26c0,-5.607 0.934,-10.694 2.803,-15.261c1.869,-4.567 4.673,-8.067 8.411,-10.5c3.738,-2.434 7.917,-3.65 12.537,-3.65c3.385,0 6.4,0.714 9.045,2.142c2.645,1.428 4.796,3.289 6.453,5.581l0,-27.824l9.469,0l0,77.547l-8.834,0Zm-30.098,-28.035c0,7.194 1.516,12.572 4.549,16.133c3.033,3.562 6.612,5.343 10.738,5.343c4.161,0 7.696,-1.702 10.606,-5.105c2.909,-3.403 4.364,-8.596 4.364,-15.578c0,-7.688 -1.481,-13.33 -4.444,-16.927c-2.962,-3.597 -6.612,-5.396 -10.949,-5.396c-4.232,0 -7.767,1.728 -10.606,5.184c-2.839,3.456 -4.258,8.905 -4.258,16.346Z" style="fill:#fff;fill-rule:nonzero;"/><path d="M2178.9,2434.51l9.839,1.217c-1.552,5.748 -4.426,10.209 -8.622,13.383c-4.197,3.174 -9.557,4.761 -16.081,4.761c-8.217,0 -14.732,-2.531 -19.546,-7.591c-4.813,-5.061 -7.22,-12.158 -7.22,-21.291c0,-9.451 2.433,-16.786 7.3,-22.005c4.866,-5.22 11.179,-7.829 18.937,-7.829c7.511,0 13.647,2.557 18.408,7.67c4.761,5.113 7.141,12.307 7.141,21.582c0,0.564 -0.017,1.411 -0.053,2.539l-41.894,0c0.353,6.171 2.098,10.897 5.237,14.176c3.138,3.28 7.053,4.92 11.743,4.92c3.491,0 6.471,-0.917 8.939,-2.751c2.469,-1.834 4.426,-4.761 5.872,-8.781Zm-31.262,-15.393l31.368,0c-0.423,-4.725 -1.622,-8.269 -3.597,-10.632c-3.033,-3.668 -6.965,-5.501 -11.796,-5.501c-4.373,0 -8.049,1.463 -11.029,4.39c-2.98,2.927 -4.629,6.841 -4.946,11.743Z" style="fill:#fff;fill-rule:nonzero;"/><path d="M2200.58,2452.6l0,-56.177l8.569,0l0,8.517c2.187,-3.985 4.206,-6.612 6.057,-7.882c1.851,-1.269 3.888,-1.904 6.11,-1.904c3.209,0 6.471,1.022 9.786,3.068l-3.28,8.834c-2.328,-1.376 -4.655,-2.063 -6.982,-2.063c-2.081,0 -3.95,0.626 -5.608,1.878c-1.657,1.251 -2.838,2.988 -3.544,5.21c-1.058,3.385 -1.587,7.088 -1.587,11.108l0,29.411l-9.521,0Z" style="fill:#fff;fill-rule:nonzero;"/><rect id="Button-label" serif:id="Button label" x="1000" y="1750" width="1333.33" height="500" style="fill:none;"/><clipPath id="_clip1"><rect x="1000" y="1750" width="1333.33" height="500"/></clipPath><g clip-path="url(#_clip1)"><rect x="1000" y="1750" width="1333.33" height="500" style="fill:#ab3d5b;"/><path d="M1323.86,1995.1l0,-9.099l32.849,-0.053l0,28.776c-5.043,4.021 -10.244,7.045 -15.604,9.072c-5.361,2.028 -10.862,3.042 -16.504,3.042c-7.618,0 -14.538,-1.631 -20.762,-4.893c-6.225,-3.262 -10.924,-7.979 -14.098,-14.15c-3.173,-6.171 -4.76,-13.066 -4.76,-20.683c0,-7.547 1.578,-14.591 4.734,-21.132c3.156,-6.542 7.697,-11.4 13.621,-14.573c5.924,-3.174 12.748,-4.761 20.471,-4.761c5.607,0 10.677,0.908 15.208,2.724c4.532,1.816 8.085,4.346 10.659,7.591c2.574,3.244 4.531,7.476 5.871,12.695l-9.257,2.539c-1.163,-3.949 -2.609,-7.053 -4.337,-9.31c-1.728,-2.257 -4.197,-4.064 -7.406,-5.422c-3.209,-1.357 -6.771,-2.036 -10.685,-2.036c-4.69,0 -8.746,0.714 -12.166,2.142c-3.421,1.428 -6.18,3.306 -8.279,5.634c-2.098,2.327 -3.729,4.884 -4.893,7.67c-1.974,4.796 -2.962,9.997 -2.962,15.604c0,6.912 1.19,12.696 3.571,17.351c2.38,4.655 5.845,8.111 10.394,10.367c4.549,2.257 9.38,3.386 14.494,3.386c4.443,0 8.781,-0.855 13.012,-2.566c4.232,-1.71 7.441,-3.535 9.628,-5.474l0,-14.441l-22.799,0Z" style="fill:#fff;fill-rule:nonzero;"/><path d="M1371.84,2025.51l0,-77.547l29.252,0c5.149,0 9.081,0.247 11.796,0.741c3.809,0.635 7,1.842 9.574,3.623c2.575,1.781 4.646,4.276 6.216,7.485c1.569,3.209 2.354,6.736 2.354,10.58c0,6.594 -2.099,12.175 -6.295,16.742c-4.197,4.566 -11.779,6.85 -22.746,6.85l-19.889,0l0,31.526l-10.262,0Zm10.262,-40.677l20.048,0c6.63,0 11.337,-1.235 14.123,-3.703c2.786,-2.469 4.179,-5.942 4.179,-10.421c0,-3.244 -0.82,-6.021 -2.459,-8.331c-1.64,-2.31 -3.8,-3.835 -6.48,-4.576c-1.728,-0.458 -4.92,-0.688 -9.575,-0.688l-19.836,0l0,27.719Z" style="fill:#fff;fill-rule:nonzero;"/><path d="M1494.99,1947.97l10.262,0l0,44.804c0,7.794 -0.881,13.983 -2.645,18.567c-1.763,4.584 -4.945,8.314 -9.547,11.188c-4.602,2.874 -10.642,4.311 -18.118,4.311c-7.264,0 -13.206,-1.252 -17.826,-3.756c-4.62,-2.504 -7.917,-6.127 -9.892,-10.87c-1.975,-4.743 -2.962,-11.223 -2.962,-19.44l0,-44.804l10.262,0l0,44.751c0,6.736 0.626,11.699 1.878,14.891c1.252,3.191 3.403,5.651 6.453,7.379c3.051,1.728 6.78,2.592 11.188,2.592c7.547,0 12.925,-1.71 16.134,-5.131c3.209,-3.421 4.813,-9.998 4.813,-19.731l0,-44.751Z" style="fill:#fff;fill-rule:nonzero;"/><path d="M1521.91,2025.51l0,-77.547l29.093,0c5.925,0 10.677,0.785 14.256,2.354c3.58,1.569 6.383,3.985 8.411,7.247c2.028,3.262 3.041,6.674 3.041,10.236c0,3.315 -0.899,6.436 -2.697,9.362c-1.799,2.927 -4.514,5.29 -8.147,7.089c4.691,1.375 8.296,3.72 10.818,7.035c2.521,3.315 3.782,7.229 3.782,11.743c0,3.632 -0.767,7.009 -2.301,10.13c-1.534,3.121 -3.429,5.528 -5.686,7.22c-2.257,1.693 -5.087,2.972 -8.49,3.835c-3.403,0.864 -7.573,1.296 -12.511,1.296l-29.569,0Zm10.262,-44.962l16.768,0c4.55,0 7.812,-0.3 9.786,-0.899c2.61,-0.776 4.576,-2.063 5.898,-3.862c1.323,-1.798 1.984,-4.055 1.984,-6.771c0,-2.574 -0.617,-4.84 -1.851,-6.797c-1.235,-1.957 -2.998,-3.297 -5.29,-4.02c-2.292,-0.723 -6.224,-1.085 -11.796,-1.085l-15.499,0l0,23.434Zm0,35.811l19.307,0c3.315,0 5.643,-0.123 6.983,-0.37c2.363,-0.423 4.337,-1.128 5.924,-2.116c1.587,-0.987 2.892,-2.424 3.915,-4.311c1.022,-1.887 1.534,-4.064 1.534,-6.533c0,-2.892 -0.741,-5.404 -2.222,-7.538c-1.481,-2.133 -3.535,-3.632 -6.162,-4.496c-2.628,-0.864 -6.41,-1.296 -11.347,-1.296l-17.932,0l0,26.66Z" style="fill:#fff;fill-rule:nonzero;"/><path d="M1593.43,1958.92l0,-10.95l9.521,0l0,10.95l-9.521,0Zm0,66.597l0,-56.176l9.521,0l0,56.176l-9.521,0Z" style="fill:#fff;fill-rule:nonzero;"/><path d="M1617.44,2025.51l0,-56.176l8.57,0l0,7.987c4.125,-6.171 10.085,-9.257 17.879,-9.257c3.385,0 6.497,0.608 9.336,1.825c2.839,1.217 4.964,2.812 6.374,4.787c1.411,1.975 2.398,4.32 2.962,7.036c0.353,1.763 0.529,4.849 0.529,9.257l0,34.541l-9.521,0l0,-34.171c0,-3.879 -0.37,-6.78 -1.111,-8.702c-0.74,-1.922 -2.054,-3.456 -3.941,-4.602c-1.886,-1.146 -4.099,-1.719 -6.638,-1.719c-4.056,0 -7.556,1.287 -10.5,3.862c-2.945,2.574 -4.417,7.458 -4.417,14.652l0,30.68l-9.522,0Z" style="fill:#fff;fill-rule:nonzero;"/><path d="M1714.14,2025.51l0,-7.088c-3.562,5.572 -8.798,8.358 -15.71,8.358c-4.479,0 -8.596,-1.234 -12.352,-3.703c-3.755,-2.468 -6.665,-5.915 -8.728,-10.341c-2.063,-4.426 -3.094,-9.513 -3.094,-15.261c0,-5.607 0.934,-10.694 2.803,-15.261c1.869,-4.567 4.673,-8.067 8.411,-10.5c3.738,-2.433 7.917,-3.65 12.537,-3.65c3.385,0 6.4,0.714 9.045,2.143c2.645,1.428 4.796,3.288 6.453,5.58l0,-27.824l9.469,0l0,77.547l-8.834,0Zm-30.098,-28.035c0,7.194 1.516,12.572 4.549,16.134c3.033,3.561 6.612,5.342 10.738,5.342c4.161,0 7.696,-1.701 10.606,-5.104c2.909,-3.403 4.364,-8.596 4.364,-15.579c0,-7.687 -1.481,-13.33 -4.444,-16.927c-2.962,-3.597 -6.612,-5.395 -10.949,-5.395c-4.232,0 -7.767,1.728 -10.606,5.184c-2.839,3.456 -4.258,8.904 -4.258,16.345Z" style="fill:#fff;fill-rule:nonzero;"/><path d="M1775.45,1995.1l0,-9.099l32.849,-0.053l0,28.776c-5.043,4.021 -10.244,7.045 -15.605,9.072c-5.36,2.028 -10.861,3.042 -16.504,3.042c-7.617,0 -14.537,-1.631 -20.762,-4.893c-6.224,-3.262 -10.923,-7.979 -14.097,-14.15c-3.174,-6.171 -4.76,-13.066 -4.76,-20.683c0,-7.547 1.578,-14.591 4.734,-21.132c3.156,-6.542 7.696,-11.4 13.621,-14.573c5.924,-3.174 12.748,-4.761 20.471,-4.761c5.607,0 10.676,0.908 15.208,2.724c4.531,1.816 8.084,4.346 10.659,7.591c2.574,3.244 4.531,7.476 5.871,12.695l-9.257,2.539c-1.163,-3.949 -2.609,-7.053 -4.337,-9.31c-1.728,-2.257 -4.197,-4.064 -7.406,-5.422c-3.209,-1.357 -6.771,-2.036 -10.685,-2.036c-4.69,0 -8.746,0.714 -12.166,2.142c-3.421,1.428 -6.181,3.306 -8.279,5.634c-2.098,2.327 -3.729,4.884 -4.893,7.67c-1.975,4.796 -2.962,9.997 -2.962,15.604c0,6.912 1.19,12.696 3.571,17.351c2.38,4.655 5.845,8.111 10.394,10.367c4.549,2.257 9.38,3.386 14.494,3.386c4.443,0 8.781,-0.855 13.012,-2.566c4.232,-1.71 7.441,-3.535 9.628,-5.474l0,-14.441l-22.799,0Z" style="fill:#fff;fill-rule:nonzero;"/><path d="M1822.1,2025.51l0,-56.176l8.57,0l0,8.516c2.186,-3.985 4.205,-6.612 6.056,-7.882c1.852,-1.269 3.888,-1.904 6.11,-1.904c3.209,0 6.471,1.023 9.786,3.068l-3.28,8.834c-2.327,-1.375 -4.655,-2.063 -6.982,-2.063c-2.081,0 -3.95,0.626 -5.607,1.878c-1.658,1.252 -2.839,2.989 -3.544,5.21c-1.058,3.386 -1.587,7.088 -1.587,11.109l0,29.41l-9.522,0Z" style="fill:#fff;fill-rule:nonzero;"/><path d="M1854.74,1997.43c0,-10.403 2.891,-18.108 8.675,-23.116c4.831,-4.161 10.72,-6.242 17.667,-6.242c7.723,0 14.036,2.53 18.938,7.591c4.901,5.06 7.352,12.052 7.352,20.974c0,7.229 -1.084,12.915 -3.253,17.059c-2.169,4.144 -5.325,7.361 -9.468,9.654c-4.144,2.292 -8.667,3.438 -13.569,3.438c-7.864,0 -14.22,-2.521 -19.069,-7.564c-4.849,-5.043 -7.273,-12.308 -7.273,-21.794Zm9.786,0c0,7.194 1.569,12.581 4.708,16.16c3.138,3.58 7.088,5.369 11.848,5.369c4.726,0 8.658,-1.798 11.797,-5.395c3.138,-3.597 4.707,-9.081 4.707,-16.451c0,-6.947 -1.578,-12.211 -4.734,-15.79c-3.156,-3.579 -7.079,-5.369 -11.77,-5.369c-4.76,0 -8.71,1.781 -11.848,5.342c-3.139,3.562 -4.708,8.94 -4.708,16.134Z" style="fill:#fff;fill-rule:nonzero;"/><path d="M1955.35,2025.51l0,-8.251c-4.373,6.347 -10.315,9.521 -17.826,9.521c-3.315,0 -6.41,-0.635 -9.284,-1.904c-2.874,-1.27 -5.007,-2.866 -6.4,-4.787c-1.393,-1.922 -2.372,-4.276 -2.936,-7.062c-0.388,-1.869 -0.582,-4.832 -0.582,-8.887l0,-34.806l9.522,0l0,31.156c0,4.972 0.194,8.323 0.581,10.051c0.6,2.503 1.869,4.469 3.809,5.898c1.94,1.428 4.338,2.142 7.194,2.142c2.856,0 5.537,-0.732 8.04,-2.195c2.504,-1.464 4.276,-3.456 5.317,-5.978c1.04,-2.521 1.56,-6.18 1.56,-10.976l0,-30.098l9.522,0l0,56.176l-8.517,0Z" style="fill:#fff;fill-rule:nonzero;"/><path d="M1978.78,2047.04l0,-77.706l8.675,0l0,7.3c2.045,-2.857 4.355,-4.999 6.929,-6.427c2.574,-1.429 5.695,-2.143 9.363,-2.143c4.796,0 9.028,1.234 12.695,3.703c3.668,2.469 6.436,5.951 8.305,10.447c1.869,4.496 2.804,9.425 2.804,14.785c0,5.748 -1.032,10.923 -3.095,15.525c-2.063,4.602 -5.06,8.129 -8.992,10.58c-3.932,2.451 -8.067,3.676 -12.405,3.676c-3.174,0 -6.021,-0.67 -8.543,-2.01c-2.521,-1.34 -4.593,-3.033 -6.215,-5.078l0,27.348l-9.521,0Zm8.622,-49.301c0,7.23 1.463,12.572 4.39,16.028c2.927,3.456 6.471,5.184 10.633,5.184c4.231,0 7.855,-1.789 10.87,-5.369c3.015,-3.579 4.523,-9.125 4.523,-16.636c0,-7.159 -1.473,-12.519 -4.417,-16.081c-2.945,-3.561 -6.463,-5.342 -10.553,-5.342c-4.056,0 -7.644,1.895 -10.765,5.686c-3.121,3.791 -4.681,9.301 -4.681,16.53Z" style="fill:#fff;fill-rule:nonzero;"/></g><rect id="Button-label1" serif:id="Button label" x="2666.67" y="1750" width="1333.33" height="500" style="fill:none;"/><clipPath id="_clip2"><rect x="2666.67" y="1750" width="1333.33" height="500"/></clipPath><g clip-path="url(#_clip2)"><path d="M4000,2250l-1333.33,0l0,-500l1333.33,0l0,500Zm-1316.67,-483.333l0,466.666l1300,0l0,-466.666l-1300,0Z" style="fill:#bf4608;"/><path d="M2894.13,1995.1l0,-9.099l32.849,-0.053l0,28.776c-5.043,4.021 -10.245,7.045 -15.605,9.072c-5.36,2.028 -10.861,3.042 -16.504,3.042c-7.617,0 -14.538,-1.631 -20.762,-4.893c-6.224,-3.262 -10.923,-7.979 -14.097,-14.15c-3.174,-6.171 -4.761,-13.066 -4.761,-20.683c0,-7.547 1.578,-14.591 4.735,-21.132c3.156,-6.542 7.696,-11.4 13.621,-14.573c5.924,-3.174 12.748,-4.761 20.471,-4.761c5.607,0 10.676,0.908 15.208,2.724c4.531,1.816 8.084,4.346 10.659,7.591c2.574,3.244 4.531,7.476 5.871,12.695l-9.257,2.539c-1.164,-3.949 -2.61,-7.053 -4.337,-9.31c-1.728,-2.257 -4.197,-4.064 -7.406,-5.422c-3.209,-1.357 -6.771,-2.036 -10.685,-2.036c-4.691,0 -8.746,0.714 -12.167,2.142c-3.42,1.428 -6.18,3.306 -8.278,5.634c-2.098,2.327 -3.729,4.884 -4.893,7.67c-1.975,4.796 -2.962,9.997 -2.962,15.604c0,6.912 1.19,12.696 3.57,17.351c2.381,4.655 5.845,8.111 10.395,10.367c4.549,2.257 9.38,3.386 14.493,3.386c4.444,0 8.781,-0.855 13.013,-2.566c4.232,-1.71 7.441,-3.535 9.627,-5.474l0,-14.441l-22.798,0Z" style="fill:#fff;fill-rule:nonzero;"/><path d="M2942.1,2025.51l0,-77.547l29.253,0c5.148,0 9.08,0.247 11.796,0.741c3.808,0.635 7,1.842 9.574,3.623c2.574,1.781 4.646,4.276 6.215,7.485c1.57,3.209 2.354,6.736 2.354,10.58c0,6.594 -2.098,12.175 -6.294,16.742c-4.197,4.566 -11.779,6.85 -22.746,6.85l-19.89,0l0,31.526l-10.262,0Zm10.262,-40.677l20.048,0c6.63,0 11.338,-1.235 14.124,-3.703c2.786,-2.469 4.179,-5.942 4.179,-10.421c0,-3.244 -0.82,-6.021 -2.46,-8.331c-1.64,-2.31 -3.8,-3.835 -6.48,-4.576c-1.728,-0.458 -4.919,-0.688 -9.574,-0.688l-19.837,0l0,27.719Z" style="fill:#fff;fill-rule:nonzero;"/><path d="M3065.25,1947.97l10.262,0l0,44.804c0,7.794 -0.882,13.983 -2.645,18.567c-1.763,4.584 -4.946,8.314 -9.548,11.188c-4.602,2.874 -10.641,4.311 -18.117,4.311c-7.265,0 -13.207,-1.252 -17.826,-3.756c-4.62,-2.504 -7.917,-6.127 -9.892,-10.87c-1.975,-4.743 -2.962,-11.223 -2.962,-19.44l0,-44.804l10.262,0l0,44.751c0,6.736 0.626,11.699 1.877,14.891c1.252,3.191 3.404,5.651 6.454,7.379c3.05,1.728 6.78,2.592 11.188,2.592c7.546,0 12.924,-1.71 16.133,-5.131c3.209,-3.421 4.814,-9.998 4.814,-19.731l0,-44.751Z" style="fill:#fff;fill-rule:nonzero;"/><path d="M3092.6,2025.51l0,-77.547l29.252,0c5.149,0 9.081,0.247 11.796,0.741c3.809,0.635 7,1.842 9.574,3.623c2.575,1.781 4.646,4.276 6.216,7.485c1.569,3.209 2.354,6.736 2.354,10.58c0,6.594 -2.099,12.175 -6.295,16.742c-4.197,4.566 -11.779,6.85 -22.746,6.85l-19.889,0l0,31.526l-10.262,0Zm10.262,-40.677l20.048,0c6.63,0 11.337,-1.235 14.123,-3.703c2.786,-2.469 4.179,-5.942 4.179,-10.421c0,-3.244 -0.82,-6.021 -2.459,-8.331c-1.64,-2.31 -3.8,-3.835 -6.48,-4.576c-1.728,-0.458 -4.92,-0.688 -9.575,-0.688l-19.836,0l0,27.719Z" style="fill:#fff;fill-rule:nonzero;"/><path d="M3163.69,1958.92l0,-10.95l9.521,0l0,10.95l-9.521,0Zm0,66.597l0,-56.176l9.521,0l0,56.176l-9.521,0Z" style="fill:#fff;fill-rule:nonzero;"/><path d="M3187.7,2047.04l0,-77.706l8.675,0l0,7.3c2.045,-2.857 4.355,-4.999 6.929,-6.427c2.575,-1.429 5.696,-2.143 9.363,-2.143c4.796,0 9.028,1.234 12.696,3.703c3.667,2.469 6.435,5.951 8.304,10.447c1.869,4.496 2.804,9.425 2.804,14.785c0,5.748 -1.032,10.923 -3.095,15.525c-2.063,4.602 -5.06,8.129 -8.992,10.58c-3.932,2.451 -8.067,3.676 -12.404,3.676c-3.174,0 -6.022,-0.67 -8.543,-2.01c-2.522,-1.34 -4.594,-3.033 -6.216,-5.078l0,27.348l-9.521,0Zm8.622,-49.301c0,7.23 1.464,12.572 4.391,16.028c2.926,3.456 6.471,5.184 10.632,5.184c4.232,0 7.855,-1.789 10.87,-5.369c3.015,-3.579 4.523,-9.125 4.523,-16.636c0,-7.159 -1.472,-12.519 -4.417,-16.081c-2.945,-3.561 -6.462,-5.342 -10.553,-5.342c-4.055,0 -7.644,1.895 -10.765,5.686c-3.12,3.791 -4.681,9.301 -4.681,16.53Z" style="fill:#fff;fill-rule:nonzero;"/><path d="M3286.41,2007.42l9.839,1.216c-1.552,5.748 -4.426,10.209 -8.623,13.383c-4.196,3.174 -9.556,4.761 -16.08,4.761c-8.217,0 -14.732,-2.53 -19.546,-7.591c-4.813,-5.06 -7.22,-12.157 -7.22,-21.291c0,-9.451 2.433,-16.786 7.3,-22.005c4.866,-5.219 11.179,-7.829 18.937,-7.829c7.511,0 13.647,2.557 18.408,7.67c4.761,5.114 7.141,12.308 7.141,21.582c0,0.565 -0.018,1.411 -0.053,2.539l-41.894,0c0.352,6.172 2.098,10.897 5.236,14.177c3.139,3.279 7.053,4.919 11.744,4.919c3.491,0 6.471,-0.917 8.939,-2.75c2.469,-1.834 4.426,-4.761 5.872,-8.781Zm-31.262,-15.393l31.368,0c-0.424,-4.726 -1.623,-8.27 -3.597,-10.633c-3.033,-3.667 -6.965,-5.501 -11.796,-5.501c-4.373,0 -8.05,1.463 -11.029,4.39c-2.98,2.927 -4.629,6.842 -4.946,11.744Z" style="fill:#fff;fill-rule:nonzero;"/><rect x="3307.99" y="1947.97" width="9.521" height="77.547" style="fill:#fff;fill-rule:nonzero;"/><path d="M3332.33,1958.92l0,-10.95l9.521,0l0,10.95l-9.521,0Zm0,66.597l0,-56.176l9.521,0l0,56.176l-9.521,0Z" style="fill:#fff;fill-rule:nonzero;"/><path d="M3356.34,2025.51l0,-56.176l8.569,0l0,7.987c4.126,-6.171 10.086,-9.257 17.879,-9.257c3.386,0 6.498,0.608 9.337,1.825c2.839,1.217 4.963,2.812 6.374,4.787c1.41,1.975 2.398,4.32 2.962,7.036c0.353,1.763 0.529,4.849 0.529,9.257l0,34.541l-9.521,0l0,-34.171c0,-3.879 -0.371,-6.78 -1.111,-8.702c-0.741,-1.922 -2.054,-3.456 -3.941,-4.602c-1.887,-1.146 -4.1,-1.719 -6.639,-1.719c-4.055,0 -7.555,1.287 -10.5,3.862c-2.944,2.574 -4.417,7.458 -4.417,14.652l0,30.68l-9.521,0Z" style="fill:#fff;fill-rule:nonzero;"/><path d="M3455.05,2007.42l9.839,1.216c-1.552,5.748 -4.426,10.209 -8.622,13.383c-4.197,3.174 -9.557,4.761 -16.081,4.761c-8.217,0 -14.732,-2.53 -19.546,-7.591c-4.813,-5.06 -7.22,-12.157 -7.22,-21.291c0,-9.451 2.433,-16.786 7.3,-22.005c4.866,-5.219 11.179,-7.829 18.937,-7.829c7.511,0 13.647,2.557 18.408,7.67c4.761,5.114 7.141,12.308 7.141,21.582c0,0.565 -0.017,1.411 -0.053,2.539l-41.894,0c0.352,6.172 2.098,10.897 5.237,14.177c3.138,3.279 7.053,4.919 11.743,4.919c3.491,0 6.471,-0.917 8.939,-2.75c2.469,-1.834 4.426,-4.761 5.872,-8.781Zm-31.262,-15.393l31.368,0c-0.423,-4.726 -1.622,-8.27 -3.597,-10.633c-3.033,-3.667 -6.965,-5.501 -11.796,-5.501c-4.373,0 -8.05,1.463 -11.029,4.39c-2.98,2.927 -4.629,6.842 -4.946,11.744Z" style="fill:#fff;fill-rule:nonzero;"/><path d="M3477.63,2025.51l0,-77.547l10.262,0l0,68.396l38.192,0l0,9.151l-48.454,0Z" style="fill:#fff;fill-rule:nonzero;"/><path d="M3573.75,2018.59c-3.526,2.997 -6.921,5.113 -10.183,6.348c-3.262,1.234 -6.762,1.851 -10.5,1.851c-6.171,0 -10.914,-1.508 -14.229,-4.523c-3.315,-3.015 -4.972,-6.868 -4.972,-11.558c0,-2.75 0.626,-5.263 1.878,-7.538c1.251,-2.274 2.891,-4.099 4.919,-5.474c2.028,-1.376 4.311,-2.416 6.85,-3.121c1.869,-0.494 4.69,-0.97 8.464,-1.429c7.687,-0.916 13.347,-2.01 16.98,-3.279c0.035,-1.305 0.053,-2.134 0.053,-2.486c0,-3.879 -0.9,-6.613 -2.698,-8.199c-2.433,-2.152 -6.048,-3.227 -10.844,-3.227c-4.479,0 -7.785,0.784 -9.918,2.354c-2.134,1.569 -3.712,4.346 -4.735,8.331l-9.31,-1.269c0.847,-3.985 2.24,-7.203 4.179,-9.654c1.94,-2.451 4.743,-4.338 8.411,-5.66c3.668,-1.323 7.917,-1.984 12.748,-1.984c4.796,0 8.693,0.564 11.69,1.693c2.998,1.128 5.202,2.548 6.613,4.258c1.41,1.71 2.398,3.87 2.962,6.48c0.317,1.622 0.476,4.549 0.476,8.781l0,12.695c0,8.852 0.203,14.45 0.608,16.795c0.406,2.345 1.208,4.593 2.407,6.744l-9.945,0c-0.987,-1.974 -1.622,-4.284 -1.904,-6.929Zm-0.793,-21.265c-3.456,1.411 -8.64,2.61 -15.552,3.597c-3.915,0.565 -6.683,1.199 -8.305,1.905c-1.622,0.705 -2.874,1.736 -3.756,3.094c-0.881,1.358 -1.322,2.865 -1.322,4.523c0,2.539 0.961,4.655 2.883,6.347c1.922,1.693 4.734,2.54 8.437,2.54c3.667,0 6.929,-0.803 9.786,-2.407c2.856,-1.605 4.955,-3.8 6.295,-6.586c1.022,-2.151 1.534,-5.325 1.534,-9.521l0,-3.492Z" style="fill:#fff;fill-rule:nonzero;"/><path d="M3596.92,2047.15l-1.058,-8.939c2.081,0.564 3.897,0.846 5.449,0.846c2.115,0 3.808,-0.353 5.078,-1.058c1.269,-0.705 2.309,-1.693 3.121,-2.962c0.599,-0.952 1.569,-3.315 2.909,-7.088c0.176,-0.529 0.458,-1.305 0.846,-2.328l-21.317,-56.282l10.262,0l11.69,32.531c1.516,4.126 2.874,8.464 4.073,13.013c1.093,-4.373 2.398,-8.64 3.914,-12.801l12.008,-32.743l9.522,0l-21.371,57.129c-2.292,6.171 -4.073,10.42 -5.342,12.748c-1.693,3.138 -3.633,5.439 -5.819,6.903c-2.187,1.463 -4.796,2.195 -7.829,2.195c-1.834,0 -3.879,-0.388 -6.136,-1.164Z" style="fill:#fff;fill-rule:nonzero;"/><path d="M3647.96,1997.43c0,-10.403 2.891,-18.108 8.675,-23.116c4.831,-4.161 10.72,-6.242 17.668,-6.242c7.723,0 14.035,2.53 18.937,7.591c4.902,5.06 7.352,12.052 7.352,20.974c0,7.229 -1.084,12.915 -3.253,17.059c-2.169,4.144 -5.325,7.361 -9.468,9.654c-4.144,2.292 -8.667,3.438 -13.568,3.438c-7.864,0 -14.221,-2.521 -19.07,-7.564c-4.849,-5.043 -7.273,-12.308 -7.273,-21.794Zm9.786,0c0,7.194 1.569,12.581 4.708,16.16c3.138,3.58 7.088,5.369 11.849,5.369c4.725,0 8.657,-1.798 11.796,-5.395c3.138,-3.597 4.707,-9.081 4.707,-16.451c0,-6.947 -1.578,-12.211 -4.734,-15.79c-3.156,-3.579 -7.079,-5.369 -11.769,-5.369c-4.761,0 -8.711,1.781 -11.849,5.342c-3.139,3.562 -4.708,8.94 -4.708,16.134Z" style="fill:#fff;fill-rule:nonzero;"/><path d="M3748.57,2025.51l0,-8.251c-4.373,6.347 -10.315,9.521 -17.826,9.521c-3.315,0 -6.41,-0.635 -9.284,-1.904c-2.874,-1.27 -5.007,-2.866 -6.4,-4.787c-1.393,-1.922 -2.372,-4.276 -2.936,-7.062c-0.388,-1.869 -0.582,-4.832 -0.582,-8.887l0,-34.806l9.522,0l0,31.156c0,4.972 0.194,8.323 0.581,10.051c0.6,2.503 1.87,4.469 3.809,5.898c1.94,1.428 4.338,2.142 7.194,2.142c2.857,0 5.537,-0.732 8.04,-2.195c2.504,-1.464 4.276,-3.456 5.317,-5.978c1.04,-2.521 1.56,-6.18 1.56,-10.976l0,-30.098l9.522,0l0,56.176l-8.517,0Z" style="fill:#fff;fill-rule:nonzero;"/><path d="M3792.8,2017l1.375,8.411c-2.68,0.564 -5.078,0.846 -7.194,0.846c-3.455,0 -6.136,-0.547 -8.04,-1.64c-1.904,-1.093 -3.244,-2.53 -4.02,-4.311c-0.776,-1.781 -1.164,-5.528 -1.164,-11.241l0,-32.32l-6.982,0l0,-7.405l6.982,0l0,-13.912l9.469,-5.713l0,19.625l9.574,0l0,7.405l-9.574,0l0,32.849c0,2.716 0.167,4.461 0.502,5.237c0.335,0.776 0.882,1.393 1.64,1.852c0.758,0.458 1.843,0.687 3.253,0.687c1.058,0 2.451,-0.123 4.179,-0.37Z" style="fill:#fff;fill-rule:nonzero;"/></g></svg>