<?xml version="1.0" encoding="UTF-8" standalone="no"?>
<!DOCTYPE svg PUBLIC "-//W3C//DTD SVG 1.1//EN" "http://www.w3.org/Graphics/SVG/1.1/DTD/svg11.dtd">
<svg width="100%" height="100%" viewBox="0 0 320 88" version="1.1" xmlns="http://www.w3.org/2000/svg" xmlns:xlink="http://www.w3.org/1999/xlink" xml:space="preserve" xmlns:serif="http://www.serif.com/" style="fill-rule:evenodd;clip-rule:evenodd;stroke-linejoin:round;stroke-miterlimit:2;">
    <g id="Layer-1" serif:id="Layer 1">
        <g>
            <path d="M272,16.436C272,14.229 270.208,12.436 268,12.436L180,12.436C177.792,12.436 176,14.229 176,16.436L176,48.436C176,50.644 177.792,52.436 180,52.436L268,52.436C270.208,52.436 272,50.644 272,48.436L272,16.436Z" style="fill:#292d3e;"/>
            <clipPath id="_clip1">
                <path d="M272,16.436C272,14.229 270.208,12.436 268,12.436L180,12.436C177.792,12.436 176,14.229 176,16.436L176,48.436C176,50.644 177.792,52.436 180,52.436L268,52.436C270.208,52.436 272,50.644 272,48.436L272,16.436Z"/>
            </clipPath>
            <g clip-path="url(#_clip1)">
                <g>
                    <rect x="257.002" y="46.436" width="2" height="2" style="fill:#59859e;"/>
                    <rect x="255.002" y="46.436" width="2" height="2" style="fill:#686c86;"/>
                    <rect x="254.002" y="46.436" width="1" height="2" style="fill:#59859e;"/>
                    <rect x="245.002" y="46.436" width="9" height="2" style="fill:#686c86;"/>
                    <rect x="244.002" y="46.436" width="1" height="2" style="fill:#59859e;"/>
                    <rect x="241.002" y="46.436" width="3" height="2" style="fill:#686c86;"/>
                    <rect x="239.002" y="46.436" width="1" height="2" style="fill:#786094;"/>
                    <rect x="236.002" y="46.436" width="2" height="2" style="fill:#686c86;"/>
                    <rect x="235.002" y="46.436" width="1" height="2" style="fill:#59859e;"/>
                    <rect x="226.002" y="46.436" width="9" height="2" style="fill:#686c86;"/>
                    <rect x="225.002" y="46.436" width="1" height="2" style="fill:#59859e;"/>
                    <rect x="222.002" y="46.436" width="3" height="2" style="fill:#686c86;"/>
                    <rect x="220.002" y="46.436" width="1" height="2" style="fill:#786094;"/>
                    <rect x="216.002" y="46.436" width="3" height="2" style="fill:#686c86;"/>
                    <rect x="215.002" y="46.436" width="1" height="2" style="fill:#59859e;"/>
                    <rect x="213.001" y="46.436" width="1.001" height="2" style="fill:#786094;"/>
                    <rect x="211.002" y="46.436" width="1" height="2" style="fill:#686c86;"/>
                    <rect x="210.002" y="46.436" width="1" height="2" style="fill:#59859e;"/>
                    <rect x="198.002" y="46.436" width="12" height="2" style="fill:#686c86;"/>
                    <rect x="196.002" y="46.436" width="1" height="2" style="fill:#786094;"/>
                    <rect x="193.002" y="46.436" width="2" height="2" style="fill:#686c86;"/>
                    <rect x="192.002" y="46.436" width="1" height="2" style="fill:#59859e;"/>
                    <rect x="180.002" y="46.436" width="12" height="2" style="fill:#686c86;"/>
                    <rect x="213.002" y="43.436" width="2" height="2" style="fill:#59859e;"/>
                    <rect x="210.002" y="43.436" width="3" height="2" style="fill:#905c55;"/>
                    <rect x="208.002" y="43.436" width="1" height="2" style="fill:#786094;"/>
                    <rect x="198.002" y="43.436" width="9" height="2" style="fill:#686c86;"/>
                    <rect x="196.002" y="43.436" width="1" height="2" style="fill:#786094;"/>
                    <rect x="192.002" y="43.436" width="3" height="2" style="fill:#905c55;"/>
                    <rect x="191.002" y="43.436" width="1" height="2" style="fill:#59859e;"/>
                    <rect x="189.002" y="43.436" width="1" height="2" style="fill:#786094;"/>
                    <rect x="185.002" y="43.436" width="3" height="2" style="fill:#686c86;"/>
                    <rect x="180.002" y="43.436" width="4" height="2" style="fill:#786094;"/>
                    <rect x="225.002" y="40.436" width="1" height="2" style="fill:#59859e;"/>
                    <rect x="224.002" y="40.436" width="1" height="2" style="fill:#686c86;"/>
                    <rect x="222.002" y="40.436" width="2" height="2" style="fill:#59859e;"/>
                    <rect x="213.002" y="40.436" width="9" height="2" style="fill:#686c86;"/>
                    <rect x="211.002" y="40.436" width="1" height="2" style="fill:#59859e;"/>
                    <rect x="205.002" y="40.436" width="6" height="2" style="fill:#686c86;"/>
                    <rect x="204.001" y="40.436" width="1.001" height="2" style="fill:#59859e;"/>
                    <rect x="197.002" y="40.436" width="7" height="2" style="fill:#566c9e;"/>
                    <rect x="195.001" y="40.436" width="1.001" height="2" style="fill:#786094;"/>
                    <rect x="193.002" y="40.436" width="1" height="2" style="fill:#686c86;"/>
                    <rect x="192.002" y="40.436" width="1" height="2" style="fill:#59859e;"/>
                    <rect x="180.002" y="40.436" width="12" height="2" style="fill:#686c86;"/>
                    <rect x="197.002" y="37.436" width="1" height="2" style="fill:#59859e;"/>
                    <rect x="185.002" y="37.436" width="12" height="2" style="fill:#686c86;"/>
                    <rect x="180.002" y="37.436" width="4" height="2" style="fill:#786094;"/>
                    <rect x="205.002" y="34.436" width="5" height="2" style="fill:#484e6a;"/>
                    <rect x="199.002" y="34.436" width="5" height="2" style="fill:#484e6a;"/>
                    <rect x="196.002" y="34.436" width="2" height="2" style="fill:#484e6a;"/>
                    <rect x="190.002" y="34.436" width="5" height="2" style="fill:#484e6a;"/>
                    <rect x="180.002" y="34.436" width="9" height="2" style="fill:#484e6a;"/>
                    <rect x="220.002" y="28.436" width="1" height="2" style="fill:#59859e;"/>
                    <rect x="215.002" y="28.436" width="5" height="2" style="fill:#686c86;"/>
                    <rect x="214.002" y="28.436" width="1" height="2" style="fill:#59859e;"/>
                    <rect x="211.002" y="28.436" width="3" height="2" style="fill:#686c86;"/>
                    <rect x="209.002" y="28.436" width="1" height="2" style="fill:#786094;"/>
                    <rect x="202.002" y="28.436" width="6" height="2" style="fill:#686c86;"/>
                    <rect x="201.002" y="28.436" width="1" height="2" style="fill:#59859e;"/>
                    <rect x="198.002" y="28.436" width="3" height="2" style="fill:#686c86;"/>
                    <rect x="196.002" y="28.436" width="1" height="2" style="fill:#786094;"/>
                    <rect x="185.002" y="28.436" width="10" height="2" style="fill:#686c86;"/>
                    <rect x="180.002" y="28.436" width="4" height="2" style="fill:#786094;"/>
                    <rect x="228.002" y="19.436" width="2" height="2" style="fill:#59859e;"/>
                    <rect x="224.002" y="19.436" width="4" height="2" style="fill:#905c55;"/>
                    <rect x="222.001" y="19.436" width="1.001" height="2" style="fill:#59859e;"/>
                    <rect x="218.002" y="19.436" width="4" height="2" style="fill:#905c55;"/>
                    <rect x="216.002" y="19.436" width="1" height="2" style="fill:#59859e;"/>
                    <rect x="215.002" y="19.436" width="1" height="2" style="fill:#686c86;"/>
                    <rect x="214.002" y="19.436" width="1" height="2" style="fill:#59859e;"/>
                    <rect x="204.002" y="19.436" width="10" height="2" style="fill:#686c86;"/>
                    <rect x="203.002" y="19.436" width="1" height="2" style="fill:#59859e;"/>
                    <rect x="198.002" y="19.436" width="5" height="2" style="fill:#566c9e;"/>
                    <rect x="196.002" y="19.436" width="1" height="2" style="fill:#786094;"/>
                    <rect x="186.002" y="19.436" width="9" height="2" style="fill:#686c86;"/>
                    <rect x="180.002" y="19.436" width="5" height="2" style="fill:#786094;"/>
                    <rect x="209.002" y="16.436" width="1" height="2" style="fill:#59859e;"/>
                    <rect x="208.002" y="16.436" width="1" height="2" style="fill:#686c86;"/>
                    <rect x="207.002" y="16.436" width="1" height="2" style="fill:#59859e;"/>
                    <rect x="197.002" y="16.436" width="10" height="2" style="fill:#686c86;"/>
                    <rect x="195.001" y="16.436" width="1.001" height="2" style="fill:#786094;"/>
                    <rect x="186.002" y="16.436" width="8" height="2" style="fill:#686c86;"/>
                    <rect x="180.002" y="16.436" width="5" height="2" style="fill:#786094;"/>
                </g>
            </g>
            <path d="M144,16.436C144,14.229 142.208,12.436 140,12.436L52,12.436C49.792,12.436 48,14.229 48,16.436L48,48.436C48,50.644 49.792,52.436 52,52.436L140,52.436C142.208,52.436 144,50.644 144,48.436L144,16.436Z" style="fill:#292d3e;"/>
            <clipPath id="_clip2">
                <path d="M144,16.436C144,14.229 142.208,12.436 140,12.436L52,12.436C49.792,12.436 48,14.229 48,16.436L48,48.436C48,50.644 49.792,52.436 52,52.436L140,52.436C142.208,52.436 144,50.644 144,48.436L144,16.436Z"/>
            </clipPath>
            <g clip-path="url(#_clip2)">
                <g>
                    <rect x="64.002" y="44.436" width="8" height="2" style="fill:#686c86;"/>
                    <rect x="62.002" y="44.435" width="1" height="2.001" style="fill:#786094;"/>
                    <rect x="58.002" y="44.436" width="3" height="2" style="fill:#905c55;"/>
                    <rect x="55.002" y="44.436" width="2" height="2" style="fill:#786094;"/>
                    <rect x="52.002" y="44.436" width="2" height="2" style="fill:#686c86;"/>
                    <rect x="70.002" y="41.436" width="1" height="2" style="fill:#59859e;"/>
                    <rect x="68.002" y="41.436" width="2" height="2" style="fill:#686c86;"/>
                    <rect x="66.002" y="41.436" width="1" height="2" style="fill:#786094;"/>
                    <rect x="62.002" y="41.436" width="3" height="2" style="fill:#905c55;"/>
                    <rect x="60.002" y="41.436" width="1" height="2" style="fill:#786094;"/>
                    <path d="M59.002,41.436L57.002,41.436L57.002,43.436L59.002,43.436L59.002,41.436Z" style="fill:#686c86;fill-rule:nonzero;"/>
                    <rect x="52.002" y="41.436" width="4" height="2" style="fill:#786094;"/>
                    <rect x="63.002" y="38.436" width="1" height="2" style="fill:#59859e;"/>
                    <rect x="62.002" y="38.436" width="1" height="2" style="fill:#686c86;"/>
                    <rect x="60.002" y="38.436" width="1" height="2" style="fill:#786094;"/>
                    <path d="M59.002,38.436L57.002,38.436L57.002,40.436L59.002,40.436L59.002,38.436Z" style="fill:#686c86;fill-rule:nonzero;"/>
                    <rect x="52.002" y="38.436" width="4" height="2" style="fill:#786094;"/>
                    <rect x="121.002" y="35.436" width="2" height="2" style="fill:#59859e;"/>
                    <rect x="119.002" y="35.436" width="2" height="2" style="fill:#686c86;"/>
                    <rect x="116.002" y="35.436" width="2" height="2" style="fill:#59859e;"/>
                    <rect x="113.002" y="35.436" width="3" height="2" style="fill:#905c55;"/>
                    <rect x="110.002" y="35.436" width="2" height="2" style="fill:#59859e;"/>
                    <rect x="99.002" y="35.436" width="11" height="2" style="fill:#686c86;"/>
                    <rect x="97.002" y="35.435" width="1" height="2.001" style="fill:#59859e;"/>
                    <rect x="87.002" y="35.436" width="10" height="2" style="fill:#686c86;"/>
                    <rect x="86.002" y="35.435" width="1" height="2.001" style="fill:#59859e;"/>
                    <rect x="83.002" y="35.436" width="3" height="2" style="fill:#566c9e;"/>
                    <rect x="82.002" y="35.435" width="1" height="2.001" style="fill:#59859e;"/>
                    <rect x="79.002" y="35.436" width="3" height="2" style="fill:#566c9e;"/>
                    <rect x="78.002" y="35.435" width="1" height="2.001" style="fill:#59859e;"/>
                    <rect x="64.002" y="35.436" width="14" height="2" style="fill:#566c9e;"/>
                    <rect x="62.002" y="35.435" width="1" height="2.001" style="fill:#786094;"/>
                    <rect x="57.002" y="35.435" width="1" height="2.001" style="fill:#686c86;"/>
                    <rect x="52.002" y="35.436" width="4" height="2" style="fill:#786094;"/>
                    <rect x="81.002" y="29.436" width="2" height="2" style="fill:#59859e;"/>
                    <rect x="73.002" y="29.436" width="8" height="2" style="fill:#686c86;"/>
                    <rect x="71.002" y="29.436" width="1" height="2" style="fill:#59859e;"/>
                    <rect x="65.002" y="29.436" width="6" height="2" style="fill:#686c86;"/>
                    <rect x="63.002" y="29.436" width="1" height="2" style="fill:#59859e;"/>
                    <rect x="61.002" y="29.436" width="2" height="2" style="fill:#686c86;"/>
                    <rect x="60.002" y="29.436" width="1" height="2" style="fill:#59859e;"/>
                    <rect x="57.002" y="29.436" width="3" height="2" style="fill:#566c9e;"/>
                    <rect x="55.002" y="29.436" width="1" height="2" style="fill:#786094;"/>
                    <rect x="52.002" y="29.436" width="2" height="2" style="fill:#686c86;"/>
                    <rect x="71.002" y="26.436" width="2" height="2" style="fill:#59859e;"/>
                    <rect x="67.002" y="26.436" width="4" height="2" style="fill:#905c55;"/>
                    <rect x="66.002" y="26.435" width="1" height="2.001" style="fill:#59859e;"/>
                    <rect x="62.002" y="26.436" width="4" height="2" style="fill:#566c9e;"/>
                    <rect x="60.002" y="26.435" width="1" height="2.001" style="fill:#786094;"/>
                    <path d="M59.002,26.436L57.002,26.436L57.002,28.436L59.002,28.436L59.002,26.436Z" style="fill:#686c86;fill-rule:nonzero;"/>
                    <rect x="52.002" y="26.436" width="4" height="2" style="fill:#786094;"/>
                    <path d="M87.002,20.436L85.002,20.436L85.002,22.436L87.002,22.436L87.002,20.436Z" style="fill:#59859e;fill-rule:nonzero;"/>
                    <rect x="82.002" y="20.436" width="3" height="2" style="fill:#905c55;"/>
                    <rect x="80.002" y="20.436" width="1" height="2" style="fill:#59859e;"/>
                    <rect x="77.002" y="20.436" width="3" height="2" style="fill:#905c55;"/>
                    <rect x="75.002" y="20.436" width="1" height="2" style="fill:#59859e;"/>
                    <rect x="72.002" y="20.436" width="3" height="2" style="fill:#905c55;"/>
                    <rect x="71.002" y="20.436" width="1" height="2" style="fill:#59859e;"/>
                    <rect x="67.002" y="20.436" width="4" height="2" style="fill:#566c9e;"/>
                    <rect x="65.002" y="20.436" width="1" height="2" style="fill:#786094;"/>
                    <path d="M64.002,20.436L57.002,20.436L57.002,22.436L64.002,22.436L64.002,20.436Z" style="fill:#686c86;fill-rule:nonzero;"/>
                    <rect x="52.002" y="20.436" width="4" height="2" style="fill:#786094;"/>
                    <rect x="55.002" y="17.436" width="7" height="2" style="fill:#484e6a;"/>
                    <rect x="52.002" y="17.436" width="2" height="2" style="fill:#484e6a;"/>
                </g>
            </g>
            <g>
                <rect x="49.6" y="60.436" width="96" height="14.4" style="fill-opacity:0.28;"/>
                <path d="M74.504,70.502L72.286,64.775L73.106,64.775L74.594,68.935C74.714,69.269 74.814,69.581 74.895,69.873C74.983,69.56 75.086,69.248 75.204,68.935L76.75,64.775L77.524,64.775L75.282,70.502L74.504,70.502Z" style="fill:#fff;fill-opacity:0.75;fill-rule:nonzero;"/>
                <path d="M80.512,69.166L81.239,69.256C81.124,69.68 80.912,70.009 80.602,70.244C80.292,70.478 79.896,70.595 79.414,70.595C78.808,70.595 78.327,70.408 77.971,70.035C77.616,69.661 77.438,69.137 77.438,68.463C77.438,67.765 77.618,67.223 77.977,66.838C78.336,66.452 78.802,66.259 79.375,66.259C79.93,66.259 80.383,66.448 80.735,66.826C81.086,67.203 81.262,67.735 81.262,68.42C81.262,68.461 81.261,68.524 81.258,68.607L78.164,68.607C78.19,69.063 78.319,69.412 78.551,69.654C78.783,69.896 79.072,70.017 79.418,70.017C79.676,70.017 79.896,69.95 80.079,69.814C80.261,69.679 80.405,69.463 80.512,69.166ZM78.204,68.029L80.52,68.029C80.489,67.68 80.4,67.418 80.254,67.244C80.03,66.973 79.74,66.838 79.383,66.838C79.06,66.838 78.789,66.946 78.569,67.162C78.349,67.378 78.227,67.667 78.204,68.029Z" style="fill:#fff;fill-opacity:0.75;fill-rule:nonzero;"/>
                <path d="M82.114,70.502L82.114,66.353L82.746,66.353L82.746,66.982C82.908,66.688 83.057,66.494 83.194,66.4C83.33,66.306 83.481,66.259 83.645,66.259C83.882,66.259 84.123,66.335 84.368,66.486L84.125,67.138C83.954,67.037 83.782,66.986 83.61,66.986C83.456,66.986 83.318,67.032 83.196,67.125C83.073,67.217 82.986,67.345 82.934,67.509C82.856,67.759 82.817,68.033 82.817,68.33L82.817,70.502L82.114,70.502Z" style="fill:#fff;fill-opacity:0.75;fill-rule:nonzero;"/>
                <path d="M86.321,69.873L86.422,70.494C86.224,70.535 86.047,70.556 85.891,70.556C85.636,70.556 85.438,70.516 85.297,70.435C85.157,70.354 85.058,70.248 85,70.117C84.943,69.985 84.914,69.709 84.914,69.287L84.914,66.9L84.399,66.9L84.399,66.353L84.914,66.353L84.914,65.326L85.614,64.904L85.614,66.353L86.321,66.353L86.321,66.9L85.614,66.9L85.614,69.326C85.614,69.526 85.626,69.655 85.651,69.713C85.676,69.77 85.716,69.815 85.772,69.849C85.828,69.883 85.908,69.9 86.012,69.9C86.09,69.9 86.193,69.891 86.321,69.873Z" style="fill:#fff;fill-opacity:0.75;fill-rule:nonzero;"/>
                <path d="M89.848,69.166L90.575,69.256C90.46,69.68 90.248,70.009 89.938,70.244C89.628,70.478 89.232,70.595 88.75,70.595C88.144,70.595 87.663,70.408 87.307,70.035C86.952,69.661 86.774,69.137 86.774,68.463C86.774,67.765 86.954,67.223 87.313,66.838C87.672,66.452 88.138,66.259 88.711,66.259C89.266,66.259 89.719,66.448 90.071,66.826C90.422,67.203 90.598,67.735 90.598,68.42C90.598,68.461 90.597,68.524 90.594,68.607L87.5,68.607C87.526,69.063 87.655,69.412 87.887,69.654C88.119,69.896 88.408,70.017 88.754,70.017C89.012,70.017 89.232,69.95 89.414,69.814C89.597,69.679 89.741,69.463 89.848,69.166ZM87.539,68.029L89.856,68.029C89.825,67.68 89.736,67.418 89.59,67.244C89.366,66.973 89.076,66.838 88.719,66.838C88.396,66.838 88.125,66.946 87.905,67.162C87.685,67.378 87.563,67.667 87.539,68.029Z" style="fill:#fff;fill-opacity:0.75;fill-rule:nonzero;"/>
                <path d="M90.989,70.502L92.504,68.345L91.102,66.353L91.981,66.353L92.618,67.326C92.737,67.511 92.834,67.666 92.907,67.791C93.021,67.619 93.127,67.466 93.223,67.334L93.922,66.353L94.762,66.353L93.329,68.306L94.871,70.502L94.008,70.502L93.157,69.213L92.93,68.865L91.84,70.502L90.989,70.502Z" style="fill:#fff;fill-opacity:0.75;fill-rule:nonzero;"/>
                <path d="M97.512,68.662L98.227,68.599C98.261,68.886 98.34,69.121 98.463,69.304C98.587,69.488 98.779,69.636 99.039,69.75C99.3,69.863 99.593,69.92 99.918,69.92C100.207,69.92 100.463,69.877 100.684,69.791C100.905,69.705 101.07,69.587 101.178,69.437C101.286,69.287 101.34,69.124 101.34,68.947C101.34,68.767 101.288,68.61 101.184,68.476C101.08,68.342 100.908,68.229 100.668,68.138C100.515,68.078 100.175,67.985 99.649,67.859C99.123,67.733 98.754,67.614 98.543,67.502C98.27,67.358 98.066,67.181 97.932,66.968C97.798,66.756 97.731,66.519 97.731,66.256C97.731,65.966 97.813,65.696 97.977,65.445C98.141,65.194 98.381,65.003 98.696,64.873C99.011,64.742 99.361,64.677 99.746,64.677C100.171,64.677 100.545,64.746 100.87,64.882C101.194,65.019 101.443,65.22 101.618,65.486C101.792,65.752 101.886,66.052 101.899,66.388L101.172,66.443C101.133,66.081 101.001,65.808 100.776,65.623C100.551,65.438 100.218,65.345 99.778,65.345C99.319,65.345 98.985,65.429 98.776,65.597C98.566,65.765 98.461,65.968 98.461,66.205C98.461,66.41 98.536,66.58 98.684,66.713C98.83,66.845 99.211,66.981 99.827,67.121C100.442,67.26 100.865,67.382 101.094,67.486C101.427,67.64 101.674,67.834 101.832,68.07C101.991,68.306 102.071,68.577 102.071,68.884C102.071,69.189 101.983,69.476 101.809,69.746C101.635,70.015 101.384,70.225 101.057,70.375C100.73,70.524 100.362,70.599 99.954,70.599C99.435,70.599 99.001,70.524 98.651,70.373C98.301,70.222 98.026,69.994 97.827,69.691C97.627,69.388 97.523,69.045 97.512,68.662Z" style="fill:#fff;fill-opacity:0.75;fill-rule:nonzero;"/>
                <path d="M103.016,70.502L103.016,64.775L103.719,64.775L103.719,66.83C104.047,66.45 104.461,66.259 104.961,66.259C105.269,66.259 105.536,66.32 105.762,66.441C105.989,66.562 106.151,66.729 106.248,66.943C106.346,67.157 106.395,67.466 106.395,67.873L106.395,70.502L105.692,70.502L105.692,67.873C105.692,67.521 105.616,67.265 105.463,67.105C105.311,66.945 105.095,66.865 104.817,66.865C104.608,66.865 104.413,66.919 104.229,67.027C104.045,67.135 103.914,67.282 103.836,67.466C103.758,67.651 103.719,67.907 103.719,68.232L103.719,70.502L103.016,70.502Z" style="fill:#fff;fill-opacity:0.75;fill-rule:nonzero;"/>
                <path d="M110.172,69.99C109.912,70.211 109.661,70.367 109.42,70.459C109.179,70.55 108.921,70.595 108.645,70.595C108.189,70.595 107.839,70.484 107.594,70.261C107.349,70.039 107.227,69.754 107.227,69.408C107.227,69.205 107.273,69.019 107.366,68.851C107.458,68.683 107.579,68.548 107.729,68.447C107.879,68.345 108.047,68.269 108.235,68.216C108.373,68.18 108.581,68.145 108.86,68.111C109.427,68.043 109.845,67.963 110.114,67.869C110.116,67.772 110.118,67.711 110.118,67.685C110.118,67.399 110.051,67.197 109.918,67.08C109.739,66.921 109.472,66.841 109.118,66.841C108.787,66.841 108.543,66.899 108.385,67.015C108.228,67.131 108.111,67.336 108.036,67.631L107.348,67.537C107.411,67.242 107.513,67.005 107.657,66.824C107.8,66.643 108.007,66.504 108.278,66.406C108.549,66.308 108.862,66.259 109.219,66.259C109.573,66.259 109.861,66.301 110.082,66.384C110.304,66.468 110.467,66.573 110.571,66.699C110.675,66.825 110.748,66.985 110.789,67.177C110.813,67.297 110.825,67.513 110.825,67.826L110.825,68.763C110.825,69.417 110.84,69.83 110.87,70.004C110.899,70.177 110.959,70.343 111.047,70.502L110.313,70.502C110.24,70.356 110.193,70.185 110.172,69.99ZM110.114,68.42C109.858,68.524 109.476,68.612 108.965,68.685C108.676,68.727 108.472,68.774 108.352,68.826C108.232,68.878 108.14,68.954 108.075,69.054C108.01,69.155 107.977,69.266 107.977,69.388C107.977,69.576 108.048,69.732 108.19,69.857C108.332,69.982 108.539,70.045 108.813,70.045C109.084,70.045 109.325,69.985 109.536,69.867C109.746,69.748 109.901,69.586 110,69.381C110.076,69.222 110.114,68.987 110.114,68.677L110.114,68.42Z" style="fill:#fff;fill-opacity:0.75;fill-rule:nonzero;"/>
                <path d="M114.606,70.502L114.606,69.978C114.343,70.39 113.956,70.595 113.446,70.595C113.115,70.595 112.811,70.504 112.534,70.322C112.256,70.14 112.041,69.885 111.889,69.558C111.737,69.231 111.661,68.856 111.661,68.431C111.661,68.017 111.73,67.642 111.868,67.304C112.006,66.967 112.213,66.709 112.489,66.529C112.765,66.349 113.073,66.259 113.414,66.259C113.664,66.259 113.887,66.312 114.082,66.418C114.278,66.523 114.437,66.66 114.559,66.83L114.559,64.775L115.258,64.775L115.258,70.502L114.606,70.502ZM112.383,68.431C112.383,68.963 112.495,69.36 112.719,69.623C112.943,69.886 113.207,70.017 113.512,70.017C113.819,70.017 114.08,69.892 114.295,69.64C114.51,69.389 114.618,69.006 114.618,68.49C114.618,67.922 114.508,67.506 114.289,67.24C114.071,66.974 113.801,66.841 113.481,66.841C113.168,66.841 112.907,66.969 112.698,67.224C112.488,67.479 112.383,67.882 112.383,68.431Z" style="fill:#fff;fill-opacity:0.75;fill-rule:nonzero;"/>
                <path d="M119.204,69.166L119.93,69.256C119.815,69.68 119.603,70.009 119.293,70.244C118.983,70.478 118.588,70.595 118.106,70.595C117.499,70.595 117.018,70.408 116.663,70.035C116.307,69.661 116.129,69.137 116.129,68.463C116.129,67.765 116.309,67.223 116.668,66.838C117.028,66.452 117.494,66.259 118.067,66.259C118.621,66.259 119.075,66.448 119.426,66.826C119.778,67.203 119.954,67.735 119.954,68.42C119.954,68.461 119.952,68.524 119.95,68.607L116.856,68.607C116.882,69.063 117.011,69.412 117.243,69.654C117.474,69.896 117.763,70.017 118.11,70.017C118.368,70.017 118.588,69.95 118.77,69.814C118.952,69.679 119.097,69.463 119.204,69.166ZM116.895,68.029L119.211,68.029C119.18,67.68 119.092,67.418 118.946,67.244C118.722,66.973 118.431,66.838 118.075,66.838C117.752,66.838 117.48,66.946 117.26,67.162C117.04,67.378 116.918,67.667 116.895,68.029Z" style="fill:#fff;fill-opacity:0.75;fill-rule:nonzero;"/>
                <path d="M120.805,70.502L120.805,66.353L121.438,66.353L121.438,66.982C121.599,66.688 121.748,66.494 121.885,66.4C122.022,66.306 122.172,66.259 122.336,66.259C122.573,66.259 122.814,66.335 123.059,66.486L122.817,67.138C122.645,67.037 122.473,66.986 122.301,66.986C122.148,66.986 122.01,67.032 121.887,67.125C121.765,67.217 121.677,67.345 121.625,67.509C121.547,67.759 121.508,68.033 121.508,68.33L121.508,70.502L120.805,70.502Z" style="fill:#fff;fill-opacity:0.75;fill-rule:nonzero;"/>
            </g>
            <g>
                <rect x="176" y="60.436" width="96" height="14.4" style="fill-opacity:0.28;"/>
                <path d="M193.529,70.502L193.529,64.775L197.393,64.775L197.393,65.451L194.287,65.451L194.287,67.224L196.975,67.224L196.975,67.9L194.287,67.9L194.287,70.502L193.529,70.502Z" style="fill:#fff;fill-opacity:0.75;fill-rule:nonzero;"/>
                <path d="M198.279,70.502L198.279,66.353L198.912,66.353L198.912,66.982C199.074,66.688 199.223,66.494 199.359,66.4C199.496,66.306 199.646,66.259 199.811,66.259C200.048,66.259 200.288,66.335 200.533,66.486L200.291,67.138C200.119,67.037 199.947,66.986 199.775,66.986C199.622,66.986 199.484,67.032 199.361,67.125C199.239,67.217 199.152,67.345 199.1,67.509C199.021,67.759 198.982,68.033 198.982,68.33L198.982,70.502L198.279,70.502Z" style="fill:#fff;fill-opacity:0.75;fill-rule:nonzero;"/>
                <path d="M203.658,69.99C203.398,70.211 203.147,70.367 202.906,70.459C202.665,70.55 202.407,70.595 202.131,70.595C201.675,70.595 201.325,70.484 201.08,70.261C200.835,70.039 200.713,69.754 200.713,69.408C200.713,69.205 200.759,69.019 200.852,68.851C200.944,68.683 201.065,68.548 201.215,68.447C201.365,68.345 201.533,68.269 201.721,68.216C201.859,68.18 202.067,68.145 202.346,68.111C202.913,68.043 203.331,67.963 203.6,67.869C203.602,67.772 203.604,67.711 203.604,67.685C203.604,67.399 203.537,67.197 203.404,67.08C203.225,66.921 202.958,66.841 202.604,66.841C202.273,66.841 202.029,66.899 201.871,67.015C201.714,67.131 201.597,67.336 201.521,67.631L200.834,67.537C200.896,67.242 200.999,67.005 201.143,66.824C201.286,66.643 201.493,66.504 201.764,66.406C202.035,66.308 202.348,66.259 202.705,66.259C203.059,66.259 203.347,66.301 203.568,66.384C203.79,66.468 203.952,66.573 204.057,66.699C204.161,66.825 204.234,66.985 204.275,67.177C204.299,67.297 204.311,67.513 204.311,67.826L204.311,68.763C204.311,69.417 204.326,69.83 204.355,70.004C204.385,70.177 204.445,70.343 204.533,70.502L203.799,70.502C203.726,70.356 203.679,70.185 203.658,69.99ZM203.6,68.42C203.344,68.524 202.962,68.612 202.451,68.685C202.162,68.727 201.958,68.774 201.838,68.826C201.718,68.878 201.626,68.954 201.561,69.054C201.495,69.155 201.463,69.266 201.463,69.388C201.463,69.576 201.534,69.732 201.676,69.857C201.818,69.982 202.025,70.045 202.299,70.045C202.57,70.045 202.811,69.985 203.021,69.867C203.232,69.748 203.387,69.586 203.486,69.381C203.562,69.222 203.6,68.987 203.6,68.677L203.6,68.42Z" style="fill:#fff;fill-opacity:0.75;fill-rule:nonzero;"/>
                <path d="M205.271,70.845L205.955,70.947C205.984,71.158 206.063,71.311 206.193,71.408C206.368,71.538 206.606,71.603 206.908,71.603C207.234,71.603 207.485,71.538 207.662,71.408C207.839,71.278 207.959,71.095 208.021,70.861C208.058,70.718 208.075,70.417 208.072,69.959C207.765,70.321 207.382,70.502 206.924,70.502C206.354,70.502 205.912,70.296 205.6,69.884C205.287,69.473 205.131,68.979 205.131,68.404C205.131,68.008 205.202,67.643 205.346,67.308C205.489,66.974 205.697,66.715 205.969,66.533C206.241,66.351 206.561,66.259 206.928,66.259C207.417,66.259 207.821,66.457 208.139,66.853L208.139,66.353L208.787,66.353L208.787,69.939C208.787,70.585 208.721,71.043 208.59,71.312C208.458,71.582 208.25,71.795 207.965,71.951C207.68,72.107 207.329,72.185 206.912,72.185C206.417,72.185 206.018,72.074 205.713,71.851C205.408,71.629 205.261,71.293 205.271,70.845ZM205.854,68.353C205.854,68.897 205.962,69.295 206.178,69.545C206.394,69.795 206.665,69.92 206.99,69.92C207.313,69.92 207.584,69.795 207.803,69.547C208.021,69.298 208.131,68.908 208.131,68.377C208.131,67.869 208.018,67.486 207.793,67.228C207.568,66.97 207.296,66.841 206.979,66.841C206.666,66.841 206.4,66.968 206.182,67.222C205.963,67.476 205.854,67.853 205.854,68.353Z" style="fill:#fff;fill-opacity:0.75;fill-rule:nonzero;"/>
                <path d="M209.85,70.502L209.85,66.353L210.479,66.353L210.479,66.935C210.609,66.732 210.782,66.569 210.998,66.445C211.214,66.321 211.46,66.259 211.736,66.259C212.044,66.259 212.296,66.323 212.492,66.451C212.689,66.578 212.827,66.757 212.908,66.986C213.236,66.502 213.663,66.259 214.189,66.259C214.601,66.259 214.917,66.373 215.139,66.601C215.36,66.829 215.471,67.18 215.471,67.654L215.471,70.502L214.771,70.502L214.771,67.888C214.771,67.607 214.749,67.405 214.703,67.281C214.658,67.157 214.575,67.058 214.455,66.982C214.335,66.907 214.195,66.869 214.033,66.869C213.742,66.869 213.499,66.966 213.307,67.16C213.114,67.354 213.018,67.664 213.018,68.091L213.018,70.502L212.314,70.502L212.314,67.806C212.314,67.494 212.257,67.259 212.143,67.103C212.028,66.947 211.84,66.869 211.58,66.869C211.382,66.869 211.199,66.921 211.031,67.025C210.863,67.129 210.742,67.282 210.666,67.482C210.59,67.683 210.553,67.972 210.553,68.349L210.553,70.502L209.85,70.502Z" style="fill:#fff;fill-opacity:0.75;fill-rule:nonzero;"/>
                <path d="M219.354,69.166L220.08,69.256C219.965,69.68 219.753,70.009 219.443,70.244C219.133,70.478 218.738,70.595 218.256,70.595C217.649,70.595 217.168,70.408 216.813,70.035C216.457,69.661 216.279,69.137 216.279,68.463C216.279,67.765 216.459,67.223 216.818,66.838C217.178,66.452 217.644,66.259 218.217,66.259C218.771,66.259 219.225,66.448 219.576,66.826C219.928,67.203 220.104,67.735 220.104,68.42C220.104,68.461 220.102,68.524 220.1,68.607L217.006,68.607C217.032,69.063 217.161,69.412 217.393,69.654C217.624,69.896 217.913,70.017 218.26,70.017C218.518,70.017 218.738,69.95 218.92,69.814C219.102,69.679 219.247,69.463 219.354,69.166ZM217.045,68.029L219.361,68.029C219.33,67.68 219.242,67.418 219.096,67.244C218.872,66.973 218.581,66.838 218.225,66.838C217.902,66.838 217.63,66.946 217.41,67.162C217.19,67.378 217.068,67.667 217.045,68.029Z" style="fill:#fff;fill-opacity:0.75;fill-rule:nonzero;"/>
                <path d="M220.963,70.502L220.963,66.353L221.596,66.353L221.596,66.943C221.9,66.487 222.34,66.259 222.916,66.259C223.166,66.259 223.396,66.304 223.605,66.394C223.815,66.484 223.972,66.602 224.076,66.748C224.18,66.894 224.253,67.067 224.295,67.267C224.321,67.397 224.334,67.625 224.334,67.951L224.334,70.502L223.631,70.502L223.631,67.978C223.631,67.692 223.604,67.478 223.549,67.336C223.494,67.194 223.397,67.08 223.258,66.996C223.118,66.911 222.955,66.869 222.768,66.869C222.468,66.869 222.21,66.964 221.992,67.154C221.775,67.344 221.666,67.705 221.666,68.236L221.666,70.502L220.963,70.502Z" style="fill:#fff;fill-opacity:0.75;fill-rule:nonzero;"/>
                <path d="M226.947,69.873L227.049,70.494C226.851,70.535 226.674,70.556 226.518,70.556C226.262,70.556 226.064,70.516 225.924,70.435C225.783,70.354 225.684,70.248 225.627,70.117C225.57,69.985 225.541,69.709 225.541,69.287L225.541,66.9L225.025,66.9L225.025,66.353L225.541,66.353L225.541,65.326L226.24,64.904L226.24,66.353L226.947,66.353L226.947,66.9L226.24,66.9L226.24,69.326C226.24,69.526 226.253,69.655 226.277,69.713C226.302,69.77 226.342,69.815 226.398,69.849C226.454,69.883 226.535,69.9 226.639,69.9C226.717,69.9 226.82,69.891 226.947,69.873Z" style="fill:#fff;fill-opacity:0.75;fill-rule:nonzero;"/>
                <path d="M229.689,68.662L230.404,68.599C230.438,68.886 230.517,69.121 230.641,69.304C230.764,69.488 230.956,69.636 231.217,69.75C231.477,69.863 231.77,69.92 232.096,69.92C232.385,69.92 232.64,69.877 232.861,69.791C233.083,69.705 233.247,69.587 233.355,69.437C233.464,69.287 233.518,69.124 233.518,68.947C233.518,68.767 233.465,68.61 233.361,68.476C233.257,68.342 233.085,68.229 232.846,68.138C232.692,68.078 232.352,67.985 231.826,67.859C231.3,67.733 230.932,67.614 230.721,67.502C230.447,67.358 230.243,67.181 230.109,66.968C229.975,66.756 229.908,66.519 229.908,66.256C229.908,65.966 229.99,65.696 230.154,65.445C230.318,65.194 230.558,65.003 230.873,64.873C231.188,64.742 231.538,64.677 231.924,64.677C232.348,64.677 232.723,64.746 233.047,64.882C233.371,65.019 233.62,65.22 233.795,65.486C233.969,65.752 234.063,66.052 234.076,66.388L233.35,66.443C233.311,66.081 233.178,65.808 232.953,65.623C232.728,65.438 232.395,65.345 231.955,65.345C231.497,65.345 231.163,65.429 230.953,65.597C230.743,65.765 230.639,65.968 230.639,66.205C230.639,66.41 230.713,66.58 230.861,66.713C231.007,66.845 231.388,66.981 232.004,67.121C232.62,67.26 233.042,67.382 233.271,67.486C233.605,67.64 233.851,67.834 234.01,68.07C234.169,68.306 234.248,68.577 234.248,68.884C234.248,69.189 234.161,69.476 233.986,69.746C233.812,70.015 233.561,70.225 233.234,70.375C232.908,70.524 232.54,70.599 232.131,70.599C231.613,70.599 231.178,70.524 230.828,70.373C230.478,70.222 230.203,69.994 230.004,69.691C229.805,69.388 229.7,69.045 229.689,68.662Z" style="fill:#fff;fill-opacity:0.75;fill-rule:nonzero;"/>
                <path d="M235.193,70.502L235.193,64.775L235.896,64.775L235.896,66.83C236.225,66.45 236.639,66.259 237.139,66.259C237.446,66.259 237.713,66.32 237.939,66.441C238.166,66.562 238.328,66.729 238.426,66.943C238.523,67.157 238.572,67.466 238.572,67.873L238.572,70.502L237.869,70.502L237.869,67.873C237.869,67.521 237.793,67.265 237.641,67.105C237.488,66.945 237.273,66.865 236.994,66.865C236.786,66.865 236.59,66.919 236.406,67.027C236.223,67.135 236.092,67.282 236.014,67.466C235.936,67.651 235.896,67.907 235.896,68.232L235.896,70.502L235.193,70.502Z" style="fill:#fff;fill-opacity:0.75;fill-rule:nonzero;"/>
                <path d="M242.35,69.99C242.089,70.211 241.839,70.367 241.598,70.459C241.357,70.55 241.098,70.595 240.822,70.595C240.367,70.595 240.016,70.484 239.771,70.261C239.527,70.039 239.404,69.754 239.404,69.408C239.404,69.205 239.451,69.019 239.543,68.851C239.635,68.683 239.757,68.548 239.906,68.447C240.056,68.345 240.225,68.269 240.412,68.216C240.55,68.18 240.758,68.145 241.037,68.111C241.605,68.043 242.023,67.963 242.291,67.869C242.294,67.772 242.295,67.711 242.295,67.685C242.295,67.399 242.229,67.197 242.096,67.08C241.916,66.921 241.649,66.841 241.295,66.841C240.964,66.841 240.72,66.899 240.562,67.015C240.405,67.131 240.288,67.336 240.213,67.631L239.525,67.537C239.588,67.242 239.691,67.005 239.834,66.824C239.977,66.643 240.184,66.504 240.455,66.406C240.726,66.308 241.04,66.259 241.396,66.259C241.751,66.259 242.038,66.301 242.26,66.384C242.481,66.468 242.644,66.573 242.748,66.699C242.852,66.825 242.925,66.985 242.967,67.177C242.99,67.297 243.002,67.513 243.002,67.826L243.002,68.763C243.002,69.417 243.017,69.83 243.047,70.004C243.077,70.177 243.136,70.343 243.225,70.502L242.49,70.502C242.417,70.356 242.37,70.185 242.35,69.99ZM242.291,68.42C242.036,68.524 241.653,68.612 241.143,68.685C240.854,68.727 240.649,68.774 240.529,68.826C240.41,68.878 240.317,68.954 240.252,69.054C240.187,69.155 240.154,69.266 240.154,69.388C240.154,69.576 240.225,69.732 240.367,69.857C240.509,69.982 240.717,70.045 240.99,70.045C241.261,70.045 241.502,69.985 241.713,69.867C241.924,69.748 242.079,69.586 242.178,69.381C242.253,69.222 242.291,68.987 242.291,68.677L242.291,68.42Z" style="fill:#fff;fill-opacity:0.75;fill-rule:nonzero;"/>
                <path d="M246.783,70.502L246.783,69.978C246.52,70.39 246.133,70.595 245.623,70.595C245.292,70.595 244.988,70.504 244.711,70.322C244.434,70.14 244.219,69.885 244.066,69.558C243.914,69.231 243.838,68.856 243.838,68.431C243.838,68.017 243.907,67.642 244.045,67.304C244.183,66.967 244.39,66.709 244.666,66.529C244.942,66.349 245.251,66.259 245.592,66.259C245.842,66.259 246.064,66.312 246.26,66.418C246.455,66.523 246.614,66.66 246.736,66.83L246.736,64.775L247.436,64.775L247.436,70.502L246.783,70.502ZM244.561,68.431C244.561,68.963 244.673,69.36 244.896,69.623C245.12,69.886 245.385,70.017 245.689,70.017C245.997,70.017 246.258,69.892 246.473,69.64C246.687,69.389 246.795,69.006 246.795,68.49C246.795,67.922 246.686,67.506 246.467,67.24C246.248,66.974 245.979,66.841 245.658,66.841C245.346,66.841 245.085,66.969 244.875,67.224C244.665,67.479 244.561,67.882 244.561,68.431Z" style="fill:#fff;fill-opacity:0.75;fill-rule:nonzero;"/>
                <path d="M251.381,69.166L252.107,69.256C251.993,69.68 251.781,70.009 251.471,70.244C251.161,70.478 250.765,70.595 250.283,70.595C249.676,70.595 249.195,70.408 248.84,70.035C248.484,69.661 248.307,69.137 248.307,68.463C248.307,67.765 248.486,67.223 248.846,66.838C249.205,66.452 249.671,66.259 250.244,66.259C250.799,66.259 251.252,66.448 251.604,66.826C251.955,67.203 252.131,67.735 252.131,68.42C252.131,68.461 252.13,68.524 252.127,68.607L249.033,68.607C249.059,69.063 249.188,69.412 249.42,69.654C249.652,69.896 249.941,70.017 250.287,70.017C250.545,70.017 250.765,69.95 250.947,69.814C251.13,69.679 251.274,69.463 251.381,69.166ZM249.072,68.029L251.389,68.029C251.357,67.68 251.269,67.418 251.123,67.244C250.899,66.973 250.609,66.838 250.252,66.838C249.929,66.838 249.658,66.946 249.437,67.162C249.217,67.378 249.096,67.667 249.072,68.029Z" style="fill:#fff;fill-opacity:0.75;fill-rule:nonzero;"/>
                <path d="M252.982,70.502L252.982,66.353L253.615,66.353L253.615,66.982C253.777,66.688 253.926,66.494 254.062,66.4C254.199,66.306 254.35,66.259 254.514,66.259C254.751,66.259 254.992,66.335 255.236,66.486L254.994,67.138C254.822,67.037 254.65,66.986 254.479,66.986C254.325,66.986 254.187,67.032 254.064,67.125C253.942,67.217 253.855,67.345 253.803,67.509C253.725,67.759 253.686,68.033 253.686,68.33L253.686,70.502L252.982,70.502Z" style="fill:#fff;fill-opacity:0.75;fill-rule:nonzero;"/>
            </g>
        </g>
    </g>
</svg>
