<?xml version="1.0" encoding="UTF-8" standalone="no"?>
<!DOCTYPE svg PUBLIC "-//W3C//DTD SVG 1.1//EN" "http://www.w3.org/Graphics/SVG/1.1/DTD/svg11.dtd">
<svg width="100%" height="100%" viewBox="0 0 960 384" version="1.1" xmlns="http://www.w3.org/2000/svg" xmlns:xlink="http://www.w3.org/1999/xlink" xml:space="preserve" xmlns:serif="http://www.serif.com/" style="fill-rule:evenodd;clip-rule:evenodd;stroke-miterlimit:10;">
    <g id="Layer-1" serif:id="Layer 1">
        <g>
            <path d="M717.917,206C735.59,206 749.917,220.327 749.917,238C749.917,255.673 735.59,270 717.917,270C700.244,270 685.917,255.673 685.917,238C685.917,220.327 700.244,206 717.917,206" style="fill:#e82558;fill-rule:nonzero;"/>
            <path d="M749.917,230C767.59,230 781.917,244.327 781.917,262C781.917,279.673 767.59,294 749.917,294C732.244,294 717.917,279.673 717.917,262C717.917,244.327 732.244,230 749.917,230" style="fill:#d32dc3;fill-rule:nonzero;"/>
            <path d="M729.917,186L793.917,154L729.917,122L665.917,154L729.917,186Z" style="fill:none;fill-rule:nonzero;stroke:#c93131;stroke-width:1px;"/>
            <path d="M729.583,166L793.583,134L729.583,102L665.583,134L729.583,166Z" style="fill:none;fill-rule:nonzero;stroke:#bee548;stroke-width:1px;"/>
            <path d="M730.083,146L794.083,114L730.083,82L666.083,114L730.083,146Z" style="fill:none;fill-rule:nonzero;stroke:#4291e5;stroke-width:1px;"/>
            <path d="M729.917,122L793.917,90L729.917,58L665.917,90L729.917,122Z" style="fill:none;fill-rule:nonzero;stroke:#e5e5e5;stroke-width:1px;"/>
            <path d="M569.917,134L665.417,134.5" style="fill:none;fill-rule:nonzero;stroke:#bfbfbf;stroke-width:4px;stroke-dasharray:12,12;"/>
            <path d="M698.417,211.75L569.917,212.25" style="fill:none;fill-rule:nonzero;stroke:#e82558;stroke-width:4px;stroke-dasharray:12,12;"/>
            <path d="M729.917,278L569.917,278" style="fill:none;fill-rule:nonzero;stroke:#d32dc3;stroke-width:4px;stroke-dasharray:12,12;"/>
            <g>
                <g opacity="0.1">
                    <rect x="165.917" y="70" width="403.483" height="256"/>
                </g>
                <g opacity="0.2">
                    <rect x="166.175" y="122.174" width="403.483" height="62.301"/>
                </g>
                <g opacity="0.2">
                    <rect x="166.434" y="247.391" width="402.965" height="62.609"/>
                </g>
                <g transform="matrix(1,0,0,1,-482.875,-111.464)">
                    <g transform="matrix(24,0,0,24,663.192,398.617)">
                        <path d="M0.524,-0.169L0.524,-0.385C0.524,-0.494 0.454,-0.56 0.332,-0.56C0.271,-0.56 0.202,-0.544 0.137,-0.516L0.137,-0.43C0.201,-0.462 0.253,-0.477 0.321,-0.477C0.398,-0.477 0.434,-0.444 0.434,-0.376L0.434,-0.329C0.18,-0.328 0.088,-0.259 0.088,-0.14C0.088,-0.046 0.15,0.01 0.255,0.01C0.348,0.01 0.409,-0.03 0.446,-0.109L0.466,-0L0.555,-0L0.524,-0.169ZM0.276,-0.073C0.212,-0.073 0.181,-0.103 0.181,-0.156C0.181,-0.238 0.255,-0.268 0.434,-0.269L0.434,-0.225C0.434,-0.138 0.371,-0.073 0.276,-0.073Z" style="fill:#d32dc3;fill-rule:nonzero;"/>
                    </g>
                    <g transform="matrix(24,0,0,24,677.592,398.617)">
                        <path d="M0.562,-0.351C0.562,-0.479 0.47,-0.56 0.339,-0.56C0.181,-0.56 0.087,-0.451 0.087,-0.26C0.087,-0.088 0.181,0.01 0.334,0.01C0.404,0.01 0.472,-0.009 0.531,-0.045L0.531,-0.132C0.467,-0.089 0.414,-0.073 0.346,-0.073C0.225,-0.073 0.18,-0.129 0.18,-0.274C0.18,-0.423 0.221,-0.48 0.337,-0.48C0.43,-0.48 0.469,-0.444 0.469,-0.351L0.562,-0.351Z" style="fill:#d32dc3;fill-rule:nonzero;"/>
                    </g>
                    <g transform="matrix(24,0,0,24,691.992,398.617)">
                        <path d="M0.562,-0.351C0.562,-0.479 0.47,-0.56 0.339,-0.56C0.181,-0.56 0.087,-0.451 0.087,-0.26C0.087,-0.088 0.181,0.01 0.334,0.01C0.404,0.01 0.472,-0.009 0.531,-0.045L0.531,-0.132C0.467,-0.089 0.414,-0.073 0.346,-0.073C0.225,-0.073 0.18,-0.129 0.18,-0.274C0.18,-0.423 0.221,-0.48 0.337,-0.48C0.43,-0.48 0.469,-0.444 0.469,-0.351L0.562,-0.351Z" style="fill:#d32dc3;fill-rule:nonzero;"/>
                    </g>
                    <g transform="matrix(24,0,0,24,706.392,398.617)">
                        <path d="M0.564,-0.291C0.564,-0.463 0.485,-0.56 0.336,-0.56C0.171,-0.56 0.078,-0.44 0.078,-0.258C0.078,-0.083 0.172,0.01 0.325,0.01C0.394,0.01 0.462,-0.008 0.522,-0.043L0.522,-0.129C0.466,-0.094 0.403,-0.073 0.334,-0.073C0.233,-0.073 0.18,-0.119 0.172,-0.241L0.563,-0.241C0.564,-0.258 0.564,-0.273 0.564,-0.291ZM0.329,-0.477C0.426,-0.477 0.463,-0.434 0.47,-0.318L0.173,-0.318C0.181,-0.434 0.229,-0.477 0.329,-0.477Z" style="fill:#d32dc3;fill-rule:nonzero;"/>
                    </g>
                    <g transform="matrix(24,0,0,24,720.792,398.617)">
                        <path d="M0.396,-0.56C0.309,-0.56 0.239,-0.511 0.183,-0.421L0.166,-0.55L0.099,-0.55L0.099,-0L0.188,-0L0.188,-0.356C0.262,-0.45 0.308,-0.483 0.367,-0.483C0.431,-0.483 0.457,-0.448 0.457,-0.382L0.457,-0L0.546,-0L0.546,-0.394C0.546,-0.506 0.489,-0.56 0.396,-0.56Z" style="fill:#d32dc3;fill-rule:nonzero;"/>
                    </g>
                    <g transform="matrix(24,0,0,24,735.192,398.617)">
                        <path d="M0.534,-0.55L0.294,-0.55L0.294,-0.673L0.225,-0.673L0.204,-0.55L0.077,-0.528L0.077,-0.47L0.204,-0.47L0.204,-0.173C0.204,-0.065 0.267,0.01 0.403,0.01C0.449,0.01 0.494,0.001 0.534,-0.013L0.534,-0.099C0.496,-0.082 0.453,-0.073 0.412,-0.073C0.325,-0.073 0.294,-0.111 0.294,-0.185L0.294,-0.47L0.534,-0.47L0.534,-0.55Z" style="fill:#d32dc3;fill-rule:nonzero;"/>
                    </g>
                    <g transform="matrix(24,0,0,24,749.592,398.617)">
                        <path d="M0.581,-0.412C0.581,-0.602 0.487,-0.71 0.336,-0.71C0.161,-0.71 0.062,-0.572 0.062,-0.33C0.062,-0.114 0.154,0.01 0.316,0.01C0.384,0.01 0.468,-0.011 0.539,-0.048L0.539,-0.145C0.476,-0.105 0.4,-0.077 0.327,-0.077C0.207,-0.077 0.159,-0.155 0.159,-0.349C0.159,-0.544 0.207,-0.624 0.326,-0.624C0.431,-0.624 0.484,-0.561 0.484,-0.412L0.581,-0.412Z" style="fill:#d32dc3;fill-rule:nonzero;"/>
                    </g>
                    <g transform="matrix(24,0,0,24,763.992,398.617)">
                        <path d="M0.31,0.01C0.47,0.01 0.562,-0.099 0.562,-0.291C0.562,-0.462 0.479,-0.56 0.33,-0.56C0.171,-0.56 0.079,-0.451 0.079,-0.26C0.079,-0.088 0.162,0.01 0.31,0.01ZM0.32,-0.073C0.213,-0.073 0.172,-0.126 0.172,-0.274C0.172,-0.422 0.213,-0.477 0.32,-0.477C0.428,-0.477 0.468,-0.424 0.468,-0.277C0.468,-0.129 0.428,-0.073 0.32,-0.073Z" style="fill:#d32dc3;fill-rule:nonzero;"/>
                    </g>
                    <g transform="matrix(24,0,0,24,778.392,398.617)">
                        <path d="M0.459,-0.073C0.376,-0.073 0.339,-0.127 0.339,-0.227L0.339,-0.74L0.054,-0.74L0.054,-0.66L0.249,-0.66L0.249,-0.219C0.249,-0.065 0.32,0.01 0.443,0.01C0.493,0.01 0.541,-0.003 0.586,-0.027L0.586,-0.111C0.546,-0.086 0.501,-0.073 0.459,-0.073Z" style="fill:#d32dc3;fill-rule:nonzero;"/>
                    </g>
                    <g transform="matrix(24,0,0,24,792.792,398.617)">
                        <path d="M0.31,0.01C0.47,0.01 0.562,-0.099 0.562,-0.291C0.562,-0.462 0.479,-0.56 0.33,-0.56C0.171,-0.56 0.079,-0.451 0.079,-0.26C0.079,-0.088 0.162,0.01 0.31,0.01ZM0.32,-0.073C0.213,-0.073 0.172,-0.126 0.172,-0.274C0.172,-0.422 0.213,-0.477 0.32,-0.477C0.428,-0.477 0.468,-0.424 0.468,-0.277C0.468,-0.129 0.428,-0.073 0.32,-0.073Z" style="fill:#d32dc3;fill-rule:nonzero;"/>
                    </g>
                    <g transform="matrix(24,0,0,24,807.192,398.617)">
                        <path d="M0.577,-0.571C0.481,-0.571 0.372,-0.522 0.31,-0.441L0.293,-0.55L0.113,-0.55L0.113,-0.47L0.225,-0.47L0.225,-0.08L0.083,-0.08L0.083,-0L0.523,-0L0.523,-0.08L0.315,-0.08L0.315,-0.388C0.389,-0.447 0.481,-0.472 0.577,-0.472L0.577,-0.571Z" style="fill:#d32dc3;fill-rule:nonzero;"/>
                    </g>
                    <g transform="matrix(24,0,0,24,821.592,398.617)">
                        <path d="M0.251,-0.402L0.389,-0.402L0.389,-0.55L0.251,-0.55L0.251,-0.402ZM0.251,-0L0.389,-0L0.389,-0.148L0.251,-0.148L0.251,-0Z" style="fill:#d3d3d3;fill-rule:nonzero;"/>
                    </g>
                    <g transform="matrix(24,0,0,24,850.392,398.617)">
                        <path d="M0.493,-0.55C0.455,-0.393 0.403,-0.254 0.32,-0.072C0.237,-0.254 0.186,-0.393 0.147,-0.55L0.059,-0.55C0.099,-0.376 0.178,-0.177 0.266,-0L0.374,-0C0.462,-0.177 0.541,-0.376 0.581,-0.55L0.493,-0.55Z" style="fill:#569cd6;fill-rule:nonzero;"/>
                    </g>
                    <g transform="matrix(24,0,0,24,864.797,398.617)">
                        <path d="M0.564,-0.291C0.564,-0.463 0.485,-0.56 0.336,-0.56C0.171,-0.56 0.078,-0.44 0.078,-0.258C0.078,-0.083 0.172,0.01 0.325,0.01C0.394,0.01 0.462,-0.008 0.522,-0.043L0.522,-0.129C0.466,-0.094 0.403,-0.073 0.334,-0.073C0.233,-0.073 0.18,-0.119 0.172,-0.241L0.563,-0.241C0.564,-0.258 0.564,-0.273 0.564,-0.291ZM0.329,-0.477C0.426,-0.477 0.463,-0.434 0.47,-0.318L0.173,-0.318C0.181,-0.434 0.229,-0.477 0.329,-0.477Z" style="fill:#569cd6;fill-rule:nonzero;"/>
                    </g>
                    <g transform="matrix(24,0,0,24,879.202,398.617)">
                        <path d="M0.562,-0.351C0.562,-0.479 0.47,-0.56 0.339,-0.56C0.181,-0.56 0.087,-0.451 0.087,-0.26C0.087,-0.088 0.181,0.01 0.334,0.01C0.404,0.01 0.472,-0.009 0.531,-0.045L0.531,-0.132C0.467,-0.089 0.414,-0.073 0.346,-0.073C0.225,-0.073 0.18,-0.129 0.18,-0.274C0.18,-0.423 0.221,-0.48 0.337,-0.48C0.43,-0.48 0.469,-0.444 0.469,-0.351L0.562,-0.351Z" style="fill:#569cd6;fill-rule:nonzero;"/>
                    </g>
                    <g transform="matrix(24,0,0,24,893.606,398.617)">
                        <path d="M0.477,-0.241L0.477,-0.7L0.365,-0.7L0.049,-0.254L0.049,-0.157L0.382,-0.157L0.382,-0L0.477,-0L0.477,-0.157L0.593,-0.157L0.593,-0.241L0.477,-0.241ZM0.382,-0.58L0.382,-0.241L0.141,-0.241L0.382,-0.58Z" style="fill:#569cd6;fill-rule:nonzero;"/>
                    </g>
                    <g transform="matrix(24,0,0,24,908.011,398.617)">
                        <path d="M0.065,-0.359L0.065,-0.283L0.575,-0.011L0.575,-0.096L0.15,-0.321L0.575,-0.546L0.575,-0.631L0.065,-0.359Z" style="fill:#d3d3d3;fill-rule:nonzero;"/>
                    </g>
                    <g transform="matrix(24,0,0,24,922.416,398.617)">
                        <path d="M0.441,-0.673C0.485,-0.673 0.528,-0.665 0.569,-0.65L0.569,-0.729C0.527,-0.742 0.477,-0.75 0.431,-0.75C0.3,-0.75 0.224,-0.684 0.224,-0.568L0.224,-0.546L0.081,-0.546L0.081,-0.47L0.224,-0.47L0.224,-0L0.314,-0L0.314,-0.47L0.569,-0.47L0.569,-0.546L0.314,-0.546L0.314,-0.575C0.314,-0.645 0.359,-0.673 0.441,-0.673Z" style="fill:#569cd6;fill-rule:nonzero;"/>
                    </g>
                    <g transform="matrix(24,0,0,24,936.821,398.617)">
                        <path d="M0.513,-0.603L0.513,-0.7L0.098,-0.7L0.098,-0.617L0.42,-0.617L0.212,-0.428L0.235,-0.366C0.397,-0.366 0.468,-0.328 0.468,-0.243C0.468,-0.137 0.343,-0.078 0.098,-0.078L0.098,0.011C0.395,0.011 0.564,-0.085 0.564,-0.25C0.564,-0.359 0.485,-0.424 0.341,-0.439L0.513,-0.603Z" style="fill:#569cd6;fill-rule:nonzero;"/>
                    </g>
                    <g transform="matrix(24,0,0,24,951.226,398.617)">
                        <path d="M0.392,-0.251C0.511,-0.346 0.555,-0.425 0.555,-0.514C0.555,-0.637 0.467,-0.71 0.316,-0.71C0.244,-0.71 0.176,-0.693 0.114,-0.664L0.114,-0.57C0.19,-0.615 0.25,-0.625 0.302,-0.625C0.409,-0.625 0.458,-0.581 0.458,-0.502C0.458,-0.444 0.431,-0.398 0.349,-0.328L0.077,-0.097L0.077,-0L0.566,-0L0.566,-0.084L0.184,-0.084L0.392,-0.251Z" style="fill:#569cd6;fill-rule:nonzero;"/>
                    </g>
                    <g transform="matrix(24,0,0,24,965.63,398.617)">
                        <path d="M0.065,-0.546L0.49,-0.321L0.065,-0.096L0.065,-0.011L0.575,-0.283L0.575,-0.359L0.065,-0.631L0.065,-0.546Z" style="fill:#d3d3d3;fill-rule:nonzero;"/>
                    </g>
                </g>
                <g transform="matrix(1,0,0,1,-75.7439,-107.082)">
                    <g transform="matrix(24,0,0,24,256.319,269.286)">
                        <path d="M0.477,-0.56C0.424,-0.56 0.383,-0.532 0.354,-0.477C0.339,-0.535 0.306,-0.56 0.264,-0.56C0.215,-0.56 0.169,-0.525 0.137,-0.455L0.12,-0.55L0.056,-0.55L0.056,-0L0.141,-0L0.141,-0.4C0.167,-0.456 0.196,-0.478 0.225,-0.478C0.261,-0.478 0.279,-0.444 0.279,-0.38L0.279,-0L0.364,-0L0.364,-0.391C0.364,-0.4 0.364,-0.409 0.363,-0.417C0.386,-0.464 0.411,-0.483 0.443,-0.483C0.488,-0.483 0.502,-0.447 0.502,-0.38L0.502,-0L0.587,-0L0.587,-0.391C0.587,-0.51 0.549,-0.56 0.477,-0.56Z" style="fill:#d3d3d3;fill-rule:nonzero;"/>
                    </g>
                    <g transform="matrix(24,0,0,24,270.719,269.286)">
                        <path d="M0.31,0.01C0.47,0.01 0.562,-0.099 0.562,-0.291C0.562,-0.462 0.479,-0.56 0.33,-0.56C0.171,-0.56 0.079,-0.451 0.079,-0.26C0.079,-0.088 0.162,0.01 0.31,0.01ZM0.32,-0.073C0.213,-0.073 0.172,-0.126 0.172,-0.274C0.172,-0.422 0.213,-0.477 0.32,-0.477C0.428,-0.477 0.468,-0.424 0.468,-0.277C0.468,-0.129 0.428,-0.073 0.32,-0.073Z" style="fill:#d3d3d3;fill-rule:nonzero;"/>
                    </g>
                    <g transform="matrix(24,0,0,24,285.119,269.286)">
                        <path d="M0.455,-0.473C0.419,-0.529 0.364,-0.56 0.291,-0.56C0.158,-0.56 0.082,-0.454 0.082,-0.27C0.082,-0.091 0.158,0.01 0.291,0.01C0.368,0.01 0.426,-0.026 0.462,-0.094L0.477,-0L0.544,-0L0.544,-0.74L0.455,-0.74L0.455,-0.473ZM0.315,-0.07C0.214,-0.07 0.176,-0.13 0.176,-0.28C0.176,-0.425 0.214,-0.48 0.315,-0.48C0.416,-0.48 0.455,-0.42 0.455,-0.27C0.455,-0.125 0.416,-0.07 0.315,-0.07Z" style="fill:#d3d3d3;fill-rule:nonzero;"/>
                    </g>
                    <g transform="matrix(24,0,0,24,299.519,269.286)">
                        <path d="M0.564,-0.291C0.564,-0.463 0.485,-0.56 0.336,-0.56C0.171,-0.56 0.078,-0.44 0.078,-0.258C0.078,-0.083 0.172,0.01 0.325,0.01C0.394,0.01 0.462,-0.008 0.522,-0.043L0.522,-0.129C0.466,-0.094 0.403,-0.073 0.334,-0.073C0.233,-0.073 0.18,-0.119 0.172,-0.241L0.563,-0.241C0.564,-0.258 0.564,-0.273 0.564,-0.291ZM0.329,-0.477C0.426,-0.477 0.463,-0.434 0.47,-0.318L0.173,-0.318C0.181,-0.434 0.229,-0.477 0.329,-0.477Z" style="fill:#d3d3d3;fill-rule:nonzero;"/>
                    </g>
                    <g transform="matrix(24,0,0,24,313.919,269.286)">
                        <path d="M0.459,-0.073C0.376,-0.073 0.339,-0.127 0.339,-0.227L0.339,-0.74L0.054,-0.74L0.054,-0.66L0.249,-0.66L0.249,-0.219C0.249,-0.065 0.32,0.01 0.443,0.01C0.493,0.01 0.541,-0.003 0.586,-0.027L0.586,-0.111C0.546,-0.086 0.501,-0.073 0.459,-0.073Z" style="fill:#d3d3d3;fill-rule:nonzero;"/>
                    </g>
                    <g transform="matrix(24,0,0,24,328.319,269.286)">
                        <path d="M0.489,-0.7C0.449,-0.487 0.403,-0.307 0.32,-0.073C0.237,-0.307 0.192,-0.487 0.151,-0.7L0.053,-0.7C0.095,-0.476 0.17,-0.216 0.263,-0L0.378,-0C0.469,-0.216 0.545,-0.476 0.587,-0.7L0.489,-0.7Z" style="fill:#d3d3d3;fill-rule:nonzero;"/>
                    </g>
                    <g transform="matrix(24,0,0,24,342.719,269.286)">
                        <path d="M0.292,-0.761L0.292,-0.627L0.413,-0.627L0.413,-0.761L0.292,-0.761ZM0.397,-0.55L0.139,-0.55L0.139,-0.47L0.307,-0.47L0.307,-0.08L0.109,-0.08L0.109,-0L0.549,-0L0.549,-0.08L0.397,-0.08L0.397,-0.55Z" style="fill:#d3d3d3;fill-rule:nonzero;"/>
                    </g>
                    <g transform="matrix(24,0,0,24,357.119,269.286)">
                        <path d="M0.564,-0.291C0.564,-0.463 0.485,-0.56 0.336,-0.56C0.171,-0.56 0.078,-0.44 0.078,-0.258C0.078,-0.083 0.172,0.01 0.325,0.01C0.394,0.01 0.462,-0.008 0.522,-0.043L0.522,-0.129C0.466,-0.094 0.403,-0.073 0.334,-0.073C0.233,-0.073 0.18,-0.119 0.172,-0.241L0.563,-0.241C0.564,-0.258 0.564,-0.273 0.564,-0.291ZM0.329,-0.477C0.426,-0.477 0.463,-0.434 0.47,-0.318L0.173,-0.318C0.181,-0.434 0.229,-0.477 0.329,-0.477Z" style="fill:#d3d3d3;fill-rule:nonzero;"/>
                    </g>
                    <g transform="matrix(24,0,0,24,371.519,269.286)">
                        <path d="M0.488,-0.55C0.487,-0.388 0.472,-0.254 0.435,-0.078L0.332,-0.387L0.304,-0.387L0.201,-0.076C0.165,-0.253 0.149,-0.388 0.148,-0.55L0.061,-0.55C0.062,-0.378 0.093,-0.174 0.144,-0L0.248,-0L0.318,-0.21L0.389,-0L0.493,-0C0.544,-0.174 0.574,-0.378 0.576,-0.55L0.488,-0.55Z" style="fill:#d3d3d3;fill-rule:nonzero;"/>
                    </g>
                    <g transform="matrix(24,0,0,24,385.919,269.286)">
                        <path d="M0.108,-0.7L0.108,-0L0.202,-0L0.202,-0.242L0.31,-0.242C0.476,-0.242 0.571,-0.33 0.571,-0.485C0.571,-0.622 0.484,-0.7 0.33,-0.7L0.108,-0.7ZM0.202,-0.325L0.202,-0.617L0.32,-0.617C0.431,-0.617 0.474,-0.576 0.474,-0.471C0.474,-0.366 0.431,-0.325 0.319,-0.325L0.202,-0.325Z" style="fill:#d3d3d3;fill-rule:nonzero;"/>
                    </g>
                    <g transform="matrix(24,0,0,24,400.319,269.286)">
                        <path d="M0.577,-0.571C0.481,-0.571 0.372,-0.522 0.31,-0.441L0.293,-0.55L0.113,-0.55L0.113,-0.47L0.225,-0.47L0.225,-0.08L0.083,-0.08L0.083,-0L0.523,-0L0.523,-0.08L0.315,-0.08L0.315,-0.388C0.389,-0.447 0.481,-0.472 0.577,-0.472L0.577,-0.571Z" style="fill:#d3d3d3;fill-rule:nonzero;"/>
                    </g>
                    <g transform="matrix(24,0,0,24,414.719,269.286)">
                        <path d="M0.31,0.01C0.47,0.01 0.562,-0.099 0.562,-0.291C0.562,-0.462 0.479,-0.56 0.33,-0.56C0.171,-0.56 0.079,-0.451 0.079,-0.26C0.079,-0.088 0.162,0.01 0.31,0.01ZM0.32,-0.073C0.213,-0.073 0.172,-0.126 0.172,-0.274C0.172,-0.422 0.213,-0.477 0.32,-0.477C0.428,-0.477 0.468,-0.424 0.468,-0.277C0.468,-0.129 0.428,-0.073 0.32,-0.073Z" style="fill:#d3d3d3;fill-rule:nonzero;"/>
                    </g>
                    <g transform="matrix(24,0,0,24,429.119,269.286)">
                        <path d="M0.395,-0.627L0.516,-0.627L0.516,-0.761L0.395,-0.761L0.395,-0.627ZM0.41,-0.47L0.41,-0.068C0.41,0.033 0.331,0.116 0.12,0.116L0.12,0.2C0.358,0.2 0.499,0.089 0.499,-0.08L0.499,-0.55L0.12,-0.55L0.12,-0.47L0.41,-0.47Z" style="fill:#d3d3d3;fill-rule:nonzero;"/>
                    </g>
                    <g transform="matrix(24,0,0,24,443.519,269.286)">
                        <path d="M0.251,-0.402L0.389,-0.402L0.389,-0.55L0.251,-0.55L0.251,-0.402ZM0.251,-0L0.389,-0L0.389,-0.148L0.251,-0.148L0.251,-0Z" style="fill:#d3d3d3;fill-rule:nonzero;"/>
                    </g>
                    <g transform="matrix(24,0,0,24,472.319,269.286)">
                        <path d="M0.477,-0.56C0.424,-0.56 0.383,-0.532 0.354,-0.477C0.339,-0.535 0.306,-0.56 0.264,-0.56C0.215,-0.56 0.169,-0.525 0.137,-0.455L0.12,-0.55L0.056,-0.55L0.056,-0L0.141,-0L0.141,-0.4C0.167,-0.456 0.196,-0.478 0.225,-0.478C0.261,-0.478 0.279,-0.444 0.279,-0.38L0.279,-0L0.364,-0L0.364,-0.391C0.364,-0.4 0.364,-0.409 0.363,-0.417C0.386,-0.464 0.411,-0.483 0.443,-0.483C0.488,-0.483 0.502,-0.447 0.502,-0.38L0.502,-0L0.587,-0L0.587,-0.391C0.587,-0.51 0.549,-0.56 0.477,-0.56Z" style="fill:#569cd6;fill-rule:nonzero;"/>
                    </g>
                    <g transform="matrix(24,0,0,24,486.719,269.286)">
                        <path d="M0.524,-0.169L0.524,-0.385C0.524,-0.494 0.454,-0.56 0.332,-0.56C0.271,-0.56 0.202,-0.544 0.137,-0.516L0.137,-0.43C0.201,-0.462 0.253,-0.477 0.321,-0.477C0.398,-0.477 0.434,-0.444 0.434,-0.376L0.434,-0.329C0.18,-0.328 0.088,-0.259 0.088,-0.14C0.088,-0.046 0.15,0.01 0.255,0.01C0.348,0.01 0.409,-0.03 0.446,-0.109L0.466,-0L0.555,-0L0.524,-0.169ZM0.276,-0.073C0.212,-0.073 0.181,-0.103 0.181,-0.156C0.181,-0.238 0.255,-0.268 0.434,-0.269L0.434,-0.225C0.434,-0.138 0.371,-0.073 0.276,-0.073Z" style="fill:#569cd6;fill-rule:nonzero;"/>
                    </g>
                    <g transform="matrix(24,0,0,24,501.119,269.286)">
                        <path d="M0.534,-0.55L0.294,-0.55L0.294,-0.673L0.225,-0.673L0.204,-0.55L0.077,-0.528L0.077,-0.47L0.204,-0.47L0.204,-0.173C0.204,-0.065 0.267,0.01 0.403,0.01C0.449,0.01 0.494,0.001 0.534,-0.013L0.534,-0.099C0.496,-0.082 0.453,-0.073 0.412,-0.073C0.325,-0.073 0.294,-0.111 0.294,-0.185L0.294,-0.47L0.534,-0.47L0.534,-0.55Z" style="fill:#569cd6;fill-rule:nonzero;"/>
                    </g>
                    <g transform="matrix(24,0,0,24,515.519,269.286)">
                        <path d="M0.477,-0.241L0.477,-0.7L0.365,-0.7L0.049,-0.254L0.049,-0.157L0.382,-0.157L0.382,-0L0.477,-0L0.477,-0.157L0.593,-0.157L0.593,-0.241L0.477,-0.241ZM0.382,-0.58L0.382,-0.241L0.141,-0.241L0.382,-0.58Z" style="fill:#569cd6;fill-rule:nonzero;"/>
                    </g>
                    <g transform="matrix(24,0,0,24,529.919,269.286)">
                        <path d="M0.376,-0.275L0.557,-0.55L0.448,-0.55L0.32,-0.337L0.192,-0.55L0.083,-0.55L0.264,-0.276L0.075,-0L0.184,-0L0.32,-0.217L0.456,-0L0.565,-0L0.376,-0.275Z" style="fill:#569cd6;fill-rule:nonzero;"/>
                    </g>
                    <g transform="matrix(24,0,0,24,544.319,269.286)">
                        <path d="M0.477,-0.241L0.477,-0.7L0.365,-0.7L0.049,-0.254L0.049,-0.157L0.382,-0.157L0.382,-0L0.477,-0L0.477,-0.157L0.593,-0.157L0.593,-0.241L0.477,-0.241ZM0.382,-0.58L0.382,-0.241L0.141,-0.241L0.382,-0.58Z" style="fill:#569cd6;fill-rule:nonzero;"/>
                    </g>
                    <g transform="matrix(24,0,0,24,558.719,269.286)">
                        <path d="M0.065,-0.359L0.065,-0.283L0.575,-0.011L0.575,-0.096L0.15,-0.321L0.575,-0.546L0.575,-0.631L0.065,-0.359Z" style="fill:#d3d3d3;fill-rule:nonzero;"/>
                    </g>
                    <g transform="matrix(24,0,0,24,573.119,269.286)">
                        <path d="M0.441,-0.673C0.485,-0.673 0.528,-0.665 0.569,-0.65L0.569,-0.729C0.527,-0.742 0.477,-0.75 0.431,-0.75C0.3,-0.75 0.224,-0.684 0.224,-0.568L0.224,-0.546L0.081,-0.546L0.081,-0.47L0.224,-0.47L0.224,-0L0.314,-0L0.314,-0.47L0.569,-0.47L0.569,-0.546L0.314,-0.546L0.314,-0.575C0.314,-0.645 0.359,-0.673 0.441,-0.673Z" style="fill:#569cd6;fill-rule:nonzero;"/>
                    </g>
                    <g transform="matrix(24,0,0,24,587.519,269.286)">
                        <path d="M0.513,-0.603L0.513,-0.7L0.098,-0.7L0.098,-0.617L0.42,-0.617L0.212,-0.428L0.235,-0.366C0.397,-0.366 0.468,-0.328 0.468,-0.243C0.468,-0.137 0.343,-0.078 0.098,-0.078L0.098,0.011C0.395,0.011 0.564,-0.085 0.564,-0.25C0.564,-0.359 0.485,-0.424 0.341,-0.439L0.513,-0.603Z" style="fill:#569cd6;fill-rule:nonzero;"/>
                    </g>
                    <g transform="matrix(24,0,0,24,601.919,269.286)">
                        <path d="M0.392,-0.251C0.511,-0.346 0.555,-0.425 0.555,-0.514C0.555,-0.637 0.467,-0.71 0.316,-0.71C0.244,-0.71 0.176,-0.693 0.114,-0.664L0.114,-0.57C0.19,-0.615 0.25,-0.625 0.302,-0.625C0.409,-0.625 0.458,-0.581 0.458,-0.502C0.458,-0.444 0.431,-0.398 0.349,-0.328L0.077,-0.097L0.077,-0L0.566,-0L0.566,-0.084L0.184,-0.084L0.392,-0.251Z" style="fill:#569cd6;fill-rule:nonzero;"/>
                    </g>
                    <g transform="matrix(24,0,0,24,616.319,269.286)">
                        <path d="M0.065,-0.546L0.49,-0.321L0.065,-0.096L0.065,-0.011L0.575,-0.283L0.575,-0.359L0.065,-0.631L0.065,-0.546Z" style="fill:#d3d3d3;fill-rule:nonzero;"/>
                    </g>
                </g>
                <g transform="matrix(1,0,0,1,-140.544,-109.58)">
                    <g transform="matrix(24,0,0,24,321.124,334.393)">
                        <path d="M0.349,-0.56C0.271,-0.56 0.214,-0.524 0.179,-0.456L0.164,-0.55L0.096,-0.55L0.096,0.19L0.186,0.19L0.186,-0.077C0.221,-0.02 0.277,0.01 0.349,0.01C0.482,0.01 0.558,-0.096 0.558,-0.28C0.558,-0.459 0.482,-0.56 0.349,-0.56ZM0.325,-0.07C0.224,-0.07 0.186,-0.13 0.186,-0.28C0.186,-0.425 0.224,-0.48 0.325,-0.48C0.426,-0.48 0.465,-0.42 0.465,-0.27C0.465,-0.125 0.426,-0.07 0.325,-0.07Z" style="fill:#e82558;fill-rule:nonzero;"/>
                    </g>
                    <g transform="matrix(24,0,0,24,335.529,334.393)">
                        <path d="M0.577,-0.571C0.481,-0.571 0.372,-0.522 0.31,-0.441L0.293,-0.55L0.113,-0.55L0.113,-0.47L0.225,-0.47L0.225,-0.08L0.083,-0.08L0.083,-0L0.523,-0L0.523,-0.08L0.315,-0.08L0.315,-0.388C0.389,-0.447 0.481,-0.472 0.577,-0.472L0.577,-0.571Z" style="fill:#e82558;fill-rule:nonzero;"/>
                    </g>
                    <g transform="matrix(24,0,0,24,349.934,334.393)">
                        <path d="M0.292,-0.761L0.292,-0.627L0.413,-0.627L0.413,-0.761L0.292,-0.761ZM0.397,-0.55L0.139,-0.55L0.139,-0.47L0.307,-0.47L0.307,-0.08L0.109,-0.08L0.109,-0L0.549,-0L0.549,-0.08L0.397,-0.08L0.397,-0.55Z" style="fill:#e82558;fill-rule:nonzero;"/>
                    </g>
                    <g transform="matrix(24,0,0,24,364.339,334.393)">
                        <path d="M0.477,-0.56C0.424,-0.56 0.383,-0.532 0.354,-0.477C0.339,-0.535 0.306,-0.56 0.264,-0.56C0.215,-0.56 0.169,-0.525 0.137,-0.455L0.12,-0.55L0.056,-0.55L0.056,-0L0.141,-0L0.141,-0.4C0.167,-0.456 0.196,-0.478 0.225,-0.478C0.261,-0.478 0.279,-0.444 0.279,-0.38L0.279,-0L0.364,-0L0.364,-0.391C0.364,-0.4 0.364,-0.409 0.363,-0.417C0.386,-0.464 0.411,-0.483 0.443,-0.483C0.488,-0.483 0.502,-0.447 0.502,-0.38L0.502,-0L0.587,-0L0.587,-0.391C0.587,-0.51 0.549,-0.56 0.477,-0.56Z" style="fill:#e82558;fill-rule:nonzero;"/>
                    </g>
                    <g transform="matrix(24,0,0,24,378.743,334.393)">
                        <path d="M0.524,-0.169L0.524,-0.385C0.524,-0.494 0.454,-0.56 0.332,-0.56C0.271,-0.56 0.202,-0.544 0.137,-0.516L0.137,-0.43C0.201,-0.462 0.253,-0.477 0.321,-0.477C0.398,-0.477 0.434,-0.444 0.434,-0.376L0.434,-0.329C0.18,-0.328 0.088,-0.259 0.088,-0.14C0.088,-0.046 0.15,0.01 0.255,0.01C0.348,0.01 0.409,-0.03 0.446,-0.109L0.466,-0L0.555,-0L0.524,-0.169ZM0.276,-0.073C0.212,-0.073 0.181,-0.103 0.181,-0.156C0.181,-0.238 0.255,-0.268 0.434,-0.269L0.434,-0.225C0.434,-0.138 0.371,-0.073 0.276,-0.073Z" style="fill:#e82558;fill-rule:nonzero;"/>
                    </g>
                    <g transform="matrix(24,0,0,24,393.148,334.393)">
                        <path d="M0.577,-0.571C0.481,-0.571 0.372,-0.522 0.31,-0.441L0.293,-0.55L0.113,-0.55L0.113,-0.47L0.225,-0.47L0.225,-0.08L0.083,-0.08L0.083,-0L0.523,-0L0.523,-0.08L0.315,-0.08L0.315,-0.388C0.389,-0.447 0.481,-0.472 0.577,-0.472L0.577,-0.571Z" style="fill:#e82558;fill-rule:nonzero;"/>
                    </g>
                    <g transform="matrix(24,0,0,24,407.553,334.393)">
                        <path d="M0.32,-0.052L0.162,-0.55L0.064,-0.55L0.252,-0L0.3,-0C0.273,0.078 0.213,0.116 0.098,0.116L0.098,0.2C0.247,0.2 0.34,0.141 0.384,0.012L0.576,-0.55L0.478,-0.55L0.32,-0.052Z" style="fill:#e82558;fill-rule:nonzero;"/>
                    </g>
                    <g transform="matrix(24,0,0,24,421.958,334.393)">
                        <path d="M0.581,-0.412C0.581,-0.602 0.487,-0.71 0.336,-0.71C0.161,-0.71 0.062,-0.572 0.062,-0.33C0.062,-0.114 0.154,0.01 0.316,0.01C0.384,0.01 0.468,-0.011 0.539,-0.048L0.539,-0.145C0.476,-0.105 0.4,-0.077 0.327,-0.077C0.207,-0.077 0.159,-0.155 0.159,-0.349C0.159,-0.544 0.207,-0.624 0.326,-0.624C0.431,-0.624 0.484,-0.561 0.484,-0.412L0.581,-0.412Z" style="fill:#e82558;fill-rule:nonzero;"/>
                    </g>
                    <g transform="matrix(24,0,0,24,436.363,334.393)">
                        <path d="M0.31,0.01C0.47,0.01 0.562,-0.099 0.562,-0.291C0.562,-0.462 0.479,-0.56 0.33,-0.56C0.171,-0.56 0.079,-0.451 0.079,-0.26C0.079,-0.088 0.162,0.01 0.31,0.01ZM0.32,-0.073C0.213,-0.073 0.172,-0.126 0.172,-0.274C0.172,-0.422 0.213,-0.477 0.32,-0.477C0.428,-0.477 0.468,-0.424 0.468,-0.277C0.468,-0.129 0.428,-0.073 0.32,-0.073Z" style="fill:#e82558;fill-rule:nonzero;"/>
                    </g>
                    <g transform="matrix(24,0,0,24,450.767,334.393)">
                        <path d="M0.459,-0.073C0.376,-0.073 0.339,-0.127 0.339,-0.227L0.339,-0.74L0.054,-0.74L0.054,-0.66L0.249,-0.66L0.249,-0.219C0.249,-0.065 0.32,0.01 0.443,0.01C0.493,0.01 0.541,-0.003 0.586,-0.027L0.586,-0.111C0.546,-0.086 0.501,-0.073 0.459,-0.073Z" style="fill:#e82558;fill-rule:nonzero;"/>
                    </g>
                    <g transform="matrix(24,0,0,24,465.172,334.393)">
                        <path d="M0.31,0.01C0.47,0.01 0.562,-0.099 0.562,-0.291C0.562,-0.462 0.479,-0.56 0.33,-0.56C0.171,-0.56 0.079,-0.451 0.079,-0.26C0.079,-0.088 0.162,0.01 0.31,0.01ZM0.32,-0.073C0.213,-0.073 0.172,-0.126 0.172,-0.274C0.172,-0.422 0.213,-0.477 0.32,-0.477C0.428,-0.477 0.468,-0.424 0.468,-0.277C0.468,-0.129 0.428,-0.073 0.32,-0.073Z" style="fill:#e82558;fill-rule:nonzero;"/>
                    </g>
                    <g transform="matrix(24,0,0,24,479.577,334.393)">
                        <path d="M0.577,-0.571C0.481,-0.571 0.372,-0.522 0.31,-0.441L0.293,-0.55L0.113,-0.55L0.113,-0.47L0.225,-0.47L0.225,-0.08L0.083,-0.08L0.083,-0L0.523,-0L0.523,-0.08L0.315,-0.08L0.315,-0.388C0.389,-0.447 0.481,-0.472 0.577,-0.472L0.577,-0.571Z" style="fill:#e82558;fill-rule:nonzero;"/>
                    </g>
                    <g transform="matrix(24,0,0,24,493.982,334.393)">
                        <path d="M0.251,-0.402L0.389,-0.402L0.389,-0.55L0.251,-0.55L0.251,-0.402ZM0.251,-0L0.389,-0L0.389,-0.148L0.251,-0.148L0.251,-0Z" style="fill:#d3d3d3;fill-rule:nonzero;"/>
                    </g>
                    <g transform="matrix(24,0,0,24,522.782,334.393)">
                        <path d="M0.493,-0.55C0.455,-0.393 0.403,-0.254 0.32,-0.072C0.237,-0.254 0.186,-0.393 0.147,-0.55L0.059,-0.55C0.099,-0.376 0.178,-0.177 0.266,-0L0.374,-0C0.462,-0.177 0.541,-0.376 0.581,-0.55L0.493,-0.55Z" style="fill:#569cd6;fill-rule:nonzero;"/>
                    </g>
                    <g transform="matrix(24,0,0,24,537.187,334.393)">
                        <path d="M0.564,-0.291C0.564,-0.463 0.485,-0.56 0.336,-0.56C0.171,-0.56 0.078,-0.44 0.078,-0.258C0.078,-0.083 0.172,0.01 0.325,0.01C0.394,0.01 0.462,-0.008 0.522,-0.043L0.522,-0.129C0.466,-0.094 0.403,-0.073 0.334,-0.073C0.233,-0.073 0.18,-0.119 0.172,-0.241L0.563,-0.241C0.564,-0.258 0.564,-0.273 0.564,-0.291ZM0.329,-0.477C0.426,-0.477 0.463,-0.434 0.47,-0.318L0.173,-0.318C0.181,-0.434 0.229,-0.477 0.329,-0.477Z" style="fill:#569cd6;fill-rule:nonzero;"/>
                    </g>
                    <g transform="matrix(24,0,0,24,551.591,334.393)">
                        <path d="M0.562,-0.351C0.562,-0.479 0.47,-0.56 0.339,-0.56C0.181,-0.56 0.087,-0.451 0.087,-0.26C0.087,-0.088 0.181,0.01 0.334,0.01C0.404,0.01 0.472,-0.009 0.531,-0.045L0.531,-0.132C0.467,-0.089 0.414,-0.073 0.346,-0.073C0.225,-0.073 0.18,-0.129 0.18,-0.274C0.18,-0.423 0.221,-0.48 0.337,-0.48C0.43,-0.48 0.469,-0.444 0.469,-0.351L0.562,-0.351Z" style="fill:#569cd6;fill-rule:nonzero;"/>
                    </g>
                    <g transform="matrix(24,0,0,24,565.996,334.393)">
                        <path d="M0.477,-0.241L0.477,-0.7L0.365,-0.7L0.049,-0.254L0.049,-0.157L0.382,-0.157L0.382,-0L0.477,-0L0.477,-0.157L0.593,-0.157L0.593,-0.241L0.477,-0.241ZM0.382,-0.58L0.382,-0.241L0.141,-0.241L0.382,-0.58Z" style="fill:#569cd6;fill-rule:nonzero;"/>
                    </g>
                    <g transform="matrix(24,0,0,24,580.401,334.393)">
                        <path d="M0.065,-0.359L0.065,-0.283L0.575,-0.011L0.575,-0.096L0.15,-0.321L0.575,-0.546L0.575,-0.631L0.065,-0.359Z" style="fill:#d3d3d3;fill-rule:nonzero;"/>
                    </g>
                    <g transform="matrix(24,0,0,24,594.806,334.393)">
                        <path d="M0.441,-0.673C0.485,-0.673 0.528,-0.665 0.569,-0.65L0.569,-0.729C0.527,-0.742 0.477,-0.75 0.431,-0.75C0.3,-0.75 0.224,-0.684 0.224,-0.568L0.224,-0.546L0.081,-0.546L0.081,-0.47L0.224,-0.47L0.224,-0L0.314,-0L0.314,-0.47L0.569,-0.47L0.569,-0.546L0.314,-0.546L0.314,-0.575C0.314,-0.645 0.359,-0.673 0.441,-0.673Z" style="fill:#569cd6;fill-rule:nonzero;"/>
                    </g>
                    <g transform="matrix(24,0,0,24,609.211,334.393)">
                        <path d="M0.513,-0.603L0.513,-0.7L0.098,-0.7L0.098,-0.617L0.42,-0.617L0.212,-0.428L0.235,-0.366C0.397,-0.366 0.468,-0.328 0.468,-0.243C0.468,-0.137 0.343,-0.078 0.098,-0.078L0.098,0.011C0.395,0.011 0.564,-0.085 0.564,-0.25C0.564,-0.359 0.485,-0.424 0.341,-0.439L0.513,-0.603Z" style="fill:#569cd6;fill-rule:nonzero;"/>
                    </g>
                    <g transform="matrix(24,0,0,24,623.615,334.393)">
                        <path d="M0.392,-0.251C0.511,-0.346 0.555,-0.425 0.555,-0.514C0.555,-0.637 0.467,-0.71 0.316,-0.71C0.244,-0.71 0.176,-0.693 0.114,-0.664L0.114,-0.57C0.19,-0.615 0.25,-0.625 0.302,-0.625C0.409,-0.625 0.458,-0.581 0.458,-0.502C0.458,-0.444 0.431,-0.398 0.349,-0.328L0.077,-0.097L0.077,-0L0.566,-0L0.566,-0.084L0.184,-0.084L0.392,-0.251Z" style="fill:#569cd6;fill-rule:nonzero;"/>
                    </g>
                    <g transform="matrix(24,0,0,24,638.02,334.393)">
                        <path d="M0.065,-0.546L0.49,-0.321L0.065,-0.096L0.065,-0.011L0.575,-0.283L0.575,-0.359L0.065,-0.631L0.065,-0.546Z" style="fill:#d3d3d3;fill-rule:nonzero;"/>
                    </g>
                </g>
                <path d="M304.476,87.932L306.749,87.932L306.749,97.858C306.749,99.584 306.554,100.955 306.163,101.971C305.772,102.987 305.067,103.813 304.048,104.449C303.028,105.086 301.69,105.404 300.034,105.404C298.425,105.404 297.108,105.127 296.085,104.572C295.061,104.018 294.331,103.215 293.894,102.164C293.456,101.113 293.237,99.678 293.237,97.858L293.237,87.932L295.511,87.932L295.511,97.846C295.511,99.338 295.649,100.438 295.927,101.145C296.204,101.852 296.681,102.397 297.356,102.779C298.032,103.162 298.858,103.354 299.835,103.354C301.507,103.354 302.698,102.975 303.409,102.217C304.12,101.459 304.476,100.002 304.476,97.846L304.476,87.932Z" style="fill:#fff;fill-rule:nonzero;"/>
                <path d="M310.262,105.112L310.262,92.666L312.16,92.666L312.16,94.436C313.075,93.069 314.395,92.385 316.121,92.385C316.871,92.385 317.561,92.52 318.19,92.789C318.819,93.059 319.289,93.412 319.602,93.85C319.914,94.287 320.133,94.807 320.258,95.408C320.336,95.799 320.375,96.483 320.375,97.459L320.375,105.112L318.266,105.112L318.266,97.541C318.266,96.682 318.184,96.039 318.02,95.613C317.856,95.188 317.565,94.848 317.147,94.594C316.729,94.34 316.239,94.213 315.676,94.213C314.778,94.213 314.002,94.498 313.35,95.069C312.698,95.639 312.371,96.721 312.371,98.315L312.371,105.112L310.262,105.112Z" style="fill:#fff;fill-rule:nonzero;"/>
                <path d="M323.619,90.358L323.619,87.932L325.728,87.932L325.728,90.358L323.619,90.358ZM323.619,105.112L323.619,92.666L325.728,92.666L325.728,105.112L323.619,105.112Z" style="fill:#fff;fill-rule:nonzero;"/>
                <path d="M329.44,105.112L329.44,94.307L327.577,94.307L327.577,92.666L329.44,92.666L329.44,91.342C329.44,90.506 329.515,89.885 329.663,89.479C329.866,88.932 330.224,88.488 330.735,88.149C331.247,87.809 331.964,87.639 332.886,87.639C333.48,87.639 334.136,87.709 334.855,87.85L334.538,89.69C334.101,89.612 333.687,89.572 333.296,89.572C332.655,89.572 332.202,89.709 331.937,89.983C331.671,90.256 331.538,90.768 331.538,91.518L331.538,92.666L333.964,92.666L333.964,94.307L331.538,94.307L331.538,105.112L329.44,105.112Z" style="fill:#fff;fill-rule:nonzero;"/>
                <path d="M334.817,98.889C334.817,96.584 335.457,94.877 336.739,93.768C337.809,92.846 339.114,92.385 340.653,92.385C342.364,92.385 343.762,92.946 344.848,94.067C345.934,95.188 346.477,96.737 346.477,98.713C346.477,100.315 346.237,101.574 345.756,102.492C345.276,103.41 344.577,104.123 343.659,104.631C342.741,105.139 341.739,105.393 340.653,105.393C338.911,105.393 337.502,104.834 336.428,103.717C335.354,102.6 334.817,100.99 334.817,98.889ZM336.985,98.889C336.985,100.483 337.332,101.676 338.028,102.469C338.723,103.262 339.598,103.658 340.653,103.658C341.7,103.658 342.571,103.26 343.266,102.463C343.961,101.666 344.309,100.451 344.309,98.819C344.309,97.279 343.959,96.113 343.26,95.321C342.561,94.528 341.692,94.131 340.653,94.131C339.598,94.131 338.723,94.526 338.028,95.315C337.332,96.104 336.985,97.295 336.985,98.889Z" style="fill:#fff;fill-rule:nonzero;"/>
                <path d="M348.924,105.112L348.924,92.666L350.822,92.666L350.822,94.553C351.306,93.67 351.754,93.088 352.164,92.807C352.574,92.526 353.025,92.385 353.517,92.385C354.228,92.385 354.951,92.612 355.685,93.065L354.959,95.022C354.443,94.717 353.928,94.565 353.412,94.565C352.951,94.565 352.537,94.703 352.17,94.981C351.803,95.258 351.541,95.643 351.385,96.135C351.15,96.885 351.033,97.705 351.033,98.596L351.033,105.112L348.924,105.112Z" style="fill:#fff;fill-rule:nonzero;"/>
                <path d="M356.937,105.112L356.937,92.666L358.823,92.666L358.823,94.412C359.214,93.803 359.734,93.313 360.382,92.942C361.03,92.571 361.769,92.385 362.597,92.385C363.519,92.385 364.275,92.576 364.864,92.959C365.454,93.342 365.87,93.877 366.112,94.565C367.097,93.112 368.378,92.385 369.956,92.385C371.191,92.385 372.14,92.727 372.804,93.41C373.468,94.094 373.8,95.147 373.8,96.569L373.8,105.112L371.702,105.112L371.702,97.272C371.702,96.428 371.634,95.821 371.497,95.449C371.36,95.078 371.112,94.779 370.753,94.553C370.394,94.326 369.972,94.213 369.487,94.213C368.612,94.213 367.886,94.504 367.308,95.086C366.73,95.668 366.441,96.6 366.441,97.881L366.441,105.112L364.331,105.112L364.331,97.026C364.331,96.088 364.159,95.385 363.816,94.916C363.472,94.447 362.909,94.213 362.128,94.213C361.534,94.213 360.985,94.369 360.482,94.682C359.978,94.994 359.612,95.451 359.386,96.053C359.159,96.654 359.046,97.522 359.046,98.654L359.046,105.112L356.937,105.112Z" style="fill:#fff;fill-rule:nonzero;"/>
                <path d="M383.77,105.112L383.77,87.932L390.216,87.932C391.528,87.932 392.581,88.106 393.374,88.453C394.167,88.801 394.788,89.336 395.237,90.059C395.686,90.781 395.911,91.537 395.911,92.326C395.911,93.061 395.712,93.752 395.313,94.401C394.915,95.049 394.313,95.572 393.509,95.971C394.548,96.276 395.347,96.795 395.905,97.529C396.464,98.264 396.743,99.131 396.743,100.131C396.743,100.936 396.573,101.684 396.233,102.375C395.893,103.067 395.474,103.6 394.974,103.975C394.474,104.35 393.847,104.633 393.093,104.824C392.339,105.016 391.415,105.112 390.321,105.112L383.77,105.112ZM386.044,95.151L389.759,95.151C390.766,95.151 391.489,95.084 391.927,94.951C392.505,94.779 392.94,94.494 393.233,94.096C393.526,93.697 393.673,93.197 393.673,92.596C393.673,92.026 393.536,91.524 393.263,91.09C392.989,90.656 392.599,90.36 392.091,90.199C391.583,90.039 390.712,89.959 389.477,89.959L386.044,89.959L386.044,95.151ZM386.044,103.084L390.321,103.084C391.056,103.084 391.571,103.057 391.868,103.002C392.391,102.908 392.829,102.752 393.181,102.533C393.532,102.315 393.821,101.996 394.048,101.578C394.274,101.16 394.388,100.678 394.388,100.131C394.388,99.49 394.224,98.934 393.895,98.461C393.567,97.988 393.112,97.656 392.53,97.465C391.948,97.274 391.11,97.178 390.016,97.178L386.044,97.178L386.044,103.084Z" style="fill:#fff;fill-rule:nonzero;"/>
                <path d="M407.756,105.112L407.756,103.283C406.787,104.69 405.471,105.393 403.807,105.393C403.073,105.393 402.387,105.252 401.75,104.971C401.114,104.69 400.641,104.336 400.332,103.91C400.024,103.485 399.807,102.963 399.682,102.346C399.596,101.932 399.553,101.276 399.553,100.377L399.553,92.666L401.662,92.666L401.662,99.569C401.662,100.67 401.705,101.412 401.791,101.795C401.924,102.35 402.205,102.785 402.635,103.102C403.065,103.418 403.596,103.576 404.229,103.576C404.862,103.576 405.455,103.414 406.01,103.09C406.565,102.766 406.957,102.324 407.188,101.766C407.418,101.207 407.533,100.397 407.533,99.334L407.533,92.666L409.643,92.666L409.643,105.112L407.756,105.112Z" style="fill:#fff;fill-rule:nonzero;"/>
                <path d="M419.554,105.112L419.554,94.295L415.57,94.295L415.57,105.112L413.461,105.112L413.461,94.295L411.586,94.295L411.586,92.666L413.461,92.666L413.461,91.459C413.461,90.225 413.726,89.279 414.257,88.623C414.789,87.967 415.629,87.639 416.777,87.639C417.535,87.639 418.25,87.729 418.921,87.908L418.593,89.69C418.179,89.619 417.8,89.584 417.457,89.584C416.73,89.584 416.234,89.729 415.968,90.018C415.703,90.307 415.57,90.92 415.57,91.858L415.57,92.666L419.554,92.666L419.554,91.459C419.554,90.225 419.82,89.279 420.351,88.623C420.882,87.967 421.722,87.639 422.871,87.639C423.629,87.639 424.343,87.729 425.015,87.908L424.687,89.69C424.273,89.619 423.894,89.584 423.55,89.584C422.824,89.584 422.328,89.729 422.062,90.018C421.796,90.307 421.664,90.92 421.664,91.858L421.664,92.666L424.078,92.666L424.078,94.295L421.664,94.295L421.664,105.112L419.554,105.112Z" style="fill:#fff;fill-rule:nonzero;"/>
                <path d="M434.282,101.104L436.462,101.373C436.118,102.647 435.481,103.635 434.552,104.338C433.622,105.041 432.435,105.393 430.989,105.393C429.169,105.393 427.726,104.832 426.659,103.711C425.593,102.59 425.06,101.018 425.06,98.994C425.06,96.901 425.599,95.276 426.677,94.119C427.755,92.963 429.153,92.385 430.872,92.385C432.536,92.385 433.895,92.951 434.95,94.084C436.005,95.217 436.532,96.811 436.532,98.865C436.532,98.99 436.528,99.178 436.52,99.428L427.239,99.428C427.317,100.795 427.704,101.842 428.399,102.569C429.095,103.295 429.962,103.658 431.001,103.658C431.774,103.658 432.435,103.455 432.981,103.049C433.528,102.643 433.962,101.994 434.282,101.104ZM427.356,97.694L434.306,97.694C434.212,96.647 433.946,95.862 433.509,95.338C432.837,94.526 431.966,94.119 430.895,94.119C429.927,94.119 429.112,94.444 428.452,95.092C427.792,95.74 427.427,96.608 427.356,97.694Z" style="fill:#fff;fill-rule:nonzero;"/>
                <path d="M439.084,105.112L439.084,92.666L440.983,92.666L440.983,94.553C441.467,93.67 441.914,93.088 442.325,92.807C442.735,92.526 443.186,92.385 443.678,92.385C444.389,92.385 445.112,92.612 445.846,93.065L445.119,95.022C444.604,94.717 444.088,94.565 443.573,94.565C443.112,94.565 442.698,94.703 442.33,94.981C441.963,95.258 441.701,95.643 441.545,96.135C441.311,96.885 441.194,97.705 441.194,98.596L441.194,105.112L439.084,105.112Z" style="fill:#fff;fill-rule:nonzero;"/>
                <path d="M369.585,287.044L369.585,253.652L369.585,287.044Z" style="fill:#fff;fill-rule:nonzero;"/>
            </g>
        </g>
    </g>
</svg>
