<?xml version="1.0" encoding="utf-8"?>
<!-- Generator: Adobe Illustrator 24.0.1, SVG Export Plug-In . SVG Version: 6.00 Build 0)  -->
<svg version="1.1" id="Layer_1" xmlns="http://www.w3.org/2000/svg" xmlns:xlink="http://www.w3.org/1999/xlink" x="0px" y="0px"
	 viewBox="0 0 960 480" style="enable-background:new 0 0 960 480;" xml:space="preserve">
<style type="text/css">
	.st0{fill:#333333;}
	.st1{fill:url(#SVGID_1_);}
	.st2{fill:url(#SVGID_2_);}
	.st3{opacity:0.1;}
	.st4{fill:#FFFFFF;}
	.st5{fill:#881280;}
	.st6{fill:#737373;}
	.st7{opacity:0.5;fill:#75AEE4;}
</style>
<g>
	<path class="st0" d="M160,435.1V84.6h640v350.5H160z"/>
	
		<linearGradient id="SVGID_1_" gradientUnits="userSpaceOnUse" x1="352.4" y1="-850.1261" x2="607.6" y2="-850.1261" gradientTransform="matrix(1 0 0 -1 0 -594.2522)">
		<stop  offset="0" style="stop-color:#00FF00"/>
		<stop  offset="1" style="stop-color:#FF0000"/>
	</linearGradient>
	<polygon class="st1" points="480,146.4 607.6,365.3 352.4,365.3 	"/>
	
		<linearGradient id="SVGID_2_" gradientUnits="userSpaceOnUse" x1="480" y1="-959.5761" x2="480" y2="-740.6761" gradientTransform="matrix(1 0 0 -1 0 -594.2522)">
		<stop  offset="0" style="stop-color:#0000FF;stop-opacity:0"/>
		<stop  offset="1" style="stop-color:#0000FF"/>
	</linearGradient>
	<polygon class="st2" points="480,146.4 607.6,365.3 352.4,365.3 	"/>
</g>
<path class="st3" d="M285,46.9H166c-2.2,0-4,1.8-4,4v19c0,2.2,1.8,4,4,4h5.8l7.7,9l7.7-9H285c2.2,0,4-1.8,4-4v-19
	C289,48.7,287.2,46.9,285,46.9z"/>
<path class="st4" d="M285,44.9H166c-2.2,0-4,1.8-4,4v19c0,2.2,1.8,4,4,4h5.8l7.7,9l7.7-9H285c2.2,0,4-1.8,4-4v-19
	C289,46.7,287.2,44.9,285,44.9z"/>
<g>
	<path class="st5" d="M175.8,63.5c-0.5,0.3-1.1,0.4-2,0.4c-1,0-1.8-0.3-2.4-0.9s-0.9-1.4-0.9-2.3c0-1.1,0.3-2,1-2.6
		c0.7-0.6,1.5-1,2.7-1c0.8,0,1.3,0.1,1.7,0.3v1.7c-0.4-0.3-0.9-0.5-1.4-0.5c-0.6,0-1,0.2-1.4,0.5c-0.3,0.3-0.5,0.8-0.5,1.4
		c0,0.6,0.2,1,0.5,1.4c0.3,0.3,0.8,0.5,1.3,0.5c0.5,0,1-0.2,1.5-0.5V63.5z"/>
	<path class="st5" d="M182.5,63.7h-1.9v-0.9h0c-0.4,0.7-1.1,1.1-1.9,1.1c-0.6,0-1.1-0.2-1.5-0.5c-0.4-0.4-0.5-0.8-0.5-1.4
		c0-1.3,0.7-2,2.2-2.2l1.8-0.2c0-0.7-0.4-1.1-1.2-1.1c-0.8,0-1.5,0.2-2.2,0.7v-1.5c0.3-0.1,0.7-0.3,1.1-0.4c0.5-0.1,0.9-0.2,1.3-0.2
		c1.9,0,2.8,0.9,2.8,2.8V63.7z M180.6,61.1v-0.4l-1.2,0.2c-0.7,0.1-1,0.4-1,0.9c0,0.2,0.1,0.4,0.2,0.6c0.2,0.1,0.4,0.2,0.6,0.2
		c0.4,0,0.7-0.1,0.9-0.4C180.5,61.8,180.6,61.5,180.6,61.1z"/>
	<path class="st5" d="M190.4,63.7h-2v-3.6c0-1-0.4-1.5-1.1-1.5c-0.3,0-0.6,0.1-0.9,0.4s-0.3,0.6-0.3,1v3.7h-2v-6.5h2v1h0
		c0.5-0.8,1.2-1.2,2.1-1.2c1.4,0,2.2,0.9,2.2,2.7V63.7z"/>
	<path class="st5" d="M198.1,57.2l-2.4,6.5h-2.3l-2.3-6.5h2.1l1.1,4c0.1,0.5,0.2,0.8,0.2,1.2h0c0-0.3,0.1-0.7,0.2-1.1l1.2-4H198.1z"
		/>
	<path class="st5" d="M204.2,63.7h-1.9v-0.9h0c-0.4,0.7-1.1,1.1-1.9,1.1c-0.6,0-1.1-0.2-1.5-0.5c-0.4-0.4-0.5-0.8-0.5-1.4
		c0-1.3,0.7-2,2.2-2.2l1.8-0.2c0-0.7-0.4-1.1-1.2-1.1c-0.8,0-1.5,0.2-2.2,0.7v-1.5c0.3-0.1,0.7-0.3,1.1-0.4c0.5-0.1,0.9-0.2,1.3-0.2
		c1.9,0,2.8,0.9,2.8,2.8V63.7z M202.3,61.1v-0.4l-1.2,0.2c-0.7,0.1-1,0.4-1,0.9c0,0.2,0.1,0.4,0.2,0.6c0.2,0.1,0.4,0.2,0.6,0.2
		c0.4,0,0.7-0.1,0.9-0.4C202.2,61.8,202.3,61.5,202.3,61.1z"/>
	<path class="st5" d="M205.4,63.5v-1.6c0.3,0.2,0.7,0.3,1,0.4c0.3,0.1,0.6,0.1,0.9,0.1c0.4,0,0.6,0,0.8-0.1c0.2-0.1,0.3-0.2,0.3-0.4
		c0-0.1,0-0.2-0.1-0.3s-0.2-0.2-0.4-0.2c-0.1-0.1-0.3-0.1-0.5-0.2s-0.3-0.1-0.5-0.2c-0.3-0.1-0.5-0.2-0.7-0.3
		c-0.2-0.1-0.4-0.2-0.5-0.4c-0.1-0.1-0.2-0.3-0.3-0.5c-0.1-0.2-0.1-0.4-0.1-0.7c0-0.4,0.1-0.7,0.2-0.9c0.2-0.3,0.4-0.5,0.6-0.6
		c0.3-0.2,0.6-0.3,0.9-0.4c0.3-0.1,0.7-0.1,1.1-0.1c0.3,0,0.6,0,0.9,0.1c0.3,0,0.6,0.1,0.9,0.2v1.5c-0.3-0.1-0.5-0.3-0.8-0.3
		c-0.3-0.1-0.6-0.1-0.9-0.1c-0.1,0-0.3,0-0.4,0c-0.1,0-0.2,0.1-0.3,0.1c-0.1,0-0.2,0.1-0.2,0.2c-0.1,0.1-0.1,0.1-0.1,0.2
		c0,0.1,0,0.2,0.1,0.3s0.2,0.2,0.3,0.2c0.1,0.1,0.3,0.1,0.4,0.2c0.2,0,0.3,0.1,0.4,0.1c0.3,0.1,0.5,0.2,0.7,0.3s0.4,0.2,0.6,0.4
		c0.2,0.1,0.3,0.3,0.4,0.5c0.1,0.2,0.1,0.4,0.1,0.7c0,0.4-0.1,0.7-0.3,1c-0.2,0.3-0.4,0.5-0.7,0.7c-0.3,0.2-0.6,0.3-1,0.4
		c-0.4,0.1-0.7,0.1-1.1,0.1C206.6,63.9,206,63.8,205.4,63.5z"/>
</g>
<g>
	<g>
		<path class="st6" d="M227,61.2c0,0.4-0.1,0.9-0.2,1.2c-0.1,0.4-0.3,0.7-0.6,1c-0.2,0.3-0.5,0.5-0.9,0.6c-0.3,0.2-0.7,0.2-1.1,0.2
			c-0.4,0-0.8-0.1-1.2-0.3c-0.3-0.2-0.6-0.5-0.9-0.8c-0.2-0.4-0.4-0.8-0.5-1.3s-0.2-1.1-0.2-1.8c0-0.8,0.1-1.5,0.3-2.2
			c0.2-0.6,0.4-1.2,0.7-1.7c0.3-0.5,0.7-0.8,1.1-1.1c0.4-0.2,1-0.4,1.5-0.4s1,0.1,1.4,0.2v0.8c-0.4-0.2-0.9-0.3-1.4-0.3
			c-0.4,0-0.8,0.1-1.2,0.3c-0.3,0.2-0.6,0.5-0.9,0.9s-0.4,0.8-0.6,1.3c-0.1,0.5-0.2,1.1-0.2,1.7h0c0.4-0.9,1.2-1.3,2.2-1.3
			c0.4,0,0.7,0.1,1,0.2c0.3,0.1,0.6,0.3,0.8,0.6c0.2,0.2,0.4,0.5,0.5,0.9C226.9,60.4,227,60.7,227,61.2z M226.2,61.3
			c0-0.3,0-0.6-0.1-0.9c-0.1-0.3-0.2-0.5-0.4-0.7c-0.2-0.2-0.4-0.3-0.6-0.4s-0.5-0.2-0.8-0.2c-0.3,0-0.5,0.1-0.8,0.2
			c-0.2,0.1-0.4,0.3-0.6,0.4s-0.3,0.4-0.4,0.6s-0.1,0.5-0.1,0.8c0,0.3,0,0.6,0.1,0.9c0.1,0.3,0.2,0.6,0.4,0.8s0.4,0.4,0.6,0.5
			c0.2,0.1,0.5,0.2,0.8,0.2c0.3,0,0.5-0.1,0.8-0.2s0.4-0.3,0.6-0.5c0.2-0.2,0.3-0.4,0.4-0.7C226.1,61.9,226.2,61.6,226.2,61.3z"/>
		<path class="st6" d="M232.9,54.9V61h1.4v0.7h-1.4V64h-0.8v-2.3h-4.3V61c0.4-0.5,0.8-0.9,1.2-1.5c0.4-0.5,0.8-1,1.2-1.6
			c0.4-0.5,0.7-1.1,1-1.6c0.3-0.5,0.6-1,0.8-1.5H232.9z M232.1,61v-4.8c-0.3,0.5-0.6,1-0.9,1.5c-0.3,0.5-0.6,0.9-0.9,1.3
			c-0.3,0.4-0.6,0.8-0.8,1.1c-0.3,0.3-0.5,0.6-0.7,0.9H232.1z"/>
		<path class="st6" d="M238,64.2c-0.4,0-0.8-0.1-1.2-0.3s-0.6-0.5-0.9-0.9c-0.2-0.4-0.4-0.8-0.5-1.4c-0.1-0.6-0.2-1.2-0.2-1.9
			c0-1.6,0.3-2.8,0.8-3.7c0.5-0.8,1.2-1.2,2.2-1.2c1.8,0,2.7,1.6,2.7,4.7c0,0.8-0.1,1.4-0.2,2s-0.3,1.1-0.6,1.5
			c-0.3,0.4-0.6,0.7-0.9,0.9C238.9,64.1,238.5,64.2,238,64.2z M238.1,55.5c-0.7,0-1.2,0.3-1.5,1s-0.5,1.7-0.5,3.1
			c0,1.3,0.2,2.2,0.5,2.9c0.3,0.7,0.8,1,1.5,1c0.3,0,0.6-0.1,0.9-0.3c0.3-0.2,0.5-0.4,0.6-0.8c0.2-0.3,0.3-0.7,0.4-1.2
			c0.1-0.5,0.1-1.1,0.1-1.7C240.1,56.8,239.4,55.5,238.1,55.5z"/>
		<path class="st6" d="M251.5,62.9l-2.1-2.1l-2.1,2.1l-0.5-0.5l2.1-2.1l-2.1-2.1l0.5-0.5l2.1,2.1l2.1-2.1l0.5,0.5l-2.1,2.1l2.1,2.1
			L251.5,62.9z"/>
		<path class="st6" d="M258.1,62.8c0.7,0.5,1.3,0.7,2,0.7c0.3,0,0.6,0,0.8-0.1s0.5-0.2,0.7-0.3c0.2-0.2,0.4-0.4,0.5-0.6
			c0.1-0.2,0.2-0.5,0.2-0.9c0-0.6-0.2-1.1-0.7-1.4c-0.4-0.3-1.1-0.5-2-0.5H259V59h0.7c0.8,0,1.4-0.2,1.8-0.5
			c0.4-0.3,0.6-0.8,0.6-1.4c0-0.5-0.1-0.9-0.4-1.2c-0.3-0.3-0.7-0.4-1.3-0.4c-0.6,0-1.2,0.2-1.8,0.6v-0.8c0.6-0.3,1.3-0.5,2-0.5
			c0.3,0,0.6,0,0.9,0.1s0.6,0.2,0.8,0.4c0.2,0.2,0.4,0.4,0.5,0.7c0.1,0.3,0.2,0.6,0.2,0.9c0,1.2-0.6,2-1.8,2.3v0
			c0.3,0,0.6,0.1,0.8,0.2c0.3,0.1,0.5,0.3,0.7,0.5c0.2,0.2,0.3,0.4,0.5,0.7c0.1,0.3,0.2,0.6,0.2,0.9c0,0.4-0.1,0.8-0.2,1.1
			s-0.4,0.6-0.7,0.8s-0.6,0.4-1,0.5c-0.4,0.1-0.8,0.2-1.2,0.2c-0.8,0-1.4-0.2-2-0.5V62.8z"/>
		<path class="st6" d="M270.5,61.2c0,0.4-0.1,0.9-0.2,1.2c-0.1,0.4-0.3,0.7-0.6,1c-0.2,0.3-0.5,0.5-0.9,0.6
			c-0.3,0.2-0.7,0.2-1.1,0.2c-0.4,0-0.8-0.1-1.2-0.3c-0.3-0.2-0.6-0.5-0.9-0.8c-0.2-0.4-0.4-0.8-0.5-1.3s-0.2-1.1-0.2-1.8
			c0-0.8,0.1-1.5,0.3-2.2c0.2-0.6,0.4-1.2,0.7-1.7c0.3-0.5,0.7-0.8,1.1-1.1c0.4-0.2,1-0.4,1.5-0.4s1,0.1,1.4,0.2v0.8
			c-0.4-0.2-0.9-0.3-1.4-0.3c-0.4,0-0.8,0.1-1.2,0.3c-0.3,0.2-0.6,0.5-0.9,0.9s-0.4,0.8-0.6,1.3c-0.1,0.5-0.2,1.1-0.2,1.7h0
			c0.4-0.9,1.2-1.3,2.2-1.3c0.4,0,0.7,0.1,1,0.2c0.3,0.1,0.6,0.3,0.8,0.6c0.2,0.2,0.4,0.5,0.5,0.9C270.4,60.4,270.5,60.7,270.5,61.2
			z M269.6,61.3c0-0.3,0-0.6-0.1-0.9c-0.1-0.3-0.2-0.5-0.4-0.7c-0.2-0.2-0.4-0.3-0.6-0.4s-0.5-0.2-0.8-0.2c-0.3,0-0.5,0.1-0.8,0.2
			c-0.2,0.1-0.4,0.3-0.6,0.4s-0.3,0.4-0.4,0.6s-0.1,0.5-0.1,0.8c0,0.3,0,0.6,0.1,0.9c0.1,0.3,0.2,0.6,0.4,0.8s0.4,0.4,0.6,0.5
			c0.2,0.1,0.5,0.2,0.8,0.2c0.3,0,0.5-0.1,0.8-0.2s0.4-0.3,0.6-0.5c0.2-0.2,0.3-0.4,0.4-0.7C269.6,61.9,269.6,61.6,269.6,61.3z"/>
		<path class="st6" d="M274.3,64.2c-0.4,0-0.8-0.1-1.2-0.3s-0.6-0.5-0.9-0.9c-0.2-0.4-0.4-0.8-0.5-1.4c-0.1-0.6-0.2-1.2-0.2-1.9
			c0-1.6,0.3-2.8,0.8-3.7c0.5-0.8,1.2-1.2,2.2-1.2c1.8,0,2.7,1.6,2.7,4.7c0,0.8-0.1,1.4-0.2,2s-0.3,1.1-0.6,1.5
			c-0.3,0.4-0.6,0.7-0.9,0.9C275.2,64.1,274.8,64.2,274.3,64.2z M274.5,55.5c-0.7,0-1.2,0.3-1.5,1s-0.5,1.7-0.5,3.1
			c0,1.3,0.2,2.2,0.5,2.9c0.3,0.7,0.8,1,1.5,1c0.3,0,0.6-0.1,0.9-0.3c0.3-0.2,0.5-0.4,0.6-0.8c0.2-0.3,0.3-0.7,0.4-1.2
			c0.1-0.5,0.1-1.1,0.1-1.7C276.4,56.8,275.8,55.5,274.5,55.5z"/>
	</g>
</g>
<path class="st7" d="M160,435.1V84.6h640v350.5H160z"/>
<g>
</g>
<g>
</g>
<g>
</g>
<g>
</g>
<g>
</g>
<g>
</g>
<g>
</g>
<g>
</g>
<g>
</g>
<g>
</g>
<g>
</g>
<g>
</g>
<g>
</g>
<g>
</g>
<g>
</g>
</svg>
