<?xml version="1.0" encoding="utf-8"?>
<!-- Generator: Adobe Illustrator 24.0.1, SVG Export Plug-In . SVG Version: 6.00 Build 0)  -->
<svg version="1.1" xmlns="http://www.w3.org/2000/svg" xmlns:xlink="http://www.w3.org/1999/xlink" x="0px" y="0px"
	 viewBox="0 0 1151.6 704" style="enable-background:new 0 0 1151.6 704;" xml:space="preserve">
<style type="text/css">
	.st0{fill:#DCDCDC;}
	.st1{fill:#5BE02B;}
	.st2{fill:#2B2EE1;}
	.st3{fill:#E32B2E;}
	.st4{opacity:0.1;fill-rule:evenodd;clip-rule:evenodd;enable-background:new    ;}
	.st5{opacity:0.2;fill-rule:evenodd;clip-rule:evenodd;enable-background:new    ;}
	.st6{fill:#FFFFFF;}
	.st7{fill-rule:evenodd;clip-rule:evenodd;fill:none;stroke:#FFFFFF;stroke-width:4;stroke-miterlimit:10;stroke-dasharray:12;}
	.st8{fill-rule:evenodd;clip-rule:evenodd;fill:#46CCCC;}
	.st9{fill-rule:evenodd;clip-rule:evenodd;fill:#369ACC;}
	.st10{fill-rule:evenodd;clip-rule:evenodd;fill:#3366CC;}
	.st11{fill-rule:evenodd;clip-rule:evenodd;fill:none;stroke:#4BB2E0;stroke-width:4;stroke-miterlimit:10;}
	.st12{fill-rule:evenodd;clip-rule:evenodd;fill:#FFFFFF;stroke:#4BB2E0;stroke-width:4;stroke-miterlimit:10;stroke-dasharray:12;}
</style>
<g id="Layer_1" xmlns:serif="http://www.serif.com/">
	<g id="Root">
		<g id="Layer-9" serif:id="Layer 9">
			<path class="st0" d="M815.6,128h-128l64-96L815.6,128z"/>
			<path class="st1" d="M751.6,32l-32,48h64L751.6,32z"/>
			<path class="st2" d="M783.6,80l-32,48h64L783.6,80z"/>
			<path class="st3" d="M719.6,80l-32,48h64L719.6,80z"/>
		</g>
	</g>
	<g>
		<g>
			<rect x="575.6" y="160" class="st4" width="352" height="496"/>
			<rect x="575.6" y="464" class="st5" width="352" height="64"/>
			<rect x="575.6" y="208" class="st5" width="352" height="64"/>
			<rect x="575.6" y="336" class="st5" width="352" height="64"/>
			<rect x="575.6" y="596" class="st5" width="352" height="64"/>
		</g>
		<g>
			<path class="st6" d="M680.9,243.7c0-0.3-0.1-0.5-0.2-0.7s-0.3-0.4-0.5-0.6s-0.6-0.3-1-0.5s-0.9-0.3-1.5-0.4
				c-0.7-0.1-1.4-0.3-2-0.5s-1.1-0.5-1.5-0.8s-0.8-0.6-1-1s-0.4-0.9-0.4-1.4c0-0.5,0.1-1,0.4-1.4s0.6-0.8,1-1.2s1-0.6,1.6-0.8
				s1.3-0.3,2-0.3c0.8,0,1.5,0.1,2.1,0.3s1.2,0.5,1.6,0.8s0.8,0.8,1,1.3s0.4,1,0.4,1.6h-2.2c0-0.3-0.1-0.5-0.2-0.8s-0.3-0.5-0.6-0.7
				s-0.6-0.4-0.9-0.5s-0.8-0.2-1.2-0.2c-0.5,0-0.9,0.1-1.2,0.2s-0.6,0.2-0.9,0.4s-0.4,0.4-0.5,0.6s-0.2,0.5-0.2,0.7
				c0,0.3,0,0.5,0.1,0.7s0.3,0.4,0.5,0.5s0.5,0.3,0.9,0.4s0.9,0.2,1.5,0.4c0.8,0.2,1.5,0.4,2.1,0.6s1.1,0.5,1.6,0.8s0.7,0.7,1,1
				s0.3,0.9,0.3,1.4c0,0.6-0.1,1.1-0.4,1.5s-0.6,0.9-1.1,1.2s-1,0.6-1.6,0.8s-1.3,0.3-2.1,0.3c-0.9,0-1.6-0.1-2.3-0.3
				s-1.2-0.5-1.7-0.9s-0.8-0.8-1.1-1.3s-0.4-1-0.4-1.6h2.2c0,0.4,0.2,0.8,0.4,1.1s0.5,0.6,0.8,0.7s0.7,0.3,1,0.4s0.7,0.1,1.1,0.1
				c0.9,0,1.6-0.2,2.2-0.5S680.8,244.2,680.9,243.7z"/>
			<path class="st6" d="M692.4,247.2c-0.9,0-1.7-0.2-2.5-0.5s-1.4-0.7-1.9-1.3s-0.9-1.2-1.2-1.9s-0.4-1.6-0.4-2.4v-0.5
				c0-1,0.2-1.9,0.5-2.7s0.8-1.5,1.3-2.1s1.2-1,1.9-1.3s1.4-0.4,2.1-0.4c0.9,0,1.7,0.2,2.4,0.5s1.3,0.8,1.7,1.3s0.8,1.2,1,2
				s0.3,1.6,0.3,2.5v1h-9.1c0,0.6,0.1,1.1,0.3,1.6s0.5,1,0.8,1.3s0.8,0.7,1.2,0.9s1,0.3,1.6,0.3c0.8,0,1.5-0.2,2.1-0.5
				s1.1-0.7,1.5-1.2l1.3,1c-0.2,0.3-0.5,0.6-0.8,0.9s-0.7,0.6-1.1,0.8s-0.9,0.4-1.4,0.5S693.1,247.2,692.4,247.2z M692.2,235.9
				c-0.4,0-0.9,0.1-1.2,0.2s-0.7,0.4-1.1,0.7s-0.6,0.7-0.8,1.1s-0.4,1-0.5,1.6h6.8v-0.2c0-0.4-0.1-0.8-0.2-1.3s-0.3-0.8-0.6-1.1
				s-0.6-0.6-1-0.8S692.7,235.9,692.2,235.9z"/>
			<path class="st6" d="M706.4,231.3v3.1h4.8v1.7h-4.8v6.9c0,0.5,0.1,0.9,0.2,1.2s0.3,0.6,0.5,0.8s0.5,0.3,0.8,0.4s0.6,0.1,0.9,0.1
				c0.2,0,0.5,0,0.7,0s0.5-0.1,0.7-0.1s0.5-0.1,0.7-0.1s0.4-0.1,0.5-0.1l0.3,1.5c-0.2,0.1-0.4,0.2-0.7,0.3s-0.5,0.2-0.8,0.2
				s-0.6,0.1-1,0.1s-0.7,0-1,0c-0.6,0-1.1-0.1-1.6-0.2s-0.9-0.4-1.3-0.8s-0.6-0.8-0.8-1.3s-0.3-1.2-0.3-2V236h-3.3v-1.7h3.3v-3.1
				H706.4z"/>
			<path class="st6" d="M718,240.2v6.8h-2.2V230h5.5c0.8,0,1.5,0.1,2.2,0.4s1.3,0.6,1.8,1s0.9,1,1.2,1.6s0.5,1.4,0.5,2.2
				s-0.2,1.5-0.5,2.2s-0.7,1.2-1.2,1.6s-1.1,0.8-1.8,1s-1.4,0.3-2.2,0.4H718z M718,238.4h3.4c0.5,0,1-0.1,1.4-0.2s0.8-0.4,1.1-0.7
				s0.6-0.6,0.7-1s0.3-0.9,0.3-1.4s-0.1-1-0.3-1.4s-0.4-0.8-0.7-1.1s-0.7-0.5-1.1-0.7s-0.9-0.2-1.4-0.2H718V238.4z"/>
			<path class="st6" d="M730.4,234.3h6.5v10.8h4.1v1.9h-10.6v-1.9h4.3v-8.9h-4.3V234.3z M734.4,231c0-0.4,0.1-0.7,0.3-0.9
				s0.5-0.4,1-0.4c0.4,0,0.8,0.1,1,0.4s0.3,0.5,0.3,0.9c0,0.4-0.1,0.6-0.3,0.9s-0.5,0.4-1,0.4c-0.4,0-0.8-0.1-1-0.4
				S734.4,231.4,734.4,231z"/>
			<path class="st6" d="M755.1,240.8c0,0.9-0.1,1.8-0.3,2.5s-0.5,1.5-1,2s-0.9,1-1.6,1.4s-1.3,0.5-2.1,0.5c-0.8,0-1.5-0.1-2-0.4
				s-1.1-0.6-1.5-1.1v6.1h-2.2v-17.6h2l0.1,1.4c0.4-0.5,0.9-0.9,1.5-1.2s1.3-0.4,2.1-0.4c0.8,0,1.5,0.2,2.2,0.5s1.1,0.8,1.6,1.3
				s0.7,1.3,1,2s0.3,1.7,0.3,2.6V240.8z M753,240.6c0-0.6-0.1-1.2-0.2-1.8s-0.3-1.1-0.6-1.5s-0.6-0.8-1.1-1s-1-0.4-1.6-0.4
				c-0.7,0-1.3,0.2-1.8,0.5s-0.8,0.7-1.1,1.2v6.1c0.3,0.5,0.7,0.9,1.1,1.2s1.1,0.5,1.8,0.5c0.6,0,1.1-0.1,1.6-0.4s0.8-0.6,1.1-1
				s0.5-0.9,0.6-1.5s0.2-1.2,0.2-1.8V240.6z"/>
			<path class="st6" d="M764.4,247.2c-0.9,0-1.7-0.2-2.5-0.5s-1.4-0.7-1.9-1.3s-0.9-1.2-1.2-1.9s-0.4-1.6-0.4-2.4v-0.5
				c0-1,0.2-1.9,0.5-2.7s0.8-1.5,1.3-2.1s1.2-1,1.9-1.3s1.4-0.4,2.1-0.4c0.9,0,1.7,0.2,2.4,0.5s1.3,0.8,1.7,1.3s0.8,1.2,1,2
				s0.3,1.6,0.3,2.5v1h-9.1c0,0.6,0.1,1.1,0.3,1.6s0.5,1,0.8,1.3s0.8,0.7,1.2,0.9s1,0.3,1.6,0.3c0.8,0,1.5-0.2,2.1-0.5
				s1.1-0.7,1.5-1.2l1.3,1c-0.2,0.3-0.5,0.6-0.8,0.9s-0.7,0.6-1.1,0.8s-0.9,0.4-1.4,0.5S765.1,247.2,764.4,247.2z M764.2,235.9
				c-0.4,0-0.9,0.1-1.2,0.2s-0.7,0.4-1.1,0.7s-0.6,0.7-0.8,1.1s-0.4,1-0.5,1.6h6.8v-0.2c0-0.4-0.1-0.8-0.2-1.3s-0.3-0.8-0.6-1.1
				s-0.6-0.6-1-0.8S764.7,235.9,764.2,235.9z"/>
			<path class="st6" d="M773.6,229h6.5v16.1h4.1v1.9h-10.6v-1.9h4.3v-14.2h-4.3V229z"/>
			<path class="st6" d="M788,234.3h6.5v10.8h4.1v1.9H788v-1.9h4.3v-8.9H788V234.3z M792,231c0-0.4,0.1-0.7,0.3-0.9s0.5-0.4,1-0.4
				c0.4,0,0.8,0.1,1,0.4s0.3,0.5,0.3,0.9c0,0.4-0.1,0.6-0.3,0.9s-0.5,0.4-1,0.4c-0.4,0-0.8-0.1-1-0.4S792,231.4,792,231z"/>
			<path class="st6" d="M804,234.3l0.2,1.9c0.5-0.7,1-1.2,1.7-1.5s1.4-0.6,2.3-0.6c0.7,0,1.3,0.1,1.8,0.3s1,0.5,1.4,0.9
				s0.7,0.9,0.9,1.5s0.3,1.3,0.3,2.2v8.1h-2.2v-8c0-0.6-0.1-1-0.2-1.4s-0.3-0.7-0.6-0.9s-0.5-0.4-0.9-0.5s-0.8-0.2-1.2-0.2
				c-0.7,0-1.4,0.2-1.9,0.5s-1,0.8-1.3,1.4v9.1h-2.2v-12.7H804z"/>
			<path class="st6" d="M822.1,247.2c-0.9,0-1.7-0.2-2.5-0.5s-1.4-0.7-1.9-1.3s-0.9-1.2-1.2-1.9s-0.4-1.6-0.4-2.4v-0.5
				c0-1,0.2-1.9,0.5-2.7s0.8-1.5,1.3-2.1s1.2-1,1.9-1.3s1.4-0.4,2.1-0.4c0.9,0,1.7,0.2,2.4,0.5s1.3,0.8,1.7,1.3s0.8,1.2,1,2
				s0.3,1.6,0.3,2.5v1h-9.1c0,0.6,0.1,1.1,0.3,1.6s0.5,1,0.8,1.3s0.8,0.7,1.2,0.9s1,0.3,1.6,0.3c0.8,0,1.5-0.2,2.1-0.5
				s1.1-0.7,1.5-1.2l1.3,1c-0.2,0.3-0.5,0.6-0.8,0.9s-0.7,0.6-1.1,0.8s-0.9,0.4-1.4,0.5S822.7,247.2,822.1,247.2z M821.8,235.9
				c-0.4,0-0.9,0.1-1.2,0.2s-0.7,0.4-1.1,0.7s-0.6,0.7-0.8,1.1s-0.4,1-0.5,1.6h6.8v-0.2c0-0.4-0.1-0.8-0.2-1.3s-0.3-0.8-0.6-1.1
				s-0.6-0.6-1-0.8S822.3,235.9,821.8,235.9z"/>
			<path class="st6" d="M680.9,308.5c0-0.3-0.1-0.5-0.2-0.7s-0.3-0.4-0.5-0.6s-0.6-0.3-1-0.5s-0.9-0.3-1.5-0.4
				c-0.7-0.1-1.4-0.3-2-0.5s-1.1-0.5-1.5-0.8s-0.8-0.6-1-1s-0.4-0.9-0.4-1.4c0-0.5,0.1-1,0.4-1.4s0.6-0.8,1-1.2s1-0.6,1.6-0.8
				s1.3-0.3,2-0.3c0.8,0,1.5,0.1,2.1,0.3s1.2,0.5,1.6,0.8s0.8,0.8,1,1.3s0.4,1,0.4,1.6h-2.2c0-0.3-0.1-0.5-0.2-0.8s-0.3-0.5-0.6-0.7
				s-0.6-0.4-0.9-0.5s-0.8-0.2-1.2-0.2c-0.5,0-0.9,0.1-1.2,0.2s-0.6,0.2-0.9,0.4s-0.4,0.4-0.5,0.6s-0.2,0.5-0.2,0.7
				c0,0.3,0,0.5,0.1,0.7s0.3,0.4,0.5,0.5s0.5,0.3,0.9,0.4s0.9,0.2,1.5,0.4c0.8,0.2,1.5,0.4,2.1,0.6s1.1,0.5,1.6,0.8s0.7,0.7,1,1
				s0.3,0.9,0.3,1.4c0,0.6-0.1,1.1-0.4,1.5s-0.6,0.9-1.1,1.2s-1,0.6-1.6,0.8s-1.3,0.3-2.1,0.3c-0.9,0-1.6-0.1-2.3-0.3
				s-1.2-0.5-1.7-0.9s-0.8-0.8-1.1-1.3s-0.4-1-0.4-1.6h2.2c0,0.4,0.2,0.8,0.4,1.1s0.5,0.6,0.8,0.7s0.7,0.3,1,0.4s0.7,0.1,1.1,0.1
				c0.9,0,1.6-0.2,2.2-0.5S680.8,309,680.9,308.5z"/>
			<path class="st6" d="M692.4,312c-0.9,0-1.7-0.2-2.5-0.5s-1.4-0.7-1.9-1.3s-0.9-1.2-1.2-1.9s-0.4-1.6-0.4-2.4v-0.5
				c0-1,0.2-1.9,0.5-2.7s0.8-1.5,1.3-2.1s1.2-1,1.9-1.3s1.4-0.4,2.1-0.4c0.9,0,1.7,0.2,2.4,0.5s1.3,0.8,1.7,1.3s0.8,1.2,1,2
				s0.3,1.6,0.3,2.5v1h-9.1c0,0.6,0.1,1.1,0.3,1.6s0.5,1,0.8,1.3s0.8,0.7,1.2,0.9s1,0.3,1.6,0.3c0.8,0,1.5-0.2,2.1-0.5
				s1.1-0.7,1.5-1.2l1.3,1c-0.2,0.3-0.5,0.6-0.8,0.9s-0.7,0.6-1.1,0.8s-0.9,0.4-1.4,0.5S693.1,312,692.4,312z M692.2,300.7
				c-0.4,0-0.9,0.1-1.2,0.2s-0.7,0.4-1.1,0.7s-0.6,0.7-0.8,1.1s-0.4,1-0.5,1.6h6.8v-0.2c0-0.4-0.1-0.8-0.2-1.3s-0.3-0.8-0.6-1.1
				s-0.6-0.6-1-0.8S692.7,300.7,692.2,300.7z"/>
			<path class="st6" d="M706.4,296.1v3.1h4.8v1.7h-4.8v6.9c0,0.5,0.1,0.9,0.2,1.2s0.3,0.6,0.5,0.8s0.5,0.3,0.8,0.4s0.6,0.1,0.9,0.1
				c0.2,0,0.5,0,0.7,0s0.5-0.1,0.7-0.1s0.5-0.1,0.7-0.1s0.4-0.1,0.5-0.1l0.3,1.5c-0.2,0.1-0.4,0.2-0.7,0.3s-0.5,0.2-0.8,0.2
				s-0.6,0.1-1,0.1s-0.7,0-1,0c-0.6,0-1.1-0.1-1.6-0.2s-0.9-0.4-1.3-0.8s-0.6-0.8-0.8-1.3s-0.3-1.2-0.3-2v-6.9h-3.3v-1.7h3.3v-3.1
				H706.4z"/>
			<path class="st6" d="M720.7,308.3l4-13.6h2.3l-5.4,17.1h-1.9l-5.4-17.1h2.3L720.7,308.3z"/>
			<path class="st6" d="M730.4,299.1h6.5v10.8h4.1v1.9h-10.6v-1.9h4.3V301h-4.3V299.1z M734.4,295.8c0-0.4,0.1-0.7,0.3-0.9
				s0.5-0.4,1-0.4c0.4,0,0.8,0.1,1,0.4s0.3,0.5,0.3,0.9c0,0.4-0.1,0.6-0.3,0.9s-0.5,0.4-1,0.4c-0.4,0-0.8-0.1-1-0.4
				S734.4,296.2,734.4,295.8z"/>
			<path class="st6" d="M750,312c-0.9,0-1.7-0.2-2.5-0.5s-1.4-0.7-1.9-1.3s-0.9-1.2-1.2-1.9s-0.4-1.6-0.4-2.4v-0.5
				c0-1,0.2-1.9,0.5-2.7s0.8-1.5,1.3-2.1s1.2-1,1.9-1.3s1.4-0.4,2.1-0.4c0.9,0,1.7,0.2,2.4,0.5s1.3,0.8,1.7,1.3s0.8,1.2,1,2
				s0.3,1.6,0.3,2.5v1h-9.1c0,0.6,0.1,1.1,0.3,1.6s0.5,1,0.8,1.3s0.8,0.7,1.2,0.9s1,0.3,1.6,0.3c0.8,0,1.5-0.2,2.1-0.5
				s1.1-0.7,1.5-1.2l1.3,1c-0.2,0.3-0.5,0.6-0.8,0.9s-0.7,0.6-1.1,0.8s-0.9,0.4-1.4,0.5S750.7,312,750,312z M749.8,300.7
				c-0.4,0-0.9,0.1-1.2,0.2s-0.7,0.4-1.1,0.7s-0.6,0.7-0.8,1.1s-0.4,1-0.5,1.6h6.8v-0.2c0-0.4-0.1-0.8-0.2-1.3s-0.3-0.8-0.6-1.1
				s-0.6-0.6-1-0.8S750.3,300.7,749.8,300.7z"/>
			<path class="st6" d="M760.8,307.2l0.3,1.8l0.3-1.8l2-8.1h1.4l2,8.1l0.3,2l0.3-2l1.4-8.1h1.9l-2.7,12.7h-1.7l-2-7.8l-0.3-2l-0.3,2
				l-2,7.8h-1.7l-2.7-12.7h1.9L760.8,307.2z"/>
			<path class="st6" d="M783.9,305.6c0,0.9-0.1,1.8-0.3,2.5s-0.5,1.5-1,2s-0.9,1-1.6,1.4s-1.3,0.5-2.1,0.5c-0.8,0-1.5-0.1-2-0.4
				s-1.1-0.6-1.5-1.1v6.1h-2.2v-17.6h2l0.1,1.4c0.4-0.5,0.9-0.9,1.5-1.2s1.3-0.4,2.1-0.4c0.8,0,1.5,0.2,2.2,0.5s1.1,0.8,1.6,1.3
				s0.7,1.3,1,2s0.3,1.7,0.3,2.6V305.6z M781.8,305.4c0-0.6-0.1-1.2-0.2-1.8s-0.3-1.1-0.6-1.5s-0.6-0.8-1.1-1s-1-0.4-1.6-0.4
				c-0.7,0-1.3,0.2-1.8,0.5s-0.8,0.7-1.1,1.2v6.1c0.3,0.5,0.7,0.9,1.1,1.2s1.1,0.5,1.8,0.5c0.6,0,1.1-0.1,1.6-0.4s0.8-0.6,1.1-1
				s0.5-0.9,0.6-1.5s0.2-1.2,0.2-1.8V305.4z"/>
			<path class="st6" d="M787,305.4c0-0.9,0.1-1.8,0.4-2.5s0.6-1.5,1.1-2s1.1-1,1.8-1.4s1.5-0.5,2.4-0.5c0.9,0,1.7,0.2,2.4,0.5
				s1.3,0.8,1.8,1.4s0.9,1.3,1.1,2s0.4,1.6,0.4,2.5v0.3c0,0.9-0.1,1.8-0.4,2.5s-0.6,1.5-1.1,2s-1.1,1-1.8,1.4s-1.5,0.5-2.4,0.5
				c-0.9,0-1.7-0.2-2.4-0.5s-1.3-0.8-1.8-1.4s-0.9-1.3-1.1-2s-0.4-1.6-0.4-2.5V305.4z M789.2,305.6c0,0.6,0.1,1.2,0.2,1.8
				s0.4,1.1,0.7,1.5s0.7,0.8,1.1,1s1,0.4,1.6,0.4c0.6,0,1.1-0.1,1.6-0.4s0.8-0.6,1.1-1s0.5-0.9,0.7-1.5s0.2-1.2,0.2-1.8v-0.3
				c0-0.6-0.1-1.2-0.2-1.8s-0.4-1.1-0.7-1.5s-0.7-0.8-1.1-1s-1-0.4-1.6-0.4s-1.1,0.1-1.6,0.4s-0.8,0.6-1.1,1s-0.5,0.9-0.7,1.5
				s-0.2,1.2-0.2,1.8V305.6z"/>
			<path class="st6" d="M810.4,298.9c0.2,0,0.4,0,0.6,0s0.4,0,0.6,0.1s0.4,0.1,0.6,0.1s0.3,0.1,0.4,0.1l-0.3,2.1
				c-0.4-0.1-0.8-0.2-1.2-0.2s-0.8-0.1-1.2-0.1c-1,0-1.8,0.2-2.5,0.7s-1.1,1.1-1.4,1.9v8.1h-2.2v-12.7h2.1l0.1,2
				c0.5-0.7,1.1-1.2,1.9-1.6S809.4,298.9,810.4,298.9z"/>
			<path class="st6" d="M821.6,296.1v3.1h4.8v1.7h-4.8v6.9c0,0.5,0.1,0.9,0.2,1.2s0.3,0.6,0.5,0.8s0.5,0.3,0.8,0.4s0.6,0.1,0.9,0.1
				c0.2,0,0.5,0,0.7,0s0.5-0.1,0.7-0.1s0.5-0.1,0.7-0.1s0.4-0.1,0.5-0.1l0.3,1.5c-0.2,0.1-0.4,0.2-0.7,0.3s-0.5,0.2-0.8,0.2
				s-0.6,0.1-1,0.1s-0.7,0-1,0c-0.6,0-1.1-0.1-1.6-0.2s-0.9-0.4-1.3-0.8s-0.6-0.8-0.8-1.3s-0.3-1.2-0.3-2v-6.9h-3.3v-1.7h3.3v-3.1
				H821.6z"/>
			<path class="st6" d="M659.3,373.3c0-0.3-0.1-0.5-0.2-0.7s-0.3-0.4-0.5-0.6s-0.6-0.3-1-0.5s-0.9-0.3-1.5-0.4
				c-0.7-0.1-1.4-0.3-2-0.5s-1.1-0.5-1.5-0.8s-0.8-0.6-1-1s-0.4-0.9-0.4-1.4c0-0.5,0.1-1,0.4-1.4s0.6-0.8,1-1.2s1-0.6,1.6-0.8
				s1.3-0.3,2-0.3c0.8,0,1.5,0.1,2.1,0.3s1.2,0.5,1.6,0.8s0.8,0.8,1,1.3s0.4,1,0.4,1.6h-2.2c0-0.3-0.1-0.5-0.2-0.8s-0.3-0.5-0.6-0.7
				s-0.6-0.4-0.9-0.5s-0.8-0.2-1.2-0.2c-0.5,0-0.9,0.1-1.2,0.2s-0.6,0.2-0.9,0.4s-0.4,0.4-0.5,0.6s-0.2,0.5-0.2,0.7
				c0,0.3,0,0.5,0.1,0.7s0.3,0.4,0.5,0.5s0.5,0.3,0.9,0.4s0.9,0.2,1.5,0.4c0.8,0.2,1.5,0.4,2.1,0.6s1.1,0.5,1.6,0.8s0.7,0.7,1,1
				s0.3,0.9,0.3,1.4c0,0.6-0.1,1.1-0.4,1.5s-0.6,0.9-1.1,1.2s-1,0.6-1.6,0.8s-1.3,0.3-2.1,0.3c-0.9,0-1.6-0.1-2.3-0.3
				s-1.2-0.5-1.7-0.9s-0.8-0.8-1.1-1.3s-0.4-1-0.4-1.6h2.2c0,0.4,0.2,0.8,0.4,1.1s0.5,0.6,0.8,0.7s0.7,0.3,1,0.4s0.7,0.1,1.1,0.1
				c0.9,0,1.6-0.2,2.2-0.5S659.2,373.8,659.3,373.3z"/>
			<path class="st6" d="M670.8,376.8c-0.9,0-1.7-0.2-2.5-0.5s-1.4-0.7-1.9-1.3s-0.9-1.2-1.2-1.9s-0.4-1.6-0.4-2.4v-0.5
				c0-1,0.2-1.9,0.5-2.7s0.8-1.5,1.3-2.1s1.2-1,1.9-1.3s1.4-0.4,2.1-0.4c0.9,0,1.7,0.2,2.4,0.5s1.3,0.8,1.7,1.3s0.8,1.2,1,2
				s0.3,1.6,0.3,2.5v1h-9.1c0,0.6,0.1,1.1,0.3,1.6s0.5,1,0.8,1.3s0.8,0.7,1.2,0.9s1,0.3,1.6,0.3c0.8,0,1.5-0.2,2.1-0.5
				s1.1-0.7,1.5-1.2l1.3,1c-0.2,0.3-0.5,0.6-0.8,0.9s-0.7,0.6-1.1,0.8s-0.9,0.4-1.4,0.5S671.4,376.8,670.8,376.8z M670.6,365.5
				c-0.4,0-0.9,0.1-1.2,0.2s-0.7,0.4-1.1,0.7s-0.6,0.7-0.8,1.1s-0.4,1-0.5,1.6h6.8v-0.2c0-0.4-0.1-0.8-0.2-1.3s-0.3-0.8-0.6-1.1
				s-0.6-0.6-1-0.8S671.1,365.5,670.6,365.5z"/>
			<path class="st6" d="M684.8,360.9v3.1h4.8v1.7h-4.8v6.9c0,0.5,0.1,0.9,0.2,1.2s0.3,0.6,0.5,0.8s0.5,0.3,0.8,0.4s0.6,0.1,0.9,0.1
				c0.2,0,0.5,0,0.7,0s0.5-0.1,0.7-0.1s0.5-0.1,0.7-0.1s0.4-0.1,0.5-0.1l0.3,1.5c-0.2,0.1-0.4,0.2-0.7,0.3s-0.5,0.2-0.8,0.2
				s-0.6,0.1-1,0.1s-0.7,0-1,0c-0.6,0-1.1-0.1-1.6-0.2s-0.9-0.4-1.3-0.8s-0.6-0.8-0.8-1.3s-0.3-1.2-0.3-2v-6.9h-3.3v-1.7h3.3v-3.1
				H684.8z"/>
			<path class="st6" d="M703,372.3c0-0.5-0.1-1-0.4-1.3s-0.5-0.7-0.9-0.9s-0.8-0.5-1.2-0.6s-0.9-0.3-1.3-0.4
				c-0.6-0.2-1.2-0.4-1.8-0.7s-1.2-0.6-1.7-1s-0.9-0.9-1.3-1.4s-0.5-1.2-0.5-1.9s0.2-1.4,0.5-2s0.7-1.1,1.3-1.5s1.1-0.7,1.8-0.9
				s1.3-0.3,2-0.3c0.7,0,1.5,0.1,2.1,0.4s1.3,0.6,1.8,1s1,1,1.3,1.6s0.5,1.3,0.5,2.1H703c-0.1-0.5-0.2-0.9-0.4-1.3s-0.4-0.7-0.7-1
				s-0.7-0.5-1.1-0.7s-0.9-0.2-1.4-0.2c-0.4,0-0.8,0.1-1.2,0.2s-0.7,0.3-1.1,0.5s-0.6,0.5-0.7,0.9s-0.3,0.7-0.3,1.2
				c0,0.5,0.1,0.9,0.4,1.2s0.5,0.6,0.9,0.9s0.8,0.4,1.2,0.6s0.8,0.3,1.2,0.4c0.4,0.1,0.8,0.3,1.3,0.5s0.8,0.4,1.2,0.6
				s0.8,0.5,1.1,0.7s0.6,0.6,0.9,0.9s0.5,0.7,0.6,1.1s0.2,0.9,0.2,1.4c0,0.8-0.2,1.4-0.5,2s-0.8,1-1.3,1.4s-1.1,0.7-1.8,0.9
				s-1.4,0.3-2,0.3c-0.8,0-1.5-0.1-2.2-0.4s-1.4-0.6-2-1s-1-1-1.4-1.6s-0.6-1.4-0.6-2.2h2.2c0.1,0.5,0.2,1,0.4,1.4s0.5,0.8,0.8,1
				s0.7,0.5,1.2,0.6s0.9,0.2,1.5,0.2c0.4,0,0.8-0.1,1.2-0.2s0.8-0.3,1.1-0.5s0.6-0.5,0.8-0.8S703,372.8,703,372.3z"/>
			<path class="st6" d="M713.8,375.1c0.4,0,0.8-0.1,1.1-0.2s0.7-0.3,1-0.5s0.5-0.5,0.7-0.8s0.3-0.6,0.3-1h2.1c0,0.6-0.2,1.1-0.4,1.6
				s-0.7,1-1.1,1.3s-1,0.7-1.6,0.9s-1.3,0.3-1.9,0.3c-1,0-1.8-0.2-2.5-0.5s-1.3-0.8-1.8-1.4s-0.8-1.3-1.1-2s-0.4-1.6-0.4-2.4V370
				c0-0.8,0.1-1.6,0.4-2.4s0.6-1.4,1.1-2s1.1-1,1.8-1.4s1.6-0.5,2.5-0.5c0.8,0,1.4,0.1,2.1,0.4s1.2,0.6,1.6,1s0.8,0.9,1.1,1.5
				s0.4,1.2,0.4,1.8h-2.1c0-0.4-0.1-0.7-0.3-1.1s-0.4-0.6-0.7-0.9s-0.6-0.5-1-0.6s-0.8-0.2-1.2-0.2c-0.7,0-1.2,0.1-1.7,0.4
				s-0.8,0.6-1.1,1.1s-0.5,0.9-0.6,1.5s-0.2,1.1-0.2,1.6v0.5c0,0.6,0.1,1.1,0.2,1.6s0.3,1,0.6,1.5s0.6,0.8,1.1,1.1
				S713.2,375.1,713.8,375.1z"/>
			<path class="st6" d="M723.2,363.9h6.5v10.8h4.1v1.9h-10.6v-1.9h4.3v-8.9h-4.3V363.9z M727.2,360.6c0-0.4,0.1-0.7,0.3-0.9
				s0.5-0.4,1-0.4c0.4,0,0.8,0.1,1,0.4s0.3,0.5,0.3,0.9c0,0.4-0.1,0.6-0.3,0.9s-0.5,0.4-1,0.4c-0.4,0-0.8-0.1-1-0.4
				S727.2,361,727.2,360.6z"/>
			<path class="st6" d="M745.7,373.3c0-0.3-0.1-0.5-0.2-0.7s-0.3-0.4-0.5-0.6s-0.6-0.3-1-0.5s-0.9-0.3-1.5-0.4
				c-0.7-0.1-1.4-0.3-2-0.5s-1.1-0.5-1.5-0.8s-0.8-0.6-1-1s-0.4-0.9-0.4-1.4c0-0.5,0.1-1,0.4-1.4s0.6-0.8,1-1.2s1-0.6,1.6-0.8
				s1.3-0.3,2-0.3c0.8,0,1.5,0.1,2.1,0.3s1.2,0.5,1.6,0.8s0.8,0.8,1,1.3s0.4,1,0.4,1.6h-2.2c0-0.3-0.1-0.5-0.2-0.8s-0.3-0.5-0.6-0.7
				s-0.6-0.4-0.9-0.5s-0.8-0.2-1.2-0.2c-0.5,0-0.9,0.1-1.2,0.2s-0.6,0.2-0.9,0.4s-0.4,0.4-0.5,0.6s-0.2,0.5-0.2,0.7
				c0,0.3,0,0.5,0.1,0.7s0.3,0.4,0.5,0.5s0.5,0.3,0.9,0.4s0.9,0.2,1.5,0.4c0.8,0.2,1.5,0.4,2.1,0.6s1.1,0.5,1.6,0.8s0.7,0.7,1,1
				s0.3,0.9,0.3,1.4c0,0.6-0.1,1.1-0.4,1.5s-0.6,0.9-1.1,1.2s-1,0.6-1.6,0.8s-1.3,0.3-2.1,0.3c-0.9,0-1.6-0.1-2.3-0.3
				s-1.2-0.5-1.7-0.9s-0.8-0.8-1.1-1.3s-0.4-1-0.4-1.6h2.2c0,0.4,0.2,0.8,0.4,1.1s0.5,0.6,0.8,0.7s0.7,0.3,1,0.4s0.7,0.1,1.1,0.1
				c0.9,0,1.6-0.2,2.2-0.5S745.7,373.8,745.7,373.3z"/>
			<path class="st6" d="M760.1,373.3c0-0.3-0.1-0.5-0.2-0.7s-0.3-0.4-0.5-0.6s-0.6-0.3-1-0.5s-0.9-0.3-1.5-0.4
				c-0.7-0.1-1.4-0.3-2-0.5s-1.1-0.5-1.5-0.8s-0.8-0.6-1-1s-0.4-0.9-0.4-1.4c0-0.5,0.1-1,0.4-1.4s0.6-0.8,1-1.2s1-0.6,1.6-0.8
				s1.3-0.3,2-0.3c0.8,0,1.5,0.1,2.1,0.3s1.2,0.5,1.6,0.8s0.8,0.8,1,1.3s0.4,1,0.4,1.6h-2.2c0-0.3-0.1-0.5-0.2-0.8s-0.3-0.5-0.6-0.7
				s-0.6-0.4-0.9-0.5s-0.8-0.2-1.2-0.2c-0.5,0-0.9,0.1-1.2,0.2s-0.6,0.2-0.9,0.4s-0.4,0.4-0.5,0.6s-0.2,0.5-0.2,0.7
				c0,0.3,0,0.5,0.1,0.7s0.3,0.4,0.5,0.5s0.5,0.3,0.9,0.4s0.9,0.2,1.5,0.4c0.8,0.2,1.5,0.4,2.1,0.6s1.1,0.5,1.6,0.8s0.7,0.7,1,1
				s0.3,0.9,0.3,1.4c0,0.6-0.1,1.1-0.4,1.5s-0.6,0.9-1.1,1.2s-1,0.6-1.6,0.8s-1.3,0.3-2.1,0.3c-0.9,0-1.6-0.1-2.3-0.3
				s-1.2-0.5-1.7-0.9s-0.8-0.8-1.1-1.3s-0.4-1-0.4-1.6h2.2c0,0.4,0.2,0.8,0.4,1.1s0.5,0.6,0.8,0.7s0.7,0.3,1,0.4s0.7,0.1,1.1,0.1
				c0.9,0,1.6-0.2,2.2-0.5S760.1,373.8,760.1,373.3z"/>
			<path class="st6" d="M765.4,370.2c0-0.9,0.1-1.8,0.4-2.5s0.6-1.5,1.1-2s1.1-1,1.8-1.4s1.5-0.5,2.4-0.5c0.9,0,1.7,0.2,2.4,0.5
				s1.3,0.8,1.8,1.4s0.9,1.3,1.1,2s0.4,1.6,0.4,2.5v0.3c0,0.9-0.1,1.8-0.4,2.5s-0.6,1.5-1.1,2s-1.1,1-1.8,1.4s-1.5,0.5-2.4,0.5
				c-0.9,0-1.7-0.2-2.4-0.5s-1.3-0.8-1.8-1.4s-0.9-1.3-1.1-2s-0.4-1.6-0.4-2.5V370.2z M767.6,370.4c0,0.6,0.1,1.2,0.2,1.8
				s0.4,1.1,0.7,1.5s0.7,0.8,1.1,1s1,0.4,1.6,0.4c0.6,0,1.1-0.1,1.6-0.4s0.8-0.6,1.1-1s0.5-0.9,0.7-1.5s0.2-1.2,0.2-1.8v-0.3
				c0-0.6-0.1-1.2-0.2-1.8s-0.4-1.1-0.7-1.5s-0.7-0.8-1.1-1s-1-0.4-1.6-0.4s-1.1,0.1-1.6,0.4s-0.8,0.6-1.1,1s-0.5,0.9-0.7,1.5
				s-0.2,1.2-0.2,1.8V370.4z"/>
			<path class="st6" d="M788.8,363.7c0.2,0,0.4,0,0.6,0s0.4,0,0.6,0.1s0.4,0.1,0.6,0.1s0.3,0.1,0.4,0.1l-0.3,2.1
				c-0.4-0.1-0.8-0.2-1.2-0.2s-0.8-0.1-1.2-0.1c-1,0-1.8,0.2-2.5,0.7s-1.1,1.1-1.4,1.9v8.1h-2.2v-12.7h2.1l0.1,2
				c0.5-0.7,1.1-1.2,1.9-1.6S787.8,363.7,788.8,363.7z"/>
			<path class="st6" d="M800.5,369.7h-3.4v7h-2.2v-17.1h5c0.8,0,1.5,0.1,2.3,0.3s1.3,0.5,1.8,0.9s0.9,1,1.2,1.6s0.5,1.4,0.5,2.2
				c0,0.6-0.1,1.1-0.2,1.5s-0.4,0.9-0.7,1.3s-0.6,0.7-1,1s-0.8,0.5-1.3,0.7l3.6,7.3l0,0.1h-2.3L800.5,369.7z M797.1,367.9h2.9
				c0.5,0,0.9-0.1,1.4-0.2s0.8-0.4,1.1-0.6s0.6-0.6,0.8-1s0.3-0.8,0.3-1.4c0-0.5-0.1-1-0.3-1.4s-0.4-0.8-0.8-1s-0.7-0.5-1.1-0.6
				s-0.9-0.2-1.4-0.2h-2.8V367.9z"/>
			<path class="st6" d="M814.9,376.8c-0.9,0-1.7-0.2-2.5-0.5s-1.4-0.7-1.9-1.3s-0.9-1.2-1.2-1.9s-0.4-1.6-0.4-2.4v-0.5
				c0-1,0.2-1.9,0.5-2.7s0.8-1.5,1.3-2.1s1.2-1,1.9-1.3s1.4-0.4,2.1-0.4c0.9,0,1.7,0.2,2.4,0.5s1.3,0.8,1.7,1.3s0.8,1.2,1,2
				s0.3,1.6,0.3,2.5v1H811c0,0.6,0.1,1.1,0.3,1.6s0.5,1,0.8,1.3s0.8,0.7,1.2,0.9s1,0.3,1.6,0.3c0.8,0,1.5-0.2,2.1-0.5
				s1.1-0.7,1.5-1.2l1.3,1c-0.2,0.3-0.5,0.6-0.8,0.9s-0.7,0.6-1.1,0.8s-0.9,0.4-1.4,0.5S815.5,376.8,814.9,376.8z M814.6,365.5
				c-0.4,0-0.9,0.1-1.2,0.2s-0.7,0.4-1.1,0.7s-0.6,0.7-0.8,1.1s-0.4,1-0.5,1.6h6.8v-0.2c0-0.4-0.1-0.8-0.2-1.3s-0.3-0.8-0.6-1.1
				s-0.6-0.6-1-0.8S815.1,365.5,814.6,365.5z"/>
			<path class="st6" d="M829.1,375.1c0.4,0,0.8-0.1,1.1-0.2s0.7-0.3,1-0.5s0.5-0.5,0.7-0.8s0.3-0.6,0.3-1h2.1c0,0.6-0.2,1.1-0.4,1.6
				s-0.7,1-1.1,1.3s-1,0.7-1.6,0.9s-1.3,0.3-1.9,0.3c-1,0-1.8-0.2-2.5-0.5s-1.3-0.8-1.8-1.4s-0.8-1.3-1.1-2s-0.4-1.6-0.4-2.4V370
				c0-0.8,0.1-1.6,0.4-2.4s0.6-1.4,1.1-2s1.1-1,1.8-1.4s1.6-0.5,2.5-0.5c0.8,0,1.4,0.1,2.1,0.4s1.2,0.6,1.6,1s0.8,0.9,1.1,1.5
				s0.4,1.2,0.4,1.8h-2.1c0-0.4-0.1-0.7-0.3-1.1s-0.4-0.6-0.7-0.9s-0.6-0.5-1-0.6s-0.8-0.2-1.2-0.2c-0.7,0-1.2,0.1-1.7,0.4
				s-0.8,0.6-1.1,1.1s-0.5,0.9-0.6,1.5s-0.2,1.1-0.2,1.6v0.5c0,0.6,0.1,1.1,0.2,1.6s0.3,1,0.6,1.5s0.6,0.8,1.1,1.1
				S828.4,375.1,829.1,375.1z"/>
			<path class="st6" d="M843.2,360.9v3.1h4.8v1.7h-4.8v6.9c0,0.5,0.1,0.9,0.2,1.2s0.3,0.6,0.5,0.8s0.5,0.3,0.8,0.4s0.6,0.1,0.9,0.1
				c0.2,0,0.5,0,0.7,0s0.5-0.1,0.7-0.1s0.5-0.1,0.7-0.1s0.4-0.1,0.5-0.1l0.3,1.5c-0.2,0.1-0.4,0.2-0.7,0.3s-0.5,0.2-0.8,0.2
				s-0.6,0.1-1,0.1s-0.7,0-1,0c-0.6,0-1.1-0.1-1.6-0.2s-0.9-0.4-1.3-0.8s-0.6-0.8-0.8-1.3s-0.3-1.2-0.3-2v-6.9h-3.3v-1.7h3.3v-3.1
				H843.2z"/>
			<path class="st6" d="M652,438.1c0-0.3-0.1-0.5-0.2-0.7s-0.3-0.4-0.5-0.6s-0.6-0.3-1-0.5s-0.9-0.3-1.5-0.4c-0.7-0.1-1.4-0.3-2-0.5
				s-1.1-0.5-1.5-0.8s-0.8-0.6-1-1s-0.4-0.9-0.4-1.4c0-0.5,0.1-1,0.4-1.4s0.6-0.8,1-1.2s1-0.6,1.6-0.8s1.3-0.3,2-0.3
				c0.8,0,1.5,0.1,2.1,0.3s1.2,0.5,1.6,0.8s0.8,0.8,1,1.3s0.4,1,0.4,1.6h-2.2c0-0.3-0.1-0.5-0.2-0.8s-0.3-0.5-0.6-0.7
				s-0.6-0.4-0.9-0.5s-0.8-0.2-1.2-0.2c-0.5,0-0.9,0.1-1.2,0.2s-0.6,0.2-0.9,0.4s-0.4,0.4-0.5,0.6s-0.2,0.5-0.2,0.7
				c0,0.3,0,0.5,0.1,0.7s0.3,0.4,0.5,0.5s0.5,0.3,0.9,0.4s0.9,0.2,1.5,0.4c0.8,0.2,1.5,0.4,2.1,0.6s1.1,0.5,1.6,0.8s0.7,0.7,1,1
				s0.3,0.9,0.3,1.4c0,0.6-0.1,1.1-0.4,1.5s-0.6,0.9-1.1,1.2s-1,0.6-1.6,0.8s-1.3,0.3-2.1,0.3c-0.9,0-1.6-0.1-2.3-0.3
				s-1.2-0.5-1.7-0.9s-0.8-0.8-1.1-1.3s-0.4-1-0.4-1.6h2.2c0,0.4,0.2,0.8,0.4,1.1s0.5,0.6,0.8,0.7s0.7,0.3,1,0.4s0.7,0.1,1.1,0.1
				c0.9,0,1.6-0.2,2.2-0.5S652,438.6,652,438.1z"/>
			<path class="st6" d="M663.6,441.6c-0.9,0-1.7-0.2-2.5-0.5s-1.4-0.7-1.9-1.3s-0.9-1.2-1.2-1.9s-0.4-1.6-0.4-2.4V435
				c0-1,0.2-1.9,0.5-2.7s0.8-1.5,1.3-2.1s1.2-1,1.9-1.3s1.4-0.4,2.1-0.4c0.9,0,1.7,0.2,2.4,0.5s1.3,0.8,1.7,1.3s0.8,1.2,1,2
				s0.3,1.6,0.3,2.5v1h-9.1c0,0.6,0.1,1.1,0.3,1.6s0.5,1,0.8,1.3s0.8,0.7,1.2,0.9s1,0.3,1.6,0.3c0.8,0,1.5-0.2,2.1-0.5
				s1.1-0.7,1.5-1.2l1.3,1c-0.2,0.3-0.5,0.6-0.8,0.9s-0.7,0.6-1.1,0.8s-0.9,0.4-1.4,0.5S664.2,441.6,663.6,441.6z M663.3,430.3
				c-0.4,0-0.9,0.1-1.2,0.2s-0.7,0.4-1.1,0.7s-0.6,0.7-0.8,1.1s-0.4,1-0.5,1.6h6.8v-0.2c0-0.4-0.1-0.8-0.2-1.3s-0.3-0.8-0.6-1.1
				s-0.6-0.6-1-0.8S663.9,430.3,663.3,430.3z"/>
			<path class="st6" d="M677.6,425.7v3.1h4.8v1.7h-4.8v6.9c0,0.5,0.1,0.9,0.2,1.2s0.3,0.6,0.5,0.8s0.5,0.3,0.8,0.4s0.6,0.1,0.9,0.1
				c0.2,0,0.5,0,0.7,0s0.5-0.1,0.7-0.1s0.5-0.1,0.7-0.1s0.4-0.1,0.5-0.1l0.3,1.5c-0.2,0.1-0.4,0.2-0.7,0.3s-0.5,0.2-0.8,0.2
				s-0.6,0.1-1,0.1s-0.7,0-1,0c-0.6,0-1.1-0.1-1.6-0.2s-0.9-0.4-1.3-0.8s-0.6-0.8-0.8-1.3s-0.3-1.2-0.3-2v-6.9H672v-1.7h3.3v-3.1
				H677.6z"/>
			<path class="st6" d="M691.9,437.9l4-13.6h2.3l-5.4,17.1H691l-5.4-17.1h2.3L691.9,437.9z"/>
			<path class="st6" d="M706.8,441.6c-0.9,0-1.7-0.2-2.5-0.5s-1.4-0.7-1.9-1.3s-0.9-1.2-1.2-1.9s-0.4-1.6-0.4-2.4V435
				c0-1,0.2-1.9,0.5-2.7s0.8-1.5,1.3-2.1s1.2-1,1.9-1.3s1.4-0.4,2.1-0.4c0.9,0,1.7,0.2,2.4,0.5s1.3,0.8,1.7,1.3s0.8,1.2,1,2
				s0.3,1.6,0.3,2.5v1h-9.1c0,0.6,0.1,1.1,0.3,1.6s0.5,1,0.8,1.3s0.8,0.7,1.2,0.9s1,0.3,1.6,0.3c0.8,0,1.5-0.2,2.1-0.5
				s1.1-0.7,1.5-1.2l1.3,1c-0.2,0.3-0.5,0.6-0.8,0.9s-0.7,0.6-1.1,0.8s-0.9,0.4-1.4,0.5S707.4,441.6,706.8,441.6z M706.5,430.3
				c-0.4,0-0.9,0.1-1.2,0.2s-0.7,0.4-1.1,0.7s-0.6,0.7-0.8,1.1s-0.4,1-0.5,1.6h6.8v-0.2c0-0.4-0.1-0.8-0.2-1.3s-0.3-0.8-0.6-1.1
				s-0.6-0.6-1-0.8S707.1,430.3,706.5,430.3z"/>
			<path class="st6" d="M723.9,428.5c0.2,0,0.4,0,0.6,0s0.4,0,0.6,0.1s0.4,0.1,0.6,0.1s0.3,0.1,0.4,0.1l-0.3,2.1
				c-0.4-0.1-0.8-0.2-1.2-0.2s-0.8-0.1-1.2-0.1c-1,0-1.8,0.2-2.5,0.7s-1.1,1.1-1.4,1.9v8.1h-2.2v-12.7h2.1l0.1,2
				c0.5-0.7,1.1-1.2,1.9-1.6S723,428.5,723.9,428.5z"/>
			<path class="st6" d="M735.2,425.7v3.1h4.8v1.7h-4.8v6.9c0,0.5,0.1,0.9,0.2,1.2s0.3,0.6,0.5,0.8s0.5,0.3,0.8,0.4s0.6,0.1,0.9,0.1
				c0.2,0,0.5,0,0.7,0s0.5-0.1,0.7-0.1s0.5-0.1,0.7-0.1s0.4-0.1,0.5-0.1l0.3,1.5c-0.2,0.1-0.4,0.2-0.7,0.3s-0.5,0.2-0.8,0.2
				s-0.6,0.1-1,0.1s-0.7,0-1,0c-0.6,0-1.1-0.1-1.6-0.2s-0.9-0.4-1.3-0.8s-0.6-0.8-0.8-1.3s-0.3-1.2-0.3-2v-6.9h-3.3v-1.7h3.3v-3.1
				H735.2z"/>
			<path class="st6" d="M750,441.6c-0.9,0-1.7-0.2-2.5-0.5s-1.4-0.7-1.9-1.3s-0.9-1.2-1.2-1.9s-0.4-1.6-0.4-2.4V435
				c0-1,0.2-1.9,0.5-2.7s0.8-1.5,1.3-2.1s1.2-1,1.9-1.3s1.4-0.4,2.1-0.4c0.9,0,1.7,0.2,2.4,0.5s1.3,0.8,1.7,1.3s0.8,1.2,1,2
				s0.3,1.6,0.3,2.5v1h-9.1c0,0.6,0.1,1.1,0.3,1.6s0.5,1,0.8,1.3s0.8,0.7,1.2,0.9s1,0.3,1.6,0.3c0.8,0,1.5-0.2,2.1-0.5
				s1.1-0.7,1.5-1.2l1.3,1c-0.2,0.3-0.5,0.6-0.8,0.9s-0.7,0.6-1.1,0.8s-0.9,0.4-1.4,0.5S750.6,441.6,750,441.6z M749.8,430.3
				c-0.4,0-0.9,0.1-1.2,0.2s-0.7,0.4-1.1,0.7s-0.6,0.7-0.8,1.1s-0.4,1-0.5,1.6h6.8v-0.2c0-0.4-0.1-0.8-0.2-1.3s-0.3-0.8-0.6-1.1
				s-0.6-0.6-1-0.8S750.3,430.3,749.8,430.3z"/>
			<path class="st6" d="M764.1,433.4l3.4-4.7h2.5l-4.7,6.3l4.9,6.4h-2.5l-3.5-4.8l-3.5,4.8h-2.5l4.9-6.4l-4.7-6.3h2.5L764.1,433.4z"
				/>
			<path class="st6" d="M773.2,441.4v-17.1h5.1c0.7,0,1.4,0.1,2.1,0.3s1.3,0.4,1.8,0.8s0.9,0.8,1.3,1.4s0.5,1.3,0.5,2.1
				c0,0.4-0.1,0.9-0.2,1.2s-0.3,0.7-0.6,1s-0.5,0.5-0.8,0.8s-0.7,0.4-1,0.6c0.5,0.1,0.9,0.3,1.2,0.6s0.7,0.5,1,0.9s0.5,0.7,0.6,1.2
				s0.2,0.9,0.2,1.4c0,0.8-0.1,1.5-0.5,2.1s-0.7,1.1-1.3,1.5s-1.1,0.7-1.8,0.9s-1.4,0.3-2.1,0.3H773.2z M775.4,431.6h3
				c0.4,0,0.8-0.1,1.2-0.2s0.7-0.3,1-0.5s0.6-0.5,0.7-0.8s0.3-0.7,0.3-1.2c0-0.5-0.1-0.9-0.3-1.2s-0.4-0.6-0.7-0.8s-0.7-0.4-1.1-0.5
				s-0.8-0.2-1.2-0.2h-3V431.6z M775.4,433.4v6.1h3.3c0.5,0,0.9-0.1,1.3-0.2s0.8-0.3,1.1-0.6s0.6-0.6,0.7-0.9s0.3-0.8,0.3-1.3
				c0-0.5-0.1-0.9-0.2-1.3s-0.4-0.7-0.7-1s-0.6-0.5-1-0.6s-0.8-0.2-1.3-0.2H775.4z"/>
			<path class="st6" d="M795.9,439.7c-0.4,0.6-0.9,1.1-1.6,1.5s-1.4,0.5-2.2,0.5c-0.7,0-1.3-0.1-1.8-0.3s-1-0.5-1.4-1
				s-0.7-1-0.9-1.7s-0.3-1.5-0.3-2.4v-7.5h2.2v7.6c0,0.7,0.1,1.3,0.2,1.7s0.3,0.8,0.5,1.1s0.5,0.5,0.8,0.6s0.7,0.2,1.1,0.2
				c0.9,0,1.6-0.2,2.1-0.5s0.9-0.8,1.2-1.5v-9.1h2.2v12.7h-2L795.9,439.7z"/>
			<path class="st6" d="M805.3,441.4v-11h-3.5v-1.7h3.5v-0.9c0-0.8,0.1-1.5,0.4-2.1s0.6-1.1,1-1.5s1-0.7,1.6-0.9s1.3-0.3,2-0.3
				c0.5,0,1,0,1.5,0.1s1,0.2,1.5,0.3l-0.3,1.8c-0.3-0.1-0.7-0.2-1.1-0.3s-0.9-0.1-1.4-0.1c-1,0-1.8,0.3-2.3,0.8s-0.8,1.3-0.8,2.3
				v0.9h4.9v1.7h-4.9v11H805.3z"/>
			<path class="st6" d="M819.7,441.4v-11h-3.5v-1.7h3.5v-0.9c0-0.8,0.1-1.5,0.4-2.1s0.6-1.1,1-1.5s1-0.7,1.6-0.9s1.3-0.3,2-0.3
				c0.5,0,1,0,1.5,0.1s1,0.2,1.5,0.3l-0.3,1.8c-0.3-0.1-0.7-0.2-1.1-0.3s-0.9-0.1-1.4-0.1c-1,0-1.8,0.3-2.3,0.8s-0.8,1.3-0.8,2.3
				v0.9h4.9v1.7h-4.9v11H819.7z"/>
			<path class="st6" d="M836.5,441.6c-0.9,0-1.7-0.2-2.5-0.5s-1.4-0.7-1.9-1.3s-0.9-1.2-1.2-1.9s-0.4-1.6-0.4-2.4V435
				c0-1,0.2-1.9,0.5-2.7s0.8-1.5,1.3-2.1s1.2-1,1.9-1.3s1.4-0.4,2.1-0.4c0.9,0,1.7,0.2,2.4,0.5s1.3,0.8,1.7,1.3s0.8,1.2,1,2
				s0.3,1.6,0.3,2.5v1h-9.1c0,0.6,0.1,1.1,0.3,1.6s0.5,1,0.8,1.3s0.8,0.7,1.2,0.9s1,0.3,1.6,0.3c0.8,0,1.5-0.2,2.1-0.5
				s1.1-0.7,1.5-1.2l1.3,1c-0.2,0.3-0.5,0.6-0.8,0.9s-0.7,0.6-1.1,0.8s-0.9,0.4-1.4,0.5S837.1,441.6,836.5,441.6z M836.2,430.3
				c-0.4,0-0.9,0.1-1.2,0.2s-0.7,0.4-1.1,0.7s-0.6,0.7-0.8,1.1s-0.4,1-0.5,1.6h6.8v-0.2c0-0.4-0.1-0.8-0.2-1.3s-0.3-0.8-0.6-1.1
				s-0.6-0.6-1-0.8S836.7,430.3,836.2,430.3z"/>
			<path class="st6" d="M853.6,428.5c0.2,0,0.4,0,0.6,0s0.4,0,0.6,0.1s0.4,0.1,0.6,0.1s0.3,0.1,0.4,0.1l-0.3,2.1
				c-0.4-0.1-0.8-0.2-1.2-0.2s-0.8-0.1-1.2-0.1c-1,0-1.8,0.2-2.5,0.7s-1.1,1.1-1.4,1.9v8.1h-2.2v-12.7h2.1l0.1,2
				c0.5-0.7,1.1-1.2,1.9-1.6S852.7,428.5,853.6,428.5z"/>
			<path class="st6" d="M659.2,502.8c0-0.3-0.1-0.5-0.2-0.7s-0.3-0.4-0.5-0.6s-0.6-0.3-1-0.5s-0.9-0.3-1.5-0.4
				c-0.7-0.1-1.4-0.3-2-0.5s-1.1-0.5-1.5-0.8s-0.8-0.6-1-1s-0.4-0.9-0.4-1.4c0-0.5,0.1-1,0.4-1.4s0.6-0.8,1-1.2s1-0.6,1.6-0.8
				s1.3-0.3,2-0.3c0.8,0,1.5,0.1,2.1,0.3s1.2,0.5,1.6,0.8s0.8,0.8,1,1.3s0.4,1,0.4,1.6h-2.2c0-0.3-0.1-0.5-0.2-0.8s-0.3-0.5-0.6-0.7
				s-0.6-0.4-0.9-0.5s-0.8-0.2-1.2-0.2c-0.5,0-0.9,0.1-1.2,0.2s-0.6,0.2-0.9,0.4s-0.4,0.4-0.5,0.6s-0.2,0.5-0.2,0.7
				c0,0.3,0,0.5,0.1,0.7s0.3,0.4,0.5,0.5s0.5,0.3,0.9,0.4s0.9,0.2,1.5,0.4c0.8,0.2,1.5,0.4,2.1,0.6s1.1,0.5,1.6,0.8s0.7,0.7,1,1
				s0.3,0.9,0.3,1.4c0,0.6-0.1,1.1-0.4,1.5s-0.6,0.9-1.1,1.2s-1,0.6-1.6,0.8s-1.3,0.3-2.1,0.3c-0.9,0-1.6-0.1-2.3-0.3
				s-1.2-0.5-1.7-0.9s-0.8-0.8-1.1-1.3s-0.4-1-0.4-1.6h2.2c0,0.4,0.2,0.8,0.4,1.1s0.5,0.6,0.8,0.7s0.7,0.3,1,0.4s0.7,0.1,1.1,0.1
				c0.9,0,1.6-0.2,2.2-0.5S659.2,503.4,659.2,502.8z"/>
			<path class="st6" d="M670.8,506.4c-0.9,0-1.7-0.2-2.5-0.5s-1.4-0.7-1.9-1.3s-0.9-1.2-1.2-1.9s-0.4-1.6-0.4-2.4v-0.5
				c0-1,0.2-1.9,0.5-2.7s0.8-1.5,1.3-2.1s1.2-1,1.9-1.3s1.4-0.4,2.1-0.4c0.9,0,1.7,0.2,2.4,0.5s1.3,0.8,1.7,1.3s0.8,1.2,1,2
				s0.3,1.6,0.3,2.5v1h-9.1c0,0.6,0.1,1.1,0.3,1.6s0.5,1,0.8,1.3s0.8,0.7,1.2,0.9s1,0.3,1.6,0.3c0.8,0,1.5-0.2,2.1-0.5
				s1.1-0.7,1.5-1.2l1.3,1c-0.2,0.3-0.5,0.6-0.8,0.9s-0.7,0.6-1.1,0.8s-0.9,0.4-1.4,0.5S671.4,506.4,670.8,506.4z M670.5,495.1
				c-0.4,0-0.9,0.1-1.2,0.2s-0.7,0.4-1.1,0.7s-0.6,0.7-0.8,1.1s-0.4,1-0.5,1.6h6.8v-0.2c0-0.4-0.1-0.8-0.2-1.3s-0.3-0.8-0.6-1.1
				s-0.6-0.6-1-0.8S671.1,495.1,670.5,495.1z"/>
			<path class="st6" d="M684.8,490.5v3.1h4.8v1.7h-4.8v6.9c0,0.5,0.1,0.9,0.2,1.2s0.3,0.6,0.5,0.8s0.5,0.3,0.8,0.4s0.6,0.1,0.9,0.1
				c0.2,0,0.5,0,0.7,0s0.5-0.1,0.7-0.1s0.5-0.1,0.7-0.1s0.4-0.1,0.5-0.1l0.3,1.5c-0.2,0.1-0.4,0.2-0.7,0.3s-0.5,0.2-0.8,0.2
				s-0.6,0.1-1,0.1s-0.7,0-1,0c-0.6,0-1.1-0.1-1.6-0.2s-0.9-0.4-1.3-0.8s-0.6-0.8-0.8-1.3s-0.3-1.2-0.3-2v-6.9h-3.3v-1.7h3.3v-3.1
				H684.8z"/>
			<path class="st6" d="M694,489.2h10.3v1.9h-4.1v13.3h4.1v1.9H694v-1.9h4V491h-4V489.2z"/>
			<path class="st6" d="M710.4,493.5l0.2,1.9c0.5-0.7,1-1.2,1.7-1.5s1.4-0.6,2.3-0.6c0.7,0,1.3,0.1,1.8,0.3s1,0.5,1.4,0.9
				s0.7,0.9,0.9,1.5s0.3,1.3,0.3,2.2v8.1h-2.2v-8c0-0.6-0.1-1-0.2-1.4s-0.3-0.7-0.6-0.9s-0.5-0.4-0.9-0.5s-0.8-0.2-1.2-0.2
				c-0.7,0-1.4,0.2-1.9,0.5s-1,0.8-1.3,1.4v9.1h-2.2v-12.7H710.4z"/>
			<path class="st6" d="M722.4,499.8c0-0.9,0.1-1.8,0.4-2.6s0.6-1.5,1-2s1-1,1.6-1.3s1.3-0.5,2.1-0.5c0.8,0,1.4,0.1,2,0.4
				s1.1,0.6,1.5,1.1v-6.6h2.2v18h-2l-0.1-1.3c-0.4,0.5-0.9,0.9-1.5,1.2s-1.3,0.4-2.1,0.4c-0.8,0-1.5-0.2-2.1-0.5s-1.2-0.8-1.6-1.4
				s-0.8-1.3-1-2s-0.4-1.6-0.4-2.5V499.8z M724.6,500c0,0.6,0.1,1.2,0.2,1.8s0.3,1,0.6,1.5s0.6,0.8,1.1,1s0.9,0.4,1.5,0.4
				c0.4,0,0.7,0,1-0.1s0.6-0.2,0.8-0.4s0.5-0.4,0.6-0.6s0.4-0.5,0.5-0.7v-5.9c-0.3-0.5-0.7-0.9-1.1-1.3s-1.1-0.5-1.8-0.5
				c-0.6,0-1.1,0.1-1.6,0.4s-0.8,0.6-1.1,1s-0.5,0.9-0.6,1.5s-0.2,1.1-0.2,1.8V500z"/>
			<path class="st6" d="M742.8,506.4c-0.9,0-1.7-0.2-2.5-0.5s-1.4-0.7-1.9-1.3s-0.9-1.2-1.2-1.9s-0.4-1.6-0.4-2.4v-0.5
				c0-1,0.2-1.9,0.5-2.7s0.8-1.5,1.3-2.1s1.2-1,1.9-1.3s1.4-0.4,2.1-0.4c0.9,0,1.7,0.2,2.4,0.5s1.3,0.8,1.7,1.3s0.8,1.2,1,2
				s0.3,1.6,0.3,2.5v1h-9.1c0,0.6,0.1,1.1,0.3,1.6s0.5,1,0.8,1.3s0.8,0.7,1.2,0.9s1,0.3,1.6,0.3c0.8,0,1.5-0.2,2.1-0.5
				s1.1-0.7,1.5-1.2l1.3,1c-0.2,0.3-0.5,0.6-0.8,0.9s-0.7,0.6-1.1,0.8s-0.9,0.4-1.4,0.5S743.4,506.4,742.8,506.4z M742.6,495.1
				c-0.4,0-0.9,0.1-1.2,0.2s-0.7,0.4-1.1,0.7s-0.6,0.7-0.8,1.1s-0.4,1-0.5,1.6h6.8v-0.2c0-0.4-0.1-0.8-0.2-1.3s-0.3-0.8-0.6-1.1
				s-0.6-0.6-1-0.8S743.1,495.1,742.6,495.1z"/>
			<path class="st6" d="M756.9,498.2l3.4-4.7h2.5l-4.7,6.3l4.9,6.4h-2.5l-3.5-4.8l-3.5,4.8h-2.5l4.9-6.4l-4.7-6.3h2.5L756.9,498.2z"
				/>
			<path class="st6" d="M766,506.2v-17.1h5.1c0.7,0,1.4,0.1,2.1,0.3s1.3,0.4,1.8,0.8s0.9,0.8,1.3,1.4s0.5,1.3,0.5,2.1
				c0,0.4-0.1,0.9-0.2,1.2s-0.3,0.7-0.6,1s-0.5,0.5-0.8,0.8s-0.7,0.4-1,0.6c0.5,0.1,0.9,0.3,1.2,0.6s0.7,0.5,1,0.9s0.5,0.7,0.6,1.2
				s0.2,0.9,0.2,1.4c0,0.8-0.1,1.5-0.5,2.1s-0.7,1.1-1.3,1.5s-1.1,0.7-1.8,0.9s-1.4,0.3-2.1,0.3H766z M768.2,496.4h3
				c0.4,0,0.8-0.1,1.2-0.2s0.7-0.3,1-0.5s0.6-0.5,0.7-0.8s0.3-0.7,0.3-1.2c0-0.5-0.1-0.9-0.3-1.2s-0.4-0.6-0.7-0.8s-0.7-0.4-1.1-0.5
				s-0.8-0.2-1.2-0.2h-3V496.4z M768.2,498.2v6.1h3.3c0.5,0,0.9-0.1,1.3-0.2s0.8-0.3,1.1-0.6s0.6-0.6,0.7-0.9s0.3-0.8,0.3-1.3
				c0-0.5-0.1-0.9-0.2-1.3s-0.4-0.7-0.7-1s-0.6-0.5-1-0.6s-0.8-0.2-1.3-0.2H768.2z"/>
			<path class="st6" d="M788.7,504.5c-0.4,0.6-0.9,1.1-1.6,1.5s-1.4,0.5-2.2,0.5c-0.7,0-1.3-0.1-1.8-0.3s-1-0.5-1.4-1
				s-0.7-1-0.9-1.7s-0.3-1.5-0.3-2.4v-7.5h2.2v7.6c0,0.7,0.1,1.3,0.2,1.7s0.3,0.8,0.5,1.1s0.5,0.5,0.8,0.6s0.7,0.2,1.1,0.2
				c0.9,0,1.6-0.2,2.1-0.5s0.9-0.8,1.2-1.5v-9.1h2.2v12.7h-2L788.7,504.5z"/>
			<path class="st6" d="M798.1,506.2v-11h-3.5v-1.7h3.5v-0.9c0-0.8,0.1-1.5,0.4-2.1s0.6-1.1,1-1.5s1-0.7,1.6-0.9s1.3-0.3,2-0.3
				c0.5,0,1,0,1.5,0.1s1,0.2,1.5,0.3l-0.3,1.8c-0.3-0.1-0.7-0.2-1.1-0.3s-0.9-0.1-1.4-0.1c-1,0-1.8,0.3-2.3,0.8s-0.8,1.3-0.8,2.3
				v0.9h4.9v1.7h-4.9v11H798.1z"/>
			<path class="st6" d="M812.5,506.2v-11H809v-1.7h3.5v-0.9c0-0.8,0.1-1.5,0.4-2.1s0.6-1.1,1-1.5s1-0.7,1.6-0.9s1.3-0.3,2-0.3
				c0.5,0,1,0,1.5,0.1s1,0.2,1.5,0.3l-0.3,1.8c-0.3-0.1-0.7-0.2-1.1-0.3s-0.9-0.1-1.4-0.1c-1,0-1.8,0.3-2.3,0.8s-0.8,1.3-0.8,2.3
				v0.9h4.9v1.7h-4.9v11H812.5z"/>
			<path class="st6" d="M829.3,506.4c-0.9,0-1.7-0.2-2.5-0.5s-1.4-0.7-1.9-1.3s-0.9-1.2-1.2-1.9s-0.4-1.6-0.4-2.4v-0.5
				c0-1,0.2-1.9,0.5-2.7s0.8-1.5,1.3-2.1s1.2-1,1.9-1.3s1.4-0.4,2.1-0.4c0.9,0,1.7,0.2,2.4,0.5s1.3,0.8,1.7,1.3s0.8,1.2,1,2
				s0.3,1.6,0.3,2.5v1h-9.1c0,0.6,0.1,1.1,0.3,1.6s0.5,1,0.8,1.3s0.8,0.7,1.2,0.9s1,0.3,1.6,0.3c0.8,0,1.5-0.2,2.1-0.5
				s1.1-0.7,1.5-1.2l1.3,1c-0.2,0.3-0.5,0.6-0.8,0.9s-0.7,0.6-1.1,0.8s-0.9,0.4-1.4,0.5S829.9,506.4,829.3,506.4z M829,495.1
				c-0.4,0-0.9,0.1-1.2,0.2s-0.7,0.4-1.1,0.7s-0.6,0.7-0.8,1.1s-0.4,1-0.5,1.6h6.8v-0.2c0-0.4-0.1-0.8-0.2-1.3s-0.3-0.8-0.6-1.1
				s-0.6-0.6-1-0.8S829.5,495.1,829,495.1z"/>
			<path class="st6" d="M846.4,493.3c0.2,0,0.4,0,0.6,0s0.4,0,0.6,0.1s0.4,0.1,0.6,0.1s0.3,0.1,0.4,0.1l-0.3,2.1
				c-0.4-0.1-0.8-0.2-1.2-0.2s-0.8-0.1-1.2-0.1c-1,0-1.8,0.2-2.5,0.7s-1.1,1.1-1.4,1.9v8.1h-2.2v-12.7h2.1l0.1,2
				c0.5-0.7,1.1-1.2,1.9-1.6S845.5,493.3,846.4,493.3z"/>
			<path class="st6" d="M672,564.6c0-0.9,0.1-1.8,0.4-2.6s0.6-1.5,1-2s1-1,1.6-1.3s1.3-0.5,2.1-0.5c0.8,0,1.4,0.1,2,0.4
				s1.1,0.6,1.5,1.1V553h2.2v18h-2l-0.1-1.3c-0.4,0.5-0.9,0.9-1.5,1.2s-1.3,0.4-2.1,0.4c-0.8,0-1.5-0.2-2.1-0.5s-1.2-0.8-1.6-1.4
				s-0.8-1.3-1-2s-0.4-1.6-0.4-2.5V564.6z M674.2,564.8c0,0.6,0.1,1.2,0.2,1.8s0.3,1,0.6,1.5s0.6,0.8,1.1,1s0.9,0.4,1.5,0.4
				c0.4,0,0.7,0,1-0.1s0.6-0.2,0.8-0.4s0.5-0.4,0.6-0.6s0.4-0.5,0.5-0.7v-5.9c-0.3-0.5-0.7-0.9-1.1-1.3s-1.1-0.5-1.8-0.5
				c-0.6,0-1.1,0.1-1.6,0.4s-0.8,0.6-1.1,1s-0.5,0.9-0.6,1.5s-0.2,1.1-0.2,1.8V564.8z"/>
			<path class="st6" d="M695.1,558.1c0.2,0,0.4,0,0.6,0s0.4,0,0.6,0.1s0.4,0.1,0.6,0.1s0.3,0.1,0.4,0.1l-0.3,2.1
				c-0.4-0.1-0.8-0.2-1.2-0.2s-0.8-0.1-1.2-0.1c-1,0-1.8,0.2-2.5,0.7s-1.1,1.1-1.4,1.9v8.1h-2.2v-12.7h2.1l0.1,2
				c0.5-0.7,1.1-1.2,1.9-1.6S694.2,558.1,695.1,558.1z"/>
			<path class="st6" d="M709.6,571c-0.1-0.2-0.2-0.4-0.2-0.6s-0.1-0.5-0.1-0.8c-0.2,0.2-0.5,0.4-0.7,0.6s-0.6,0.4-0.9,0.5
				s-0.7,0.3-1,0.4s-0.8,0.1-1.2,0.1c-0.7,0-1.3-0.1-1.8-0.3s-1-0.5-1.4-0.8s-0.7-0.7-0.9-1.2s-0.3-1-0.3-1.5c0-0.7,0.1-1.3,0.4-1.8
				s0.7-1,1.2-1.3s1.1-0.6,1.8-0.8s1.5-0.3,2.4-0.3h2.4v-1c0-0.4-0.1-0.7-0.2-1s-0.3-0.6-0.6-0.8s-0.6-0.4-0.9-0.5s-0.8-0.2-1.2-0.2
				c-0.4,0-0.8,0.1-1.2,0.2s-0.6,0.3-0.9,0.4s-0.4,0.4-0.5,0.6s-0.2,0.5-0.2,0.8h-2.2c0-0.5,0.1-0.9,0.4-1.4s0.6-0.8,1-1.2
				s1-0.6,1.6-0.9s1.3-0.3,2.1-0.3c0.7,0,1.4,0.1,2,0.3s1.2,0.4,1.6,0.8s0.8,0.8,1.1,1.3s0.4,1.2,0.4,1.9v5.9c0,0.4,0,0.9,0.1,1.3
				s0.2,0.9,0.3,1.2v0.2H709.6z M705.7,569.4c0.4,0,0.8-0.1,1.2-0.2s0.7-0.3,1-0.4s0.6-0.4,0.8-0.6s0.4-0.5,0.5-0.7v-2.6h-2
				c-1.3,0-2.3,0.2-3,0.6s-1.1,1-1.1,1.8c0,0.3,0.1,0.6,0.2,0.9s0.3,0.5,0.5,0.7s0.5,0.3,0.8,0.5S705.3,569.4,705.7,569.4z"/>
			<path class="st6" d="M717.6,566.4l0.3,1.8l0.3-1.8l2-8.1h1.4l2,8.1l0.3,2l0.3-2l1.4-8.1h1.9l-2.7,12.7h-1.7l-2-7.8l-0.3-2l-0.3,2
				l-2,7.8h-1.7l-2.7-12.7h1.9L717.6,566.4z"/>
			<path class="st6" d="M730,554h10.3v1.9h-4.1v13.3h4.1v1.9H730v-1.9h4v-13.3h-4V554z"/>
			<path class="st6" d="M746.4,558.3l0.2,1.9c0.5-0.7,1-1.2,1.7-1.5s1.4-0.6,2.3-0.6c0.7,0,1.3,0.1,1.8,0.3s1,0.5,1.4,0.9
				s0.7,0.9,0.9,1.5s0.3,1.3,0.3,2.2v8.1h-2.2v-8c0-0.6-0.1-1-0.2-1.4s-0.3-0.7-0.6-0.9s-0.5-0.4-0.9-0.5s-0.8-0.2-1.2-0.2
				c-0.7,0-1.4,0.2-1.9,0.5s-1,0.8-1.3,1.4v9.1h-2.2v-12.7H746.4z"/>
			<path class="st6" d="M758.4,564.6c0-0.9,0.1-1.8,0.4-2.6s0.6-1.5,1-2s1-1,1.6-1.3s1.3-0.5,2.1-0.5c0.8,0,1.4,0.1,2,0.4
				s1.1,0.6,1.5,1.1V553h2.2v18h-2l-0.1-1.3c-0.4,0.5-0.9,0.9-1.5,1.2s-1.3,0.4-2.1,0.4c-0.8,0-1.5-0.2-2.1-0.5s-1.2-0.8-1.6-1.4
				s-0.8-1.3-1-2s-0.4-1.6-0.4-2.5V564.6z M760.6,564.8c0,0.6,0.1,1.2,0.2,1.8s0.3,1,0.6,1.5s0.6,0.8,1.1,1s0.9,0.4,1.5,0.4
				c0.4,0,0.7,0,1-0.1s0.6-0.2,0.8-0.4s0.5-0.4,0.6-0.6s0.4-0.5,0.5-0.7v-5.9c-0.3-0.5-0.7-0.9-1.1-1.3s-1.1-0.5-1.8-0.5
				c-0.6,0-1.1,0.1-1.6,0.4s-0.8,0.6-1.1,1s-0.5,0.9-0.6,1.5s-0.2,1.1-0.2,1.8V564.8z"/>
			<path class="st6" d="M778.8,571.2c-0.9,0-1.7-0.2-2.5-0.5s-1.4-0.7-1.9-1.3s-0.9-1.2-1.2-1.9s-0.4-1.6-0.4-2.4v-0.5
				c0-1,0.2-1.9,0.5-2.7s0.8-1.5,1.3-2.1s1.2-1,1.9-1.3s1.4-0.4,2.1-0.4c0.9,0,1.7,0.2,2.4,0.5s1.3,0.8,1.7,1.3s0.8,1.2,1,2
				s0.3,1.6,0.3,2.5v1H775c0,0.6,0.1,1.1,0.3,1.6s0.5,1,0.8,1.3s0.8,0.7,1.2,0.9s1,0.3,1.6,0.3c0.8,0,1.5-0.2,2.1-0.5
				s1.1-0.7,1.5-1.2l1.3,1c-0.2,0.3-0.5,0.6-0.8,0.9s-0.7,0.6-1.1,0.8s-0.9,0.4-1.4,0.5S779.5,571.2,778.8,571.2z M778.6,559.9
				c-0.4,0-0.9,0.1-1.2,0.2s-0.7,0.4-1.1,0.7s-0.6,0.7-0.8,1.1s-0.4,1-0.5,1.6h6.8v-0.2c0-0.4-0.1-0.8-0.2-1.3s-0.3-0.8-0.6-1.1
				s-0.6-0.6-1-0.8S779.1,559.9,778.6,559.9z"/>
			<path class="st6" d="M792.9,563l3.4-4.7h2.5l-4.7,6.3l4.9,6.4h-2.5l-3.5-4.8l-3.5,4.8h-2.5l4.9-6.4l-4.7-6.3h2.5L792.9,563z"/>
			<path class="st6" d="M807.7,571.2c-0.9,0-1.7-0.2-2.5-0.5s-1.4-0.7-1.9-1.3s-0.9-1.2-1.2-1.9s-0.4-1.6-0.4-2.4v-0.5
				c0-1,0.2-1.9,0.5-2.7s0.8-1.5,1.3-2.1s1.2-1,1.9-1.3s1.4-0.4,2.1-0.4c0.9,0,1.7,0.2,2.4,0.5s1.3,0.8,1.7,1.3s0.8,1.2,1,2
				s0.3,1.6,0.3,2.5v1h-9.1c0,0.6,0.1,1.1,0.3,1.6s0.5,1,0.8,1.3s0.8,0.7,1.2,0.9s1,0.3,1.6,0.3c0.8,0,1.5-0.2,2.1-0.5
				s1.1-0.7,1.5-1.2l1.3,1c-0.2,0.3-0.5,0.6-0.8,0.9s-0.7,0.6-1.1,0.8s-0.9,0.4-1.4,0.5S808.3,571.2,807.7,571.2z M807.4,559.9
				c-0.4,0-0.9,0.1-1.2,0.2s-0.7,0.4-1.1,0.7s-0.6,0.7-0.8,1.1s-0.4,1-0.5,1.6h6.8v-0.2c0-0.4-0.1-0.8-0.2-1.3s-0.3-0.8-0.6-1.1
				s-0.6-0.6-1-0.8S807.9,559.9,807.4,559.9z"/>
			<path class="st6" d="M816,564.6c0-0.9,0.1-1.8,0.4-2.6s0.6-1.5,1-2s1-1,1.6-1.3s1.3-0.5,2.1-0.5c0.8,0,1.4,0.1,2,0.4
				s1.1,0.6,1.5,1.1V553h2.2v18h-2l-0.1-1.3c-0.4,0.5-0.9,0.9-1.5,1.2s-1.3,0.4-2.1,0.4c-0.8,0-1.5-0.2-2.1-0.5s-1.2-0.8-1.6-1.4
				s-0.8-1.3-1-2s-0.4-1.6-0.4-2.5V564.6z M818.2,564.8c0,0.6,0.1,1.2,0.2,1.8s0.3,1,0.6,1.5s0.6,0.8,1.1,1s0.9,0.4,1.5,0.4
				c0.4,0,0.7,0,1-0.1s0.6-0.2,0.8-0.4s0.5-0.4,0.6-0.6s0.4-0.5,0.5-0.7v-5.9c-0.3-0.5-0.7-0.9-1.1-1.3s-1.1-0.5-1.8-0.5
				c-0.6,0-1.1,0.1-1.6,0.4s-0.8,0.6-1.1,1s-0.5,0.9-0.6,1.5s-0.2,1.1-0.2,1.8V564.8z"/>
			<path class="st6" d="M706.8,636c-0.9,0-1.7-0.2-2.5-0.5s-1.4-0.7-1.9-1.3s-0.9-1.2-1.2-1.9s-0.4-1.6-0.4-2.4v-0.5
				c0-1,0.2-1.9,0.5-2.7s0.8-1.5,1.3-2.1s1.2-1,1.9-1.3s1.4-0.4,2.1-0.4c0.9,0,1.7,0.2,2.4,0.5s1.3,0.8,1.7,1.3s0.8,1.2,1,2
				s0.3,1.6,0.3,2.5v1h-9.1c0,0.6,0.1,1.1,0.3,1.6s0.5,1,0.8,1.3s0.8,0.7,1.2,0.9s1,0.3,1.6,0.3c0.8,0,1.5-0.2,2.1-0.5
				s1.1-0.7,1.5-1.2l1.3,1c-0.2,0.3-0.5,0.6-0.8,0.9s-0.7,0.6-1.1,0.8s-0.9,0.4-1.4,0.5S707.5,636,706.8,636z M706.6,624.7
				c-0.4,0-0.9,0.1-1.2,0.2s-0.7,0.4-1.1,0.7s-0.6,0.7-0.8,1.1s-0.4,1-0.5,1.6h6.8v-0.2c0-0.4-0.1-0.8-0.2-1.3s-0.3-0.8-0.6-1.1
				s-0.6-0.6-1-0.8S707.1,624.7,706.6,624.7z"/>
			<path class="st6" d="M717.6,623.1l0.2,1.9c0.5-0.7,1-1.2,1.7-1.5s1.4-0.6,2.3-0.6c0.7,0,1.3,0.1,1.8,0.3s1,0.5,1.4,0.9
				s0.7,0.9,0.9,1.5s0.3,1.3,0.3,2.2v8.1h-2.2v-8c0-0.6-0.1-1-0.2-1.4s-0.3-0.7-0.6-0.9s-0.5-0.4-0.9-0.5s-0.8-0.2-1.2-0.2
				c-0.7,0-1.4,0.2-1.9,0.5s-1,0.8-1.3,1.4v9.1h-2.2v-12.7H717.6z"/>
			<path class="st6" d="M729.6,629.4c0-0.9,0.1-1.8,0.4-2.6s0.6-1.5,1-2s1-1,1.6-1.3s1.3-0.5,2.1-0.5c0.8,0,1.4,0.1,2,0.4
				s1.1,0.6,1.5,1.1v-6.6h2.2v18h-2l-0.1-1.3c-0.4,0.5-0.9,0.9-1.5,1.2s-1.3,0.4-2.1,0.4c-0.8,0-1.5-0.2-2.1-0.5s-1.2-0.8-1.6-1.4
				s-0.8-1.3-1-2s-0.4-1.6-0.4-2.5V629.4z M731.8,629.6c0,0.6,0.1,1.2,0.2,1.8s0.3,1,0.6,1.5s0.6,0.8,1.1,1s0.9,0.4,1.5,0.4
				c0.4,0,0.7,0,1-0.1s0.6-0.2,0.8-0.4s0.5-0.4,0.6-0.6s0.4-0.5,0.5-0.7v-5.9c-0.3-0.5-0.7-0.9-1.1-1.3s-1.1-0.5-1.8-0.5
				c-0.6,0-1.1,0.1-1.6,0.4s-0.8,0.6-1.1,1s-0.5,0.9-0.6,1.5s-0.2,1.1-0.2,1.8V629.6z"/>
			<path class="st6" d="M746.8,629v6.8h-2.2v-17.1h5.5c0.8,0,1.5,0.1,2.2,0.4s1.3,0.6,1.8,1s0.9,1,1.2,1.6s0.5,1.4,0.5,2.2
				s-0.2,1.5-0.5,2.2s-0.7,1.2-1.2,1.6s-1.1,0.8-1.8,1s-1.4,0.3-2.2,0.4H746.8z M746.8,627.2h3.4c0.5,0,1-0.1,1.4-0.2
				s0.8-0.4,1.1-0.7s0.6-0.6,0.7-1s0.3-0.9,0.3-1.4s-0.1-1-0.3-1.4s-0.4-0.8-0.7-1.1s-0.7-0.5-1.1-0.7s-0.9-0.2-1.4-0.2h-3.4V627.2z
				"/>
			<path class="st6" d="M767.2,635.8c-0.1-0.2-0.2-0.4-0.2-0.6s-0.1-0.5-0.1-0.8c-0.2,0.2-0.5,0.4-0.7,0.6s-0.6,0.4-0.9,0.5
				s-0.7,0.3-1,0.4s-0.8,0.1-1.2,0.1c-0.7,0-1.3-0.1-1.8-0.3s-1-0.5-1.4-0.8s-0.7-0.7-0.9-1.2s-0.3-1-0.3-1.5c0-0.7,0.1-1.3,0.4-1.8
				s0.7-1,1.2-1.3s1.1-0.6,1.8-0.8s1.5-0.3,2.4-0.3h2.4v-1c0-0.4-0.1-0.7-0.2-1s-0.3-0.6-0.6-0.8s-0.6-0.4-0.9-0.5s-0.8-0.2-1.2-0.2
				c-0.4,0-0.8,0.1-1.2,0.2s-0.6,0.3-0.9,0.4s-0.4,0.4-0.5,0.6s-0.2,0.5-0.2,0.8h-2.2c0-0.5,0.1-0.9,0.4-1.4s0.6-0.8,1-1.2
				s1-0.6,1.6-0.9s1.3-0.3,2.1-0.3c0.7,0,1.4,0.1,2,0.3s1.2,0.4,1.6,0.8s0.8,0.8,1.1,1.3s0.4,1.2,0.4,1.9v5.9c0,0.4,0,0.9,0.1,1.3
				s0.2,0.9,0.3,1.2v0.2H767.2z M763.3,634.2c0.4,0,0.8-0.1,1.2-0.2s0.7-0.3,1-0.4s0.6-0.4,0.8-0.6s0.4-0.5,0.5-0.7v-2.6h-2
				c-1.3,0-2.3,0.2-3,0.6s-1.1,1-1.1,1.8c0,0.3,0.1,0.6,0.2,0.9s0.3,0.5,0.5,0.7s0.5,0.3,0.8,0.5S762.9,634.2,763.3,634.2z"/>
			<path class="st6" d="M781.7,632.5c0-0.3-0.1-0.5-0.2-0.7s-0.3-0.4-0.5-0.6s-0.6-0.3-1-0.5s-0.9-0.3-1.5-0.4
				c-0.7-0.1-1.4-0.3-2-0.5s-1.1-0.5-1.5-0.8s-0.8-0.6-1-1s-0.4-0.9-0.4-1.4c0-0.5,0.1-1,0.4-1.4s0.6-0.8,1-1.2s1-0.6,1.6-0.8
				s1.3-0.3,2-0.3c0.8,0,1.5,0.1,2.1,0.3s1.2,0.5,1.6,0.8s0.8,0.8,1,1.3s0.4,1,0.4,1.6h-2.2c0-0.3-0.1-0.5-0.2-0.8s-0.3-0.5-0.6-0.7
				s-0.6-0.4-0.9-0.5s-0.8-0.2-1.2-0.2c-0.5,0-0.9,0.1-1.2,0.2s-0.6,0.2-0.9,0.4s-0.4,0.4-0.5,0.6s-0.2,0.5-0.2,0.7
				c0,0.3,0,0.5,0.1,0.7s0.3,0.4,0.5,0.5s0.5,0.3,0.9,0.4s0.9,0.2,1.5,0.4c0.8,0.2,1.5,0.4,2.1,0.6s1.1,0.5,1.6,0.8s0.7,0.7,1,1
				s0.3,0.9,0.3,1.4c0,0.6-0.1,1.1-0.4,1.5s-0.6,0.9-1.1,1.2s-1,0.6-1.6,0.8s-1.3,0.3-2.1,0.3c-0.9,0-1.6-0.1-2.3-0.3
				s-1.2-0.5-1.7-0.9s-0.8-0.8-1.1-1.3s-0.4-1-0.4-1.6h2.2c0,0.4,0.2,0.8,0.4,1.1s0.5,0.6,0.8,0.7s0.7,0.3,1,0.4s0.7,0.1,1.1,0.1
				c0.9,0,1.6-0.2,2.2-0.5S781.7,633,781.7,632.5z"/>
			<path class="st6" d="M796.1,632.5c0-0.3-0.1-0.5-0.2-0.7s-0.3-0.4-0.5-0.6s-0.6-0.3-1-0.5s-0.9-0.3-1.5-0.4
				c-0.7-0.1-1.4-0.3-2-0.5s-1.1-0.5-1.5-0.8s-0.8-0.6-1-1s-0.4-0.9-0.4-1.4c0-0.5,0.1-1,0.4-1.4s0.6-0.8,1-1.2s1-0.6,1.6-0.8
				s1.3-0.3,2-0.3c0.8,0,1.5,0.1,2.1,0.3s1.2,0.5,1.6,0.8s0.8,0.8,1,1.3s0.4,1,0.4,1.6h-2.2c0-0.3-0.1-0.5-0.2-0.8s-0.3-0.5-0.6-0.7
				s-0.6-0.4-0.9-0.5s-0.8-0.2-1.2-0.2c-0.5,0-0.9,0.1-1.2,0.2s-0.6,0.2-0.9,0.4s-0.4,0.4-0.5,0.6s-0.2,0.5-0.2,0.7
				c0,0.3,0,0.5,0.1,0.7s0.3,0.4,0.5,0.5s0.5,0.3,0.9,0.4s0.9,0.2,1.5,0.4c0.8,0.2,1.5,0.4,2.1,0.6s1.1,0.5,1.6,0.8s0.7,0.7,1,1
				s0.3,0.9,0.3,1.4c0,0.6-0.1,1.1-0.4,1.5s-0.6,0.9-1.1,1.2s-1,0.6-1.6,0.8s-1.3,0.3-2.1,0.3c-0.9,0-1.6-0.1-2.3-0.3
				s-1.2-0.5-1.7-0.9s-0.8-0.8-1.1-1.3s-0.4-1-0.4-1.6h2.2c0,0.4,0.2,0.8,0.4,1.1s0.5,0.6,0.8,0.7s0.7,0.3,1,0.4s0.7,0.1,1.1,0.1
				c0.9,0,1.6-0.2,2.2-0.5S796.1,633,796.1,632.5z"/>
		</g>
		<g>
			<path class="st6" d="M633.9,193.4v-17.2h7.6c1.5,0,2.7,0.2,3.5,0.5s1.4,0.9,1.9,1.6s0.7,1.6,0.7,2.6c0,1.2-0.4,2.2-1.2,3.1
				s-2,1.4-3.7,1.6c0.6,0.3,1.1,0.6,1.4,0.9c0.7,0.6,1.3,1.4,1.9,2.3l3,4.7h-2.9l-2.3-3.6c-0.7-1-1.2-1.8-1.6-2.4s-0.8-0.9-1.2-1.1
				s-0.7-0.4-1-0.5c-0.3-0.1-0.7-0.1-1.3-0.1h-2.6v7.6H633.9z M636.2,183.8h4.9c1,0,1.9-0.1,2.4-0.3s1-0.6,1.3-1s0.5-1,0.5-1.5
				c0-0.8-0.3-1.5-0.9-2s-1.5-0.8-2.8-0.8h-5.4V183.8z"/>
			<path class="st6" d="M659.5,189.4l2.2,0.3c-0.3,1.3-1,2.3-1.9,3s-2.1,1.1-3.6,1.1c-1.8,0-3.3-0.6-4.3-1.7s-1.6-2.7-1.6-4.7
				c0-2.1,0.5-3.7,1.6-4.9s2.5-1.7,4.2-1.7c1.7,0,3,0.6,4.1,1.7s1.6,2.7,1.6,4.8c0,0.1,0,0.3,0,0.6h-9.3c0.1,1.4,0.5,2.4,1.2,3.1
				s1.6,1.1,2.6,1.1c0.8,0,1.4-0.2,2-0.6S659.2,190.3,659.5,189.4z M652.5,186h6.9c-0.1-1-0.4-1.8-0.8-2.4c-0.7-0.8-1.5-1.2-2.6-1.2
				c-1,0-1.8,0.3-2.4,1S652.6,184.9,652.5,186z"/>
			<path class="st6" d="M664.3,193.4V181h1.9v1.8c0.9-1.4,2.2-2.1,4-2.1c0.8,0,1.4,0.1,2.1,0.4s1.1,0.6,1.4,1.1s0.5,1,0.7,1.6
				c0.1,0.4,0.1,1.1,0.1,2.1v7.7h-2.1v-7.6c0-0.9-0.1-1.5-0.2-1.9s-0.5-0.8-0.9-1s-0.9-0.4-1.5-0.4c-0.9,0-1.7,0.3-2.3,0.9
				s-1,1.7-1,3.2v6.8H664.3z"/>
			<path class="st6" d="M685.7,193.4v-1.6c-0.8,1.2-1.9,1.9-3.5,1.9c-1,0-1.9-0.3-2.7-0.8s-1.5-1.3-1.9-2.3s-0.7-2.1-0.7-3.4
				c0-1.2,0.2-2.4,0.6-3.4s1-1.8,1.9-2.3s1.8-0.8,2.8-0.8c0.8,0,1.4,0.2,2,0.5s1.1,0.7,1.4,1.2v-6.2h2.1v17.2H685.7z M679.1,187.2
				c0,1.6,0.3,2.8,1,3.6s1.5,1.2,2.4,1.2c0.9,0,1.7-0.4,2.3-1.1s1-1.9,1-3.5c0-1.7-0.3-3-1-3.8s-1.5-1.2-2.4-1.2
				c-0.9,0-1.7,0.4-2.3,1.1S679.1,185.5,679.1,187.2z"/>
			<path class="st6" d="M699.5,189.4l2.2,0.3c-0.3,1.3-1,2.3-1.9,3s-2.1,1.1-3.6,1.1c-1.8,0-3.3-0.6-4.3-1.7s-1.6-2.7-1.6-4.7
				c0-2.1,0.5-3.7,1.6-4.9s2.5-1.7,4.2-1.7c1.7,0,3,0.6,4.1,1.7s1.6,2.7,1.6,4.8c0,0.1,0,0.3,0,0.6h-9.3c0.1,1.4,0.5,2.4,1.2,3.1
				s1.6,1.1,2.6,1.1c0.8,0,1.4-0.2,2-0.6S699.2,190.3,699.5,189.4z M692.6,186h6.9c-0.1-1-0.4-1.8-0.8-2.4c-0.7-0.8-1.5-1.2-2.6-1.2
				c-1,0-1.8,0.3-2.4,1S692.7,184.9,692.6,186z"/>
			<path class="st6" d="M704.3,193.4V181h1.9v1.9c0.5-0.9,0.9-1.5,1.3-1.7s0.9-0.4,1.4-0.4c0.7,0,1.4,0.2,2.2,0.7l-0.7,2
				c-0.5-0.3-1-0.5-1.5-0.5c-0.5,0-0.9,0.1-1.2,0.4s-0.6,0.7-0.8,1.2c-0.2,0.8-0.4,1.6-0.4,2.5v6.5H704.3z"/>
			<path class="st6" d="M719.3,193.4v-17.2h6.5c1.1,0,2,0.1,2.6,0.2c0.8,0.1,1.6,0.4,2.1,0.8s1,0.9,1.4,1.7s0.5,1.5,0.5,2.3
				c0,1.5-0.5,2.7-1.4,3.7s-2.6,1.5-5,1.5h-4.4v7H719.3z M721.5,184.4h4.4c1.5,0,2.5-0.3,3.1-0.8s0.9-1.3,0.9-2.3
				c0-0.7-0.2-1.3-0.5-1.8s-0.8-0.8-1.4-1c-0.4-0.1-1.1-0.2-2.1-0.2h-4.4V184.4z"/>
			<path class="st6" d="M743.1,191.9c-0.8,0.7-1.5,1.1-2.3,1.4s-1.5,0.4-2.3,0.4c-1.4,0-2.4-0.3-3.2-1s-1.1-1.5-1.1-2.6
				c0-0.6,0.1-1.2,0.4-1.7s0.6-0.9,1.1-1.2s1-0.5,1.5-0.7c0.4-0.1,1-0.2,1.9-0.3c1.7-0.2,3-0.4,3.8-0.7c0-0.3,0-0.5,0-0.6
				c0-0.9-0.2-1.5-0.6-1.8c-0.5-0.5-1.3-0.7-2.4-0.7c-1,0-1.7,0.2-2.2,0.5s-0.8,1-1,1.8l-2.1-0.3c0.2-0.9,0.5-1.6,0.9-2.1
				s1.1-1,1.9-1.3s1.8-0.4,2.8-0.4c1.1,0,1.9,0.1,2.6,0.4s1.2,0.6,1.5,0.9s0.5,0.9,0.7,1.4c0.1,0.4,0.1,1,0.1,1.9v2.8
				c0,2,0,3.2,0.1,3.7s0.3,1,0.5,1.5h-2.2C743.3,193,743.2,192.5,743.1,191.9z M743,187.2c-0.8,0.3-1.9,0.6-3.4,0.8
				c-0.9,0.1-1.5,0.3-1.8,0.4s-0.6,0.4-0.8,0.7s-0.3,0.6-0.3,1c0,0.6,0.2,1,0.6,1.4s1,0.6,1.9,0.6c0.8,0,1.5-0.2,2.2-0.5
				s1.1-0.8,1.4-1.5c0.2-0.5,0.3-1.2,0.3-2.1V187.2z"/>
			<path class="st6" d="M747.5,189.7l2.1-0.3c0.1,0.8,0.4,1.5,1,1.9s1.3,0.7,2.2,0.7c1,0,1.7-0.2,2.2-0.6s0.7-0.9,0.7-1.4
				c0-0.5-0.2-0.9-0.6-1.1c-0.3-0.2-1-0.4-2.2-0.7c-1.5-0.4-2.6-0.7-3.2-1s-1.1-0.7-1.4-1.2s-0.5-1.1-0.5-1.7c0-0.6,0.1-1.1,0.4-1.5
				s0.6-0.9,1-1.2c0.3-0.2,0.8-0.4,1.3-0.6s1.2-0.3,1.8-0.3c1,0,1.8,0.1,2.6,0.4s1.3,0.7,1.6,1.1s0.6,1.1,0.7,1.9l-2.1,0.3
				c-0.1-0.6-0.4-1.1-0.8-1.5s-1.1-0.5-1.9-0.5c-1,0-1.7,0.2-2.1,0.5s-0.6,0.7-0.6,1.1c0,0.3,0.1,0.5,0.3,0.7
				c0.2,0.2,0.4,0.4,0.8,0.6c0.2,0.1,0.8,0.3,1.9,0.5c1.5,0.4,2.5,0.7,3.1,1s1.1,0.6,1.4,1.1s0.5,1.1,0.5,1.8c0,0.7-0.2,1.4-0.6,2
				s-1,1.1-1.8,1.4s-1.6,0.5-2.6,0.5c-1.6,0-2.8-0.3-3.7-1S747.7,191,747.5,189.7z"/>
			<path class="st6" d="M759.5,189.7l2.1-0.3c0.1,0.8,0.4,1.5,1,1.9s1.3,0.7,2.2,0.7c1,0,1.7-0.2,2.2-0.6s0.7-0.9,0.7-1.4
				c0-0.5-0.2-0.9-0.6-1.1c-0.3-0.2-1-0.4-2.2-0.7c-1.5-0.4-2.6-0.7-3.2-1s-1.1-0.7-1.4-1.2s-0.5-1.1-0.5-1.7c0-0.6,0.1-1.1,0.4-1.5
				s0.6-0.9,1-1.2c0.3-0.2,0.8-0.4,1.3-0.6s1.2-0.3,1.8-0.3c1,0,1.8,0.1,2.6,0.4s1.3,0.7,1.6,1.1s0.6,1.1,0.7,1.9l-2.1,0.3
				c-0.1-0.6-0.4-1.1-0.8-1.5s-1.1-0.5-1.9-0.5c-1,0-1.7,0.2-2.1,0.5s-0.6,0.7-0.6,1.1c0,0.3,0.1,0.5,0.3,0.7
				c0.2,0.2,0.4,0.4,0.8,0.6c0.2,0.1,0.8,0.3,1.9,0.5c1.5,0.4,2.5,0.7,3.1,1s1.1,0.6,1.4,1.1s0.5,1.1,0.5,1.8c0,0.7-0.2,1.4-0.6,2
				s-1,1.1-1.8,1.4s-1.6,0.5-2.6,0.5c-1.6,0-2.8-0.3-3.7-1S759.7,191,759.5,189.7z"/>
			<path class="st6" d="M779.3,193.4v-17.2h12.4v2h-10.1v5.3h9.5v2h-9.5v5.8h10.5v2H779.3z"/>
			<path class="st6" d="M795,193.4V181h1.9v1.8c0.9-1.4,2.2-2.1,4-2.1c0.8,0,1.4,0.1,2.1,0.4s1.1,0.6,1.4,1.1s0.5,1,0.7,1.6
				c0.1,0.4,0.1,1.1,0.1,2.1v7.7H803v-7.6c0-0.9-0.1-1.5-0.2-1.9s-0.5-0.8-0.9-1s-0.9-0.4-1.5-0.4c-0.9,0-1.7,0.3-2.3,0.9
				s-1,1.7-1,3.2v6.8H795z"/>
			<path class="st6" d="M816.5,188.8l2.1,0.3c-0.2,1.4-0.8,2.5-1.7,3.4s-2.1,1.2-3.4,1.2c-1.7,0-3.1-0.6-4.1-1.7s-1.6-2.7-1.6-4.8
				c0-1.3,0.2-2.5,0.7-3.5s1.1-1.8,2-2.3s1.9-0.8,3-0.8c1.4,0,2.5,0.3,3.3,1s1.4,1.7,1.7,2.9l-2.1,0.3c-0.2-0.8-0.5-1.5-1-1.9
				s-1.1-0.6-1.8-0.6c-1.1,0-1.9,0.4-2.6,1.1s-1,2-1,3.6c0,1.7,0.3,2.9,1,3.6s1.5,1.1,2.5,1.1c0.8,0,1.5-0.3,2.1-0.8
				S816.4,189.9,816.5,188.8z"/>
			<path class="st6" d="M819.6,187.2c0-2.3,0.6-4,1.9-5.1c1.1-0.9,2.4-1.4,3.9-1.4c1.7,0,3.1,0.6,4.2,1.7s1.6,2.7,1.6,4.6
				c0,1.6-0.2,2.9-0.7,3.8s-1.2,1.6-2.1,2.1s-1.9,0.8-3,0.8c-1.7,0-3.2-0.6-4.2-1.7S819.6,189.3,819.6,187.2z M821.8,187.2
				c0,1.6,0.3,2.8,1,3.6s1.6,1.2,2.6,1.2c1,0,1.9-0.4,2.6-1.2s1-2,1-3.6c0-1.5-0.3-2.7-1-3.5s-1.6-1.2-2.6-1.2
				c-1.1,0-1.9,0.4-2.6,1.2S821.8,185.6,821.8,187.2z"/>
			<path class="st6" d="M841.8,193.4v-1.6c-0.8,1.2-1.9,1.9-3.5,1.9c-1,0-1.9-0.3-2.7-0.8s-1.5-1.3-1.9-2.3s-0.7-2.1-0.7-3.4
				c0-1.2,0.2-2.4,0.6-3.4s1-1.8,1.9-2.3s1.8-0.8,2.8-0.8c0.8,0,1.4,0.2,2,0.5s1.1,0.7,1.4,1.2v-6.2h2.1v17.2H841.8z M835.1,187.2
				c0,1.6,0.3,2.8,1,3.6s1.5,1.2,2.4,1.2c0.9,0,1.7-0.4,2.3-1.1s1-1.9,1-3.5c0-1.7-0.3-3-1-3.8s-1.5-1.2-2.4-1.2
				c-0.9,0-1.7,0.4-2.3,1.1S835.1,185.5,835.1,187.2z"/>
			<path class="st6" d="M855.6,189.4l2.2,0.3c-0.3,1.3-1,2.3-1.9,3s-2.1,1.1-3.6,1.1c-1.8,0-3.3-0.6-4.3-1.7s-1.6-2.7-1.6-4.7
				c0-2.1,0.5-3.7,1.6-4.9s2.5-1.7,4.2-1.7c1.7,0,3,0.6,4.1,1.7s1.6,2.7,1.6,4.8c0,0.1,0,0.3,0,0.6h-9.3c0.1,1.4,0.5,2.4,1.2,3.1
				s1.6,1.1,2.6,1.1c0.8,0,1.4-0.2,2-0.6S855.3,190.3,855.6,189.4z M848.7,186h6.9c-0.1-1-0.4-1.8-0.8-2.4c-0.7-0.8-1.5-1.2-2.6-1.2
				c-1,0-1.8,0.3-2.4,1S848.7,184.9,848.7,186z"/>
			<path class="st6" d="M860.4,193.4V181h1.9v1.9c0.5-0.9,0.9-1.5,1.3-1.7s0.9-0.4,1.4-0.4c0.7,0,1.4,0.2,2.2,0.7l-0.7,2
				c-0.5-0.3-1-0.5-1.5-0.5c-0.5,0-0.9,0.1-1.2,0.4s-0.6,0.7-0.8,1.2c-0.2,0.8-0.4,1.6-0.4,2.5v6.5H860.4z"/>
		</g>
	</g>
	<g>
		<g>
			<polygon class="st4" points="175.9,160 527.9,160 525.8,336 173.8,336 			"/>
			<rect x="175.9" y="208" class="st5" width="352" height="64"/>
		</g>
		<g>
			<path class="st6" d="M254.7,240.8c0,0.9-0.1,1.8-0.3,2.5s-0.5,1.5-1,2s-0.9,1-1.6,1.4s-1.3,0.5-2.1,0.5c-0.8,0-1.5-0.1-2.1-0.4
				s-1.1-0.7-1.5-1.2L246,247h-2v-18h2.2v6.7c0.4-0.5,0.9-0.9,1.5-1.2s1.3-0.4,2.1-0.4c0.8,0,1.5,0.2,2.2,0.5s1.1,0.8,1.6,1.3
				s0.7,1.3,1,2s0.3,1.7,0.3,2.6V240.8z M252.5,240.6c0-0.6-0.1-1.2-0.2-1.8s-0.3-1.1-0.6-1.5s-0.6-0.8-1-1s-1-0.4-1.6-0.4
				c-0.4,0-0.7,0-1,0.1s-0.6,0.2-0.8,0.4s-0.5,0.4-0.7,0.6s-0.4,0.5-0.5,0.8v5.5c0.1,0.3,0.3,0.5,0.5,0.8s0.4,0.4,0.7,0.6
				s0.5,0.3,0.8,0.4s0.7,0.1,1,0.1c0.6,0,1.1-0.1,1.5-0.4s0.8-0.6,1-1s0.5-0.9,0.6-1.5s0.2-1.1,0.2-1.8V240.6z"/>
			<path class="st6" d="M264,247.2c-0.9,0-1.7-0.2-2.5-0.5s-1.4-0.7-1.9-1.3s-0.9-1.2-1.2-1.9s-0.4-1.6-0.4-2.4v-0.5
				c0-1,0.2-1.9,0.5-2.7s0.8-1.5,1.3-2.1s1.2-1,1.9-1.3s1.4-0.4,2.1-0.4c0.9,0,1.7,0.2,2.4,0.5s1.3,0.8,1.7,1.3s0.8,1.2,1,2
				s0.3,1.6,0.3,2.5v1h-9.1c0,0.6,0.1,1.1,0.3,1.6s0.5,1,0.8,1.3s0.8,0.7,1.2,0.9s1,0.3,1.6,0.3c0.8,0,1.5-0.2,2.1-0.5
				s1.1-0.7,1.5-1.2l1.3,1c-0.2,0.3-0.5,0.6-0.8,0.9s-0.7,0.6-1.1,0.8s-0.9,0.4-1.4,0.5S264.6,247.2,264,247.2z M263.7,235.9
				c-0.4,0-0.9,0.1-1.2,0.2s-0.7,0.4-1.1,0.7s-0.6,0.7-0.8,1.1s-0.4,1-0.5,1.6h6.8v-0.2c0-0.4-0.1-0.8-0.2-1.3s-0.3-0.8-0.6-1.1
				s-0.6-0.6-1-0.8S264.2,235.9,263.7,235.9z"/>
			<path class="st6" d="M272.4,240.6c0-0.9,0.1-1.8,0.3-2.6s0.6-1.5,1-2s1-1,1.6-1.3s1.3-0.5,2.1-0.5c0.8,0,1.5,0.1,2.1,0.4
				s1.1,0.7,1.5,1.2l0.1-1.4h2v12.4c0,0.8-0.1,1.6-0.4,2.2s-0.6,1.2-1.1,1.7s-1,0.8-1.7,1s-1.4,0.4-2.2,0.4c-0.3,0-0.7,0-1.1-0.1
				s-0.8-0.2-1.3-0.4s-0.9-0.4-1.3-0.7s-0.7-0.6-1-1l1.1-1.3c0.3,0.3,0.5,0.6,0.8,0.8s0.6,0.4,0.9,0.5s0.6,0.2,0.9,0.3
				s0.6,0.1,0.9,0.1c0.5,0,1-0.1,1.4-0.2s0.8-0.4,1.1-0.7s0.5-0.6,0.7-1.1s0.2-0.9,0.2-1.5v-1.1c-0.4,0.5-0.9,0.9-1.5,1.1
				s-1.2,0.4-2,0.4c-0.8,0-1.5-0.2-2.1-0.5s-1.2-0.8-1.6-1.4s-0.8-1.3-1-2s-0.4-1.6-0.4-2.5V240.6z M274.5,240.8
				c0,0.6,0.1,1.2,0.2,1.8s0.3,1,0.6,1.5s0.6,0.8,1.1,1s0.9,0.4,1.5,0.4c0.4,0,0.7,0,1-0.1s0.6-0.2,0.8-0.4s0.5-0.4,0.6-0.6
				s0.4-0.5,0.5-0.8v-5.8c-0.1-0.3-0.3-0.5-0.5-0.7s-0.4-0.4-0.6-0.6s-0.5-0.3-0.8-0.4s-0.6-0.1-1-0.1c-0.6,0-1.1,0.1-1.6,0.4
				s-0.8,0.6-1.1,1s-0.5,0.9-0.6,1.5s-0.2,1.1-0.2,1.8V240.8z"/>
			<path class="st6" d="M287.5,234.3h6.5v10.8h4.1v1.9h-10.6v-1.9h4.3v-8.9h-4.3V234.3z M291.5,231c0-0.4,0.1-0.7,0.3-0.9
				s0.5-0.4,1-0.4c0.4,0,0.8,0.1,1,0.4s0.3,0.5,0.3,0.9c0,0.4-0.1,0.6-0.3,0.9s-0.5,0.4-1,0.4c-0.4,0-0.8-0.1-1-0.4
				S291.5,231.4,291.5,231z"/>
			<path class="st6" d="M303.5,234.3l0.2,1.9c0.5-0.7,1-1.2,1.7-1.5s1.4-0.6,2.3-0.6c0.7,0,1.3,0.1,1.8,0.3s1,0.5,1.4,0.9
				s0.7,0.9,0.9,1.5s0.3,1.3,0.3,2.2v8.1h-2.2v-8c0-0.6-0.1-1-0.2-1.4s-0.3-0.7-0.6-0.9s-0.5-0.4-0.9-0.5s-0.8-0.2-1.2-0.2
				c-0.7,0-1.4,0.2-1.9,0.5s-1,0.8-1.3,1.4v9.1h-2.2v-12.7H303.5z"/>
			<path class="st6" d="M321.6,240.1h-3.4v7h-2.2V230h5c0.8,0,1.5,0.1,2.3,0.3s1.3,0.5,1.8,0.9s0.9,1,1.2,1.6s0.5,1.4,0.5,2.2
				c0,0.6-0.1,1.1-0.2,1.5s-0.4,0.9-0.7,1.3s-0.6,0.7-1,1s-0.8,0.5-1.3,0.7l3.6,7.3l0,0.1H325L321.6,240.1z M318.2,238.3h2.9
				c0.5,0,0.9-0.1,1.4-0.2s0.8-0.4,1.1-0.6s0.6-0.6,0.8-1s0.3-0.8,0.3-1.4c0-0.5-0.1-1-0.3-1.4s-0.4-0.8-0.8-1s-0.7-0.5-1.1-0.6
				s-0.9-0.2-1.4-0.2h-2.8V238.3z"/>
			<path class="st6" d="M336,247.2c-0.9,0-1.7-0.2-2.5-0.5s-1.4-0.7-1.9-1.3s-0.9-1.2-1.2-1.9s-0.4-1.6-0.4-2.4v-0.5
				c0-1,0.2-1.9,0.5-2.7s0.8-1.5,1.3-2.1s1.2-1,1.9-1.3s1.4-0.4,2.1-0.4c0.9,0,1.7,0.2,2.4,0.5s1.3,0.8,1.7,1.3s0.8,1.2,1,2
				s0.3,1.6,0.3,2.5v1h-9.1c0,0.6,0.1,1.1,0.3,1.6s0.5,1,0.8,1.3s0.8,0.7,1.2,0.9s1,0.3,1.6,0.3c0.8,0,1.5-0.2,2.1-0.5
				s1.1-0.7,1.5-1.2l1.3,1c-0.2,0.3-0.5,0.6-0.8,0.9s-0.7,0.6-1.1,0.8s-0.9,0.4-1.4,0.5S336.6,247.2,336,247.2z M335.7,235.9
				c-0.4,0-0.9,0.1-1.2,0.2s-0.7,0.4-1.1,0.7s-0.6,0.7-0.8,1.1s-0.4,1-0.5,1.6h6.8v-0.2c0-0.4-0.1-0.8-0.2-1.3s-0.3-0.8-0.6-1.1
				s-0.6-0.6-1-0.8S336.2,235.9,335.7,235.9z"/>
			<path class="st6" d="M346.7,234.3l0.2,1.9c0.5-0.7,1-1.2,1.7-1.5s1.4-0.6,2.3-0.6c0.7,0,1.3,0.1,1.8,0.3s1,0.5,1.4,0.9
				s0.7,0.9,0.9,1.5s0.3,1.3,0.3,2.2v8.1H353v-8c0-0.6-0.1-1-0.2-1.4s-0.3-0.7-0.6-0.9s-0.5-0.4-0.9-0.5s-0.8-0.2-1.2-0.2
				c-0.7,0-1.4,0.2-1.9,0.5s-1,0.8-1.3,1.4v9.1h-2.2v-12.7H346.7z"/>
			<path class="st6" d="M358.8,240.6c0-0.9,0.1-1.8,0.4-2.6s0.6-1.5,1-2s1-1,1.6-1.3s1.3-0.5,2.1-0.5c0.8,0,1.4,0.1,2,0.4
				s1.1,0.6,1.5,1.1V229h2.2v18h-2l-0.1-1.3c-0.4,0.5-0.9,0.9-1.5,1.2s-1.3,0.4-2.1,0.4c-0.8,0-1.5-0.2-2.1-0.5s-1.2-0.8-1.6-1.4
				s-0.8-1.3-1-2s-0.4-1.6-0.4-2.5V240.6z M360.9,240.8c0,0.6,0.1,1.2,0.2,1.8s0.3,1,0.6,1.5s0.6,0.8,1.1,1s0.9,0.4,1.5,0.4
				c0.4,0,0.7,0,1-0.1s0.6-0.2,0.8-0.4s0.5-0.4,0.6-0.6s0.4-0.5,0.5-0.7v-5.9c-0.3-0.5-0.7-0.9-1.1-1.3s-1.1-0.5-1.8-0.5
				c-0.6,0-1.1,0.1-1.6,0.4s-0.8,0.6-1.1,1s-0.5,0.9-0.6,1.5s-0.2,1.1-0.2,1.8V240.8z"/>
			<path class="st6" d="M379.2,247.2c-0.9,0-1.7-0.2-2.5-0.5s-1.4-0.7-1.9-1.3s-0.9-1.2-1.2-1.9s-0.4-1.6-0.4-2.4v-0.5
				c0-1,0.2-1.9,0.5-2.7s0.8-1.5,1.3-2.1s1.2-1,1.9-1.3s1.4-0.4,2.1-0.4c0.9,0,1.7,0.2,2.4,0.5s1.3,0.8,1.7,1.3s0.8,1.2,1,2
				s0.3,1.6,0.3,2.5v1h-9.1c0,0.6,0.1,1.1,0.3,1.6s0.5,1,0.8,1.3s0.8,0.7,1.2,0.9s1,0.3,1.6,0.3c0.8,0,1.5-0.2,2.1-0.5
				s1.1-0.7,1.5-1.2l1.3,1c-0.2,0.3-0.5,0.6-0.8,0.9s-0.7,0.6-1.1,0.8s-0.9,0.4-1.4,0.5S379.8,247.2,379.2,247.2z M378.9,235.9
				c-0.4,0-0.9,0.1-1.2,0.2s-0.7,0.4-1.1,0.7s-0.6,0.7-0.8,1.1s-0.4,1-0.5,1.6h6.8v-0.2c0-0.4-0.1-0.8-0.2-1.3s-0.3-0.8-0.6-1.1
				s-0.6-0.6-1-0.8S379.5,235.9,378.9,235.9z"/>
			<path class="st6" d="M396.3,234.1c0.2,0,0.4,0,0.6,0s0.4,0,0.6,0.1s0.4,0.1,0.6,0.1s0.3,0.1,0.4,0.1l-0.3,2.1
				c-0.4-0.1-0.8-0.2-1.2-0.2s-0.8-0.1-1.2-0.1c-1,0-1.8,0.2-2.5,0.7s-1.1,1.1-1.4,1.9v8.1h-2.2v-12.7h2.1l0.1,2
				c0.5-0.7,1.1-1.2,1.9-1.6S395.4,234.1,396.3,234.1z"/>
			<path class="st6" d="M404.8,240.2v6.8h-2.2V230h5.5c0.8,0,1.5,0.1,2.2,0.4s1.3,0.6,1.8,1s0.9,1,1.2,1.6s0.5,1.4,0.5,2.2
				s-0.2,1.5-0.5,2.2s-0.7,1.2-1.2,1.6s-1.1,0.8-1.8,1s-1.4,0.3-2.2,0.4H404.8z M404.8,238.4h3.4c0.5,0,1-0.1,1.4-0.2
				s0.8-0.4,1.1-0.7s0.6-0.6,0.7-1s0.3-0.9,0.3-1.4s-0.1-1-0.3-1.4s-0.4-0.8-0.7-1.1s-0.7-0.5-1.1-0.7s-0.9-0.2-1.4-0.2h-3.4V238.4z
				"/>
			<path class="st6" d="M425.1,247c-0.1-0.2-0.2-0.4-0.2-0.6s-0.1-0.5-0.1-0.8c-0.2,0.2-0.5,0.4-0.7,0.6s-0.6,0.4-0.9,0.5
				s-0.7,0.3-1,0.4s-0.8,0.1-1.2,0.1c-0.7,0-1.3-0.1-1.8-0.3s-1-0.5-1.4-0.8s-0.7-0.7-0.9-1.2s-0.3-1-0.3-1.5c0-0.7,0.1-1.3,0.4-1.8
				s0.7-1,1.2-1.3s1.1-0.6,1.8-0.8s1.5-0.3,2.4-0.3h2.4v-1c0-0.4-0.1-0.7-0.2-1s-0.3-0.6-0.6-0.8s-0.6-0.4-0.9-0.5s-0.8-0.2-1.2-0.2
				c-0.4,0-0.8,0.1-1.2,0.2s-0.6,0.3-0.9,0.4s-0.4,0.4-0.5,0.6s-0.2,0.5-0.2,0.8h-2.2c0-0.5,0.1-0.9,0.4-1.4s0.6-0.8,1-1.2
				s1-0.6,1.6-0.9s1.3-0.3,2.1-0.3c0.7,0,1.4,0.1,2,0.3s1.2,0.4,1.6,0.8s0.8,0.8,1.1,1.3s0.4,1.2,0.4,1.9v5.9c0,0.4,0,0.9,0.1,1.3
				s0.2,0.9,0.3,1.2v0.2H425.1z M421.3,245.4c0.4,0,0.8-0.1,1.2-0.2s0.7-0.3,1-0.4s0.6-0.4,0.8-0.6s0.4-0.5,0.5-0.7v-2.6h-2
				c-1.3,0-2.3,0.2-3,0.6s-1.1,1-1.1,1.8c0,0.3,0.1,0.6,0.2,0.9s0.3,0.5,0.5,0.7s0.5,0.3,0.8,0.5S420.9,245.4,421.3,245.4z"/>
			<path class="st6" d="M439.6,243.7c0-0.3-0.1-0.5-0.2-0.7s-0.3-0.4-0.5-0.6s-0.6-0.3-1-0.5s-0.9-0.3-1.5-0.4
				c-0.7-0.1-1.4-0.3-2-0.5s-1.1-0.5-1.5-0.8s-0.8-0.6-1-1s-0.4-0.9-0.4-1.4c0-0.5,0.1-1,0.4-1.4s0.6-0.8,1-1.2s1-0.6,1.6-0.8
				s1.3-0.3,2-0.3c0.8,0,1.5,0.1,2.1,0.3s1.2,0.5,1.6,0.8s0.8,0.8,1,1.3s0.4,1,0.4,1.6h-2.2c0-0.3-0.1-0.5-0.2-0.8s-0.3-0.5-0.6-0.7
				s-0.6-0.4-0.9-0.5s-0.8-0.2-1.2-0.2c-0.5,0-0.9,0.1-1.2,0.2s-0.6,0.2-0.9,0.4s-0.4,0.4-0.5,0.6s-0.2,0.5-0.2,0.7
				c0,0.3,0,0.5,0.1,0.7s0.3,0.4,0.5,0.5s0.5,0.3,0.9,0.4s0.9,0.2,1.5,0.4c0.8,0.2,1.5,0.4,2.1,0.6s1.1,0.5,1.6,0.8s0.7,0.7,1,1
				s0.3,0.9,0.3,1.4c0,0.6-0.1,1.1-0.4,1.5s-0.6,0.9-1.1,1.2s-1,0.6-1.6,0.8s-1.3,0.3-2.1,0.3c-0.9,0-1.6-0.1-2.3-0.3
				s-1.2-0.5-1.7-0.9s-0.8-0.8-1.1-1.3s-0.4-1-0.4-1.6h2.2c0,0.4,0.2,0.8,0.4,1.1s0.5,0.6,0.8,0.7s0.7,0.3,1,0.4s0.7,0.1,1.1,0.1
				c0.9,0,1.6-0.2,2.2-0.5S439.6,244.2,439.6,243.7z"/>
			<path class="st6" d="M454,243.7c0-0.3-0.1-0.5-0.2-0.7s-0.3-0.4-0.5-0.6s-0.6-0.3-1-0.5s-0.9-0.3-1.5-0.4c-0.7-0.1-1.4-0.3-2-0.5
				s-1.1-0.5-1.5-0.8s-0.8-0.6-1-1s-0.4-0.9-0.4-1.4c0-0.5,0.1-1,0.4-1.4s0.6-0.8,1-1.2s1-0.6,1.6-0.8s1.3-0.3,2-0.3
				c0.8,0,1.5,0.1,2.1,0.3s1.2,0.5,1.6,0.8s0.8,0.8,1,1.3s0.4,1,0.4,1.6h-2.2c0-0.3-0.1-0.5-0.2-0.8s-0.3-0.5-0.6-0.7
				s-0.6-0.4-0.9-0.5s-0.8-0.2-1.2-0.2c-0.5,0-0.9,0.1-1.2,0.2s-0.6,0.2-0.9,0.4s-0.4,0.4-0.5,0.6s-0.2,0.5-0.2,0.7
				c0,0.3,0,0.5,0.1,0.7s0.3,0.4,0.5,0.5s0.5,0.3,0.9,0.4s0.9,0.2,1.5,0.4c0.8,0.2,1.5,0.4,2.1,0.6s1.1,0.5,1.6,0.8s0.7,0.7,1,1
				s0.3,0.9,0.3,1.4c0,0.6-0.1,1.1-0.4,1.5s-0.6,0.9-1.1,1.2s-1,0.6-1.6,0.8s-1.3,0.3-2.1,0.3c-0.9,0-1.6-0.1-2.3-0.3
				s-1.2-0.5-1.7-0.9s-0.8-0.8-1.1-1.3s-0.4-1-0.4-1.6h2.2c0,0.4,0.2,0.8,0.4,1.1s0.5,0.6,0.8,0.7s0.7,0.3,1,0.4s0.7,0.1,1.1,0.1
				c0.9,0,1.6-0.2,2.2-0.5S454,244.2,454,243.7z"/>
			<path class="st6" d="M312,311.8v-11h-3.5v-1.7h3.5v-0.9c0-0.8,0.1-1.5,0.4-2.1s0.6-1.1,1-1.5s1-0.7,1.6-0.9s1.3-0.3,2-0.3
				c0.5,0,1,0,1.5,0.1s1,0.2,1.5,0.3l-0.3,1.8c-0.3-0.1-0.7-0.2-1.1-0.3s-0.9-0.1-1.4-0.1c-1,0-1.8,0.3-2.3,0.8s-0.8,1.3-0.8,2.3
				v0.9h4.9v1.7h-4.9v11H312z"/>
			<path class="st6" d="M323.5,299.1h6.5v10.8h4.1v1.9h-10.6v-1.9h4.3V301h-4.3V299.1z M327.5,295.8c0-0.4,0.1-0.7,0.3-0.9
				s0.5-0.4,1-0.4c0.4,0,0.8,0.1,1,0.4s0.3,0.5,0.3,0.9c0,0.4-0.1,0.6-0.3,0.9s-0.5,0.4-1,0.4c-0.4,0-0.8-0.1-1-0.4
				S327.5,296.2,327.5,295.8z"/>
			<path class="st6" d="M339.5,299.1l0.2,1.9c0.5-0.7,1-1.2,1.7-1.5s1.4-0.6,2.3-0.6c0.7,0,1.3,0.1,1.8,0.3s1,0.5,1.4,0.9
				s0.7,0.9,0.9,1.5s0.3,1.3,0.3,2.2v8.1h-2.2v-8c0-0.6-0.1-1-0.2-1.4s-0.3-0.7-0.6-0.9s-0.5-0.4-0.9-0.5s-0.8-0.2-1.2-0.2
				c-0.7,0-1.4,0.2-1.9,0.5s-1,0.8-1.3,1.4v9.1h-2.2v-12.7H339.5z"/>
			<path class="st6" d="M352.3,299.1h6.5v10.8h4.1v1.9h-10.6v-1.9h4.3V301h-4.3V299.1z M356.4,295.8c0-0.4,0.1-0.7,0.3-0.9
				s0.5-0.4,1-0.4c0.4,0,0.8,0.1,1,0.4s0.3,0.5,0.3,0.9c0,0.4-0.1,0.6-0.3,0.9s-0.5,0.4-1,0.4c-0.4,0-0.8-0.1-1-0.4
				S356.4,296.2,356.4,295.8z"/>
			<path class="st6" d="M374.8,308.5c0-0.3-0.1-0.5-0.2-0.7s-0.3-0.4-0.5-0.6s-0.6-0.3-1-0.5s-0.9-0.3-1.5-0.4
				c-0.7-0.1-1.4-0.3-2-0.5s-1.1-0.5-1.5-0.8s-0.8-0.6-1-1s-0.4-0.9-0.4-1.4c0-0.5,0.1-1,0.4-1.4s0.6-0.8,1-1.2s1-0.6,1.6-0.8
				s1.3-0.3,2-0.3c0.8,0,1.5,0.1,2.1,0.3s1.2,0.5,1.6,0.8s0.8,0.8,1,1.3s0.4,1,0.4,1.6h-2.2c0-0.3-0.1-0.5-0.2-0.8s-0.3-0.5-0.6-0.7
				s-0.6-0.4-0.9-0.5s-0.8-0.2-1.2-0.2c-0.5,0-0.9,0.1-1.2,0.2s-0.6,0.2-0.9,0.4s-0.4,0.4-0.5,0.6s-0.2,0.5-0.2,0.7
				c0,0.3,0,0.5,0.1,0.7s0.3,0.4,0.5,0.5s0.5,0.3,0.9,0.4s0.9,0.2,1.5,0.4c0.8,0.2,1.5,0.4,2.1,0.6s1.1,0.5,1.6,0.8s0.7,0.7,1,1
				s0.3,0.9,0.3,1.4c0,0.6-0.1,1.1-0.4,1.5s-0.6,0.9-1.1,1.2s-1,0.6-1.6,0.8s-1.3,0.3-2.1,0.3c-0.9,0-1.6-0.1-2.3-0.3
				s-1.2-0.5-1.7-0.9s-0.8-0.8-1.1-1.3s-0.4-1-0.4-1.6h2.2c0,0.4,0.2,0.8,0.4,1.1s0.5,0.6,0.8,0.7s0.7,0.3,1,0.4s0.7,0.1,1.1,0.1
				c0.9,0,1.6-0.2,2.2-0.5S374.8,309,374.8,308.5z"/>
			<path class="st6" d="M383,301c0.5-0.7,1-1.2,1.7-1.6s1.4-0.6,2.2-0.6c0.7,0,1.3,0.1,1.8,0.3s1,0.5,1.4,0.9s0.7,0.9,0.9,1.5
				s0.3,1.4,0.3,2.2v8h-2.2v-8c0-1-0.2-1.8-0.7-2.3s-1.2-0.8-2.1-0.8c-0.7,0-1.3,0.2-1.9,0.5s-1,0.8-1.4,1.4v9.2h-2.2v-18h2.2V301z"
				/>
		</g>
		<g>
			<path class="st6" d="M260.5,187.4l2.3,0.6c-0.5,1.9-1.3,3.3-2.6,4.3s-2.8,1.5-4.5,1.5c-1.9,0-3.4-0.4-4.5-1.1s-2-1.8-2.6-3.3
				s-0.9-3-0.9-4.6c0-1.8,0.3-3.3,1-4.7s1.7-2.3,2.9-3s2.7-1,4.2-1c1.7,0,3.2,0.4,4.3,1.3s2,2.1,2.4,3.7l-2.2,0.5
				c-0.4-1.3-1-2.2-1.7-2.7s-1.7-0.9-2.9-0.9c-1.3,0-2.4,0.3-3.3,0.9s-1.5,1.5-1.9,2.5s-0.5,2.2-0.5,3.3c0,1.5,0.2,2.7,0.6,3.8
				s1.1,1.9,2,2.4s1.9,0.8,2.9,0.8c1.3,0,2.4-0.4,3.2-1.1S260.2,188.8,260.5,187.4z"/>
			<path class="st6" d="M264.5,187.2c0-2.3,0.6-4,1.9-5.1c1.1-0.9,2.4-1.4,3.9-1.4c1.7,0,3.1,0.6,4.2,1.7s1.6,2.7,1.6,4.6
				c0,1.6-0.2,2.9-0.7,3.8s-1.2,1.6-2.1,2.1s-1.9,0.8-3,0.8c-1.7,0-3.2-0.6-4.2-1.7S264.5,189.3,264.5,187.2z M266.7,187.2
				c0,1.6,0.3,2.8,1,3.6s1.6,1.2,2.6,1.2c1,0,1.9-0.4,2.6-1.2s1-2,1-3.6c0-1.5-0.3-2.7-1-3.5s-1.6-1.2-2.6-1.2
				c-1.1,0-1.9,0.4-2.6,1.2S266.7,185.6,266.7,187.2z"/>
			<path class="st6" d="M278.6,193.4V181h1.9v1.7c0.4-0.6,0.9-1.1,1.6-1.5s1.4-0.6,2.2-0.6c0.9,0,1.7,0.2,2.3,0.6s1,0.9,1.2,1.6
				c1-1.5,2.3-2.2,3.8-2.2c1.2,0,2.2,0.3,2.8,1s1,1.7,1,3.2v8.5h-2.1v-7.8c0-0.8-0.1-1.5-0.2-1.8s-0.4-0.7-0.7-0.9s-0.8-0.3-1.3-0.3
				c-0.9,0-1.6,0.3-2.2,0.9s-0.9,1.5-0.9,2.8v7.2H286v-8.1c0-0.9-0.2-1.6-0.5-2.1s-0.9-0.7-1.7-0.7c-0.6,0-1.1,0.2-1.6,0.5
				s-0.9,0.8-1.1,1.4s-0.3,1.5-0.3,2.6v6.5H278.6z"/>
			<path class="st6" d="M298.6,193.4V181h1.9v1.7c0.4-0.6,0.9-1.1,1.6-1.5s1.4-0.6,2.2-0.6c0.9,0,1.7,0.2,2.3,0.6s1,0.9,1.2,1.6
				c1-1.5,2.3-2.2,3.8-2.2c1.2,0,2.2,0.3,2.8,1s1,1.7,1,3.2v8.5h-2.1v-7.8c0-0.8-0.1-1.5-0.2-1.8s-0.4-0.7-0.7-0.9s-0.8-0.3-1.3-0.3
				c-0.9,0-1.6,0.3-2.2,0.9s-0.9,1.5-0.9,2.8v7.2H306v-8.1c0-0.9-0.2-1.6-0.5-2.1s-0.9-0.7-1.7-0.7c-0.6,0-1.1,0.2-1.6,0.5
				s-0.9,0.8-1.1,1.4s-0.3,1.5-0.3,2.6v6.5H298.6z"/>
			<path class="st6" d="M326.8,191.9c-0.8,0.7-1.5,1.1-2.3,1.4s-1.5,0.4-2.3,0.4c-1.4,0-2.4-0.3-3.2-1s-1.1-1.5-1.1-2.6
				c0-0.6,0.1-1.2,0.4-1.7s0.6-0.9,1.1-1.2s1-0.5,1.5-0.7c0.4-0.1,1-0.2,1.9-0.3c1.7-0.2,3-0.4,3.8-0.7c0-0.3,0-0.5,0-0.6
				c0-0.9-0.2-1.5-0.6-1.8c-0.5-0.5-1.3-0.7-2.4-0.7c-1,0-1.7,0.2-2.2,0.5s-0.8,1-1,1.8l-2.1-0.3c0.2-0.9,0.5-1.6,0.9-2.1
				s1.1-1,1.9-1.3s1.8-0.4,2.8-0.4c1.1,0,1.9,0.1,2.6,0.4s1.2,0.6,1.5,0.9s0.5,0.9,0.7,1.4c0.1,0.4,0.1,1,0.1,1.9v2.8
				c0,2,0,3.2,0.1,3.7s0.3,1,0.5,1.5h-2.2C327,193,326.8,192.5,326.8,191.9z M326.6,187.2c-0.8,0.3-1.9,0.6-3.4,0.8
				c-0.9,0.1-1.5,0.3-1.8,0.4s-0.6,0.4-0.8,0.7s-0.3,0.6-0.3,1c0,0.6,0.2,1,0.6,1.4s1,0.6,1.9,0.6c0.8,0,1.5-0.2,2.2-0.5
				s1.1-0.8,1.4-1.5c0.2-0.5,0.3-1.2,0.3-2.1V187.2z"/>
			<path class="st6" d="M332,193.4V181h1.9v1.8c0.9-1.4,2.2-2.1,4-2.1c0.8,0,1.4,0.1,2.1,0.4s1.1,0.6,1.4,1.1s0.5,1,0.7,1.6
				c0.1,0.4,0.1,1.1,0.1,2.1v7.7H340v-7.6c0-0.9-0.1-1.5-0.2-1.9s-0.5-0.8-0.9-1s-0.9-0.4-1.5-0.4c-0.9,0-1.7,0.3-2.3,0.9
				s-1,1.7-1,3.2v6.8H332z"/>
			<path class="st6" d="M353.4,193.4v-1.6c-0.8,1.2-1.9,1.9-3.5,1.9c-1,0-1.9-0.3-2.7-0.8s-1.5-1.3-1.9-2.3s-0.7-2.1-0.7-3.4
				c0-1.2,0.2-2.4,0.6-3.4s1-1.8,1.9-2.3s1.8-0.8,2.8-0.8c0.8,0,1.4,0.2,2,0.5s1.1,0.7,1.4,1.2v-6.2h2.1v17.2H353.4z M346.7,187.2
				c0,1.6,0.3,2.8,1,3.6s1.5,1.2,2.4,1.2c0.9,0,1.7-0.4,2.3-1.1s1-1.9,1-3.5c0-1.7-0.3-3-1-3.8s-1.5-1.2-2.4-1.2
				c-0.9,0-1.7,0.4-2.3,1.1S346.7,185.5,346.7,187.2z"/>
			<path class="st6" d="M365.7,193.4v-17.2h12.4v2h-10.1v5.3h9.5v2h-9.5v5.8h10.5v2H365.7z"/>
			<path class="st6" d="M381.4,193.4V181h1.9v1.8c0.9-1.4,2.2-2.1,4-2.1c0.8,0,1.4,0.1,2.1,0.4s1.1,0.6,1.4,1.1s0.5,1,0.7,1.6
				c0.1,0.4,0.1,1.1,0.1,2.1v7.7h-2.1v-7.6c0-0.9-0.1-1.5-0.2-1.9s-0.5-0.8-0.9-1s-0.9-0.4-1.5-0.4c-0.9,0-1.7,0.3-2.3,0.9
				s-1,1.7-1,3.2v6.8H381.4z"/>
			<path class="st6" d="M402.8,188.8l2.1,0.3c-0.2,1.4-0.8,2.5-1.7,3.4s-2.1,1.2-3.4,1.2c-1.7,0-3.1-0.6-4.1-1.7s-1.6-2.7-1.6-4.8
				c0-1.3,0.2-2.5,0.7-3.5s1.1-1.8,2-2.3s1.9-0.8,3-0.8c1.4,0,2.5,0.3,3.3,1s1.4,1.7,1.7,2.9l-2.1,0.3c-0.2-0.8-0.5-1.5-1-1.9
				s-1.1-0.6-1.8-0.6c-1.1,0-1.9,0.4-2.6,1.1s-1,2-1,3.6c0,1.7,0.3,2.9,1,3.6s1.5,1.1,2.5,1.1c0.8,0,1.5-0.3,2.1-0.8
				S402.7,189.9,402.8,188.8z"/>
			<path class="st6" d="M405.9,187.2c0-2.3,0.6-4,1.9-5.1c1.1-0.9,2.4-1.4,3.9-1.4c1.7,0,3.1,0.6,4.2,1.7s1.6,2.7,1.6,4.6
				c0,1.6-0.2,2.9-0.7,3.8s-1.2,1.6-2.1,2.1s-1.9,0.8-3,0.8c-1.7,0-3.2-0.6-4.2-1.7S405.9,189.3,405.9,187.2z M408.1,187.2
				c0,1.6,0.3,2.8,1,3.6s1.6,1.2,2.6,1.2c1,0,1.9-0.4,2.6-1.2s1-2,1-3.6c0-1.5-0.3-2.7-1-3.5s-1.6-1.2-2.6-1.2
				c-1.1,0-1.9,0.4-2.6,1.2S408.1,185.6,408.1,187.2z"/>
			<path class="st6" d="M428.1,193.4v-1.6c-0.8,1.2-1.9,1.9-3.5,1.9c-1,0-1.9-0.3-2.7-0.8s-1.5-1.3-1.9-2.3s-0.7-2.1-0.7-3.4
				c0-1.2,0.2-2.4,0.6-3.4s1-1.8,1.9-2.3s1.8-0.8,2.8-0.8c0.8,0,1.4,0.2,2,0.5s1.1,0.7,1.4,1.2v-6.2h2.1v17.2H428.1z M421.5,187.2
				c0,1.6,0.3,2.8,1,3.6s1.5,1.2,2.4,1.2c0.9,0,1.7-0.4,2.3-1.1s1-1.9,1-3.5c0-1.7-0.3-3-1-3.8s-1.5-1.2-2.4-1.2
				c-0.9,0-1.7,0.4-2.3,1.1S421.5,185.5,421.5,187.2z"/>
			<path class="st6" d="M441.9,189.4l2.2,0.3c-0.3,1.3-1,2.3-1.9,3s-2.1,1.1-3.6,1.1c-1.8,0-3.3-0.6-4.3-1.7s-1.6-2.7-1.6-4.7
				c0-2.1,0.5-3.7,1.6-4.9s2.5-1.7,4.2-1.7c1.7,0,3,0.6,4.1,1.7s1.6,2.7,1.6,4.8c0,0.1,0,0.3,0,0.6h-9.3c0.1,1.4,0.5,2.4,1.2,3.1
				s1.6,1.1,2.6,1.1c0.8,0,1.4-0.2,2-0.6S441.6,190.3,441.9,189.4z M435,186h6.9c-0.1-1-0.4-1.8-0.8-2.4c-0.7-0.8-1.5-1.2-2.6-1.2
				c-1,0-1.8,0.3-2.4,1S435.1,184.9,435,186z"/>
			<path class="st6" d="M446.7,193.4V181h1.9v1.9c0.5-0.9,0.9-1.5,1.3-1.7s0.9-0.4,1.4-0.4c0.7,0,1.4,0.2,2.2,0.7l-0.7,2
				c-0.5-0.3-1-0.5-1.5-0.5c-0.5,0-0.9,0.1-1.2,0.4s-0.6,0.7-0.8,1.2c-0.2,0.8-0.4,1.6-0.4,2.5v6.5H446.7z"/>
		</g>
	</g>
	<polyline class="st7" points="527.6,240 559.6,240 559.6,176 575.6,176 	"/>
	<rect x="271.6" y="48" class="st8" width="96" height="48"/>
	<rect x="303.6" y="64" class="st9" width="96" height="48"/>
	<rect x="335.6" y="80" class="st10" width="96" height="48"/>
	<rect x="175.6" y="368" class="st11" width="352" height="80"/>
	<g>
		<path class="st6" d="M275.2,410l2.3,0.6c-0.5,1.9-1.3,3.3-2.6,4.3s-2.8,1.5-4.5,1.5c-1.9,0-3.4-0.4-4.5-1.1s-2-1.8-2.6-3.3
			s-0.9-3-0.9-4.6c0-1.8,0.3-3.3,1-4.7s1.7-2.3,2.9-3s2.7-1,4.2-1c1.7,0,3.2,0.4,4.3,1.3s2,2.1,2.4,3.7l-2.2,0.5
			c-0.4-1.3-1-2.2-1.7-2.7s-1.7-0.9-2.9-0.9c-1.3,0-2.4,0.3-3.3,0.9s-1.5,1.5-1.9,2.5s-0.5,2.2-0.5,3.3c0,1.5,0.2,2.7,0.6,3.8
			s1.1,1.9,2,2.4s1.9,0.8,2.9,0.8c1.3,0,2.4-0.4,3.2-1.1S274.9,411.4,275.2,410z"/>
		<path class="st6" d="M279.2,409.8c0-2.3,0.6-4,1.9-5.1c1.1-0.9,2.4-1.4,3.9-1.4c1.7,0,3.1,0.6,4.2,1.7s1.6,2.7,1.6,4.6
			c0,1.6-0.2,2.9-0.7,3.8s-1.2,1.6-2.1,2.1s-1.9,0.8-3,0.8c-1.7,0-3.2-0.6-4.2-1.7S279.2,411.9,279.2,409.8z M281.4,409.8
			c0,1.6,0.3,2.8,1,3.6s1.6,1.2,2.6,1.2c1,0,1.9-0.4,2.6-1.2s1-2,1-3.6c0-1.5-0.3-2.7-1-3.5s-1.6-1.2-2.6-1.2
			c-1.1,0-1.9,0.4-2.6,1.2S281.4,408.2,281.4,409.8z"/>
		<path class="st6" d="M293.4,416v-12.4h1.9v1.7c0.4-0.6,0.9-1.1,1.6-1.5s1.4-0.6,2.2-0.6c0.9,0,1.7,0.2,2.3,0.6s1,0.9,1.2,1.6
			c1-1.5,2.3-2.2,3.8-2.2c1.2,0,2.2,0.3,2.8,1s1,1.7,1,3.2v8.5h-2.1v-7.8c0-0.8-0.1-1.5-0.2-1.8s-0.4-0.7-0.7-0.9s-0.8-0.3-1.3-0.3
			c-0.9,0-1.6,0.3-2.2,0.9s-0.9,1.5-0.9,2.8v7.2h-2.1v-8.1c0-0.9-0.2-1.6-0.5-2.1s-0.9-0.7-1.7-0.7c-0.6,0-1.1,0.2-1.6,0.5
			s-0.9,0.8-1.1,1.4s-0.3,1.5-0.3,2.6v6.5H293.4z"/>
		<path class="st6" d="M313.4,416v-12.4h1.9v1.7c0.4-0.6,0.9-1.1,1.6-1.5s1.4-0.6,2.2-0.6c0.9,0,1.7,0.2,2.3,0.6s1,0.9,1.2,1.6
			c1-1.5,2.3-2.2,3.8-2.2c1.2,0,2.2,0.3,2.8,1s1,1.7,1,3.2v8.5h-2.1v-7.8c0-0.8-0.1-1.5-0.2-1.8s-0.4-0.7-0.7-0.9s-0.8-0.3-1.3-0.3
			c-0.9,0-1.6,0.3-2.2,0.9s-0.9,1.5-0.9,2.8v7.2h-2.1v-8.1c0-0.9-0.2-1.6-0.5-2.1s-0.9-0.7-1.7-0.7c-0.6,0-1.1,0.2-1.6,0.5
			s-0.9,0.8-1.1,1.4s-0.3,1.5-0.3,2.6v6.5H313.4z"/>
		<path class="st6" d="M341.5,414.5c-0.8,0.7-1.5,1.1-2.3,1.4s-1.5,0.4-2.3,0.4c-1.4,0-2.4-0.3-3.2-1s-1.1-1.5-1.1-2.6
			c0-0.6,0.1-1.2,0.4-1.7s0.6-0.9,1.1-1.2s1-0.5,1.5-0.7c0.4-0.1,1-0.2,1.9-0.3c1.7-0.2,3-0.4,3.8-0.7c0-0.3,0-0.5,0-0.6
			c0-0.9-0.2-1.5-0.6-1.8c-0.5-0.5-1.3-0.7-2.4-0.7c-1,0-1.7,0.2-2.2,0.5s-0.8,1-1,1.8l-2.1-0.3c0.2-0.9,0.5-1.6,0.9-2.1
			s1.1-1,1.9-1.3s1.8-0.4,2.8-0.4c1.1,0,1.9,0.1,2.6,0.4s1.2,0.6,1.5,0.9s0.5,0.9,0.7,1.4c0.1,0.4,0.1,1,0.1,1.9v2.8
			c0,2,0,3.2,0.1,3.7s0.3,1,0.5,1.5h-2.2C341.7,415.6,341.5,415.1,341.5,414.5z M341.3,409.8c-0.8,0.3-1.9,0.6-3.4,0.8
			c-0.9,0.1-1.5,0.3-1.8,0.4s-0.6,0.4-0.8,0.7s-0.3,0.6-0.3,1c0,0.6,0.2,1,0.6,1.4s1,0.6,1.9,0.6c0.8,0,1.5-0.2,2.2-0.5
			s1.1-0.8,1.4-1.5c0.2-0.5,0.3-1.2,0.3-2.1V409.8z"/>
		<path class="st6" d="M346.7,416v-12.4h1.9v1.8c0.9-1.4,2.2-2.1,4-2.1c0.8,0,1.4,0.1,2.1,0.4s1.1,0.6,1.4,1.1s0.5,1,0.7,1.6
			c0.1,0.4,0.1,1.1,0.1,2.1v7.7h-2.1v-7.6c0-0.9-0.1-1.5-0.2-1.9s-0.5-0.8-0.9-1s-0.9-0.4-1.5-0.4c-0.9,0-1.7,0.3-2.3,0.9
			s-1,1.7-1,3.2v6.8H346.7z"/>
		<path class="st6" d="M368.1,416v-1.6c-0.8,1.2-1.9,1.9-3.5,1.9c-1,0-1.9-0.3-2.7-0.8s-1.5-1.3-1.9-2.3s-0.7-2.1-0.7-3.4
			c0-1.2,0.2-2.4,0.6-3.4s1-1.8,1.9-2.3s1.8-0.8,2.8-0.8c0.8,0,1.4,0.2,2,0.5s1.1,0.7,1.4,1.2v-6.2h2.1V416H368.1z M361.5,409.8
			c0,1.6,0.3,2.8,1,3.6s1.5,1.2,2.4,1.2c0.9,0,1.7-0.4,2.3-1.1s1-1.9,1-3.5c0-1.7-0.3-3-1-3.8s-1.5-1.2-2.4-1.2
			c-0.9,0-1.7,0.4-2.3,1.1S361.5,408.1,361.5,409.8z"/>
		<path class="st6" d="M380.3,416v-17.2h6.4c1.3,0,2.4,0.2,3.2,0.5s1.4,0.9,1.9,1.6s0.7,1.5,0.7,2.3c0,0.7-0.2,1.4-0.6,2.1
			s-1,1.2-1.8,1.6c1,0.3,1.8,0.8,2.4,1.6s0.8,1.6,0.8,2.6c0,0.8-0.2,1.6-0.5,2.2s-0.8,1.2-1.3,1.6s-1.1,0.7-1.9,0.8
			s-1.7,0.3-2.8,0.3H380.3z M382.5,406h3.7c1,0,1.7-0.1,2.2-0.2c0.6-0.2,1-0.5,1.3-0.9s0.4-0.9,0.4-1.5c0-0.6-0.1-1.1-0.4-1.5
			s-0.7-0.7-1.2-0.9s-1.4-0.2-2.6-0.2h-3.4V406z M382.5,414h4.3c0.7,0,1.3,0,1.5-0.1c0.5-0.1,1-0.3,1.3-0.5s0.6-0.5,0.9-1
			s0.3-0.9,0.3-1.4c0-0.6-0.2-1.2-0.5-1.7s-0.8-0.8-1.4-1s-1.4-0.3-2.5-0.3h-4V414z"/>
		<path class="st6" d="M404.2,416v-1.8c-1,1.4-2.3,2.1-3.9,2.1c-0.7,0-1.4-0.1-2.1-0.4s-1.1-0.6-1.4-1.1s-0.5-0.9-0.7-1.6
			c-0.1-0.4-0.1-1.1-0.1-2v-7.7h2.1v6.9c0,1.1,0,1.8,0.1,2.2c0.1,0.6,0.4,1,0.8,1.3s1,0.5,1.6,0.5s1.2-0.2,1.8-0.5s0.9-0.8,1.2-1.3
			s0.3-1.4,0.3-2.4v-6.7h2.1V416H404.2z"/>
		<path class="st6" d="M409.9,416v-10.8h-1.9v-1.6h1.9v-1.3c0-0.8,0.1-1.5,0.2-1.9c0.2-0.5,0.6-1,1.1-1.3s1.2-0.5,2.2-0.5
			c0.6,0,1.3,0.1,2,0.2l-0.3,1.8c-0.4-0.1-0.9-0.1-1.2-0.1c-0.6,0-1.1,0.1-1.4,0.4s-0.4,0.8-0.4,1.5v1.1h2.4v1.6H412V416H409.9z"/>
		<path class="st6" d="M416.2,416v-10.8h-1.9v-1.6h1.9v-1.3c0-0.8,0.1-1.5,0.2-1.9c0.2-0.5,0.6-1,1.1-1.3s1.2-0.5,2.2-0.5
			c0.6,0,1.3,0.1,2,0.2l-0.3,1.8c-0.4-0.1-0.9-0.1-1.2-0.1c-0.6,0-1.1,0.1-1.4,0.4s-0.4,0.8-0.4,1.5v1.1h2.4v1.6h-2.4V416H416.2z"/>
		<path class="st6" d="M430.9,412l2.2,0.3c-0.3,1.3-1,2.3-1.9,3s-2.1,1.1-3.6,1.1c-1.8,0-3.3-0.6-4.3-1.7s-1.6-2.7-1.6-4.7
			c0-2.1,0.5-3.7,1.6-4.9s2.5-1.7,4.2-1.7c1.7,0,3,0.6,4.1,1.7s1.6,2.7,1.6,4.8c0,0.1,0,0.3,0,0.6h-9.3c0.1,1.4,0.5,2.4,1.2,3.1
			s1.6,1.1,2.6,1.1c0.8,0,1.4-0.2,2-0.6S430.5,412.9,430.9,412z M423.9,408.6h6.9c-0.1-1-0.4-1.8-0.8-2.4c-0.7-0.8-1.5-1.2-2.6-1.2
			c-1,0-1.8,0.3-2.4,1S424,407.5,423.9,408.6z"/>
		<path class="st6" d="M435.7,416v-12.4h1.9v1.9c0.5-0.9,0.9-1.5,1.3-1.7s0.9-0.4,1.4-0.4c0.7,0,1.4,0.2,2.2,0.7l-0.7,2
			c-0.5-0.3-1-0.5-1.5-0.5c-0.5,0-0.9,0.1-1.2,0.4s-0.6,0.7-0.8,1.2c-0.2,0.8-0.4,1.6-0.4,2.5v6.5H435.7z"/>
	</g>
	<line class="st12" x1="351.6" y1="336" x2="351.6" y2="368"/>
</g>
<g id="Layer_2">
</g>
</svg>
