<?xml version="1.0" encoding="UTF-8" standalone="no"?>
<!DOCTYPE svg PUBLIC "-//W3C//DTD SVG 1.1//EN" "http://www.w3.org/Graphics/SVG/1.1/DTD/svg11.dtd">
<svg width="100%" height="100%" viewBox="0 0 1920 800" version="1.1" xmlns="http://www.w3.org/2000/svg" xmlns:xlink="http://www.w3.org/1999/xlink" xml:space="preserve" xmlns:serif="http://www.serif.com/" style="fill-rule:evenodd;clip-rule:evenodd;">
    <g id="Layer2">
        <g>
            <g>
                <g>
                    <path id="BlueprintBack_16_Layer2_0_1_STROKES" d="M-307.3,821.575L-307.3,-21.377M2101.16,-21.377L2161.16,-21.377M2040.97,-21.377L2101.16,-21.377L2101.16,38.819L2161.16,38.819L2161.16,-21.377L2221.36,-21.377M1920.38,-21.377L1980.57,-21.377L1980.57,38.819L2040.77,38.819L2040.77,-21.377L1980.57,-21.377M2227.3,-21.377L2221.56,-21.377L2221.56,38.819L2227.3,38.819M2161.16,38.621L2221.36,38.621L2221.36,98.818L2227.1,98.818M2040.97,38.621L2101.16,38.621L2101.16,98.818L2161.16,98.818L2161.16,38.621M1860.18,-21.377L1920.38,-21.377L1920.38,38.819L1980.57,38.819L1980.57,99.016L2040.77,99.016L2040.77,38.819M1799.98,-21.377L1860.18,-21.377L1860.18,38.819L1920.38,38.819L1920.38,99.016L1980.57,99.016L1980.57,159.213L2040.77,159.213L2040.77,99.016L2100.97,99.016L2100.97,159.213L2160.97,159.213L2160.97,99.016L2221.16,99.016L2221.16,159.213L2226.9,159.213M1739.79,-21.377L1799.98,-21.377L1799.98,38.819L1860.18,38.819L1860.18,99.016L1920.38,99.016L1920.38,159.213L1980.57,159.213L1980.57,219.608L2040.77,219.608L2040.77,159.213L2100.97,159.213L2100.97,219.608L2160.97,219.608L2160.97,159.213L2221.16,159.213L2221.16,219.608L2226.9,219.608M1679.59,38.621L1679.59,-21.575L1619.39,-21.575L1619.39,38.621L1739.79,38.621L1739.79,-21.575L1679.59,-21.575M1619.39,-21.377L1559.19,-21.377L1559.19,38.819L1619.39,38.819L1619.39,99.016L1679.59,99.016L1679.59,38.819M1739.79,38.621L1799.98,38.621L1799.98,98.818L1860.18,98.818L1860.18,159.015L1920.38,159.015L1920.38,219.41L1980.57,219.41L1980.57,279.607L2040.77,279.607L2040.77,219.41L2100.97,219.41L2100.97,279.607L2160.97,279.607L2160.97,219.41L2221.16,219.41L2221.16,279.607L2226.9,279.607M1799.98,99.016L1799.98,159.213L1860.18,159.213L1860.18,219.608L1920.38,219.608L1920.38,279.805L1980.57,279.805L1980.57,340.001L2040.77,340.001L2040.77,279.805L2100.97,279.805L2100.97,340.001L2160.97,340.001L2160.97,279.805L2221.16,279.805L2221.16,340.001L2226.9,340.001M1799.98,159.213L1799.98,219.608L1860.18,219.608L1860.18,279.805L1920.38,279.805L1920.38,340.001L1980.57,340.001L1980.57,400.198L2040.77,400.198L2040.77,340.001L2100.97,340.001L2100.97,400.198L2160.97,400.198L2160.97,340.001L2221.16,340.001L2221.16,400.198L2226.9,400.198M1799.98,99.016L1739.79,99.016L1739.79,159.213L1799.98,159.213M1619.39,99.016L1619.39,159.213L1679.59,159.213L1679.59,99.016L1739.79,99.016L1739.79,38.819M1619.39,159.213L1619.39,219.608L1679.59,219.608L1679.59,159.213L1739.79,159.213L1739.79,219.608L1799.98,219.608L1799.98,279.805L1860.18,279.805L1860.18,340.001L1920.38,340.001L1920.38,400.198L1980.57,400.198L1980.57,460.395L2040.77,460.395L2040.77,400.198L2100.97,400.198L2100.97,460.395L2160.97,460.395L2160.97,400.198L2221.16,400.198L2221.16,460.395L2226.9,460.395M1679.59,219.41L1739.79,219.41L1739.79,279.607L1799.98,279.607L1799.98,339.803L1860.18,339.803L1860.18,400L1920.38,400L1920.38,460.197L1980.57,460.197L1980.57,520.394L2040.77,520.394L2040.77,460.197L2100.97,460.197L2100.97,520.394L2160.97,520.394L2160.97,460.197L2221.16,460.197L2221.16,520.394L2226.9,520.394M1739.79,279.607L1739.79,339.803L1799.98,339.803L1799.98,400L1860.18,400L1860.18,460.197L1920.38,460.197L1920.38,520.394L1980.57,520.394L1980.57,580.59L2040.77,580.59L2040.77,520.394L2100.97,520.394L2100.97,580.59L2160.97,580.59L2160.97,520.394L2221.16,520.394L2221.16,580.59L2226.9,580.59M1679.59,339.803L1679.59,279.607L1619.39,279.607L1619.39,339.803L1739.79,339.803L1739.79,400L1799.98,400L1799.98,460.197L1860.18,460.197L1860.18,520.394L1920.38,520.394L1920.38,580.59L1980.57,580.59L1980.57,640.787L2040.77,640.787L2040.77,580.59L2100.97,580.59L2100.97,640.787L2160.97,640.787L2160.97,580.59L2221.16,580.59L2221.16,640.787L2226.9,640.787M1679.59,460.197L1679.59,400L1619.39,400L1619.39,460.197L1739.79,460.197L1739.79,400L1679.59,400L1679.59,339.803M1619.39,339.803L1619.39,400L1559.19,400L1559.19,460.197L1619.39,460.197L1619.39,520.394L1679.59,520.394L1679.59,460.197M1679.59,219.41L1679.59,279.607L1739.79,279.607M1619.39,219.41L1619.39,279.607L1559.19,279.607L1559.19,339.803L1619.39,339.803M1739.79,460.197L1799.98,460.197L1799.98,520.394L1860.18,520.394L1860.18,580.59L1920.38,580.59L1920.38,640.787L1980.57,640.787L1980.57,701.182L2040.77,701.182L2040.77,640.985L2100.97,640.985L2100.97,701.182L2160.97,701.182L2160.97,640.985L2221.16,640.985L2221.16,701.182L2226.9,701.182M1559.19,-21.377L1499,-21.377L1499,38.819L1559.39,38.819L1559.39,99.016L1619.59,99.016M1499,-21.377L1438.8,-21.377L1438.8,38.819L1499,38.819L1499,99.016L1559.39,99.016L1559.39,159.213L1619.59,159.213M1438.6,-21.377L1378.41,-21.377L1378.41,38.819L1438.6,38.819L1438.6,99.016L1499,99.016L1499,159.213L1559.39,159.213L1559.39,219.608L1619.59,219.608M1378.61,-21.377L1318.41,-21.377L1318.41,38.819L1378.61,38.819L1378.61,99.016L1438.8,99.016L1438.8,159.213L1499,159.213L1499,219.608L1559.39,219.608L1559.39,279.805L1499,279.805L1499,340.001L1559.39,340.001L1559.39,400.198L1499,400.198L1499,460.395L1559.39,460.395L1559.39,520.592L1619.59,520.592L1619.59,580.788L1679.79,580.788L1679.79,520.592L1739.98,520.592L1739.98,460.395M1318.41,-21.377L1258.21,-21.377L1258.21,38.819L1318.41,38.819L1318.41,99.016L1378.61,99.016L1378.61,159.213L1438.8,159.213L1438.8,219.608L1499,219.608L1499,279.805L1438.8,279.805L1438.8,340.001L1499,340.001L1499,400.198L1438.8,400.198L1438.8,460.395L1499,460.395L1499,520.592L1559.39,520.592L1559.39,580.788L1619.59,580.788L1619.59,640.985L1679.79,640.985L1679.79,580.788L1739.98,580.788L1739.98,520.592L1800.18,520.592L1800.18,580.788L1860.38,580.788L1860.38,640.985L1920.57,640.985L1920.57,701.182L1980.77,701.182L1980.77,761.379L2040.97,761.379L2040.97,701.182L2101.16,701.182L2101.16,761.379L2161.16,761.379L2161.16,701.182L2221.36,701.182L2221.36,761.379L2227.1,761.379M1258.01,-21.377L1198.02,-21.377L1198.02,38.819L1258.21,38.819L1258.21,99.016L1318.41,99.016L1318.41,159.213L1378.61,159.213L1378.61,219.608L1438.8,219.608L1438.8,279.805L1378.61,279.805L1378.61,340.001L1438.8,340.001L1438.8,400.198L1378.61,400.198L1378.61,460.395L1438.8,460.395L1438.8,520.592L1499,520.592L1499,580.788L1559.39,580.788L1559.39,640.985L1619.59,640.985L1619.59,701.182L1679.79,701.182L1679.79,640.985L1739.98,640.985L1739.98,580.788L1800.18,580.788L1800.18,640.985L1860.38,640.985L1860.38,701.182L1920.57,701.182L1920.57,761.379L1980.77,761.379L1980.77,821.575L2040.97,821.575L2040.97,761.379L2101.16,761.379L2101.16,821.575L2161.16,821.575L2161.16,761.379L2221.36,761.379L2221.36,821.575L2227.1,821.575M2161.16,821.575L2221.36,821.575M2040.97,821.575L2101.16,821.575M1198.02,-21.377L1137.62,-21.377L1137.62,38.819L1198.02,38.819L1198.02,99.016L1258.21,99.016L1258.21,159.213L1318.41,159.213L1318.41,219.608L1378.61,219.608L1378.61,279.805L1318.41,279.805L1318.41,340.001L1378.61,340.001L1378.61,400.198L1318.41,400.198L1318.41,460.395L1378.61,460.395L1378.61,520.592L1438.8,520.592L1438.8,580.788L1499,580.788L1499,640.985L1559.39,640.985L1559.39,701.182L1619.59,701.182L1619.59,761.379L1679.79,761.379L1679.79,701.182L1739.98,701.182L1739.98,640.985L1800.18,640.985L1800.18,701.182L1860.38,701.182L1860.38,761.379L1920.57,761.379L1920.57,821.575L1980.77,821.575M1137.62,-21.377L1077.42,-21.377L1077.42,38.819L1137.62,38.819L1137.62,99.016L1198.02,99.016L1198.02,159.213L1258.21,159.213L1258.21,219.608L1318.41,219.608L1318.41,279.805L1258.21,279.805L1258.21,340.001L1318.41,340.001L1318.41,400.198L1258.21,400.198L1258.21,460.395L1318.41,460.395L1318.41,520.592L1378.61,520.592L1378.61,580.788L1438.8,580.788L1438.8,640.985L1499,640.985L1499,701.182L1559.39,701.182L1559.39,761.379L1619.59,761.379L1619.59,821.575L1679.79,821.575L1679.79,761.379L1739.98,761.379L1739.98,701.182L1800.18,701.182L1800.18,761.379L1860.38,761.379L1860.38,821.575L1920.57,821.575M1679.59,821.575L1739.79,821.575L1739.79,761.379L1799.98,761.379L1799.98,821.575L1860.18,821.575M1077.42,-21.377L1017.23,-21.377L1017.23,38.819L1077.42,38.819L1077.42,99.016L1137.62,99.016L1137.62,159.213L1198.02,159.213L1198.02,219.608L1258.21,219.608L1258.21,279.805L1198.02,279.805L1198.02,340.001L1258.21,340.001L1258.21,400.198L1198.02,400.198L1198.02,460.395L1258.21,460.395L1258.21,520.592L1318.41,520.592L1318.41,580.788L1378.61,580.788L1378.61,640.985L1438.8,640.985L1438.8,701.182L1499,701.182L1499,761.379L1559.39,761.379L1559.39,821.575L1619.59,821.575M1739.79,821.575L1799.98,821.575M1017.23,-21.377L957.03,-21.377L957.03,38.819L1017.23,38.819L1017.23,99.016L1077.42,99.016L1077.42,159.213L1137.62,159.213L1137.62,219.608L1198.02,219.608L1198.02,279.805L1137.62,279.805L1137.62,340.001L1198.02,340.001L1198.02,400.198L1137.62,400.198L1137.62,460.395L1198.02,460.395L1198.02,520.592L1258.21,520.592L1258.21,580.788L1318.41,580.788L1318.41,640.985L1378.61,640.985L1378.61,701.182L1438.8,701.182L1438.8,761.379L1499,761.379L1499,821.575L1559.39,821.575M1017.23,99.016L1017.23,159.213L1077.42,159.213L1077.42,219.608L1137.62,219.608L1137.62,279.805L1077.42,279.805L1077.42,340.001L1137.62,340.001L1137.62,400.198L1077.42,400.198L1077.42,460.395L1137.62,460.395L1137.62,520.592L1198.02,520.592L1198.02,580.788L1258.21,580.788L1258.21,640.985L1318.41,640.985L1318.41,701.182L1378.61,701.182L1378.61,761.379L1438.8,761.379L1438.8,821.575L1499,821.575M1017.23,159.213L1017.23,219.608L1077.42,219.608L1077.42,279.805L1017.23,279.805L1017.23,340.001L1077.42,340.001L1077.42,400.198L1017.23,400.198L1017.23,460.395L1077.42,460.395L1077.42,520.592L1137.62,520.592L1137.62,580.788L1198.02,580.788L1198.02,640.985L1258.21,640.985L1258.21,701.182L1318.41,701.182L1318.41,761.379L1378.61,761.379L1378.61,821.575L1438.8,821.575M1017.23,339.803L1017.23,400L957.03,400L957.03,460.197L1017.23,460.197L1017.23,520.394L1077.42,520.394L1077.42,580.59L1137.62,580.59L1137.62,640.787L1198.02,640.787L1198.02,701.182L1258.21,701.182L1258.21,761.379L1318.41,761.379L1318.41,821.575L1378.61,821.575M1017.23,219.41L1017.23,279.607L957.03,279.607L957.03,339.803L1017.23,339.803M1017.23,580.59L1017.23,640.787L1077.42,640.787L1077.42,580.59L1017.23,580.59L1017.23,520.394L957.03,520.394L957.03,580.59L1017.23,580.59ZM1017.23,761.181L1017.23,821.377L1077.42,821.377L1077.42,761.181L1017.23,761.181L1017.23,701.182L957.03,701.182L957.03,761.379L1017.23,761.379L1017.23,761.181ZM1017.23,640.787L1017.23,701.182L1077.42,701.182L1077.42,640.985L1137.62,640.985L1137.62,701.182L1198.02,701.182L1198.02,761.379L1258.21,761.379L1258.21,821.575L1318.41,821.575M1077.42,701.182L1077.42,761.379L1137.62,761.379L1137.62,701.182L1077.42,701.182ZM1198.02,821.575L1198.02,761.379L1137.62,761.379L1137.62,821.575L1258.21,821.575M1077.42,821.575L1137.62,821.575M957.03,-21.377L896.833,-21.377L896.833,38.819L957.03,38.819L957.03,99.016L1017.23,99.016M836.636,-21.377L896.833,-21.377M776.44,-21.377L836.636,-21.377L836.636,38.819L896.833,38.819L896.833,99.016L957.03,99.016L957.03,159.213L1017.23,159.213M716.243,38.621L716.243,-21.575L656.046,-21.575L656.046,38.621L776.44,38.621L776.44,-21.575L716.243,-21.575M656.046,-21.377L595.849,-21.377L595.849,38.819L656.046,38.819L656.046,99.016L716.243,99.016L716.243,38.819M776.44,38.621L836.636,38.621L836.636,98.818L896.833,98.818L896.833,159.015L957.03,159.015L957.03,219.41L1017.23,219.41M595.849,-21.377L535.653,-21.377L535.653,38.819L595.849,38.819L595.849,99.016L656.046,99.016L656.046,159.213L716.243,159.213L716.243,99.016L776.44,99.016L776.44,38.819M535.653,-21.377L475.258,-21.377L475.258,38.819L535.455,38.819L535.455,99.016L595.651,99.016L595.651,159.213L655.848,159.213L655.848,219.608L716.045,219.608L716.045,159.213L776.241,159.213L776.241,99.016L836.438,99.016L836.438,159.213L896.635,159.213L896.635,219.608L956.832,219.608L956.832,279.805L896.635,279.805L896.635,340.001L956.832,340.001L956.832,400.198L896.635,400.198L896.635,460.395L956.832,460.395L956.832,520.592L896.635,520.592L896.635,580.788L956.832,580.788L956.832,640.985L1017.03,640.985M475.258,-21.377L415.061,-21.377L415.061,38.819L475.258,38.819L475.258,99.016L535.455,99.016L535.455,159.213L595.651,159.213L595.651,219.608L655.848,219.608L655.848,279.805L716.045,279.805L716.045,219.41L776.241,219.41L776.241,159.213L836.438,159.213L836.438,219.608L896.635,219.608L896.635,279.805L836.438,279.805L836.438,340.001L896.635,340.001L896.635,400.198L836.438,400.198L836.438,460.395L896.635,460.395L896.635,520.592L836.438,520.592L836.438,580.788L896.635,580.788L896.635,640.985L956.832,640.985L956.832,701.182L896.635,701.182L896.635,761.379L956.832,761.379L956.832,821.575L1017.03,821.575M415.061,-21.377L354.864,-21.377L354.864,38.819L415.061,38.819L415.061,99.016L475.258,99.016L475.258,159.213L535.455,159.213L535.455,219.608L595.651,219.608L595.651,279.805L655.848,279.805L655.848,340.001L716.045,340.001L716.045,279.805L776.241,279.805L776.241,219.41L836.438,219.41L836.438,279.607L776.242,279.607L776.242,339.803L836.438,339.803L836.438,400L776.242,400L776.242,460.197L836.438,460.197L836.438,520.394L776.242,520.394L776.242,580.59L836.438,580.59L836.438,640.787L896.635,640.787L896.635,701.182L836.438,701.182L836.438,761.379L896.635,761.379L896.635,821.575L956.832,821.575M354.864,-21.377L294.668,-21.377L294.668,38.819L354.864,38.819L354.864,99.016L415.061,99.016L415.061,159.213L475.258,159.213L475.258,219.608L535.455,219.608L535.455,279.805L595.651,279.805L595.651,340.001L655.848,340.001L655.848,400.198L716.045,400.198L716.045,340.001L776.241,340.001L776.241,400.198L716.045,400.198L716.045,460.395L776.241,460.395L776.241,520.592L716.045,520.592L716.045,580.788L776.241,580.788L776.241,640.985L836.438,640.985L836.438,701.182L776.242,701.182L776.242,761.379L836.438,761.379L836.438,821.575L896.635,821.575M294.667,-21.377L234.471,-21.377L234.471,38.819L294.667,38.819L294.667,99.016L354.864,99.016L354.864,159.213L415.061,159.213L415.061,219.608L475.258,219.608L475.258,279.805L535.455,279.805L535.455,340.001L595.651,340.001L595.651,400.198L655.848,400.198L655.848,460.395L716.045,460.395L716.045,520.592L655.848,520.592L655.848,580.788L716.045,580.788L716.045,640.985L776.241,640.985L776.241,701.182L716.045,701.182L716.045,761.379L776.241,761.379L776.241,821.575L836.438,821.575M354.864,159.213L354.864,219.608L415.061,219.608L415.061,279.805L475.258,279.805L475.258,340.001L535.455,340.001L535.455,400.198L595.651,400.198L595.651,460.395L655.848,460.395L655.848,520.592L595.651,520.592L595.651,580.788L655.848,580.788L655.848,640.985L716.045,640.985L716.045,701.182L655.848,701.182L655.848,761.379L716.045,761.379L716.045,821.575L776.241,821.575M415.061,279.607L415.061,339.803L475.258,339.803L475.258,400L535.455,400L535.455,460.197L595.651,460.197L595.651,520.394L535.455,520.394L535.455,580.59L595.651,580.59L595.651,640.787L655.848,640.787L655.848,701.182L595.651,701.182L595.651,761.379L655.848,761.379L655.848,821.575L716.045,821.575M415.061,279.607L354.864,279.607L354.864,339.803L415.061,339.803L415.061,400L475.258,400L475.258,460.197L535.455,460.197L535.455,520.394L475.258,520.394L475.258,580.59L535.455,580.59L535.455,640.787L595.651,640.787L595.651,701.182L535.455,701.182L535.455,761.379L595.651,761.379L595.651,821.575L655.848,821.575M354.864,400L354.864,460.197L415.061,460.197L415.061,400L354.864,400L354.864,339.803L294.668,339.803L294.668,400L354.864,400ZM415.061,460.197L475.258,460.197L475.258,520.394L415.061,520.394L415.061,580.59L475.258,580.59L475.258,640.787L535.455,640.787L535.455,701.182L475.258,701.182L475.258,761.379L535.455,761.379L535.455,821.575L595.651,821.575M354.864,219.41L354.864,279.607L294.668,279.607L294.668,339.803L234.471,339.803L234.471,400L294.667,400L294.667,460.197L354.864,460.197L354.864,520.394L415.061,520.394L415.061,460.197M234.471,-21.377L174.274,-21.377L174.274,38.819L234.471,38.819L234.471,99.016L294.667,99.016L294.667,159.213L354.864,159.213M174.274,-21.377L114.077,-21.377L114.077,38.819L174.274,38.819L174.274,99.016L234.471,99.016L234.471,159.213L294.667,159.213L294.667,219.608L354.864,219.608M114.077,-21.377L53.88,-21.377L53.88,38.819L114.077,38.819L114.077,99.016L174.274,99.016L174.274,159.213L234.471,159.213L234.471,219.608L294.667,219.608L294.667,279.805L234.471,279.805L234.471,340.001L174.274,340.001L174.274,400.198L234.471,400.198L234.471,460.395L294.667,460.395L294.667,520.592L354.864,520.592L354.864,580.788L415.061,580.788L415.061,640.985L475.258,640.985L475.258,701.182L415.061,701.182L415.061,761.379L475.258,761.379L475.258,821.575L535.455,821.575M53.88,-21.377L-6.316,-21.377L-6.316,38.819L53.88,38.819L53.88,99.016L114.077,99.016L114.077,159.213L174.274,159.213L174.274,219.608L234.471,219.608L234.471,279.805L174.274,279.805L174.274,340.001L114.077,340.001L114.077,400.198L174.274,400.198L174.274,460.395L234.471,460.395L234.471,520.592L294.667,520.592L294.667,580.788L354.864,580.788L354.864,640.985L415.061,640.985L415.061,701.182L354.864,701.182L354.864,761.379L415.061,761.379L415.061,821.575L475.258,821.575M-6.316,-21.377L-66.711,-21.377L-66.711,38.819L-6.316,38.819L-6.316,99.016L53.88,99.016L53.88,159.213L114.077,159.213L114.077,219.608L174.274,219.608L174.274,279.805L114.077,279.805L114.077,340.001L53.88,340.001L53.88,400.198L114.077,400.198L114.077,460.395L174.274,460.395L174.274,520.592L234.471,520.592L234.471,580.788L294.667,580.788L294.667,640.985L354.864,640.985L354.864,701.182L294.667,701.182L294.667,761.379L354.864,761.379L354.864,821.575L415.061,821.575M-126.908,-21.377L-66.711,-21.377M-187.105,-21.377L-126.908,-21.377L-126.908,38.819L-66.711,38.819L-66.711,99.016L-6.316,99.016L-6.316,159.213L53.88,159.213L53.88,219.608L114.077,219.608L114.077,279.805L53.88,279.805L53.88,340.001L-6.316,340.001L-6.316,400.198L53.88,400.198L53.88,460.395L114.077,460.395L114.077,520.592L174.274,520.592L174.274,580.788L234.471,580.788L234.471,640.985L294.667,640.985L294.667,701.182L234.471,701.182L234.471,761.379L294.667,761.379L294.667,821.575L354.864,821.575M-247.301,-21.377L-187.105,-21.377L-187.105,38.819L-126.908,38.819L-126.908,99.016L-66.711,99.016L-66.711,159.213L-6.316,159.213L-6.316,219.608L53.88,219.608L53.88,279.805L-6.316,279.805L-6.316,340.001L-66.711,340.001L-66.711,400.198L-6.316,400.198L-6.316,460.395L53.88,460.395L53.88,520.592L114.077,520.592L114.077,580.788L174.274,580.788L174.274,640.985L234.471,640.985L234.471,701.182L174.274,701.182L174.274,761.379L234.471,761.379L234.471,821.575L294.667,821.575M-247.301,-21.377L-247.301,38.819L-187.105,38.819L-187.105,99.016L-126.908,99.016L-126.908,159.213L-66.711,159.213L-66.711,219.608L-6.316,219.608L-6.316,279.805L-66.711,279.805L-66.711,340.001L-126.908,340.001L-126.908,400.198L-66.711,400.198L-66.711,460.395L-6.316,460.395L-6.316,520.592L53.88,520.592L53.88,580.788L114.077,580.788L114.077,640.985L174.274,640.985L174.274,701.182L114.077,701.182L114.077,761.379L174.274,761.379L174.274,821.575L234.471,821.575M-307.3,-21.377L-247.103,-21.377M-307.3,38.621L-247.103,38.621L-247.103,98.818L-186.907,98.818L-186.907,159.015L-126.71,159.015L-126.71,219.41L-66.513,219.41L-66.513,279.607L-126.908,279.607L-126.908,339.803L-187.105,339.803L-187.105,400L-126.908,400L-126.908,460.197L-66.711,460.197L-66.711,520.394L-6.316,520.394L-6.316,580.59L53.88,580.59L53.88,640.787L114.077,640.787L114.077,701.182L53.88,701.182L53.88,761.379L114.077,761.379L114.077,821.575L174.274,821.575M-247.301,99.016L-247.301,159.213L-187.105,159.213L-187.105,219.608L-126.908,219.608L-126.908,279.805L-187.105,279.805L-187.105,340.001L-247.301,340.001L-247.301,400.198L-187.105,400.198L-187.105,460.395L-126.908,460.395L-126.908,520.592L-66.711,520.592L-66.711,580.788L-6.316,580.788L-6.316,640.985L53.88,640.985L53.88,701.182L-6.316,701.182L-6.316,761.379L53.88,761.379L53.88,821.575L114.077,821.575M-307.3,99.016L-247.103,99.016M-307.3,159.213L-247.103,159.213L-247.103,219.608L-186.907,219.608L-186.907,279.805L-247.301,279.805L-247.301,340.001L-307.3,340.001M-307.3,219.41L-247.103,219.41L-247.103,279.607L-307.3,279.607M-247.301,400L-247.301,460.197L-187.105,460.197L-187.105,520.394L-126.908,520.394L-126.908,580.59L-66.711,580.59L-66.711,640.787L-6.316,640.787L-6.316,701.182L-66.711,701.182L-66.711,761.379L-6.316,761.379L-6.316,821.575L53.88,821.575M-307.3,400L-247.103,400M-307.3,460.197L-247.103,460.197L-247.103,520.394L-186.907,520.394L-186.907,580.59L-126.71,580.59L-126.71,640.787L-66.513,640.787L-66.513,701.182L-126.908,701.182L-126.908,761.379L-66.711,761.379L-66.711,821.575L-6.316,821.575M-307.3,520.394L-247.103,520.394L-247.103,580.59L-186.907,580.59L-186.907,640.787L-126.71,640.787L-126.71,701.182L-187.105,701.182L-187.105,761.379L-126.908,761.379L-126.908,821.575L-66.711,821.575M-247.301,580.59L-247.301,640.787L-187.105,640.787L-187.105,701.182L-247.301,701.182L-247.301,761.379L-187.105,761.379L-187.105,821.575L-126.908,821.575M-307.3,580.59L-247.103,580.59M-307.3,640.787L-247.103,640.787L-247.103,701.182L-307.3,701.182M-247.301,761.181L-247.301,821.377L-187.105,821.377M-307.3,761.181L-247.103,761.181M-307.3,821.575L-247.103,821.575" style="fill:none;fill-rule:nonzero;stroke:url(#_Radial1);stroke-width:3.96px;"/>
                </g>
            </g>
        </g>
    </g>
    <g id="Layer1">
        <g>
            <g>
                <path d="M398.4,568.367L464.719,568.367L464.719,114.833L456.161,114.833L456.161,561.949L404.818,561.949C401.273,561.949 398.4,564.822 398.4,568.367" style="fill:none;fill-rule:nonzero;stroke:#d9d9d9;stroke-width:2.67px;stroke-linejoin:round;stroke-miterlimit:2;"/>
            </g>
            <g>
                <g>
                    <path d="M1009.6,225.601L1005.8,231.801" style="fill:none;stroke:#d9d9d9;stroke-width:2.67px;stroke-linejoin:round;stroke-miterlimit:1.5;"/>
                    <path d="M1022.4,225.601L1018.6,231.801" style="fill:none;stroke:#d9d9d9;stroke-width:2.67px;stroke-linejoin:round;stroke-miterlimit:1.5;"/>
                    <path d="M1035.2,225.601L1031.4,231.801" style="fill:none;stroke:#d9d9d9;stroke-width:2.67px;stroke-linejoin:round;stroke-miterlimit:1.5;"/>
                    <path d="M1048,225.601L1044.2,231.801" style="fill:none;stroke:#d9d9d9;stroke-width:2.67px;stroke-linejoin:round;stroke-miterlimit:1.5;"/>
                </g>
                <path d="M954.4,394.001C954.4,358.148 804.492,220.001 768.64,220.001L531.36,220.001C495.508,220.001 466.4,249.108 466.4,284.961L466.4,515.841C466.4,551.693 495.508,580.801 531.36,580.801L768.64,580.801C804.492,580.801 954.4,442.653 954.4,406.801L954.4,394.001Z" style="fill:none;"/>
                <path d="M1033.6,394.001C1033.6,358.148 1183.51,220.001 1219.36,220.001L1444.64,220.001C1480.49,220.001 1509.6,249.108 1509.6,284.961L1509.6,515.841C1509.6,551.693 1480.49,580.801 1444.64,580.801L1219.36,580.801C1183.51,580.801 1033.6,442.653 1033.6,406.801L1033.6,394.001Z" style="fill:none;"/>
                <clipPath id="_clip2">
                    <path d="M1033.6,394.001C1033.6,358.148 1183.51,220.001 1219.36,220.001L1444.64,220.001C1480.49,220.001 1509.6,249.108 1509.6,284.961L1509.6,515.841C1509.6,551.693 1480.49,580.801 1444.64,580.801L1219.36,580.801C1183.51,580.801 1033.6,442.653 1033.6,406.801L1033.6,394.001Z"/>
                </clipPath>
                <g clip-path="url(#_clip2)">
                    <path d="M1688.55,560.489C1688.55,560.489 1606.68,499.608 1557.56,452.016C1545.08,439.923 1534.72,428.712 1528.45,419.603C1524.68,414.141 1522.36,409.61 1522.36,406.171C1522.36,406.171 1522.36,394.63 1522.36,394.63C1522.36,391.191 1524.68,386.66 1528.45,381.199C1534.72,372.089 1545.08,360.878 1557.56,348.785C1606.68,301.194 1688.55,240.313 1688.55,240.313C1689.97,239.259 1690.27,237.253 1689.21,235.835C1688.16,234.418 1686.15,234.123 1684.73,235.177C1684.73,235.177 1602.47,296.364 1553.11,344.189C1540.26,356.632 1529.63,368.194 1523.18,377.567C1518.45,384.429 1515.95,390.31 1515.95,394.63L1515.95,406.171C1515.95,410.491 1518.45,416.373 1523.18,423.234C1529.63,432.607 1540.26,444.169 1553.11,456.612C1602.47,504.437 1684.73,565.624 1684.73,565.624C1686.15,566.678 1688.16,566.383 1689.21,564.966C1690.27,563.549 1689.97,561.543 1688.55,560.489ZM1420.12,516.248C1451.34,541.403 1477.01,560.489 1477.01,560.489C1478.42,561.543 1478.72,563.549 1477.66,564.966C1476.61,566.383 1474.61,566.678 1473.19,565.624C1473.19,565.624 1446.99,546.14 1415.29,520.564C1416.93,519.159 1418.54,517.721 1420.12,516.248ZM1365.98,549.23C1375.2,556.287 1380.85,560.489 1380.85,560.489C1382.27,561.543 1382.56,563.549 1381.51,564.966C1380.45,566.383 1378.45,566.678 1377.03,565.624C1377.03,565.624 1369.92,560.339 1358.63,551.659C1361.11,550.907 1363.56,550.096 1365.98,549.23ZM1466.17,437.329C1470.52,442.009 1475.39,446.935 1480.63,452.016C1529.76,499.608 1611.63,560.489 1611.63,560.489C1613.05,561.543 1613.34,563.549 1612.29,564.966C1611.23,566.383 1609.23,566.678 1607.81,565.624C1607.81,565.624 1525.54,504.437 1476.18,456.612C1471.94,452.504 1467.94,448.491 1464.25,444.622C1464.95,442.214 1465.59,439.781 1466.17,437.329ZM1469.52,417.768C1469.91,418.368 1470.32,418.979 1470.75,419.603C1477.03,428.712 1487.38,439.923 1499.87,452.016C1548.99,499.608 1630.86,560.489 1630.86,560.489C1632.28,561.543 1632.57,563.549 1631.52,564.966C1630.46,566.383 1628.46,566.678 1627.04,565.624C1627.04,565.624 1544.77,504.437 1495.41,456.612C1484.26,445.809 1474.78,435.67 1468.25,427.05C1468.76,423.985 1469.19,420.89 1469.52,417.768ZM1443.97,488.248C1488,525.757 1534.7,560.489 1534.7,560.489C1536.12,561.543 1536.41,563.549 1535.36,564.966C1534.31,566.383 1532.3,566.678 1530.88,565.624C1530.88,565.624 1484.36,531.023 1440.29,493.518C1441.55,491.788 1442.78,490.031 1443.97,488.248ZM1320.17,558.254C1322.11,559.709 1323.16,560.489 1323.16,560.489C1324.57,561.543 1324.87,563.549 1323.81,564.966C1322.76,566.383 1320.75,566.678 1319.34,565.624C1319.34,565.624 1315.8,562.992 1309.75,558.394C1310.76,558.414 1311.78,558.424 1312.81,558.424C1315.28,558.424 1317.73,558.367 1320.17,558.254ZM1227,560.489C1227,560.489 1145.13,499.608 1096,452.016C1083.52,439.923 1073.17,428.712 1066.89,419.603C1063.13,414.141 1060.8,409.61 1060.8,406.171L1060.8,394.63C1060.8,391.191 1063.13,386.66 1066.89,381.199C1073.17,372.089 1083.52,360.878 1096,348.785C1145.13,301.194 1227,240.313 1227,240.313C1228.41,239.259 1228.71,237.253 1227.66,235.835C1226.6,234.418 1224.6,234.123 1223.18,235.177C1223.18,235.177 1140.91,296.364 1091.55,344.189C1078.71,356.632 1068.08,368.194 1061.62,377.567C1056.89,384.429 1054.4,390.31 1054.4,394.63C1054.4,394.63 1054.4,406.171 1054.4,406.171C1054.4,410.491 1056.89,416.373 1061.62,423.234C1068.08,432.607 1078.71,444.169 1091.55,456.612C1140.91,504.437 1223.18,565.624 1223.18,565.624C1224.6,566.678 1226.6,566.383 1227.66,564.966C1228.71,563.549 1228.41,561.543 1227,560.489ZM1669.32,560.489C1669.32,560.489 1587.45,499.608 1538.33,452.016C1525.85,439.923 1515.49,428.712 1509.22,419.603C1505.45,414.141 1503.12,409.61 1503.12,406.171C1503.12,406.171 1503.12,394.63 1503.12,394.63C1503.12,391.191 1505.45,386.66 1509.22,381.199C1515.49,372.089 1525.85,360.878 1538.33,348.785C1587.45,301.194 1669.32,240.313 1669.32,240.313C1670.74,239.259 1671.03,237.253 1669.98,235.835C1668.93,234.418 1666.92,234.123 1665.5,235.177C1665.5,235.177 1583.24,296.364 1533.88,344.189C1521.03,356.632 1510.4,368.194 1503.94,377.567C1499.22,384.429 1496.72,390.31 1496.72,394.63L1496.72,406.171C1496.72,410.491 1499.22,416.373 1503.94,423.234C1510.4,432.607 1521.03,444.169 1533.88,456.612C1583.24,504.437 1665.5,565.624 1665.5,565.624C1666.92,566.678 1668.93,566.383 1669.98,564.966C1671.03,563.549 1670.74,561.543 1669.32,560.489ZM1410.86,524.224C1437.39,545.329 1457.78,560.489 1457.78,560.489C1459.19,561.543 1459.49,563.549 1458.43,564.966C1457.38,566.383 1455.37,566.678 1453.96,565.624C1453.96,565.624 1432.85,549.927 1405.61,528.222C1407.39,526.926 1409.13,525.595 1410.86,524.224ZM1246.23,560.489C1246.23,560.489 1164.36,499.608 1115.24,452.016C1102.76,439.923 1092.4,428.712 1086.12,419.603C1082.36,414.141 1080.03,409.61 1080.03,406.171C1080.03,406.171 1080.03,394.63 1080.03,394.63C1080.03,391.191 1082.36,386.66 1086.12,381.199C1092.4,372.089 1102.76,360.878 1115.24,348.785C1164.36,301.194 1246.23,240.313 1246.23,240.313C1247.65,239.259 1247.94,237.253 1246.89,235.835C1245.83,234.418 1243.83,234.123 1242.41,235.177C1242.41,235.177 1160.14,296.364 1110.78,344.189C1097.94,356.632 1087.31,368.194 1080.85,377.567C1076.13,384.429 1073.63,390.31 1073.63,394.63L1073.63,406.171C1073.63,410.491 1076.13,416.373 1080.85,423.234C1087.31,432.607 1097.94,444.169 1110.78,456.612C1160.14,504.437 1242.41,565.624 1242.41,565.624C1243.83,566.678 1245.83,566.383 1246.89,564.966C1247.94,563.549 1247.65,561.543 1246.23,560.489ZM1456.57,465.521C1505.75,510.361 1573.16,560.489 1573.16,560.489C1574.58,561.543 1574.88,563.549 1573.82,564.966C1572.77,566.383 1570.76,566.678 1569.35,565.624C1569.35,565.624 1502.98,516.261 1453.69,471.554C1454.69,469.567 1455.65,467.555 1456.57,465.521ZM1461.79,452.39C1510.95,499.924 1592.4,560.489 1592.4,560.489C1593.81,561.543 1594.11,563.549 1593.05,564.966C1592,566.383 1589.99,566.678 1588.58,565.624C1588.58,565.624 1508.94,506.391 1459.36,458.933C1460.22,456.775 1461.03,454.593 1461.79,452.39ZM1259.04,549.013C1264.66,551.051 1270.42,552.779 1276.31,554.176C1281.62,558.204 1284.69,560.489 1284.69,560.489C1286.11,561.543 1286.4,563.549 1285.35,564.966C1284.3,566.383 1282.29,566.678 1280.87,565.624C1280.87,565.624 1272.31,559.252 1259.04,549.013ZM1288.01,556.483C1292.13,557.135 1296.31,557.627 1300.54,557.953C1302.73,559.6 1303.92,560.489 1303.92,560.489C1305.34,561.543 1305.64,563.549 1304.58,564.966C1303.53,566.383 1301.52,566.678 1300.11,565.624C1300.11,565.624 1295.58,562.257 1288.01,556.483ZM1337.15,556.556C1340.51,559.091 1342.39,560.489 1342.39,560.489C1343.8,561.543 1344.1,563.549 1343.05,564.966C1341.99,566.383 1339.99,566.678 1338.57,565.624C1338.57,565.624 1334.67,562.724 1328.06,557.695C1331.12,557.401 1334.15,557.02 1337.15,556.556ZM1428.72,507.613C1464.52,536.904 1496.24,560.489 1496.24,560.489C1497.66,561.543 1497.95,563.549 1496.9,564.966C1495.84,566.383 1493.84,566.678 1492.42,565.624C1492.42,565.624 1460.37,541.784 1424.28,512.241C1425.79,510.73 1427.27,509.188 1428.72,507.613ZM1378.54,544.105C1391.63,554.208 1400.08,560.489 1400.08,560.489C1401.5,561.543 1401.79,563.549 1400.74,564.966C1399.69,566.383 1397.68,566.678 1396.26,565.624C1396.26,565.624 1386.56,558.409 1371.83,547.001C1374.09,546.086 1376.33,545.119 1378.54,544.105ZM1390.13,538.184C1407.49,551.697 1419.31,560.489 1419.31,560.489C1420.73,561.543 1421.03,563.549 1419.97,564.966C1418.92,566.383 1416.91,566.678 1415.49,565.624C1415.49,565.624 1402.61,556.039 1383.97,541.485C1386.05,540.43 1388.11,539.33 1390.13,538.184ZM1650.09,560.489C1650.09,560.489 1568.22,499.608 1519.1,452.016C1506.62,439.923 1496.26,428.712 1489.98,419.603C1486.22,414.141 1483.89,409.61 1483.89,406.171L1483.89,394.63C1483.89,391.191 1486.22,386.66 1489.98,381.199C1496.26,372.089 1506.62,360.878 1519.1,348.785C1568.22,301.194 1650.09,240.313 1650.09,240.313C1651.51,239.259 1651.8,237.253 1650.75,235.835C1649.69,234.418 1647.69,234.123 1646.27,235.177C1646.27,235.177 1564.01,296.364 1514.64,344.189C1501.8,356.632 1491.17,368.194 1484.71,377.567C1479.99,384.429 1477.49,390.31 1477.49,394.63C1477.49,394.63 1477.49,406.171 1477.49,406.171C1477.49,410.491 1479.99,416.373 1484.71,423.234C1491.17,432.607 1501.8,444.169 1514.64,456.612C1564.01,504.437 1646.27,565.624 1646.27,565.624C1647.69,566.678 1649.69,566.383 1650.75,564.966C1651.8,563.549 1651.51,561.543 1650.09,560.489ZM1450.61,477.375C1497.8,518.75 1553.93,560.489 1553.93,560.489C1555.35,561.543 1555.64,563.549 1554.59,564.966C1553.54,566.383 1551.53,566.678 1550.11,565.624C1550.11,565.624 1494.53,524.281 1447.32,483C1448.46,481.151 1449.55,479.276 1450.61,477.375ZM1352.27,553.443C1358.17,557.928 1361.62,560.489 1361.62,560.489C1363.04,561.543 1363.33,563.549 1362.28,564.966C1361.22,566.383 1359.22,566.678 1357.8,565.624C1357.8,565.624 1352.65,561.797 1344.16,555.306C1346.89,554.755 1349.59,554.134 1352.27,553.443ZM1238.22,539.688C1254.51,552.347 1265.46,560.489 1265.46,560.489C1266.88,561.543 1267.17,563.549 1266.12,564.966C1265.07,566.383 1263.06,566.678 1261.64,565.624C1261.64,565.624 1179.38,504.437 1130.01,456.612C1117.17,444.169 1106.54,432.607 1100.09,423.234C1095.36,416.373 1092.86,410.491 1092.86,406.171L1092.86,394.63C1092.86,390.31 1095.36,384.429 1100.09,377.567C1106.54,368.194 1117.17,356.632 1130.01,344.189C1179.38,296.364 1261.64,235.177 1261.64,235.177C1263.06,234.123 1265.07,234.418 1266.12,235.835C1267.17,237.253 1266.88,239.259 1265.46,240.313C1265.46,240.313 1252.84,249.701 1234.52,263.988C1220.43,272.066 1207.71,282.258 1196.79,294.135C1175.41,311.654 1152.69,331.134 1134.47,348.785C1121.99,360.878 1111.63,372.089 1105.36,381.199C1101.59,386.66 1099.26,391.191 1099.26,394.63C1099.26,394.63 1099.26,406.171 1099.26,406.171C1099.26,409.61 1101.59,414.141 1105.36,419.603C1111.63,428.712 1121.99,439.923 1134.47,452.016C1151.89,468.901 1173.45,487.46 1194,504.378C1206.44,518.641 1221.41,530.644 1238.22,539.688ZM1436.67,498.297C1476.8,531.73 1515.47,560.489 1515.47,560.489C1516.89,561.543 1517.18,563.549 1516.13,564.966C1515.07,566.383 1513.07,566.678 1511.65,565.624C1511.65,565.624 1472.88,536.788 1432.61,503.239C1433.99,501.619 1435.35,499.971 1436.67,498.297ZM1400.88,531.543C1422.75,548.745 1438.54,560.489 1438.54,560.489C1439.96,561.543 1440.26,563.549 1439.2,564.966C1438.15,566.383 1436.14,566.678 1434.73,565.624C1434.73,565.624 1418.04,553.217 1395.19,535.206C1397.12,534.025 1399.01,532.804 1400.88,531.543ZM1179.69,316.402C1176.27,321.784 1173.16,327.387 1170.41,333.185C1164.55,338.478 1158.94,343.707 1153.7,348.785C1141.22,360.878 1130.86,372.089 1124.59,381.199C1120.82,386.66 1118.49,391.191 1118.49,394.63C1118.49,394.63 1118.49,406.171 1118.49,406.171C1118.49,409.61 1120.82,414.141 1124.59,419.603C1130.86,428.712 1141.22,439.923 1153.7,452.016C1158.74,456.899 1164.12,461.922 1169.73,467.009C1172.36,472.666 1175.3,478.141 1178.55,483.409C1168.16,474.333 1158.16,465.254 1149.25,456.612C1136.4,444.169 1125.77,432.607 1119.32,423.234C1114.59,416.373 1112.09,410.491 1112.09,406.171L1112.09,394.63C1112.09,390.31 1114.59,384.429 1119.32,377.567C1125.77,368.194 1136.4,356.632 1149.25,344.189C1158.49,335.231 1168.89,325.805 1179.69,316.402ZM1164.09,348.489C1162.57,352.827 1161.23,357.25 1160.08,361.754C1153.36,368.868 1147.78,375.452 1143.82,381.199C1140.06,386.66 1137.73,391.191 1137.73,394.63L1137.73,406.171C1137.73,409.61 1140.06,414.141 1143.82,419.603C1147.72,425.27 1153.2,431.75 1159.8,438.749C1160.9,443.203 1162.19,447.581 1163.66,451.88C1152.98,441.245 1144.18,431.408 1138.55,423.234C1133.82,416.373 1131.33,410.491 1131.33,406.171C1131.33,406.171 1131.33,394.63 1131.33,394.63C1131.33,390.31 1133.82,384.429 1138.55,377.567C1144.26,369.283 1153.22,359.29 1164.09,348.489ZM1156.67,379.229C1155.7,386.287 1155.2,393.491 1155.2,400.812C1155.2,407.776 1155.65,414.634 1156.53,421.359C1152.61,415.3 1150.56,410.092 1150.56,406.171C1150.56,406.171 1150.56,394.63 1150.56,394.63C1150.56,390.663 1152.66,385.379 1156.67,379.229ZM1468.13,373.902C1474.67,365.25 1484.2,355.056 1495.41,344.189C1544.77,296.364 1627.04,235.177 1627.04,235.177C1628.46,234.123 1630.46,234.418 1631.52,235.835C1632.57,237.253 1632.28,239.259 1630.86,240.313C1630.86,240.313 1548.99,301.194 1499.87,348.785C1487.38,360.878 1477.03,372.089 1470.75,381.199C1470.3,381.863 1469.86,382.514 1469.44,383.151C1469.1,380.041 1468.66,376.958 1468.13,373.902ZM1464.07,356.372C1467.81,352.444 1471.87,348.366 1476.18,344.189C1525.54,296.364 1607.81,235.177 1607.81,235.177C1609.23,234.123 1611.23,234.418 1612.29,235.835C1613.34,237.253 1613.05,239.259 1611.63,240.313C1611.63,240.313 1529.76,301.194 1480.63,348.785C1475.33,353.928 1470.4,358.912 1466.01,363.641C1465.42,361.195 1464.77,358.77 1464.07,356.372ZM1459.12,342.095C1508.68,294.603 1588.58,235.177 1588.58,235.177C1589.99,234.123 1592,234.418 1593.05,235.835C1594.11,237.253 1593.81,239.259 1592.4,240.313C1592.4,240.313 1510.72,301.048 1461.58,348.619C1460.8,346.42 1459.99,344.245 1459.12,342.095ZM1453.41,329.507C1502.73,284.728 1569.35,235.177 1569.35,235.177C1570.76,234.123 1572.77,234.418 1573.82,235.835C1574.88,237.253 1574.58,239.259 1573.16,240.313C1573.16,240.313 1505.52,290.618 1456.31,335.522C1455.38,333.496 1454.42,331.493 1453.41,329.507ZM1446.99,318.089C1494.27,276.712 1550.11,235.177 1550.11,235.177C1551.53,234.123 1553.54,234.418 1554.59,235.835C1555.64,237.253 1555.35,239.259 1553.93,240.313C1553.93,240.313 1497.56,282.233 1450.3,323.697C1449.24,321.804 1448.13,319.936 1446.99,318.089ZM1439.92,307.6C1484.1,269.972 1530.88,235.177 1530.88,235.177C1532.3,234.123 1534.31,234.418 1535.36,235.835C1536.41,237.253 1536.12,239.259 1534.7,240.313C1534.7,240.313 1487.75,275.228 1443.61,312.852C1442.42,311.075 1441.18,309.323 1439.92,307.6ZM1432.19,297.906C1472.62,264.207 1511.65,235.177 1511.65,235.177C1513.07,234.123 1515.07,234.418 1516.13,235.835C1517.18,237.253 1516.89,239.259 1515.47,240.313C1515.47,240.313 1476.55,269.256 1436.27,302.831C1434.95,301.16 1433.59,299.516 1432.19,297.906ZM1423.83,288.932C1460.1,259.216 1492.42,235.177 1492.42,235.177C1493.84,234.123 1495.84,234.418 1496.9,235.835C1497.95,237.253 1497.66,239.259 1496.24,240.313C1496.24,240.313 1464.27,264.087 1428.29,293.542C1426.83,291.976 1425.34,290.438 1423.83,288.932ZM1414.79,280.638C1446.71,254.869 1473.19,235.177 1473.19,235.177C1474.61,234.123 1476.61,234.418 1477.66,235.835C1478.72,237.253 1478.42,239.259 1477.01,240.313C1477.01,240.313 1451.08,259.596 1419.65,284.936C1418.06,283.47 1416.44,282.036 1414.79,280.638ZM1405.07,273.011C1432.58,251.079 1453.96,235.177 1453.96,235.177C1455.37,234.123 1457.38,234.418 1458.43,235.835C1459.49,237.253 1459.19,239.259 1457.78,240.313C1457.78,240.313 1437.12,255.673 1410.34,276.99C1408.61,275.627 1406.85,274.3 1405.07,273.011ZM1394.61,266.059C1417.75,247.8 1434.73,235.177 1434.73,235.177C1436.14,234.123 1438.15,234.418 1439.2,235.835C1440.26,237.253 1439.96,239.259 1438.54,240.313C1438.54,240.313 1422.48,252.261 1400.32,269.703C1398.44,268.449 1396.54,267.234 1394.61,266.059ZM1383.33,259.816C1402.31,244.987 1415.49,235.177 1415.49,235.177C1416.91,234.123 1418.92,234.418 1419.97,235.835C1421.03,237.253 1420.73,239.259 1419.31,240.313C1419.31,240.313 1407.21,249.313 1389.52,263.095C1387.48,261.957 1385.42,260.863 1383.33,259.816ZM1371.13,254.342C1386.25,242.621 1396.26,235.177 1396.26,235.177C1397.68,234.123 1399.69,234.418 1400.74,235.835C1401.79,237.253 1401.5,239.259 1400.08,240.313C1400.08,240.313 1391.35,246.807 1377.87,257.214C1375.65,256.205 1373.4,255.247 1371.13,254.342ZM1257,253.369C1271.42,242.209 1280.87,235.177 1280.87,235.177C1282.29,234.123 1284.3,234.418 1285.35,235.835C1286.4,237.253 1286.11,239.259 1284.69,240.313C1284.69,240.313 1281,243.057 1274.72,247.835C1268.66,249.338 1262.75,251.19 1257,253.369ZM1357.87,249.734C1369.6,240.702 1377.03,235.177 1377.03,235.177C1378.45,234.123 1380.45,234.418 1381.51,235.835C1382.56,237.253 1382.27,239.259 1380.85,240.313C1380.85,240.313 1374.9,244.738 1365.25,252.133C1362.81,251.275 1360.35,250.474 1357.87,249.734ZM1343.31,246.149C1352.31,239.263 1357.8,235.177 1357.8,235.177C1359.22,234.123 1361.22,234.418 1362.28,235.835C1363.33,237.253 1363.04,239.259 1361.62,240.313C1361.62,240.313 1357.86,243.111 1351.46,247.975C1348.77,247.296 1346.05,246.686 1343.31,246.149ZM1286.64,245.364C1295.03,238.953 1300.11,235.177 1300.11,235.177C1301.52,234.123 1303.53,234.418 1304.58,235.835C1305.64,237.253 1305.34,239.259 1303.92,240.313C1303.92,240.313 1302.28,241.535 1299.32,243.77C1295.04,244.133 1290.81,244.667 1286.64,245.364ZM1327.1,243.84C1334.29,238.361 1338.57,235.177 1338.57,235.177C1339.99,234.123 1341.99,234.418 1343.05,235.835C1344.1,237.253 1343.8,239.259 1342.39,240.313C1342.39,240.313 1340.17,241.962 1336.24,244.931C1333.22,244.48 1330.17,244.116 1327.1,243.84ZM1308.63,243.255C1315.36,238.133 1319.34,235.177 1319.34,235.177C1320.75,234.123 1322.76,234.418 1323.81,235.835C1324.87,237.253 1324.57,239.259 1323.16,240.313C1323.16,240.313 1321.73,241.374 1319.14,243.326C1317.03,243.242 1314.93,243.201 1312.81,243.201C1311.42,243.201 1310.03,243.219 1308.63,243.255Z" style="fill:none;stroke:#c7c7c7;stroke-width:2.67px;stroke-linejoin:round;stroke-miterlimit:2;"/>
                </g>
                <g>
                    <path d="M1009.6,225.601L1005.8,231.801" style="fill:none;stroke:#d9d9d9;stroke-width:2.67px;stroke-linejoin:round;stroke-miterlimit:1.5;"/>
                    <path d="M1022.4,225.601L1018.6,231.801" style="fill:none;stroke:#d9d9d9;stroke-width:2.67px;stroke-linejoin:round;stroke-miterlimit:1.5;"/>
                    <path d="M1035.2,225.601L1031.4,231.801" style="fill:none;stroke:#d9d9d9;stroke-width:2.67px;stroke-linejoin:round;stroke-miterlimit:1.5;"/>
                    <path d="M1048,225.601L1044.2,231.801" style="fill:none;stroke:#d9d9d9;stroke-width:2.67px;stroke-linejoin:round;stroke-miterlimit:1.5;"/>
                </g>
                <path d="M978.562,406.401L1009.44,406.401C1009.49,406.404 1009.56,406.406 1009.64,406.408C1010.38,406.598 1022.32,409.951 1037.01,431.801C1037.71,432.902 1038.44,434.024 1039.2,435.167C1040.02,436.468 1040.85,437.824 1041.68,439.24L1041.91,439.103C1052.1,453.491 1067.03,470.623 1084.09,488.018C1117.11,521.681 1158.06,556.407 1187.11,574.23C1200.77,582.613 1212.19,587.201 1219.36,587.201L1456.64,587.201C1496.03,587.201 1528,555.225 1528,515.841C1528,515.841 1528,284.961 1528,284.961C1528,245.576 1496.03,213.601 1456.64,213.601L1219.36,213.601C1212.19,213.601 1200.77,218.188 1187.11,226.571C1158.06,244.395 1117.11,279.12 1084.09,312.783C1067.39,329.818 1052.72,346.601 1042.55,360.801L1042.48,360.758C1042.31,361.047 1042.14,361.332 1041.97,361.618C1039.51,365.088 1037.33,368.402 1035.46,371.522C1021.7,390.395 1010.44,393.406 1009.69,393.589C1009.55,393.591 1009.45,393.596 1009.38,393.601L978.622,393.601C978.553,393.596 978.449,393.591 978.309,393.589C977.558,393.406 966.305,390.395 952.542,371.522C950.671,368.402 948.487,365.089 946.028,361.618C945.858,361.332 945.689,361.047 945.519,360.758L945.446,360.801C935.284,346.601 920.614,329.818 903.907,312.783C870.893,279.12 829.943,244.395 800.894,226.571C787.231,218.188 775.806,213.601 768.64,213.601L531.36,213.601C491.975,213.601 460,245.576 460,284.961L460,515.841C460,555.225 491.975,587.201 531.36,587.201L768.64,587.201C775.806,587.201 787.231,582.613 800.894,574.23C829.943,556.407 870.893,521.681 903.907,488.018C920.967,470.623 935.904,453.491 946.085,439.103L946.319,439.24C947.151,437.824 947.976,436.468 948.797,435.167C949.562,434.023 950.293,432.901 950.988,431.801C965.686,409.951 977.614,406.598 978.356,406.408C978.44,406.406 978.508,406.404 978.562,406.401ZM935.22,368.485C925.416,354.715 911.078,338.375 894.769,321.746C862.522,288.866 822.573,254.89 794.2,237.481C783.251,230.764 774.382,226.401 768.64,226.401C768.64,226.401 531.36,226.401 531.36,226.401C499.04,226.401 472.8,252.641 472.8,284.961C472.8,284.961 472.8,515.841 472.8,515.841C472.8,548.161 499.04,574.401 531.36,574.401C531.36,574.401 768.64,574.401 768.64,574.401C774.382,574.401 783.251,570.038 794.2,563.32C822.573,545.911 862.522,511.936 894.769,479.056C912.563,460.912 928.011,443.113 937.784,428.619C938.898,426.829 940,425.131 941.087,423.521C945.348,416.658 948,410.983 948,406.801L948,394.001C948,390.311 945.936,385.46 942.525,379.657C940.148,376.356 937.707,372.649 935.22,368.485ZM1050.22,428.619C1059.99,443.113 1075.44,460.912 1093.23,479.056C1125.48,511.936 1165.43,545.911 1193.8,563.32C1204.75,570.038 1213.62,574.401 1219.36,574.401C1219.36,574.401 1456.64,574.401 1456.64,574.401C1488.96,574.401 1515.2,548.161 1515.2,515.841L1515.2,284.961C1515.2,252.641 1488.96,226.401 1456.64,226.401C1456.64,226.401 1219.36,226.401 1219.36,226.401C1213.62,226.401 1204.75,230.764 1193.8,237.481C1165.43,254.89 1125.48,288.866 1093.23,321.746C1076.92,338.375 1062.58,354.715 1052.78,368.485C1050.29,372.65 1047.85,376.358 1045.47,379.657C1042.06,385.46 1040,390.311 1040,394.001C1040,394.001 1040,406.801 1040,406.801C1040,410.983 1042.65,416.658 1046.91,423.521C1048,425.131 1049.1,426.829 1050.22,428.619Z" style="fill:none;stroke:#d9d9d9;stroke-width:2.67px;stroke-linejoin:round;stroke-miterlimit:2;"/>
                <path d="M807.361,570.114C835.815,551.398 873.276,519.251 903.907,488.018C920.967,470.623 935.904,453.491 946.085,439.103L946.319,439.24C947.151,437.824 947.976,436.468 948.797,435.167C949.562,434.023 950.293,432.901 950.988,431.801C965.686,409.951 977.614,406.598 978.356,406.408C978.44,406.406 978.508,406.404 978.562,406.401L1009.44,406.401C1009.49,406.404 1009.56,406.406 1009.64,406.408C1010.38,406.598 1022.32,409.951 1037.01,431.801C1037.71,432.902 1038.44,434.024 1039.2,435.167C1040.02,436.468 1040.85,437.824 1041.68,439.24L1041.91,439.103C1052.1,453.491 1067.03,470.623 1084.09,488.018C1117.11,521.681 1158.06,556.407 1187.11,574.23C1187.7,574.597 1188.3,574.957 1188.89,575.309C1189.07,578.944 1186.97,581.007 1181.6,580.801L812.8,580.801C805.411,580.027 804.542,576.243 806.4,571.201L807.361,570.114Z" style="fill:none;stroke:#d9d9d9;stroke-width:2.67px;stroke-linecap:round;stroke-linejoin:round;stroke-miterlimit:1.5;"/>
                <path d="M809.076,231.824L806.4,228.799C804.542,223.757 805.411,219.973 812.8,219.199L977.796,219.199C977.99,219.464 978.191,219.73 978.4,220.001C988.664,233.254 996.8,232.001 996.8,232.001C996.8,232.001 1046.8,232.358 1053.6,232.001C1068.8,231.201 1075.2,220.001 1075.2,220.001L1075.2,219.199L1181.6,219.199C1187.38,218.977 1189.36,221.38 1188.81,225.54C1188.24,225.877 1187.68,226.221 1187.11,226.571C1158.06,244.395 1117.11,279.12 1084.09,312.783C1067.39,329.818 1052.72,346.601 1042.55,360.801L1042.48,360.758C1042.31,361.047 1042.14,361.332 1041.97,361.618C1039.51,365.088 1037.33,368.402 1035.46,371.522C1021.7,390.395 1010.44,393.406 1009.69,393.589C1009.55,393.591 1009.45,393.596 1009.38,393.601L978.622,393.601C978.553,393.596 978.449,393.591 978.309,393.589C977.558,393.406 966.305,390.395 952.542,371.522C950.671,368.402 948.487,365.089 946.028,361.618C945.858,361.332 945.689,361.047 945.519,360.758L945.446,360.801C935.284,346.601 920.614,329.818 903.907,312.783C873.887,282.173 837.306,250.685 809.076,231.824Z" style="fill:none;stroke:#d9d9d9;stroke-width:2.67px;stroke-linecap:round;stroke-linejoin:round;stroke-miterlimit:1.5;"/>
                <path d="M633.724,213.601L633.724,172.595L676.51,172.595L676.51,198.545C676.51,200.907 678.427,202.824 680.789,202.824C683.15,202.824 685.067,200.907 685.067,198.545L685.067,172.595L949.227,172.595L949.227,196.127C949.227,198.489 951.144,200.406 953.505,200.406L956.463,200.406C958.825,200.406 960.741,198.489 960.741,196.127L960.741,181.152L994.97,181.152C1005.67,181.152 1003.53,200.406 1003.53,200.406L984.274,200.406C984.274,200.406 977.856,201.475 977.856,207.893C977.856,210.45 977.853,214.875 977.85,219.272L977.796,219.199L812.8,219.199C805.411,219.973 804.542,223.757 806.4,228.799L809.076,231.824C806.261,229.944 803.529,228.188 800.894,226.571C787.231,218.188 775.806,213.601 768.64,213.601L633.724,213.601Z" style="fill:none;fill-rule:nonzero;"/>
                <clipPath id="_clip3">
                    <path d="M633.724,213.601L633.724,172.595L676.51,172.595L676.51,198.545C676.51,200.907 678.427,202.824 680.789,202.824C683.15,202.824 685.067,200.907 685.067,198.545L685.067,172.595L949.227,172.595L949.227,196.127C949.227,198.489 951.144,200.406 953.505,200.406L956.463,200.406C958.825,200.406 960.741,198.489 960.741,196.127L960.741,181.152L994.97,181.152C1005.67,181.152 1003.53,200.406 1003.53,200.406L984.274,200.406C984.274,200.406 977.856,201.475 977.856,207.893C977.856,210.45 977.853,214.875 977.85,219.272L977.796,219.199L812.8,219.199C805.411,219.973 804.542,223.757 806.4,228.799L809.076,231.824C806.261,229.944 803.529,228.188 800.894,226.571C787.231,218.188 775.806,213.601 768.64,213.601L633.724,213.601Z" clip-rule="nonzero"/>
                </clipPath>
                <g clip-path="url(#_clip3)">
                    <g>
                        <path d="M637.6,176.433C637.6,175.55 638.317,174.833 639.2,174.833C640.083,174.833 640.8,175.55 640.8,176.433L640.8,193.988L637.6,193.988L637.6,176.433Z" style="fill:none;stroke:#d9d9d9;stroke-width:2.67px;stroke-linejoin:round;stroke-miterlimit:2;"/>
                        <path d="M644,176.433C644,175.55 644.717,174.833 645.6,174.833C646.483,174.833 647.2,175.55 647.2,176.433L647.2,193.988L644,193.988L644,176.433Z" style="fill:none;stroke:#d9d9d9;stroke-width:2.67px;stroke-linejoin:round;stroke-miterlimit:2;"/>
                        <path d="M650.4,176.433C650.4,175.55 651.117,174.833 652,174.833C652.883,174.833 653.6,175.55 653.6,176.433L653.6,193.988L650.4,193.988L650.4,176.433Z" style="fill:none;stroke:#d9d9d9;stroke-width:2.67px;stroke-linejoin:round;stroke-miterlimit:2;"/>
                        <path d="M656.8,176.433C656.8,175.55 657.517,174.833 658.4,174.833C659.283,174.833 660,175.55 660,176.433L660,193.988L656.8,193.988L656.8,176.433Z" style="fill:none;stroke:#d9d9d9;stroke-width:2.67px;stroke-linejoin:round;stroke-miterlimit:2;"/>
                        <path d="M663.2,176.433C663.2,175.55 663.917,174.833 664.8,174.833C665.683,174.833 666.4,175.55 666.4,176.433L666.4,193.988L663.2,193.988L663.2,176.433Z" style="fill:none;stroke:#d9d9d9;stroke-width:2.67px;stroke-linejoin:round;stroke-miterlimit:2;"/>
                        <path d="M669.6,176.433C669.6,175.55 670.317,174.833 671.2,174.833C672.083,174.833 672.8,175.55 672.8,176.433L672.8,193.988L669.6,193.988L669.6,176.433Z" style="fill:none;stroke:#d9d9d9;stroke-width:2.67px;stroke-linejoin:round;stroke-miterlimit:2;"/>
                        <path d="M688,176.433C688,175.55 688.717,174.833 689.6,174.833C690.483,174.833 691.2,175.55 691.2,176.433L691.2,193.988L688,193.988L688,176.433Z" style="fill:none;stroke:#d9d9d9;stroke-width:2.67px;stroke-linejoin:round;stroke-miterlimit:2;"/>
                        <path d="M694.4,176.433C694.4,175.55 695.117,174.833 696,174.833C696.883,174.833 697.6,175.55 697.6,176.433L697.6,193.988L694.4,193.988L694.4,176.433Z" style="fill:none;stroke:#d9d9d9;stroke-width:2.67px;stroke-linejoin:round;stroke-miterlimit:2;"/>
                        <path d="M700.8,176.433C700.8,175.55 701.517,174.833 702.4,174.833C703.283,174.833 704,175.55 704,176.433L704,193.988L700.8,193.988L700.8,176.433Z" style="fill:none;stroke:#d9d9d9;stroke-width:2.67px;stroke-linejoin:round;stroke-miterlimit:2;"/>
                        <path d="M707.2,176.433C707.2,175.55 707.917,174.833 708.8,174.833C709.683,174.833 710.4,175.55 710.4,176.433L710.4,193.988L707.2,193.988L707.2,176.433Z" style="fill:none;stroke:#d9d9d9;stroke-width:2.67px;stroke-linejoin:round;stroke-miterlimit:2;"/>
                        <path d="M713.6,176.433C713.6,175.55 714.317,174.833 715.2,174.833C716.083,174.833 716.8,175.55 716.8,176.433L716.8,193.988L713.6,193.988L713.6,176.433Z" style="fill:none;stroke:#d9d9d9;stroke-width:2.67px;stroke-linejoin:round;stroke-miterlimit:2;"/>
                        <path d="M720,176.433C720,175.55 720.717,174.833 721.6,174.833C722.483,174.833 723.2,175.55 723.2,176.433L723.2,193.988L720,193.988L720,176.433Z" style="fill:none;stroke:#d9d9d9;stroke-width:2.67px;stroke-linejoin:round;stroke-miterlimit:2;"/>
                        <path d="M726.4,176.433C726.4,175.55 727.117,174.833 728,174.833C728.883,174.833 729.6,175.55 729.6,176.433L729.6,193.988L726.4,193.988L726.4,176.433Z" style="fill:none;stroke:#d9d9d9;stroke-width:2.67px;stroke-linejoin:round;stroke-miterlimit:2;"/>
                        <path d="M732.8,176.433C732.8,175.55 733.517,174.833 734.4,174.833C735.283,174.833 736,175.55 736,176.433L736,193.988L732.8,193.988L732.8,176.433Z" style="fill:none;stroke:#d9d9d9;stroke-width:2.67px;stroke-linejoin:round;stroke-miterlimit:2;"/>
                        <path d="M739.2,176.433C739.2,175.55 739.917,174.833 740.8,174.833C741.683,174.833 742.4,175.55 742.4,176.433L742.4,193.988L739.2,193.988L739.2,176.433Z" style="fill:none;stroke:#d9d9d9;stroke-width:2.67px;stroke-linejoin:round;stroke-miterlimit:2;"/>
                        <path d="M745.6,176.433C745.6,175.55 746.317,174.833 747.2,174.833C748.083,174.833 748.8,175.55 748.8,176.433L748.8,193.988L745.6,193.988L745.6,176.433Z" style="fill:none;stroke:#d9d9d9;stroke-width:2.67px;stroke-linejoin:round;stroke-miterlimit:2;"/>
                        <path d="M752,176.433C752,175.55 752.717,174.833 753.6,174.833C754.483,174.833 755.2,175.55 755.2,176.433L755.2,193.988L752,193.988L752,176.433Z" style="fill:none;stroke:#d9d9d9;stroke-width:2.67px;stroke-linejoin:round;stroke-miterlimit:2;"/>
                        <path d="M758.4,176.433C758.4,175.55 759.117,174.833 760,174.833C760.883,174.833 761.6,175.55 761.6,176.433L761.6,193.988L758.4,193.988L758.4,176.433Z" style="fill:none;stroke:#d9d9d9;stroke-width:2.67px;stroke-linejoin:round;stroke-miterlimit:2;"/>
                        <path d="M764.8,176.433C764.8,175.55 765.517,174.833 766.4,174.833C767.283,174.833 768,175.55 768,176.433L768,193.988L764.8,193.988L764.8,176.433Z" style="fill:none;stroke:#d9d9d9;stroke-width:2.67px;stroke-linejoin:round;stroke-miterlimit:2;"/>
                        <path d="M771.2,176.433C771.2,175.55 771.917,174.833 772.8,174.833C773.683,174.833 774.4,175.55 774.4,176.433L774.4,193.988L771.2,193.988L771.2,176.433Z" style="fill:none;stroke:#d9d9d9;stroke-width:2.67px;stroke-linejoin:round;stroke-miterlimit:2;"/>
                        <path d="M777.6,176.433C777.6,175.55 778.317,174.833 779.2,174.833C780.083,174.833 780.8,175.55 780.8,176.433L780.8,193.988L777.6,193.988L777.6,176.433Z" style="fill:none;stroke:#d9d9d9;stroke-width:2.67px;stroke-linejoin:round;stroke-miterlimit:2;"/>
                        <path d="M784,176.433C784,175.55 784.717,174.833 785.6,174.833C786.483,174.833 787.2,175.55 787.2,176.433L787.2,193.988L784,193.988L784,176.433Z" style="fill:none;stroke:#d9d9d9;stroke-width:2.67px;stroke-linejoin:round;stroke-miterlimit:2;"/>
                        <path d="M790.4,176.433C790.4,175.55 791.117,174.833 792,174.833C792.883,174.833 793.6,175.55 793.6,176.433L793.6,193.988L790.4,193.988L790.4,176.433Z" style="fill:none;stroke:#d9d9d9;stroke-width:2.67px;stroke-linejoin:round;stroke-miterlimit:2;"/>
                        <path d="M796.8,176.433C796.8,175.55 797.517,174.833 798.4,174.833C799.283,174.833 800,175.55 800,176.433L800,193.988L796.8,193.988L796.8,176.433Z" style="fill:none;stroke:#d9d9d9;stroke-width:2.67px;stroke-linejoin:round;stroke-miterlimit:2;"/>
                        <path d="M803.2,176.433C803.2,175.55 803.917,174.833 804.8,174.833C805.683,174.833 806.4,175.55 806.4,176.433L806.4,193.988L803.2,193.988L803.2,176.433Z" style="fill:none;stroke:#d9d9d9;stroke-width:2.67px;stroke-linejoin:round;stroke-miterlimit:2;"/>
                        <path d="M809.6,176.433C809.6,175.55 810.317,174.833 811.2,174.833C812.083,174.833 812.8,175.55 812.8,176.433L812.8,193.988L809.6,193.988L809.6,176.433Z" style="fill:none;stroke:#d9d9d9;stroke-width:2.67px;stroke-linejoin:round;stroke-miterlimit:2;"/>
                        <path d="M816,176.433C816,175.55 816.717,174.833 817.6,174.833C818.483,174.833 819.2,175.55 819.2,176.433L819.2,193.988L816,193.988L816,176.433Z" style="fill:none;stroke:#d9d9d9;stroke-width:2.67px;stroke-linejoin:round;stroke-miterlimit:2;"/>
                        <path d="M822.4,176.433C822.4,175.55 823.117,174.833 824,174.833C824.883,174.833 825.6,175.55 825.6,176.433L825.6,193.988L822.4,193.988L822.4,176.433Z" style="fill:none;stroke:#d9d9d9;stroke-width:2.67px;stroke-linejoin:round;stroke-miterlimit:2;"/>
                        <path d="M828.8,176.433C828.8,175.55 829.517,174.833 830.4,174.833C831.283,174.833 832,175.55 832,176.433L832,193.988L828.8,193.988L828.8,176.433Z" style="fill:none;stroke:#d9d9d9;stroke-width:2.67px;stroke-linejoin:round;stroke-miterlimit:2;"/>
                        <path d="M835.2,176.433C835.2,175.55 835.917,174.833 836.8,174.833C837.683,174.833 838.4,175.55 838.4,176.433L838.4,193.988L835.2,193.988L835.2,176.433Z" style="fill:none;stroke:#d9d9d9;stroke-width:2.67px;stroke-linejoin:round;stroke-miterlimit:2;"/>
                        <path d="M841.6,176.433C841.6,175.55 842.317,174.833 843.2,174.833C844.083,174.833 844.8,175.55 844.8,176.433L844.8,193.988L841.6,193.988L841.6,176.433Z" style="fill:none;stroke:#d9d9d9;stroke-width:2.67px;stroke-linejoin:round;stroke-miterlimit:2;"/>
                        <path d="M848,176.433C848,175.55 848.717,174.833 849.6,174.833C850.483,174.833 851.2,175.55 851.2,176.433L851.2,193.988L848,193.988L848,176.433Z" style="fill:none;stroke:#d9d9d9;stroke-width:2.67px;stroke-linejoin:round;stroke-miterlimit:2;"/>
                        <path d="M854.4,176.433C854.4,175.55 855.117,174.833 856,174.833C856.883,174.833 857.6,175.55 857.6,176.433L857.6,193.988L854.4,193.988L854.4,176.433Z" style="fill:none;stroke:#d9d9d9;stroke-width:2.67px;stroke-linejoin:round;stroke-miterlimit:2;"/>
                        <path d="M860.8,176.433C860.8,175.55 861.517,174.833 862.4,174.833C863.283,174.833 864,175.55 864,176.433L864,193.988L860.8,193.988L860.8,176.433Z" style="fill:none;stroke:#d9d9d9;stroke-width:2.67px;stroke-linejoin:round;stroke-miterlimit:2;"/>
                        <path d="M867.2,176.433C867.2,175.55 867.917,174.833 868.8,174.833C869.683,174.833 870.4,175.55 870.4,176.433L870.4,193.988L867.2,193.988L867.2,176.433Z" style="fill:none;stroke:#d9d9d9;stroke-width:2.67px;stroke-linejoin:round;stroke-miterlimit:2;"/>
                        <path d="M873.6,176.433C873.6,175.55 874.317,174.833 875.2,174.833C876.083,174.833 876.8,175.55 876.8,176.433L876.8,193.988L873.6,193.988L873.6,176.433Z" style="fill:none;stroke:#d9d9d9;stroke-width:2.67px;stroke-linejoin:round;stroke-miterlimit:2;"/>
                        <path d="M880,176.433C880,175.55 880.717,174.833 881.6,174.833C882.483,174.833 883.2,175.55 883.2,176.433L883.2,193.988L880,193.988L880,176.433Z" style="fill:none;stroke:#d9d9d9;stroke-width:2.67px;stroke-linejoin:round;stroke-miterlimit:2;"/>
                        <path d="M886.4,176.433C886.4,175.55 887.117,174.833 888,174.833C888.883,174.833 889.6,175.55 889.6,176.433L889.6,193.988L886.4,193.988L886.4,176.433Z" style="fill:none;stroke:#d9d9d9;stroke-width:2.67px;stroke-linejoin:round;stroke-miterlimit:2;"/>
                        <path d="M892.8,176.433C892.8,175.55 893.517,174.833 894.4,174.833C895.283,174.833 896,175.55 896,176.433L896,193.988L892.8,193.988L892.8,176.433Z" style="fill:none;stroke:#d9d9d9;stroke-width:2.67px;stroke-linejoin:round;stroke-miterlimit:2;"/>
                        <path d="M899.2,176.433C899.2,175.55 899.917,174.833 900.8,174.833C901.683,174.833 902.4,175.55 902.4,176.433L902.4,193.988L899.2,193.988L899.2,176.433Z" style="fill:none;stroke:#d9d9d9;stroke-width:2.67px;stroke-linejoin:round;stroke-miterlimit:2;"/>
                        <path d="M905.6,176.433C905.6,175.55 906.317,174.833 907.2,174.833C908.083,174.833 908.8,175.55 908.8,176.433L908.8,193.988L905.6,193.988L905.6,176.433Z" style="fill:none;stroke:#d9d9d9;stroke-width:2.67px;stroke-linejoin:round;stroke-miterlimit:2;"/>
                        <path d="M912,176.433C912,175.55 912.717,174.833 913.6,174.833C914.483,174.833 915.2,175.55 915.2,176.433L915.2,193.988L912,193.988L912,176.433Z" style="fill:none;stroke:#d9d9d9;stroke-width:2.67px;stroke-linejoin:round;stroke-miterlimit:2;"/>
                        <path d="M918.4,176.433C918.4,175.55 919.117,174.833 920,174.833C920.883,174.833 921.6,175.55 921.6,176.433L921.6,193.988L918.4,193.988L918.4,176.433Z" style="fill:none;stroke:#d9d9d9;stroke-width:2.67px;stroke-linejoin:round;stroke-miterlimit:2;"/>
                        <path d="M924.8,176.433C924.8,175.55 925.517,174.833 926.4,174.833C927.283,174.833 928,175.55 928,176.433L928,193.988L924.8,193.988L924.8,176.433Z" style="fill:none;stroke:#d9d9d9;stroke-width:2.67px;stroke-linejoin:round;stroke-miterlimit:2;"/>
                        <path d="M931.2,176.433C931.2,175.55 931.917,174.833 932.8,174.833C933.683,174.833 934.4,175.55 934.4,176.433L934.4,193.988L931.2,193.988L931.2,176.433Z" style="fill:none;stroke:#d9d9d9;stroke-width:2.67px;stroke-linejoin:round;stroke-miterlimit:2;"/>
                        <path d="M937.6,176.433C937.6,175.55 938.317,174.833 939.2,174.833C940.083,174.833 940.8,175.55 940.8,176.433L940.8,193.988L937.6,193.988L937.6,176.433Z" style="fill:none;stroke:#d9d9d9;stroke-width:2.67px;stroke-linejoin:round;stroke-miterlimit:2;"/>
                        <path d="M944,176.433C944,175.55 944.717,174.833 945.6,174.833C946.483,174.833 947.2,175.55 947.2,176.433L947.2,193.988L944,193.988L944,176.433Z" style="fill:none;stroke:#d9d9d9;stroke-width:2.67px;stroke-linejoin:round;stroke-miterlimit:2;"/>
                    </g>
                </g>
                <path d="M633.724,213.601L633.724,172.595L676.51,172.595L676.51,198.545C676.51,200.907 678.427,202.824 680.789,202.824C683.15,202.824 685.067,200.907 685.067,198.545L685.067,172.595L949.227,172.595L949.227,196.127C949.227,198.489 951.144,200.406 953.505,200.406L956.463,200.406C958.825,200.406 960.741,198.489 960.741,196.127L960.741,181.152L994.97,181.152C1005.67,181.152 1003.53,200.406 1003.53,200.406L984.274,200.406C984.274,200.406 977.856,201.475 977.856,207.893C977.856,210.45 977.853,214.875 977.85,219.272L977.796,219.199L812.8,219.199C805.411,219.973 804.542,223.757 806.4,228.799L809.076,231.824C806.261,229.944 803.529,228.188 800.894,226.571C787.231,218.188 775.806,213.601 768.64,213.601L633.724,213.601Z" style="fill:none;fill-rule:nonzero;stroke:#d9d9d9;stroke-width:2.67px;stroke-linejoin:round;stroke-miterlimit:2;"/>
                <path d="M1470.42,400.812C1470.42,487.859 1399.86,558.424 1312.81,558.424C1225.77,558.424 1155.2,487.859 1155.2,400.812C1155.2,313.765 1225.77,243.201 1312.81,243.201C1399.86,243.201 1470.42,313.765 1470.42,400.812" style="fill:none;fill-rule:nonzero;"/>
                <clipPath id="_clip4">
                    <path d="M1470.42,400.812C1470.42,487.859 1399.86,558.424 1312.81,558.424C1225.77,558.424 1155.2,487.859 1155.2,400.812C1155.2,313.765 1225.77,243.201 1312.81,243.201C1399.86,243.201 1470.42,313.765 1470.42,400.812" clip-rule="nonzero"/>
                </clipPath>
                <g clip-path="url(#_clip4)">
                    <path d="M1287.92,445.066C1295.08,448.245 1303.01,450.012 1311.35,450.012C1313.78,450.012 1316.19,449.861 1318.54,449.567C1330.38,470.914 1352.33,476.3 1357.6,536.93C1358.95,552.404 1335.8,568.038 1311.2,564.801C1288.18,561.771 1270.86,553.371 1264.8,552.001C1300.69,528.67 1304.8,476.93 1286.4,449.73C1286.51,449.193 1287.06,447.523 1287.92,445.066ZM1357.52,426.96C1381.24,434.044 1400.51,421.827 1447.48,461.284C1459.37,471.275 1454.06,498.696 1434.38,513.802C1415.96,527.935 1397.77,534.244 1392.52,537.561C1401.4,495.688 1367.72,456.193 1335.48,449.97C1335.17,449.521 1334.4,447.99 1333.3,445.693C1342.97,441.718 1351.32,435.196 1357.52,426.96ZM1257.13,412.219C1260.74,422.004 1266.91,430.545 1274.85,437.019C1267.84,460.691 1279.95,479.968 1240.56,526.864C1230.57,538.758 1203.14,533.446 1188.04,513.762C1173.9,495.345 1167.6,477.155 1164.28,471.901C1206.15,480.779 1245.65,447.102 1251.87,414.858C1252.38,414.518 1254.29,413.563 1257.13,412.219ZM1368.55,384.167C1391.3,372.568 1395.4,349.644 1457.55,344.24C1473.02,342.894 1488.65,366.04 1485.42,390.64C1482.39,413.656 1473.99,430.98 1472.62,437.04C1449.29,401.154 1397.55,397.04 1370.35,415.44C1369.76,415.323 1367.83,414.682 1365,413.674C1367.65,407.051 1369.11,399.821 1369.11,392.25C1369.11,389.507 1368.92,386.808 1368.55,384.167ZM1253.79,397.118C1231.15,408.737 1226.94,431.59 1164.91,436.984C1149.43,438.33 1133.8,415.184 1137.04,390.584C1140.07,367.568 1148.47,350.244 1149.84,344.184C1173.17,380.07 1224.91,384.184 1252.11,365.784C1252.79,365.92 1255.28,366.761 1258.88,368.062C1255.48,375.422 1253.59,383.615 1253.59,392.25C1253.59,393.89 1253.65,395.514 1253.79,397.118ZM1346.82,346.661C1355.52,321.828 1341.15,302.871 1381.9,254.36C1391.89,242.466 1419.31,247.777 1434.42,267.461C1448.55,285.878 1454.86,304.069 1458.18,309.322C1416.3,300.444 1376.81,334.121 1370.59,366.365C1370.02,366.74 1367.76,367.862 1364.42,369.43C1360.55,360.428 1354.45,352.608 1346.82,346.661ZM1267.2,354.996C1242.41,346.354 1223.44,360.647 1174.98,319.94C1163.08,309.949 1168.39,282.527 1188.08,267.422C1206.49,253.289 1224.68,246.979 1229.94,243.663C1221.06,285.536 1254.74,325.031 1286.98,331.253C1287.39,331.868 1288.69,334.51 1290.49,338.368C1281.39,341.895 1273.4,347.664 1267.2,354.996ZM1305.51,334.78C1294.17,310.694 1270.38,307.769 1264.86,244.294C1263.51,228.819 1286.66,213.185 1311.26,216.423C1334.27,219.452 1351.6,227.853 1357.66,229.223C1321.77,252.554 1317.66,304.294 1336.06,331.494C1335.91,332.212 1334.98,334.961 1333.54,338.908C1326.71,336.062 1319.21,334.489 1311.35,334.489C1309.38,334.489 1307.43,334.588 1305.51,334.78Z" style="fill:none;fill-rule:nonzero;stroke:#c7c7c7;stroke-width:2.67px;stroke-linejoin:round;stroke-miterlimit:2;"/>
                </g>
                <path d="M1470.42,400.812C1470.42,487.859 1399.86,558.424 1312.81,558.424C1225.77,558.424 1155.2,487.859 1155.2,400.812C1155.2,313.765 1225.77,243.201 1312.81,243.201C1399.86,243.201 1470.42,313.765 1470.42,400.812" style="fill:none;fill-rule:nonzero;stroke:#d9d9d9;stroke-width:2.67px;stroke-linejoin:round;stroke-miterlimit:2;"/>
                <g>
                    <path d="M1369.11,392.25C1369.11,424.152 1343.25,450.012 1311.35,450.012C1279.44,450.012 1253.59,424.152 1253.59,392.25C1253.59,360.349 1279.44,334.489 1311.35,334.489C1343.25,334.489 1369.11,360.349 1369.11,392.25" style="fill:none;fill-rule:nonzero;stroke:#d9d9d9;stroke-width:2.67px;stroke-linejoin:round;stroke-miterlimit:2;"/>
                </g>
            </g>
        </g>
    </g>
    <defs>
        <radialGradient id="_Radial1" cx="0" cy="0" r="1" gradientUnits="userSpaceOnUse" gradientTransform="matrix(945.505,0,0,945.505,959.01,400)"><stop offset="0" style="stop-color:#fff;stop-opacity:0.1"/><stop offset="1" style="stop-color:#fff;stop-opacity:0"/></radialGradient>
    </defs>
</svg>
