<?xml version="1.0" encoding="UTF-8" standalone="no"?>
<!DOCTYPE svg PUBLIC "-//W3C//DTD SVG 1.1//EN" "http://www.w3.org/Graphics/SVG/1.1/DTD/svg11.dtd">
<svg width="100%" height="100%" viewBox="0 0 932 315" version="1.1" xmlns="http://www.w3.org/2000/svg" xmlns:xlink="http://www.w3.org/1999/xlink" xml:space="preserve" xmlns:serif="http://www.serif.com/" style="fill-rule:evenodd;clip-rule:evenodd;stroke-linejoin:round;stroke-miterlimit:2;">
    <path id="Triangle_1" d="M154.8,220.055L56.4,49.619L253.2,49.619L154.8,220.055Z" style="fill:#005a9c;fill-rule:nonzero;"/>
    <path id="Triangle_2" d="M252.3,49.619L203.048,134.633L301.548,134.633L252.3,49.619Z" style="fill:#0066b0;fill-rule:nonzero;"/>
    <path id="Triangle_3" d="M252.3,219.646L203.048,134.633L301.548,134.633L252.3,219.646Z" style="fill:#0076cc;fill-rule:nonzero;"/>
    <path id="Triangle_4" d="M301.349,135.041L276.621,92.535L326.077,92.535L301.349,135.041Z" style="fill:#0086e8;fill-rule:nonzero;"/>
    <path id="Triangle_5" d="M301.349,50.028L276.621,92.535L326.077,92.535L301.349,50.028Z" style="fill:#0093ff;fill-rule:nonzero;"/>
    <path id="ebGPU" d="M397.927,170C398.055,162.128 396.176,154.351 392.468,147.406C388.885,140.802 383.494,135.354 376.929,131.7C369.836,127.799 361.841,125.829 353.747,125.989C345.455,125.825 337.262,127.825 329.977,131.789C323.126,135.616 317.548,141.37 313.935,148.336C310.126,155.504 308.222,163.847 308.223,173.365C308.224,182.883 310.184,191.254 314.103,198.479C317.805,205.479 323.43,211.279 330.313,215.193C337.469,219.183 345.555,221.211 353.747,221.073C364.721,221.073 373.904,218.301 381.297,212.758C388.528,207.448 393.742,199.833 396.079,191.172L379.617,191.172C377.927,196.187 374.655,200.521 370.294,203.519C365.868,206.6 360.352,208.139 353.747,208.138C346.165,208.317 338.796,205.58 333.169,200.495C327.513,195.4 324.405,188.317 323.846,179.245L397.423,179.245C397.748,176.176 397.915,173.092 397.923,170.006L397.927,170ZM382.138,166.808L324.014,166.808C324.796,158.075 327.904,151.243 333.337,146.314C338.719,141.406 345.793,138.757 353.075,138.923C358.163,138.858 363.196,139.979 367.775,142.198C372.122,144.314 375.769,147.639 378.275,151.773C380.943,156.324 382.282,161.534 382.138,166.808ZM433.371,144.634L433.371,95.246L418.084,95.246L418.084,219.554L433.371,219.554L433.371,202.588C436.589,208.157 441.265,212.746 446.894,215.858C453.275,219.43 460.497,221.229 467.808,221.066C483.797,221.286 498.571,212.329 505.772,198.052C509.677,190.356 511.639,181.819 511.484,173.19C511.484,163.783 509.58,155.524 505.772,148.413C502.202,141.555 496.792,135.824 490.15,131.866C483.38,127.904 475.652,125.87 467.808,125.987C460.581,125.86 453.449,127.657 447.146,131.194C441.425,134.346 436.664,138.991 433.371,144.633L433.371,144.634ZM495.861,173.191C496.017,179.578 494.573,185.904 491.661,191.591C489.088,196.56 485.155,200.697 480.323,203.518C475.548,206.266 470.125,207.687 464.616,207.633C459.162,207.673 453.796,206.252 449.077,203.518C444.232,200.686 440.274,196.554 437.655,191.591C431.947,180.179 431.947,166.718 437.655,155.306C440.275,150.343 444.232,146.211 449.077,143.379C453.797,140.646 459.162,139.225 464.616,139.264C470.114,139.209 475.531,140.599 480.323,143.295C485.147,146.052 489.082,150.133 491.661,155.054C494.566,160.651 496.011,166.892 495.861,173.196L495.861,173.191ZM638.647,136.4C634.672,125.691 627.332,116.553 617.733,110.362C608.158,104.205 597.155,101.125 584.724,101.123C574.314,101.007 564.055,103.644 554.991,108.766C546.092,113.802 538.742,121.181 533.741,130.1C528.462,139.505 525.766,150.142 525.929,160.926C525.759,171.684 528.455,182.296 533.741,191.667C538.76,200.55 546.108,207.898 554.991,212.917C564.054,218.041 574.313,220.678 584.724,220.56C594.518,220.687 604.182,218.286 612.777,213.589C621.038,209.07 628.028,202.541 633.1,194.608C638.23,186.658 641.344,177.576 642.171,168.151L642.171,156.392L579.181,156.392L579.181,168.823L625.881,168.823C624.648,180.471 620.337,189.71 612.946,196.54C605.555,203.37 596.148,206.786 584.725,206.787C576.994,206.902 569.369,204.96 562.635,201.16C556.064,197.39 550.703,191.824 547.181,185.117C543.427,178.175 541.551,170.112 541.553,160.928C541.555,151.744 543.431,143.653 547.181,136.654C550.686,129.913 556.05,124.316 562.635,120.527C569.369,116.728 576.994,114.786 584.725,114.9C592.275,114.735 599.723,116.685 606.225,120.527C612.4,124.299 617.314,129.826 620.337,136.4L638.647,136.4ZM740.614,136.736C740.614,126.657 737.17,118.426 730.282,112.042C723.394,105.658 713.343,102.466 700.129,102.467L662.329,102.467L662.329,219.554L677.615,219.554L677.615,170.671L700.125,170.671C713.787,170.671 723.95,167.451 730.614,161.012C737.278,154.573 740.611,146.481 740.614,136.738L740.614,136.736ZM700.129,158.07L677.619,158.07L677.619,115.07L700.129,115.07C716.702,115.07 724.989,122.293 724.991,136.74C724.991,143.572 722.975,148.835 718.944,152.53C714.913,156.225 708.641,158.073 700.129,158.074L700.129,158.07ZM759.259,102.469L759.259,176.383C759.259,186.126 761.191,194.329 765.054,200.993C768.684,207.437 774.194,212.624 780.845,215.859C795.082,222.351 811.46,222.351 825.697,215.859C832.36,212.611 837.893,207.429 841.571,200.993C845.49,194.331 847.45,186.128 847.451,176.383L847.451,102.469L832.164,102.469L832.164,176.55C832.164,186.965 829.616,194.693 824.521,199.732C819.426,204.771 812.398,207.291 803.439,207.291C794.368,207.291 787.285,204.771 782.189,199.732C777.093,194.693 774.545,186.965 774.546,176.55L774.546,102.469L759.259,102.469Z" style="fill:currentColor;fill-rule:nonzero;"/>
</svg>
